v 0.00000000 0.18705441 1.43909991
v 0.27138376 0.09352721 1.43909991
v 0.48386252 0.18705441 0.52650005
v 0.00000000 0.18705441 1.43909991
v 0.48386252 0.18705441 0.52650005
v 0.00000000 0.37410882 0.52650005
v 0.27138376 0.09352721 1.43909991
v 0.27138376 -0.07507201 1.43909991
v 0.48386252 -0.16515839 0.52650005
v 0.27138376 0.09352721 1.43909991
v 0.48386252 -0.16515839 0.52650005
v 0.48386252 0.18705441 0.52650005
v 0.27138376 -0.07507201 1.43909991
v 0.00000000 -0.15014401 1.43909991
v 0.00000000 -0.33031678 0.52650005
v 0.27138376 -0.07507201 1.43909991
v 0.00000000 -0.33031678 0.52650005
v 0.48386252 -0.16515839 0.52650005
v 0.00000000 -0.15014401 1.43909991
v -0.27138376 -0.07507201 1.43909991
v -0.48386252 -0.16515839 0.52650005
v 0.00000000 -0.15014401 1.43909991
v -0.48386252 -0.16515839 0.52650005
v 0.00000000 -0.33031678 0.52650005
v -0.27138376 -0.07507201 1.43909991
v -0.27138376 0.09352721 1.43909991
v -0.48386252 0.18705441 0.52650005
v -0.27138376 -0.07507201 1.43909991
v -0.48386252 0.18705441 0.52650005
v -0.48386252 -0.16515839 0.52650005
v -0.27138376 0.09352721 1.43909991
v 0.00000000 0.18705441 1.43909991
v 0.00000000 0.37410882 0.52650005
v -0.27138376 0.09352721 1.43909991
v 0.00000000 0.37410882 0.52650005
v -0.48386252 0.18705441 0.52650005
v 0.00000000 0.37410882 0.52650005
v 0.48386252 0.18705441 0.52650005
v 0.52593750 0.20332000 0.00000000
v 0.00000000 0.37410882 0.52650005
v 0.52593750 0.20332000 0.00000000
v 0.00000000 0.40663999 0.00000000
v 0.48386252 0.18705441 0.52650005
v 0.48386252 -0.16515839 0.52650005
v 0.52593750 -0.18768001 0.00000000
v 0.48386252 0.18705441 0.52650005
v 0.52593750 -0.18768001 0.00000000
v 0.52593750 0.20332000 0.00000000
v 0.48386252 -0.16515839 0.52650005
v 0.00000000 -0.33031678 0.52650005
v 0.00000000 -0.37536001 0.00000000
v 0.48386252 -0.16515839 0.52650005
v 0.00000000 -0.37536001 0.00000000
v 0.52593750 -0.18768001 0.00000000
v 0.00000000 -0.33031678 0.52650005
v -0.48386252 -0.16515839 0.52650005
v -0.52593750 -0.18768001 0.00000000
v 0.00000000 -0.33031678 0.52650005
v -0.52593750 -0.18768001 0.00000000
v 0.00000000 -0.37536001 0.00000000
v -0.48386252 -0.16515839 0.52650005
v -0.48386252 0.18705441 0.52650005
v -0.52593750 0.20332000 0.00000000
v -0.48386252 -0.16515839 0.52650005
v -0.52593750 0.20332000 0.00000000
v -0.52593750 -0.18768001 0.00000000
v -0.48386252 0.18705441 0.52650005
v 0.00000000 0.37410882 0.52650005
v 0.00000000 0.40663999 0.00000000
v -0.48386252 0.18705441 0.52650005
v 0.00000000 0.40663999 0.00000000
v -0.52593750 0.20332000 0.00000000
v 0.00000000 0.40663999 0.00000000
v 0.52593750 0.20332000 0.00000000
v 0.41023126 0.10979281 -1.08809996
v 0.00000000 0.40663999 0.00000000
v 0.41023126 0.10979281 -1.08809996
v 0.00000000 0.21958561 -1.08809996
v 0.52593750 0.20332000 0.00000000
v 0.52593750 -0.18768001 0.00000000
v 0.41023126 -0.10885440 -1.08809996
v 0.52593750 0.20332000 0.00000000
v 0.41023126 -0.10885440 -1.08809996
v 0.41023126 0.10979281 -1.08809996
v 0.52593750 -0.18768001 0.00000000
v 0.00000000 -0.37536001 0.00000000
v 0.00000000 -0.21770880 -1.08809996
v 0.52593750 -0.18768001 0.00000000
v 0.00000000 -0.21770880 -1.08809996
v 0.41023126 -0.10885440 -1.08809996
v 0.00000000 -0.37536001 0.00000000
v -0.52593750 -0.18768001 0.00000000
v -0.41023126 -0.10885440 -1.08809996
v 0.00000000 -0.37536001 0.00000000
v -0.41023126 -0.10885440 -1.08809996
v 0.00000000 -0.21770880 -1.08809996
v -0.52593750 -0.18768001 0.00000000
v -0.52593750 0.20332000 0.00000000
v -0.41023126 0.10979281 -1.08809996
v -0.52593750 -0.18768001 0.00000000
v -0.41023126 0.10979281 -1.08809996
v -0.41023126 -0.10885440 -1.08809996
v -0.52593750 0.20332000 0.00000000
v 0.00000000 0.40663999 0.00000000
v 0.00000000 0.21958561 -1.08809996
v -0.52593750 0.20332000 0.00000000
v 0.00000000 0.21958561 -1.08809996
v -0.41023126 0.10979281 -1.08809996
v 0.00000000 0.21958561 -1.08809996
v 0.41023126 0.10979281 -1.08809996
v 0.29452500 0.06099600 -1.47420001
v 0.00000000 0.21958561 -1.08809996
v 0.29452500 0.06099600 -1.47420001
v 0.00000000 0.12199200 -1.47420001
v 0.41023126 0.10979281 -1.08809996
v 0.41023126 -0.10885440 -1.08809996
v 0.29452500 -0.06381120 -1.47420001
v 0.41023126 0.10979281 -1.08809996
v 0.29452500 -0.06381120 -1.47420001
v 0.29452500 0.06099600 -1.47420001
v 0.41023126 -0.10885440 -1.08809996
v 0.00000000 -0.21770880 -1.08809996
v 0.00000000 -0.12762240 -1.47420001
v 0.41023126 -0.10885440 -1.08809996
v 0.00000000 -0.12762240 -1.47420001
v 0.29452500 -0.06381120 -1.47420001
v 0.00000000 -0.21770880 -1.08809996
v -0.41023126 -0.10885440 -1.08809996
v -0.29452500 -0.06381120 -1.47420001
v 0.00000000 -0.21770880 -1.08809996
v -0.29452500 -0.06381120 -1.47420001
v 0.00000000 -0.12762240 -1.47420001
v -0.41023126 -0.10885440 -1.08809996
v -0.41023126 0.10979281 -1.08809996
v -0.29452500 0.06099600 -1.47420001
v -0.41023126 -0.10885440 -1.08809996
v -0.29452500 0.06099600 -1.47420001
v -0.29452500 -0.06381120 -1.47420001
v -0.41023126 0.10979281 -1.08809996
v 0.00000000 0.21958561 -1.08809996
v 0.00000000 0.12199200 -1.47420001
v -0.41023126 0.10979281 -1.08809996
v 0.00000000 0.12199200 -1.47420001
v -0.29452500 0.06099600 -1.47420001
v 0.00000000 0.00000000 1.43909991
v 0.27138376 0.09352721 1.43909991
v 0.00000000 0.18705441 1.43909991
v 0.00000000 0.00000000 1.43909991
v 0.27138376 -0.07507201 1.43909991
v 0.27138376 0.09352721 1.43909991
v 0.00000000 0.00000000 1.43909991
v 0.00000000 -0.15014401 1.43909991
v 0.27138376 -0.07507201 1.43909991
v 0.00000000 0.00000000 1.43909991
v -0.27138376 -0.07507201 1.43909991
v 0.00000000 -0.15014401 1.43909991
v 0.00000000 0.00000000 1.43909991
v -0.27138376 0.09352721 1.43909991
v -0.27138376 -0.07507201 1.43909991
v 0.00000000 0.00000000 1.43909991
v 0.00000000 0.18705441 1.43909991
v -0.27138376 0.09352721 1.43909991
v 0.00000000 0.00000000 -1.47420001
v 0.00000000 0.12199200 -1.47420001
v 0.29452500 0.06099600 -1.47420001
v 0.00000000 0.00000000 -1.47420001
v 0.29452500 0.06099600 -1.47420001
v 0.29452500 -0.06381120 -1.47420001
v 0.00000000 0.00000000 -1.47420001
v 0.29452500 -0.06381120 -1.47420001
v 0.00000000 -0.12762240 -1.47420001
v 0.00000000 0.00000000 -1.47420001
v 0.00000000 -0.12762240 -1.47420001
v -0.29452500 -0.06381120 -1.47420001
v 0.00000000 0.00000000 -1.47420001
v -0.29452500 -0.06381120 -1.47420001
v -0.29452500 0.06099600 -1.47420001
v 0.00000000 0.00000000 -1.47420001
v -0.29452500 0.06099600 -1.47420001
v 0.00000000 0.12199200 -1.47420001
v 0.57749999 -0.14399999 0.61000001
v 0.57749999 -0.14399999 -1.30999994
v 0.57749999 -0.33600003 -1.30999994
v 0.57749999 -0.14399999 0.61000001
v 0.57749999 -0.33600003 -1.30999994
v 0.57749999 -0.33600003 0.61000001
v 1.76399994 -0.14399999 -0.49499997
v 1.76399994 -0.33600003 -0.49499997
v 1.76399994 -0.33600003 -0.85499996
v 1.76399994 -0.14399999 -0.49499997
v 1.76399994 -0.33600003 -0.85499996
v 1.76399994 -0.14399999 -0.85499996
v 0.57749999 -0.14399999 0.61000001
v 1.76399994 -0.14399999 -0.49499997
v 1.76399994 -0.14399999 -0.85499996
v 0.57749999 -0.14399999 0.61000001
v 1.76399994 -0.14399999 -0.85499996
v 0.57749999 -0.14399999 -1.30999994
v 0.57749999 -0.14399999 -1.30999994
v 1.76399994 -0.14399999 -0.85499996
v 1.76399994 -0.33600003 -0.85499996
v 0.57749999 -0.14399999 -1.30999994
v 1.76399994 -0.33600003 -0.85499996
v 0.57749999 -0.33600003 -1.30999994
v 0.57749999 -0.33600003 -1.30999994
v 1.76399994 -0.33600003 -0.85499996
v 1.76399994 -0.33600003 -0.49499997
v 0.57749999 -0.33600003 -1.30999994
v 1.76399994 -0.33600003 -0.49499997
v 0.57749999 -0.33600003 0.61000001
v 0.57749999 -0.33600003 0.61000001
v 1.76399994 -0.33600003 -0.49499997
v 1.76399994 -0.14399999 -0.49499997
v 0.57749999 -0.33600003 0.61000001
v 1.76399994 -0.14399999 -0.49499997
v 0.57749999 -0.14399999 0.61000001
v -0.57749999 -0.33600003 0.61000001
v -0.57749999 -0.33600003 -1.30999994
v -0.57749999 -0.14399999 -1.30999994
v -0.57749999 -0.33600003 0.61000001
v -0.57749999 -0.14399999 -1.30999994
v -0.57749999 -0.14399999 0.61000001
v -1.76399994 -0.14399999 -0.85499996
v -1.76399994 -0.33600003 -0.85499996
v -1.76399994 -0.33600003 -0.49499997
v -1.76399994 -0.14399999 -0.85499996
v -1.76399994 -0.33600003 -0.49499997
v -1.76399994 -0.14399999 -0.49499997
v -0.57749999 -0.14399999 -1.30999994
v -1.76399994 -0.14399999 -0.85499996
v -1.76399994 -0.14399999 -0.49499997
v -0.57749999 -0.14399999 -1.30999994
v -1.76399994 -0.14399999 -0.49499997
v -0.57749999 -0.14399999 0.61000001
v -0.57749999 -0.33600003 -1.30999994
v -1.76399994 -0.33600003 -0.85499996
v -1.76399994 -0.14399999 -0.85499996
v -0.57749999 -0.33600003 -1.30999994
v -1.76399994 -0.14399999 -0.85499996
v -0.57749999 -0.14399999 -1.30999994
v -0.57749999 -0.33600003 0.61000001
v -1.76399994 -0.33600003 -0.49499997
v -1.76399994 -0.33600003 -0.85499996
v -0.57749999 -0.33600003 0.61000001
v -1.76399994 -0.33600003 -0.85499996
v -0.57749999 -0.33600003 -1.30999994
v -0.57749999 -0.14399999 0.61000001
v -1.76399994 -0.14399999 -0.49499997
v -1.76399994 -0.33600003 -0.49499997
v -0.57749999 -0.14399999 0.61000001
v -1.76399994 -0.33600003 -0.49499997
v -0.57749999 -0.33600003 0.61000001
vn 0.32106870 0.93163091 0.17023136
vn 0.32106870 0.93163091 0.17023136
vn 0.32106870 0.93163091 0.17023136
vn 0.35416535 0.91613632 0.18777928
vn 0.35416535 0.91613632 0.18777928
vn 0.35416535 0.91613632 0.18777928
vn 0.97394997 0.00000000 0.22676277
vn 0.97394997 0.00000000 0.22676277
vn 0.97394997 0.00000000 0.22676277
vn 0.97395003 0.00000000 0.22676280
vn 0.97395003 0.00000000 0.22676280
vn 0.97395003 0.00000000 0.22676280
vn 0.26191440 -0.94681513 0.18692784
vn 0.26191440 -0.94681513 0.18692784
vn 0.26191440 -0.94681513 0.18692784
vn 0.31853622 -0.93321151 0.16628519
vn 0.31853622 -0.93321151 0.16628519
vn 0.31853622 -0.93321151 0.16628519
vn -0.26337871 -0.95210862 0.15530840
vn -0.26337871 -0.95210862 0.15530840
vn -0.26337871 -0.95210862 0.15530840
vn -0.31753838 -0.93028837 0.18366498
vn -0.31753838 -0.93028837 0.18366498
vn -0.31753838 -0.93028837 0.18366498
vn -0.97394997 0.00000000 0.22676277
vn -0.97394997 0.00000000 0.22676277
vn -0.97394997 0.00000000 0.22676277
vn -0.97394997 0.00000000 0.22676277
vn -0.97394997 0.00000000 0.22676277
vn -0.97394997 0.00000000 0.22676277
vn -0.31987378 0.92816365 0.19024451
vn -0.31987378 0.92816365 0.19024451
vn -0.31987378 0.92816365 0.19024451
vn -0.35490471 0.91804880 0.17671737
vn -0.35490471 0.91804880 0.17671737
vn -0.35490471 0.91804880 0.17671737
vn 0.35998231 0.93118334 0.05753559
vn 0.35998231 0.93118334 0.05753559
vn 0.35998231 0.93118334 0.05753559
vn 0.35998231 0.93118334 0.05753558
vn 0.35998231 0.93118334 0.05753558
vn 0.35998231 0.93118334 0.05753558
vn 0.99682206 0.00000000 0.07966052
vn 0.99682206 0.00000000 0.07966052
vn 0.99682206 0.00000000 0.07966052
vn 0.99682206 0.00000000 0.07966052
vn 0.99682206 0.00000000 0.07966052
vn 0.99682206 0.00000000 0.07966052
vn 0.32197994 -0.94330072 0.08070146
vn 0.32197994 -0.94330072 0.08070146
vn 0.32197994 -0.94330072 0.08070146
vn 0.33533540 -0.93971366 0.06699543
vn 0.33533540 -0.93971366 0.06699543
vn 0.33533540 -0.93971366 0.06699543
vn -0.32232594 -0.94431442 0.06615258
vn -0.32232594 -0.94431442 0.06615258
vn -0.32232594 -0.94431442 0.06615258
vn -0.33500481 -0.93878710 0.08031529
vn -0.33500481 -0.93878710 0.08031529
vn -0.33500481 -0.93878710 0.08031529
vn -0.99682206 0.00000000 0.07966052
vn -0.99682206 0.00000000 0.07966052
vn -0.99682206 0.00000000 0.07966052
vn -0.99682206 0.00000000 0.07966051
vn -0.99682206 0.00000000 0.07966051
vn -0.99682206 0.00000000 0.07966051
vn -0.35998231 0.93118334 0.05753559
vn -0.35998231 0.93118334 0.05753559
vn -0.35998231 0.93118334 0.05753559
vn -0.35998228 0.93118328 0.05753558
vn -0.35998228 0.93118328 0.05753558
vn -0.35998228 0.93118328 0.05753558
vn 0.35807365 0.92624611 -0.11769190
vn 0.35807365 0.92624611 -0.11769190
vn 0.35807365 0.92624611 -0.11769190
vn 0.25504431 0.95295078 -0.16382100
vn 0.25504431 0.95295078 -0.16382100
vn 0.25504431 0.95295078 -0.16382100
vn 0.99439365 0.00000000 -0.10574171
vn 0.99439365 0.00000000 -0.10574171
vn 0.99439365 0.00000000 -0.10574171
vn 0.99439359 0.00000000 -0.10574171
vn 0.99439359 0.00000000 -0.10574171
vn 0.99439359 0.00000000 -0.10574171
vn 0.33300439 -0.93318135 -0.13520557
vn 0.33300439 -0.93318135 -0.13520557
vn 0.33300439 -0.93318135 -0.13520557
vn 0.25526798 -0.96200883 -0.09683581
vn 0.25526798 -0.96200883 -0.09683581
vn 0.25526798 -0.96200883 -0.09683581
vn -0.33428860 -0.93678015 -0.10341102
vn -0.33428860 -0.93678015 -0.10341102
vn -0.33428860 -0.93678015 -0.10341102
vn -0.25399476 -0.95721078 -0.13868710
vn -0.25399476 -0.95721078 -0.13868710
vn -0.25399476 -0.95721078 -0.13868710
vn -0.99439365 0.00000000 -0.10574171
vn -0.99439365 0.00000000 -0.10574171
vn -0.99439365 0.00000000 -0.10574171
vn -0.99439365 0.00000000 -0.10574171
vn -0.99439365 0.00000000 -0.10574171
vn -0.99439365 0.00000000 -0.10574171
vn -0.35603181 0.92096436 -0.15832224
vn -0.35603181 0.92096436 -0.15832224
vn -0.35603181 0.92096436 -0.15832224
vn -0.25697231 0.96015465 -0.10985560
vn -0.25697231 0.96015465 -0.10985560
vn -0.25697231 0.96015465 -0.10985560
vn 0.25353765 0.94732136 -0.19570614
vn 0.25353765 0.94732136 -0.19570614
vn 0.25353765 0.94732136 -0.19570614
vn 0.19685583 0.95053703 -0.24026503
vn 0.19685583 0.95053703 -0.24026503
vn 0.19685583 0.95053703 -0.24026503
vn 0.95791078 0.00000000 -0.28706622
vn 0.95791078 0.00000000 -0.28706622
vn 0.95791078 0.00000000 -0.28706622
vn 0.95791072 0.00000000 -0.28706622
vn 0.95791072 0.00000000 -0.28706622
vn 0.95791072 0.00000000 -0.28706622
vn 0.25018996 -0.94287187 -0.21999462
vn 0.25018996 -0.94287187 -0.21999462
vn 0.25018996 -0.94287187 -0.21999462
vn 0.20848741 -0.96228802 -0.17474182
vn 0.20848741 -0.96228802 -0.17474182
vn 0.20848741 -0.96228802 -0.17474182
vn -0.25198320 -0.94962984 -0.18629989
vn -0.25198320 -0.94962984 -0.18629989
vn -0.25198320 -0.94962984 -0.18629989
vn -0.20644575 -0.95286471 -0.22232619
vn -0.20644575 -0.95286471 -0.22232619
vn -0.20644575 -0.95286471 -0.22232619
vn -0.95791078 0.00000000 -0.28706622
vn -0.95791078 0.00000000 -0.28706622
vn -0.95791078 0.00000000 -0.28706622
vn -0.95791066 0.00000000 -0.28706619
vn -0.95791066 0.00000000 -0.28706619
vn -0.95791066 0.00000000 -0.28706619
vn -0.25115833 0.93843120 -0.23720506
vn -0.25115833 0.93843120 -0.23720506
vn -0.25115833 0.93843120 -0.23720506
vn -0.19942920 0.96296287 -0.18146779
vn -0.19942920 0.96296287 -0.18146779
vn -0.19942920 0.96296287 -0.18146779
vn 0.00000000 0.00000000 1.00000000
vn 0.00000000 0.00000000 1.00000000
vn 0.00000000 0.00000000 1.00000000
vn -0.00000000 0.00000000 1.00000000
vn -0.00000000 0.00000000 1.00000000
vn -0.00000000 0.00000000 1.00000000
vn 0.00000000 0.00000000 1.00000000
vn 0.00000000 0.00000000 1.00000000
vn 0.00000000 0.00000000 1.00000000
vn 0.00000000 0.00000000 1.00000000
vn 0.00000000 0.00000000 1.00000000
vn 0.00000000 0.00000000 1.00000000
vn 0.00000000 0.00000000 1.00000000
vn 0.00000000 0.00000000 1.00000000
vn 0.00000000 0.00000000 1.00000000
vn 0.00000000 -0.00000000 1.00000000
vn 0.00000000 -0.00000000 1.00000000
vn 0.00000000 -0.00000000 1.00000000
vn 0.00000000 0.00000000 -1.00000000
vn 0.00000000 0.00000000 -1.00000000
vn 0.00000000 0.00000000 -1.00000000
vn 0.00000000 0.00000000 -1.00000000
vn 0.00000000 0.00000000 -1.00000000
vn 0.00000000 0.00000000 -1.00000000
vn 0.00000000 0.00000000 -1.00000000
vn 0.00000000 0.00000000 -1.00000000
vn 0.00000000 0.00000000 -1.00000000
vn 0.00000000 -0.00000000 -1.00000000
vn 0.00000000 -0.00000000 -1.00000000
vn 0.00000000 -0.00000000 -1.00000000
vn -0.00000000 0.00000000 -1.00000000
vn -0.00000000 0.00000000 -1.00000000
vn -0.00000000 0.00000000 -1.00000000
vn 0.00000000 0.00000000 -1.00000000
vn 0.00000000 0.00000000 -1.00000000
vn 0.00000000 0.00000000 -1.00000000
vn -1.00000000 0.00000000 -0.00000000
vn -1.00000000 0.00000000 -0.00000000
vn -1.00000000 0.00000000 -0.00000000
vn -1.00000000 -0.00000000 0.00000000
vn -1.00000000 -0.00000000 0.00000000
vn -1.00000000 -0.00000000 0.00000000
vn 1.00000000 0.00000000 0.00000000
vn 1.00000000 0.00000000 0.00000000
vn 1.00000000 0.00000000 0.00000000
vn 1.00000000 0.00000000 0.00000000
vn 1.00000000 0.00000000 0.00000000
vn 1.00000000 0.00000000 0.00000000
vn 0.00000000 1.00000000 0.00000000
vn 0.00000000 1.00000000 0.00000000
vn 0.00000000 1.00000000 0.00000000
vn 0.00000000 1.00000000 0.00000000
vn 0.00000000 1.00000000 0.00000000
vn 0.00000000 1.00000000 0.00000000
vn 0.35805607 0.00000000 -0.93370003
vn 0.35805607 0.00000000 -0.93370003
vn 0.35805607 0.00000000 -0.93370003
vn 0.35805607 0.00000000 -0.93370003
vn 0.35805607 0.00000000 -0.93370003
vn 0.35805607 0.00000000 -0.93370003
vn 0.00000000 -1.00000000 0.00000000
vn 0.00000000 -1.00000000 0.00000000
vn 0.00000000 -1.00000000 0.00000000
vn 0.00000000 -1.00000000 0.00000000
vn 0.00000000 -1.00000000 0.00000000
vn 0.00000000 -1.00000000 0.00000000
vn 0.68152678 0.00000000 0.73179317
vn 0.68152678 0.00000000 0.73179317
vn 0.68152678 0.00000000 0.73179317
vn 0.68152678 -0.00000000 0.73179317
vn 0.68152678 -0.00000000 0.73179317
vn 0.68152678 -0.00000000 0.73179317
vn 1.00000000 0.00000000 0.00000000
vn 1.00000000 0.00000000 0.00000000
vn 1.00000000 0.00000000 0.00000000
vn 1.00000000 -0.00000000 0.00000000
vn 1.00000000 -0.00000000 0.00000000
vn 1.00000000 -0.00000000 0.00000000
vn -1.00000000 0.00000000 0.00000000
vn -1.00000000 0.00000000 0.00000000
vn -1.00000000 0.00000000 0.00000000
vn -1.00000000 0.00000000 0.00000000
vn -1.00000000 0.00000000 0.00000000
vn -1.00000000 0.00000000 0.00000000
vn 0.00000000 1.00000000 0.00000000
vn 0.00000000 1.00000000 0.00000000
vn 0.00000000 1.00000000 0.00000000
vn 0.00000000 1.00000000 -0.00000000
vn 0.00000000 1.00000000 -0.00000000
vn 0.00000000 1.00000000 -0.00000000
vn -0.35805607 0.00000000 -0.93370003
vn -0.35805607 0.00000000 -0.93370003
vn -0.35805607 0.00000000 -0.93370003
vn -0.35805607 0.00000000 -0.93370003
vn -0.35805607 0.00000000 -0.93370003
vn -0.35805607 0.00000000 -0.93370003
vn 0.00000000 -1.00000000 0.00000000
vn 0.00000000 -1.00000000 0.00000000
vn 0.00000000 -1.00000000 0.00000000
vn 0.00000000 -1.00000000 -0.00000000
vn 0.00000000 -1.00000000 -0.00000000
vn 0.00000000 -1.00000000 -0.00000000
vn -0.68152678 0.00000000 0.73179317
vn -0.68152678 0.00000000 0.73179317
vn -0.68152678 0.00000000 0.73179317
vn -0.68152678 0.00000000 0.73179317
vn -0.68152678 0.00000000 0.73179317
vn -0.68152678 0.00000000 0.73179317
f 1//1 2//2 3//3
f 4//4 5//5 6//6
f 7//7 8//8 9//9
f 10//10 11//11 12//12
f 13//13 14//14 15//15
f 16//16 17//17 18//18
f 19//19 20//20 21//21
f 22//22 23//23 24//24
f 25//25 26//26 27//27
f 28//28 29//29 30//30
f 31//31 32//32 33//33
f 34//34 35//35 36//36
f 37//37 38//38 39//39
f 40//40 41//41 42//42
f 43//43 44//44 45//45
f 46//46 47//47 48//48
f 49//49 50//50 51//51
f 52//52 53//53 54//54
f 55//55 56//56 57//57
f 58//58 59//59 60//60
f 61//61 62//62 63//63
f 64//64 65//65 66//66
f 67//67 68//68 69//69
f 70//70 71//71 72//72
f 73//73 74//74 75//75
f 76//76 77//77 78//78
f 79//79 80//80 81//81
f 82//82 83//83 84//84
f 85//85 86//86 87//87
f 88//88 89//89 90//90
f 91//91 92//92 93//93
f 94//94 95//95 96//96
f 97//97 98//98 99//99
f 100//100 101//101 102//102
f 103//103 104//104 105//105
f 106//106 107//107 108//108
f 109//109 110//110 111//111
f 112//112 113//113 114//114
f 115//115 116//116 117//117
f 118//118 119//119 120//120
f 121//121 122//122 123//123
f 124//124 125//125 126//126
f 127//127 128//128 129//129
f 130//130 131//131 132//132
f 133//133 134//134 135//135
f 136//136 137//137 138//138
f 139//139 140//140 141//141
f 142//142 143//143 144//144
f 145//145 146//146 147//147
f 148//148 149//149 150//150
f 151//151 152//152 153//153
f 154//154 155//155 156//156
f 157//157 158//158 159//159
f 160//160 161//161 162//162
f 163//163 164//164 165//165
f 166//166 167//167 168//168
f 169//169 170//170 171//171
f 172//172 173//173 174//174
f 175//175 176//176 177//177
f 178//178 179//179 180//180
f 181//181 182//182 183//183
f 184//184 185//185 186//186
f 187//187 188//188 189//189
f 190//190 191//191 192//192
f 193//193 194//194 195//195
f 196//196 197//197 198//198
f 199//199 200//200 201//201
f 202//202 203//203 204//204
f 205//205 206//206 207//207
f 208//208 209//209 210//210
f 211//211 212//212 213//213
f 214//214 215//215 216//216
f 217//217 218//218 219//219
f 220//220 221//221 222//222
f 223//223 224//224 225//225
f 226//226 227//227 228//228
f 229//229 230//230 231//231
f 232//232 233//233 234//234
f 235//235 236//236 237//237
f 238//238 239//239 240//240
f 241//241 242//242 243//243
f 244//244 245//245 246//246
f 247//247 248//248 249//249
f 250//250 251//251 252//252
