v 0.00000000 0.23381801 1.82655001
v 0.35717854 0.11690900 1.82655001
v 0.67447495 0.23381801 0.66824996
v 0.00000000 0.23381801 1.82655001
v 0.67447495 0.23381801 0.66824996
v 0.00000000 0.46763602 0.66824996
v 0.35717854 0.11690900 1.82655001
v 0.35717854 -0.09384000 1.82655001
v 0.67447495 -0.20644799 0.66824996
v 0.35717854 0.11690900 1.82655001
v 0.67447495 -0.20644799 0.66824996
v 0.67447495 0.23381801 0.66824996
v 0.35717854 -0.09384000 1.82655001
v 0.00000000 -0.18768001 1.82655001
v 0.00000000 -0.41289598 0.66824996
v 0.35717854 -0.09384000 1.82655001
v 0.00000000 -0.41289598 0.66824996
v 0.67447495 -0.20644799 0.66824996
v 0.00000000 -0.18768001 1.82655001
v -0.35717854 -0.09384000 1.82655001
v -0.67447495 -0.20644799 0.66824996
v 0.00000000 -0.18768001 1.82655001
v -0.67447495 -0.20644799 0.66824996
v 0.00000000 -0.41289598 0.66824996
v -0.35717854 -0.09384000 1.82655001
v -0.35717854 0.11690900 1.82655001
v -0.67447495 0.23381801 0.66824996
v -0.35717854 -0.09384000 1.82655001
v -0.67447495 0.23381801 0.66824996
v -0.67447495 -0.20644799 0.66824996
v -0.35717854 0.11690900 1.82655001
v 0.00000000 0.23381801 1.82655001
v 0.00000000 0.46763602 0.66824996
v -0.35717854 0.11690900 1.82655001
v 0.00000000 0.46763602 0.66824996
v -0.67447495 0.23381801 0.66824996
v 0.00000000 0.46763602 0.66824996
v 0.67447495 0.23381801 0.66824996
v 0.73312503 0.25415000 0.00000000
v 0.00000000 0.46763602 0.66824996
v 0.73312503 0.25415000 0.00000000
v 0.00000000 0.50830001 0.00000000
v 0.67447495 0.23381801 0.66824996
v 0.67447495 -0.20644799 0.66824996
v 0.73312503 -0.23460001 0.00000000
v 0.67447495 0.23381801 0.66824996
v 0.73312503 -0.23460001 0.00000000
v 0.73312503 0.25415000 0.00000000
v 0.67447495 -0.20644799 0.66824996
v 0.00000000 -0.41289598 0.66824996
v 0.00000000 -0.46920002 0.00000000
v 0.67447495 -0.20644799 0.66824996
v 0.00000000 -0.46920002 0.00000000
v 0.73312503 -0.23460001 0.00000000
v 0.00000000 -0.41289598 0.66824996
v -0.67447495 -0.20644799 0.66824996
v -0.73312503 -0.23460001 0.00000000
v 0.00000000 -0.41289598 0.66824996
v -0.73312503 -0.23460001 0.00000000
v 0.00000000 -0.46920002 0.00000000
v -0.67447495 -0.20644799 0.66824996
v -0.67447495 0.23381801 0.66824996
v -0.73312503 0.25415000 0.00000000
v -0.67447495 -0.20644799 0.66824996
v -0.73312503 0.25415000 0.00000000
v -0.73312503 -0.23460001 0.00000000
v -0.67447495 0.23381801 0.66824996
v 0.00000000 0.46763602 0.66824996
v 0.00000000 0.50830001 0.00000000
v -0.67447495 0.23381801 0.66824996
v 0.00000000 0.50830001 0.00000000
v -0.73312503 0.25415000 0.00000000
v 0.00000000 0.50830001 0.00000000
v 0.73312503 0.25415000 0.00000000
v 0.57183748 0.13724101 -1.38104999
v 0.00000000 0.50830001 0.00000000
v 0.57183748 0.13724101 -1.38104999
v 0.00000000 0.27448201 -1.38104999
v 0.73312503 0.25415000 0.00000000
v 0.73312503 -0.23460001 0.00000000
v 0.57183748 -0.13606799 -1.38104999
v 0.73312503 0.25415000 0.00000000
v 0.57183748 -0.13606799 -1.38104999
v 0.57183748 0.13724101 -1.38104999
v 0.73312503 -0.23460001 0.00000000
v 0.00000000 -0.46920002 0.00000000
v 0.00000000 -0.27213597 -1.38104999
v 0.73312503 -0.23460001 0.00000000
v 0.00000000 -0.27213597 -1.38104999
v 0.57183748 -0.13606799 -1.38104999
v 0.00000000 -0.46920002 0.00000000
v -0.73312503 -0.23460001 0.00000000
v -0.57183748 -0.13606799 -1.38104999
v 0.00000000 -0.46920002 0.00000000
v -0.57183748 -0.13606799 -1.38104999
v 0.00000000 -0.27213597 -1.38104999
v -0.73312503 -0.23460001 0.00000000
v -0.73312503 0.25415000 0.00000000
v -0.57183748 0.13724101 -1.38104999
v -0.73312503 -0.23460001 0.00000000
v -0.57183748 0.13724101 -1.38104999
v -0.57183748 -0.13606799 -1.38104999
v -0.73312503 0.25415000 0.00000000
v 0.00000000 0.50830001 0.00000000
v 0.00000000 0.27448201 -1.38104999
v -0.73312503 0.25415000 0.00000000
v 0.00000000 0.27448201 -1.38104999
v -0.57183748 0.13724101 -1.38104999
v 0.00000000 0.27448201 -1.38104999
v 0.57183748 0.13724101 -1.38104999
v 0.41055000 0.07624500 -1.87109971
v 0.00000000 0.27448201 -1.38104999
v 0.41055000 0.07624500 -1.87109971
v 0.00000000 0.15249000 -1.87109971
v 0.57183748 0.13724101 -1.38104999
v 0.57183748 -0.13606799 -1.38104999
v 0.41055000 -0.07976400 -1.87109971
v 0.57183748 0.13724101 -1.38104999
v 0.41055000 -0.07976400 -1.87109971
v 0.41055000 0.07624500 -1.87109971
v 0.57183748 -0.13606799 -1.38104999
v 0.00000000 -0.27213597 -1.38104999
v 0.00000000 -0.15952800 -1.87109971
v 0.57183748 -0.13606799 -1.38104999
v 0.00000000 -0.15952800 -1.87109971
v 0.41055000 -0.07976400 -1.87109971
v 0.00000000 -0.27213597 -1.38104999
v -0.57183748 -0.13606799 -1.38104999
v -0.41055000 -0.07976400 -1.87109971
v 0.00000000 -0.27213597 -1.38104999
v -0.41055000 -0.07976400 -1.87109971
v 0.00000000 -0.15952800 -1.87109971
v -0.57183748 -0.13606799 -1.38104999
v -0.57183748 0.13724101 -1.38104999
v -0.41055000 0.07624500 -1.87109971
v -0.57183748 -0.13606799 -1.38104999
v -0.41055000 0.07624500 -1.87109971
v -0.41055000 -0.07976400 -1.87109971
v -0.57183748 0.13724101 -1.38104999
v 0.00000000 0.27448201 -1.38104999
v 0.00000000 0.15249000 -1.87109971
v -0.57183748 0.13724101 -1.38104999
v 0.00000000 0.15249000 -1.87109971
v -0.41055000 0.07624500 -1.87109971
v 0.00000000 0.00000000 1.82655001
v 0.35717854 0.11690900 1.82655001
v 0.00000000 0.23381801 1.82655001
v 0.00000000 0.00000000 1.82655001
v 0.35717854 -0.09384000 1.82655001
v 0.35717854 0.11690900 1.82655001
v 0.00000000 0.00000000 1.82655001
v 0.00000000 -0.18768001 1.82655001
v 0.35717854 -0.09384000 1.82655001
v 0.00000000 0.00000000 1.82655001
v -0.35717854 -0.09384000 1.82655001
v 0.00000000 -0.18768001 1.82655001
v 0.00000000 0.00000000 1.82655001
v -0.35717854 0.11690900 1.82655001
v -0.35717854 -0.09384000 1.82655001
v 0.00000000 0.00000000 1.82655001
v 0.00000000 0.23381801 1.82655001
v -0.35717854 0.11690900 1.82655001
v 0.00000000 0.00000000 -1.87109971
v 0.00000000 0.15249000 -1.87109971
v 0.41055000 0.07624500 -1.87109971
v 0.00000000 0.00000000 -1.87109971
v 0.41055000 0.07624500 -1.87109971
v 0.41055000 -0.07976400 -1.87109971
v 0.00000000 0.00000000 -1.87109971
v 0.41055000 -0.07976400 -1.87109971
v 0.00000000 -0.15952800 -1.87109971
v 0.00000000 0.00000000 -1.87109971
v 0.00000000 -0.15952800 -1.87109971
v -0.41055000 -0.07976400 -1.87109971
v 0.00000000 0.00000000 -1.87109971
v -0.41055000 -0.07976400 -1.87109971
v -0.41055000 0.07624500 -1.87109971
v 0.00000000 0.00000000 -1.87109971
v -0.41055000 0.07624500 -1.87109971
v 0.00000000 0.15249000 -1.87109971
v 0.81999999 -0.19000000 0.54499996
v 0.81999999 -0.19000000 -1.89499998
v 0.81999999 -0.43000001 -1.89499998
v 0.81999999 -0.19000000 0.54499996
v 0.81999999 -0.43000001 -1.89499998
v 0.81999999 -0.43000001 0.54499996
v 3.41199994 -0.19000000 -0.69999999
v 3.41199994 -0.43000001 -0.69999999
v 3.41199994 -0.43000001 -1.10000002
v 3.41199994 -0.19000000 -0.69999999
v 3.41199994 -0.43000001 -1.10000002
v 3.41199994 -0.19000000 -1.10000002
v 0.81999999 -0.19000000 0.54499996
v 3.41199994 -0.19000000 -0.69999999
v 3.41199994 -0.19000000 -1.10000002
v 0.81999999 -0.19000000 0.54499996
v 3.41199994 -0.19000000 -1.10000002
v 0.81999999 -0.19000000 -1.89499998
v 0.81999999 -0.19000000 -1.89499998
v 3.41199994 -0.19000000 -1.10000002
v 3.41199994 -0.43000001 -1.10000002
v 0.81999999 -0.19000000 -1.89499998
v 3.41199994 -0.43000001 -1.10000002
v 0.81999999 -0.43000001 -1.89499998
v 0.81999999 -0.43000001 -1.89499998
v 3.41199994 -0.43000001 -1.10000002
v 3.41199994 -0.43000001 -0.69999999
v 0.81999999 -0.43000001 -1.89499998
v 3.41199994 -0.43000001 -0.69999999
v 0.81999999 -0.43000001 0.54499996
v 0.81999999 -0.43000001 0.54499996
v 3.41199994 -0.43000001 -0.69999999
v 3.41199994 -0.19000000 -0.69999999
v 0.81999999 -0.43000001 0.54499996
v 3.41199994 -0.19000000 -0.69999999
v 0.81999999 -0.19000000 0.54499996
v -0.81999999 -0.43000001 0.54499996
v -0.81999999 -0.43000001 -1.89499998
v -0.81999999 -0.19000000 -1.89499998
v -0.81999999 -0.43000001 0.54499996
v -0.81999999 -0.19000000 -1.89499998
v -0.81999999 -0.19000000 0.54499996
v -3.41199994 -0.19000000 -1.10000002
v -3.41199994 -0.43000001 -1.10000002
v -3.41199994 -0.43000001 -0.69999999
v -3.41199994 -0.19000000 -1.10000002
v -3.41199994 -0.43000001 -0.69999999
v -3.41199994 -0.19000000 -0.69999999
v -0.81999999 -0.19000000 -1.89499998
v -3.41199994 -0.19000000 -1.10000002
v -3.41199994 -0.19000000 -0.69999999
v -0.81999999 -0.19000000 -1.89499998
v -3.41199994 -0.19000000 -0.69999999
v -0.81999999 -0.19000000 0.54499996
v -0.81999999 -0.43000001 -1.89499998
v -3.41199994 -0.43000001 -1.10000002
v -3.41199994 -0.19000000 -1.10000002
v -0.81999999 -0.43000001 -1.89499998
v -3.41199994 -0.19000000 -1.10000002
v -0.81999999 -0.19000000 -1.89499998
v -0.81999999 -0.43000001 0.54499996
v -3.41199994 -0.43000001 -0.69999999
v -3.41199994 -0.43000001 -1.10000002
v -0.81999999 -0.43000001 0.54499996
v -3.41199994 -0.43000001 -1.10000002
v -0.81999999 -0.43000001 -1.89499998
v -0.81999999 -0.19000000 0.54499996
v -3.41199994 -0.19000000 -0.69999999
v -3.41199994 -0.43000001 -0.69999999
v -0.81999999 -0.19000000 0.54499996
v -3.41199994 -0.43000001 -0.69999999
v -0.81999999 -0.43000001 0.54499996
v -1.42632318 -0.31822160 -2.50830841
v -1.42632318 -0.31822160 -0.98844659
v -1.42632318 0.36718735 -0.98844659
v -1.42632318 -0.31822160 -2.50830841
v -1.42632318 0.36718735 -0.98844659
v -1.42632318 0.36718735 -2.50830841
v -2.11173224 -0.31822160 -0.98844659
v -2.11173224 -0.31822160 -2.50830841
v -2.11173224 0.36718735 -2.50830841
v -2.11173224 -0.31822160 -0.98844659
v -2.11173224 0.36718735 -2.50830841
v -2.11173224 0.36718735 -0.98844659
v -2.11173224 0.36718735 -2.50830841
v -1.42632318 0.36718735 -2.50830841
v -1.42632318 0.36718735 -0.98844659
v -2.11173224 0.36718735 -2.50830841
v -1.42632318 0.36718735 -0.98844659
v -2.11173224 0.36718735 -0.98844659
v -2.11173224 -0.31822160 -2.50830841
v -2.11173224 -0.31822160 -0.98844659
v -1.42632318 -0.31822160 -0.98844659
v -2.11173224 -0.31822160 -2.50830841
v -1.42632318 -0.31822160 -0.98844659
v -1.42632318 -0.31822160 -2.50830841
v -2.11173224 -0.31822160 -0.98844659
v -2.11173224 0.36718735 -0.98844659
v -1.42632318 0.36718735 -0.98844659
v -2.11173224 -0.31822160 -0.98844659
v -1.42632318 0.36718735 -0.98844659
v -1.42632318 -0.31822160 -0.98844659
v -2.11173224 -0.31822160 -2.50830841
v -1.42632318 -0.31822160 -2.50830841
v -1.42632318 0.36718735 -2.50830841
v -2.11173224 -0.31822160 -2.50830841
v -1.42632318 0.36718735 -2.50830841
v -2.11173224 0.36718735 -2.50830841
v 2.11173224 -0.31822160 -2.50830841
v 2.11173224 -0.31822160 -0.98844659
v 2.11173224 0.36718735 -0.98844659
v 2.11173224 -0.31822160 -2.50830841
v 2.11173224 0.36718735 -0.98844659
v 2.11173224 0.36718735 -2.50830841
v 1.42632318 -0.31822160 -0.98844659
v 1.42632318 -0.31822160 -2.50830841
v 1.42632318 0.36718735 -2.50830841
v 1.42632318 -0.31822160 -0.98844659
v 1.42632318 0.36718735 -2.50830841
v 1.42632318 0.36718735 -0.98844659
v 1.42632318 0.36718735 -2.50830841
v 2.11173224 0.36718735 -2.50830841
v 2.11173224 0.36718735 -0.98844659
v 1.42632318 0.36718735 -2.50830841
v 2.11173224 0.36718735 -0.98844659
v 1.42632318 0.36718735 -0.98844659
v 1.42632318 -0.31822160 -2.50830841
v 1.42632318 -0.31822160 -0.98844659
v 2.11173224 -0.31822160 -0.98844659
v 1.42632318 -0.31822160 -2.50830841
v 2.11173224 -0.31822160 -0.98844659
v 2.11173224 -0.31822160 -2.50830841
v 1.42632318 -0.31822160 -0.98844659
v 1.42632318 0.36718735 -0.98844659
v 2.11173224 0.36718735 -0.98844659
v 1.42632318 -0.31822160 -0.98844659
v 2.11173224 0.36718735 -0.98844659
v 2.11173224 -0.31822160 -0.98844659
v 1.42632318 -0.31822160 -2.50830841
v 2.11173224 -0.31822160 -2.50830841
v 2.11173224 0.36718735 -2.50830841
v 1.42632318 -0.31822160 -2.50830841
v 2.11173224 0.36718735 -2.50830841
v 1.42632318 0.36718735 -2.50830841
vn 0.30609220 0.93516809 0.17823666
vn 0.30609220 0.93516809 0.17823666
vn 0.30609220 0.93516809 0.17823666
vn 0.32174346 0.92810613 0.18735036
vn 0.32174346 0.92810613 0.18735036
vn 0.32174346 0.92810613 0.18735036
vn 0.96446812 0.00000000 0.26419947
vn 0.96446812 0.00000000 0.26419947
vn 0.96446812 0.00000000 0.26419947
vn 0.96446806 0.00000000 0.26419947
vn 0.96446806 0.00000000 0.26419947
vn 0.96446806 0.00000000 0.26419947
vn 0.24972506 -0.95051605 0.18481514
vn 0.24972506 -0.95051605 0.18481514
vn 0.24972506 -0.95051605 0.18481514
vn 0.28839266 -0.94219202 0.17059854
vn 0.28839266 -0.94219202 0.17059854
vn 0.28839266 -0.94219202 0.17059854
vn -0.25076729 -0.95448309 0.16148664
vn -0.25076729 -0.95448309 0.16148664
vn -0.25076729 -0.95448309 0.16148664
vn -0.28775209 -0.94009924 0.18278973
vn -0.28775209 -0.94009924 0.18278973
vn -0.28775209 -0.94009924 0.18278973
vn -0.96446812 0.00000000 0.26419947
vn -0.96446812 0.00000000 0.26419947
vn -0.96446812 0.00000000 0.26419947
vn -0.96446806 0.00000000 0.26419944
vn -0.96446806 0.00000000 0.26419944
vn -0.96446806 0.00000000 0.26419944
vn -0.30550194 0.93336469 0.18841188
vn -0.30550194 0.93336469 0.18841188
vn -0.30550194 0.93336469 0.18841188
vn -0.32207292 0.92905641 0.18199743
vn -0.32207292 0.92905641 0.18199743
vn -0.32207292 0.92905641 0.18199743
vn 0.32700321 0.94327831 0.05739992
vn 0.32700321 0.94327831 0.05739992
vn 0.32700321 0.94327831 0.05739992
vn 0.32700321 0.94327849 0.05739987
vn 0.32700321 0.94327849 0.05739987
vn 0.32700321 0.94327849 0.05739987
vn 0.99617058 0.00000000 0.08743058
vn 0.99617058 0.00000000 0.08743058
vn 0.99617058 0.00000000 0.08743058
vn 0.99617064 0.00000000 0.08743058
vn 0.99617064 0.00000000 0.08743058
vn 0.99617064 0.00000000 0.08743058
vn 0.29173794 -0.95312119 0.08030611
vn 0.29173794 -0.95312119 0.08030611
vn 0.29173794 -0.95312119 0.08030611
vn 0.30409655 -0.95030165 0.06672382
vn 0.30409655 -0.95030165 0.06672382
vn 0.30409655 -0.95030165 0.06672382
vn -0.29204842 -0.95413548 0.06582791
vn -0.29204842 -0.95413548 0.06582791
vn -0.29204842 -0.95413548 0.06582791
vn -0.30379915 -0.94937235 0.07999027
vn -0.30379915 -0.94937235 0.07999027
vn -0.30379915 -0.94937235 0.07999027
vn -0.99617058 0.00000000 0.08743058
vn -0.99617058 0.00000000 0.08743058
vn -0.99617058 0.00000000 0.08743058
vn -0.99617064 0.00000000 0.08743057
vn -0.99617064 0.00000000 0.08743057
vn -0.99617064 0.00000000 0.08743057
vn -0.32700324 0.94327843 0.05739987
vn -0.32700324 0.94327843 0.05739987
vn -0.32700324 0.94327843 0.05739987
vn -0.32700318 0.94327837 0.05739991
vn -0.32700318 0.94327837 0.05739991
vn -0.32700318 0.94327837 0.05739991
vn 0.32527748 0.93830043 -0.11741716
vn 0.32527748 0.93830043 -0.11741716
vn 0.32527748 0.93830043 -0.11741716
vn 0.23027332 0.95947194 -0.16244294
vn 0.23027332 0.95947194 -0.16244294
vn 0.23027332 0.95947194 -0.16244294
vn 0.99324954 0.00000000 -0.11599781
vn 0.99324954 0.00000000 -0.11599781
vn 0.99324954 0.00000000 -0.11599781
vn 0.99324954 0.00000000 -0.11599781
vn 0.99324954 0.00000000 -0.11599781
vn 0.99324954 0.00000000 -0.11599781
vn 0.30199957 -0.94374865 -0.13466488
vn 0.30199957 -0.94374865 -0.13466488
vn 0.30199957 -0.94374865 -0.13466488
vn 0.23041652 -0.96834534 -0.09599677
vn 0.23041652 -0.96834534 -0.09599677
vn 0.23041652 -0.96834534 -0.09599677
vn -0.30315492 -0.94735909 -0.10299432
vn -0.30315492 -0.94735909 -0.10299432
vn -0.30315492 -0.94735909 -0.10299432
vn -0.22928700 -0.96359843 -0.13749728
vn -0.22928700 -0.96359843 -0.13749728
vn -0.22928700 -0.96359843 -0.13749728
vn -0.99324954 0.00000000 -0.11599781
vn -0.99324954 0.00000000 -0.11599781
vn -0.99324954 0.00000000 -0.11599781
vn -0.99324954 0.00000000 -0.11599781
vn -0.99324954 0.00000000 -0.11599781
vn -0.99324954 0.00000000 -0.11599781
vn -0.32343125 0.93297476 -0.15795685
vn -0.32343125 0.93297476 -0.15795685
vn -0.32343125 0.93297476 -0.15795685
vn -0.23198459 0.96660239 -0.10891766
vn -0.23198459 0.96660239 -0.10891766
vn -0.23198459 0.96660239 -0.10891766
vn 0.22893560 0.95389825 -0.19407913
vn 0.22893560 0.95389825 -0.19407913
vn 0.22893560 0.95389825 -0.19407913
vn 0.17735726 0.95500058 -0.23773596
vn 0.17735726 0.95500058 -0.23773596
vn 0.17735726 0.95500058 -0.23773596
vn 0.94987577 0.00000000 -0.31262761
vn 0.94987577 0.00000000 -0.31262761
vn 0.94987577 0.00000000 -0.31262761
vn 0.94987577 0.00000000 -0.31262761
vn 0.94987577 0.00000000 -0.31262761
vn 0.94987577 0.00000000 -0.31262761
vn 0.22590971 -0.94940507 -0.21816273
vn 0.22590971 -0.94940507 -0.21816273
vn 0.22590971 -0.94940507 -0.21816273
vn 0.18784679 -0.96685851 -0.17291170
vn 0.18784679 -0.96685851 -0.17291170
vn 0.18784679 -0.96685851 -0.17291170
vn -0.22750176 -0.95609581 -0.18472652
vn -0.22750176 -0.95609581 -0.18472652
vn -0.22750176 -0.95609581 -0.18472652
vn -0.18604502 -0.95758474 -0.22004233
vn -0.18604502 -0.95758474 -0.22004233
vn -0.18604502 -0.95758474 -0.22004233
vn -0.94987577 0.00000000 -0.31262761
vn -0.94987577 0.00000000 -0.31262761
vn -0.94987577 0.00000000 -0.31262761
vn -0.94987577 0.00000000 -0.31262761
vn -0.94987577 0.00000000 -0.31262761
vn -0.94987577 0.00000000 -0.31262761
vn -0.22682224 0.94509256 -0.23526947
vn -0.22682224 0.94509256 -0.23526947
vn -0.22682224 0.94509256 -0.23526947
vn -0.17962627 0.96721834 -0.17950816
vn -0.17962627 0.96721834 -0.17950816
vn -0.17962627 0.96721834 -0.17950816
vn 0.00000000 0.00000000 1.00000000
vn 0.00000000 0.00000000 1.00000000
vn 0.00000000 0.00000000 1.00000000
vn -0.00000000 0.00000000 0.99999994
vn -0.00000000 0.00000000 0.99999994
vn -0.00000000 0.00000000 0.99999994
vn 0.00000000 0.00000000 1.00000000
vn 0.00000000 0.00000000 1.00000000
vn 0.00000000 0.00000000 1.00000000
vn 0.00000000 0.00000000 1.00000000
vn 0.00000000 0.00000000 1.00000000
vn 0.00000000 0.00000000 1.00000000
vn 0.00000000 0.00000000 0.99999994
vn 0.00000000 0.00000000 0.99999994
vn 0.00000000 0.00000000 0.99999994
vn 0.00000000 -0.00000000 1.00000000
vn 0.00000000 -0.00000000 1.00000000
vn 0.00000000 -0.00000000 1.00000000
vn 0.00000000 0.00000000 -1.00000000
vn 0.00000000 0.00000000 -1.00000000
vn 0.00000000 0.00000000 -1.00000000
vn 0.00000000 0.00000000 -0.99999994
vn 0.00000000 0.00000000 -0.99999994
vn 0.00000000 0.00000000 -0.99999994
vn 0.00000000 0.00000000 -1.00000000
vn 0.00000000 0.00000000 -1.00000000
vn 0.00000000 0.00000000 -1.00000000
vn 0.00000000 -0.00000000 -1.00000000
vn 0.00000000 -0.00000000 -1.00000000
vn 0.00000000 -0.00000000 -1.00000000
vn -0.00000000 0.00000000 -0.99999994
vn -0.00000000 0.00000000 -0.99999994
vn -0.00000000 0.00000000 -0.99999994
vn 0.00000000 0.00000000 -1.00000000
vn 0.00000000 0.00000000 -1.00000000
vn 0.00000000 0.00000000 -1.00000000
vn -1.00000000 0.00000000 -0.00000000
vn -1.00000000 0.00000000 -0.00000000
vn -1.00000000 0.00000000 -0.00000000
vn -1.00000000 -0.00000000 0.00000000
vn -1.00000000 -0.00000000 0.00000000
vn -1.00000000 -0.00000000 0.00000000
vn 1.00000000 0.00000000 0.00000000
vn 1.00000000 0.00000000 0.00000000
vn 1.00000000 0.00000000 0.00000000
vn 1.00000000 0.00000000 0.00000000
vn 1.00000000 0.00000000 0.00000000
vn 1.00000000 0.00000000 0.00000000
vn 0.00000000 1.00000000 0.00000000
vn 0.00000000 1.00000000 0.00000000
vn 0.00000000 1.00000000 0.00000000
vn 0.00000000 0.99999994 0.00000000
vn 0.00000000 0.99999994 0.00000000
vn 0.00000000 0.99999994 0.00000000
vn 0.29323041 0.00000000 -0.95604181
vn 0.29323041 0.00000000 -0.95604181
vn 0.29323041 0.00000000 -0.95604181
vn 0.29323041 0.00000000 -0.95604181
vn 0.29323041 0.00000000 -0.95604181
vn 0.29323041 0.00000000 -0.95604181
vn 0.00000000 -1.00000000 0.00000000
vn 0.00000000 -1.00000000 0.00000000
vn 0.00000000 -1.00000000 0.00000000
vn 0.00000000 -0.99999994 0.00000000
vn 0.00000000 -0.99999994 0.00000000
vn 0.00000000 -0.99999994 0.00000000
vn 0.43296847 0.00000000 0.90140909
vn 0.43296847 0.00000000 0.90140909
vn 0.43296847 0.00000000 0.90140909
vn 0.43296847 -0.00000000 0.90140909
vn 0.43296847 -0.00000000 0.90140909
vn 0.43296847 -0.00000000 0.90140909
vn 1.00000000 0.00000000 0.00000000
vn 1.00000000 0.00000000 0.00000000
vn 1.00000000 0.00000000 0.00000000
vn 1.00000000 -0.00000000 0.00000000
vn 1.00000000 -0.00000000 0.00000000
vn 1.00000000 -0.00000000 0.00000000
vn -1.00000000 0.00000000 0.00000000
vn -1.00000000 0.00000000 0.00000000
vn -1.00000000 0.00000000 0.00000000
vn -1.00000000 0.00000000 0.00000000
vn -1.00000000 0.00000000 0.00000000
vn -1.00000000 0.00000000 0.00000000
vn 0.00000000 1.00000000 0.00000000
vn 0.00000000 1.00000000 0.00000000
vn 0.00000000 1.00000000 0.00000000
vn 0.00000000 0.99999994 -0.00000000
vn 0.00000000 0.99999994 -0.00000000
vn 0.00000000 0.99999994 -0.00000000
vn -0.29323041 0.00000000 -0.95604181
vn -0.29323041 0.00000000 -0.95604181
vn -0.29323041 0.00000000 -0.95604181
vn -0.29323041 0.00000000 -0.95604181
vn -0.29323041 0.00000000 -0.95604181
vn -0.29323041 0.00000000 -0.95604181
vn 0.00000000 -1.00000000 0.00000000
vn 0.00000000 -1.00000000 0.00000000
vn 0.00000000 -1.00000000 0.00000000
vn 0.00000000 -0.99999994 -0.00000000
vn 0.00000000 -0.99999994 -0.00000000
vn 0.00000000 -0.99999994 -0.00000000
vn -0.43296847 0.00000000 0.90140909
vn -0.43296847 0.00000000 0.90140909
vn -0.43296847 0.00000000 0.90140909
vn -0.43296847 0.00000000 0.90140909
vn -0.43296847 0.00000000 0.90140909
vn -0.43296847 0.00000000 0.90140909
vn -1.00000000 0.00000000 0.00000000
vn -1.00000000 0.00000000 0.00000000
vn -1.00000000 0.00000000 0.00000000
vn -1.00000000 0.00000000 0.00000000
vn -1.00000000 0.00000000 0.00000000
vn -1.00000000 0.00000000 0.00000000
vn 1.00000000 0.00000000 0.00000000
vn 1.00000000 0.00000000 0.00000000
vn 1.00000000 0.00000000 0.00000000
vn 1.00000000 -0.00000000 0.00000000
vn 1.00000000 -0.00000000 0.00000000
vn 1.00000000 -0.00000000 0.00000000
vn 0.00000000 -1.00000000 0.00000000
vn 0.00000000 -1.00000000 0.00000000
vn 0.00000000 -1.00000000 0.00000000
vn 0.00000000 -1.00000000 0.00000000
vn 0.00000000 -1.00000000 0.00000000
vn 0.00000000 -1.00000000 0.00000000
vn 0.00000000 1.00000000 0.00000000
vn 0.00000000 1.00000000 0.00000000
vn 0.00000000 1.00000000 0.00000000
vn 0.00000000 1.00000000 0.00000000
vn 0.00000000 1.00000000 0.00000000
vn 0.00000000 1.00000000 0.00000000
vn 0.00000000 0.00000000 -0.99999994
vn 0.00000000 0.00000000 -0.99999994
vn 0.00000000 0.00000000 -0.99999994
vn 0.00000000 0.00000000 -0.99999994
vn 0.00000000 0.00000000 -0.99999994
vn 0.00000000 0.00000000 -0.99999994
vn 0.00000000 0.00000000 0.99999994
vn 0.00000000 0.00000000 0.99999994
vn 0.00000000 0.00000000 0.99999994
vn 0.00000000 0.00000000 0.99999994
vn 0.00000000 0.00000000 0.99999994
vn 0.00000000 0.00000000 0.99999994
vn -1.00000000 0.00000000 0.00000000
vn -1.00000000 0.00000000 0.00000000
vn -1.00000000 0.00000000 0.00000000
vn -1.00000000 0.00000000 0.00000000
vn -1.00000000 0.00000000 0.00000000
vn -1.00000000 0.00000000 0.00000000
vn 1.00000000 0.00000000 0.00000000
vn 1.00000000 0.00000000 0.00000000
vn 1.00000000 0.00000000 0.00000000
vn 1.00000000 -0.00000000 0.00000000
vn 1.00000000 -0.00000000 0.00000000
vn 1.00000000 -0.00000000 0.00000000
vn 0.00000000 -1.00000000 0.00000000
vn 0.00000000 -1.00000000 0.00000000
vn 0.00000000 -1.00000000 0.00000000
vn 0.00000000 -1.00000000 0.00000000
vn 0.00000000 -1.00000000 0.00000000
vn 0.00000000 -1.00000000 0.00000000
vn 0.00000000 1.00000000 0.00000000
vn 0.00000000 1.00000000 0.00000000
vn 0.00000000 1.00000000 0.00000000
vn 0.00000000 1.00000000 0.00000000
vn 0.00000000 1.00000000 0.00000000
vn 0.00000000 1.00000000 0.00000000
vn 0.00000000 0.00000000 -0.99999994
vn 0.00000000 0.00000000 -0.99999994
vn 0.00000000 0.00000000 -0.99999994
vn 0.00000000 0.00000000 -0.99999994
vn 0.00000000 0.00000000 -0.99999994
vn 0.00000000 0.00000000 -0.99999994
vn 0.00000000 0.00000000 0.99999994
vn 0.00000000 0.00000000 0.99999994
vn 0.00000000 0.00000000 0.99999994
vn 0.00000000 0.00000000 0.99999994
vn 0.00000000 0.00000000 0.99999994
vn 0.00000000 0.00000000 0.99999994
f 1//1 2//2 3//3
f 4//4 5//5 6//6
f 7//7 8//8 9//9
f 10//10 11//11 12//12
f 13//13 14//14 15//15
f 16//16 17//17 18//18
f 19//19 20//20 21//21
f 22//22 23//23 24//24
f 25//25 26//26 27//27
f 28//28 29//29 30//30
f 31//31 32//32 33//33
f 34//34 35//35 36//36
f 37//37 38//38 39//39
f 40//40 41//41 42//42
f 43//43 44//44 45//45
f 46//46 47//47 48//48
f 49//49 50//50 51//51
f 52//52 53//53 54//54
f 55//55 56//56 57//57
f 58//58 59//59 60//60
f 61//61 62//62 63//63
f 64//64 65//65 66//66
f 67//67 68//68 69//69
f 70//70 71//71 72//72
f 73//73 74//74 75//75
f 76//76 77//77 78//78
f 79//79 80//80 81//81
f 82//82 83//83 84//84
f 85//85 86//86 87//87
f 88//88 89//89 90//90
f 91//91 92//92 93//93
f 94//94 95//95 96//96
f 97//97 98//98 99//99
f 100//100 101//101 102//102
f 103//103 104//104 105//105
f 106//106 107//107 108//108
f 109//109 110//110 111//111
f 112//112 113//113 114//114
f 115//115 116//116 117//117
f 118//118 119//119 120//120
f 121//121 122//122 123//123
f 124//124 125//125 126//126
f 127//127 128//128 129//129
f 130//130 131//131 132//132
f 133//133 134//134 135//135
f 136//136 137//137 138//138
f 139//139 140//140 141//141
f 142//142 143//143 144//144
f 145//145 146//146 147//147
f 148//148 149//149 150//150
f 151//151 152//152 153//153
f 154//154 155//155 156//156
f 157//157 158//158 159//159
f 160//160 161//161 162//162
f 163//163 164//164 165//165
f 166//166 167//167 168//168
f 169//169 170//170 171//171
f 172//172 173//173 174//174
f 175//175 176//176 177//177
f 178//178 179//179 180//180
f 181//181 182//182 183//183
f 184//184 185//185 186//186
f 187//187 188//188 189//189
f 190//190 191//191 192//192
f 193//193 194//194 195//195
f 196//196 197//197 198//198
f 199//199 200//200 201//201
f 202//202 203//203 204//204
f 205//205 206//206 207//207
f 208//208 209//209 210//210
f 211//211 212//212 213//213
f 214//214 215//215 216//216
f 217//217 218//218 219//219
f 220//220 221//221 222//222
f 223//223 224//224 225//225
f 226//226 227//227 228//228
f 229//229 230//230 231//231
f 232//232 233//233 234//234
f 235//235 236//236 237//237
f 238//238 239//239 240//240
f 241//241 242//242 243//243
f 244//244 245//245 246//246
f 247//247 248//248 249//249
f 250//250 251//251 252//252
f 253//253 254//254 255//255
f 256//256 257//257 258//258
f 259//259 260//260 261//261
f 262//262 263//263 264//264
f 265//265 266//266 267//267
f 268//268 269//269 270//270
f 271//271 272//272 273//273
f 274//274 275//275 276//276
f 277//277 278//278 279//279
f 280//280 281//281 282//282
f 283//283 284//284 285//285
f 286//286 287//287 288//288
f 289//289 290//290 291//291
f 292//292 293//293 294//294
f 295//295 296//296 297//297
f 298//298 299//299 300//300
f 301//301 302//302 303//303
f 304//304 305//305 306//306
f 307//307 308//308 309//309
f 310//310 311//311 312//312
f 313//313 314//314 315//315
f 316//316 317//317 318//318
f 319//319 320//320 321//321
f 322//322 323//323 324//324
