v 0 0.908068 0
v 0 0.908068 0
v 0 0.908068 0
v 0 0.908068 0
v 0 0.908068 0
v 0 0.908068 0
v 0 0.908068 0
v 0 0.908068 0
v 0 0.908068 0
v 0 0.908068 0
v 0 0.908068 0
v 0 0.908068 0
v 0 0.908068 0
v 0 0.908068 0
v 0 0.908068 0
v 0 0.908068 0
v 0 0.908068 0
v 0 0.908068 0
v 0 0.908068 0
v 0 0.908068 0
v 0 0.908068 0
v 0 0.908068 0
v 0 0.908068 0
v 0 0.908068 0
v 0 0.908068 0
v 0.190058 0.955486 0
v 0.178703 0.930095 0.0478834
v 0.160888 0.933965 0.0928885
v 0.134498 0.956242 0.134498
v 0.0946577 0.951753 0.163952
v 0.0492017 0.955701 0.183623
v -1e-08 0.924228 0.18384
v -0.0470735 0.914363 0.175681
v -0.0904977 0.909925 0.156747
v -0.133253 0.947392 0.133253
v -0.161578 0.93797 0.0932869
v -0.173034 0.900587 0.0463642
v -0.175063 0.880103 -2e-08
v -0.172429 0.897439 -0.0462022
v -0.154212 0.895212 -0.0890343
v -0.131235 0.933043 -0.131235
v -0.0900834 0.90576 -0.156029
v -0.0444016 0.862464 -0.165709
v 0 0.855019 -0.170074
v 0.0479836 0.932039 -0.179077
v 0.0938461 0.943593 -0.162546
v 0.133111 0.946382 -0.133111
v 0.163754 0.950603 -0.0945432
v 0.184656 0.961075 -0.0494783
v 0.190058 0.955486 3e-08
v 0.366387 0.884535 0
v 0.352148 0.880151 0.0943578
v 0.313313 0.873422 0.180892
v 0.260829 0.890527 0.260829
v 0.186231 0.899204 0.322562
v 0.0971586 0.906277 0.362601
v -2e-08 0.856742 0.354874
v -0.0932232 0.869568 0.347914
v -0.183121 0.884185 0.317175
v -0.261589 0.89312 0.261589
v -0.306729 0.855065 0.17709
v -0.343617 0.858829 0.0920719
v -0.340212 0.821344 -3e-08
v -0.337079 0.842487 -0.0903201
v -0.31033 0.865105 -0.179169
v -0.258904 0.883954 -0.258904
v -0.175603 0.847884 -0.304153
v -0.0915377 0.853846 -0.341623
v 0 0.818213 -0.338915
v 0.0898716 0.838304 -0.335405
v 0.170949 0.825413 -0.296092
v 0.256235 0.874841 -0.256235
v 0.305526 0.851712 -0.176395
v 0.346695 0.866523 -0.0928967
v 0.366387 0.884535 6e-08
v 0.530955 0.794631 0
v 0.503255 0.779743 0.134847
v 0.447526 0.773384 0.258379
v 0.369598 0.782261 0.369598
v 0.255003 0.763277 0.441678
v 0.139458 0.806405 0.520463
v -2e-08 0.771721 0.515647
v -0.136305 0.788178 0.508699
v -0.24585 0.735882 0.425825
v -0.34318 0.726347 0.34318
v -0.442976 0.765521 0.255753
v -0.505959 0.783933 0.135571
v -0.51199 0.766248 -4e-08
v -0.50044 0.775381 -0.134092
v -0.431508 0.745703 -0.249131
v -0.373432 0.790376 -0.373432
v -0.253861 0.759861 -0.439701
v -0.123336 0.713182 -0.460295
v 1e-08 0.693322 -0.463263
v 0.130154 0.752606 -0.48574
v 0.249928 0.748087 -0.432888
v 0.329798 0.698024 -0.329798
v 0.400814 0.692659 -0.23141
v 0.502793 0.779027 -0.134723
v 0.530955 0.794631 9e-08
v 0.64831 0.64831 0
v 0.608228 0.629684 0.162974
v 0.550725 0.635923 0.317961
v 0.455423 0.644065 0.455423
v 0.338452 0.676904 0.586217
v 0.165054 0.637719 0.615989
v -3e-08 0.694128 0.694128
v -0.174384 0.673769 0.650811
v -0.327508 0.655016 0.56726
v -0.449116 0.635146 0.449116
v -0.537378 0.62051 0.310255
v -0.636458 0.65891 0.170538
v -0.66856 0.66856 -6e-08
v -0.614882 0.636573 -0.164757
v -0.575296 0.664295 -0.332148
v -0.46001 0.650552 -0.46001
v -0.32285 0.6457 -0.559193
v -0.160026 0.618293 -0.597225
v 1e-08 0.619804 -0.619804
v 0.159693 0.617004 -0.59598
v 0.312044 0.624089 -0.540477
v 0.451798 0.638939 -0.451798
v 0.540473 0.624084 -0.312042
v 0.63158 0.65386 -0.169231
v 0.64831 0.64831 1.1e-07
v 0.726718 0.485578 0
v 0.75129 0.519705 0.201308
v 0.657329 0.50716 0.379509
v 0.566658 0.535462 0.566658
v 0.392256 0.524194 0.679408
v 0.204974 0.529169 0.764972
v -3e-08 0.522107 0.781389
v -0.192204 0.496201 0.717313
v -0.389418 0.520402 0.674492
v -0.546915 0.516806 0.546915
v -0.6432 0.496258 0.371352
v -0.697563 0.482539 0.186911
v -0.770602 0.5149 -7e-08
v -0.705734 0.488191 -0.189101
v -0.606855 0.468217 -0.350368
v -0.557538 0.526844 -0.557538
v -0.374534 0.500512 -0.648713
v -0.196274 0.50671 -0.732505
v 1e-08 0.481401 -0.720468
v 0.191766 0.495072 -0.715681
v 0.379079 0.506584 -0.656583
v 0.558034 0.527312 -0.558033
v 0.632361 0.487896 -0.365094
v 0.672907 0.465483 -0.180305
v 0.726718 0.485578 1.3e-07
v 0.835656 0.34614 0
v 0.85228 0.365479 0.228368
v 0.66701 0.319026 0.385099
v 0.593877 0.347885 0.593877
v 0.437197 0.362186 0.757248
v 0.201991 0.323266 0.753841
v -4e-08 0.361843 0.873567
v -0.217243 0.347676 0.810763
v -0.437733 0.36263 0.758176
v -0.622218 0.364487 0.622218
v -0.761945 0.364433 0.439909
v -0.786101 0.3371 0.210635
v -0.786809 0.325907 -7e-08
v -0.829846 0.355859 -0.222357
v -0.710644 0.339896 -0.410291
v -0.578083 0.338633 -0.578083
v -0.426715 0.353502 -0.739092
v -0.194254 0.310884 -0.724967
v 1e-08 0.310062 -0.748556
v 0.214899 0.343924 -0.802014
v 0.394884 0.327133 -0.68396
v 0.614263 0.359827 -0.614263
v 0.686864 0.328522 -0.396561
v 0.823415 0.353101 -0.220633
v 0.835656 0.34614 1.5e-07
v 0.830095 0.165116 0
v 0.820357 0.168936 0.219814
v 0.745047 0.171126 0.430153
v 0.631243 0.177571 0.631243
v 0.457706 0.182087 0.79277
v 0.24268 0.186509 0.905693
v -4e-08 0.167726 0.843218
v -0.236395 0.181679 0.882238
v -0.454633 0.180864 0.787447
v -0.661091 0.185968 0.661091
v -0.743076 0.170673 0.429015
v -0.84278 0.173553 0.225822
v -0.887525 0.17654 -8e-08
v -0.833535 0.171649 -0.223345
v -0.759265 0.174391 -0.438362
v -0.631769 0.17772 -0.631769
v -0.393093 0.156382 -0.680857
v -0.225332 0.173177 -0.840952
v 1e-08 0.167114 -0.840139
v 0.215116 0.165325 -0.802823
v 0.418201 0.166371 -0.724346
v 0.634319 0.178437 -0.634319
v 0.808727 0.185752 -0.466919
v 0.854361 0.175938 -0.228925
v 0.830095 0.165116 1.5e-07
v 0.822223 0 0
v 0.868316 0 0.232665
v 0.824209 0 0.475857
v 0.647565 0 0.647565
v 0.429254 0 0.743489
v 0.243895 0 0.910228
v -4e-08 0 0.828738
v -0.210586 0 0.785917
v -0.487209 0 0.843871
v -0.643731 0 0.643731
v -0.731134 0 0.42212
v -0.902569 0 0.241842
v -0.892323 0 -8e-08
v -0.874393 0 -0.234293
v -0.724116 0 -0.418069
v -0.602053 0 -0.602053
v -0.422876 0 -0.732443
v -0.226398 0 -0.844927
v 1e-08 0 -0.8
v 0.211954 0 -0.791021
v 0.459127 0 -0.795231
v 0.645343 0 -0.645343
v 0.724986 0 -0.41857
v 0.884565 0 -0.237018
v 0.822223 0 1.4e-07
v 0.824581 -0.164019 0
v 0.836445 -0.172248 0.224125
v 0.797566 -0.183188 0.460475
v 0.65901 -0.185383 0.65901
v 0.459934 -0.182973 0.79663
v 0.240039 -0.184479 0.895836
v -4e-08 -0.16223 0.815585
v -0.239367 -0.183963 0.893329
v -0.47232 -0.187901 0.818083
v -0.614894 -0.172972 0.614894
v -0.788191 -0.181035 0.455062
v -0.870893 -0.179342 0.233355
v -0.819097 -0.162929 -7e-08
v -0.84776 -0.174579 -0.227157
v -0.742619 -0.170568 -0.428751
v -0.635875 -0.178875 -0.635876
v -0.437882 -0.1742 -0.758434
v -0.234737 -0.180404 -0.87605
v 1e-08 -0.175936 -0.884489
v 0.227835 -0.175099 -0.850289
v 0.442733 -0.17613 -0.766837
v 0.624903 -0.175788 -0.624903
v 0.765247 -0.175765 -0.441815
v 0.834582 -0.171865 -0.223625
v 0.824581 -0.164019 1.4e-07
v 0.816582 -0.338239 0
v 0.845303 -0.362487 0.226498
v 0.72627 -0.34737 0.419312
v 0.599488 -0.351172 0.599488
v 0.434803 -0.360203 0.753101
v 0.227819 -0.364601 0.850232
v -4e-08 -0.353315 0.852977
v -0.229323 -0.367009 0.855847
v -0.421785 -0.349418 0.730552
v -0.579975 -0.339742 0.579975
v -0.714436 -0.34171 0.41248
v -0.793082 -0.340094 0.212506
v -0.769994 -0.318942 -7e-08
v -0.776073 -0.3328 -0.207948
v -0.741546 -0.354676 -0.428132
v -0.581691 -0.340747 -0.581691
v -0.406931 -0.337113 -0.704826
v -0.220752 -0.353291 -0.823858
v 1e-08 -0.350177 -0.845403
v 0.222246 -0.355682 -0.829434
v 0.424486 -0.351656 -0.735232
v 0.581575 -0.340679 -0.581575
v 0.68293 -0.32664 -0.39429
v 0.796655 -0.341626 -0.213463
v 0.816582 -0.338239 1.4e-07
v 0.734183 -0.490565 0
v 0.726491 -0.50255 0.194663
v 0.679726 -0.52444 0.39244
v 0.57942 -0.547521 0.57942
v 0.409489 -0.547224 0.709256
v 0.205229 -0.529828 0.765925
v -3e-08 -0.46939 0.702492
v -0.196416 -0.507076 0.733034
v -0.370389 -0.494972 0.641533
v -0.525153 -0.496242 0.525153
v -0.647856 -0.499851 0.37404
v -0.678061 -0.469048 0.181686
v -0.750431 -0.501422 -7e-08
v -0.709393 -0.490722 -0.190081
v -0.672231 -0.518657 -0.388113
v -0.564575 -0.533494 -0.564575
v -0.38641 -0.516382 -0.669281
v -0.190669 -0.492239 -0.711586
v 1e-08 -0.487093 -0.728986
v 0.183543 -0.473841 -0.684989
v 0.382844 -0.511616 -0.663105
v 0.543431 -0.513513 -0.54343
v 0.660943 -0.509948 -0.381595
v 0.713383 -0.493482 -0.19115
v 0.734183 -0.490565 1.3e-07
v 0.626996 -0.626996 0
v 0.644767 -0.667512 0.172765
v 0.577789 -0.667173 0.333586
v 0.476558 -0.673954 0.476558
v 0.333718 -0.667436 0.578016
v 0.162552 -0.628053 0.606653
v -3e-08 -0.668386 0.668386
v -0.167945 -0.648891 0.62678
v -0.312722 -0.625445 0.541651
v -0.464113 -0.656354 0.464113
v -0.550024 -0.635113 0.317557
v -0.586369 -0.607053 0.157117
v -0.646481 -0.646481 -6e-08
v -0.63471 -0.6571 -0.17007
v -0.583632 -0.67392 -0.33696
v -0.471586 -0.666924 -0.471586
v -0.315258 -0.630516 -0.546043
v -0.17332 -0.669658 -0.64684
v 1e-08 -0.645628 -0.645628
v 0.167403 -0.646795 -0.624756
v 0.321897 -0.643795 -0.557543
v 0.477376 -0.675111 -0.477375
v 0.564409 -0.651723 -0.325861
v 0.625403 -0.647464 -0.167576
v 0.626996 -0.626996 1.1e-07
v 0.490964 -0.73478 0
v 0.479831 -0.743451 0.12857
v 0.44932 -0.776485 0.259415
v 0.36117 -0.764423 0.36117
v 0.258467 -0.773646 0.447678
v 0.131991 -0.763229 0.492596
v -2e-08 -0.737655 0.492885
v -0.137048 -0.79247 0.511469
v -0.256136 -0.76667 0.443641
v -0.354201 -0.749674 0.354201
v -0.411476 -0.711084 0.237566
v -0.4725 -0.732091 0.126606
v -0.501031 -0.749845 -4e-08
v -0.471158 -0.730012 -0.126246
v -0.423112 -0.731194 -0.244284
v -0.342026 -0.723905 -0.342026
v -0.253992 -0.760251 -0.439927
v -0.13622 -0.787683 -0.508379
v 1e-08 -0.782132 -0.522604
v 0.136128 -0.787152 -0.508036
v 0.263318 -0.788166 -0.45608
v 0.36262 -0.767492 -0.36262
v 0.471408 -0.814655 -0.272167
v 0.474214 -0.734747 -0.127065
v 0.490964 -0.73478 9e-08
v 0.382683 -0.92388 0
v 0.318999 -0.797298 0.0854754
v 0.313412 -0.873697 0.180949
v 0.260928 -0.890865 0.260928
v 0.172824 -0.83447 0.29934
v 0.0935028 -0.872176 0.348957
v -2e-08 -0.851908 0.352872
v -0.0909222 -0.848104 0.339326
v -0.163794 -0.790869 0.2837
v -0.239297 -0.81701 0.239297
v -0.288366 -0.803876 0.166488
v -0.333631 -0.83387 0.0893962
v -0.357963 -0.864199 -3e-08
v -0.330798 -0.82679 -0.0886372
v -0.315466 -0.879424 -0.182135
v -0.257035 -0.877571 -0.257035
v -0.173229 -0.836424 -0.300041
v -0.0930358 -0.86782 -0.347214
v 0 -0.882286 -0.365455
v 0.092165 -0.859696 -0.343964
v 0.169977 -0.820721 -0.294409
v 0.246038 -0.840026 -0.246038
v 0.313471 -0.873861 -0.180983
v 0.357279 -0.892975 -0.0957326
v 0.382683 -0.92388 7e-08
v 0.172218 -0.865801 0
v 0.173606 -0.903567 0.0465177
v 0.160037 -0.929029 0.0923976
v 0.134272 -0.954641 0.134272
v 0.088416 -0.888996 0.153141
v 0.0486044 -0.9441 0.181394
v -1e-08 -0.908092 0.180631
v -0.044772 -0.869658 0.167091
v -0.0893951 -0.898839 0.154837
v -0.128734 -0.915263 0.128734
v -0.160333 -0.930747 0.0925685
v -0.17894 -0.931329 0.0479469
v -0.180543 -0.907653 -2e-08
v -0.181707 -0.94573 -0.0486884
v -0.15708 -0.911861 -0.0906901
v -0.131322 -0.933661 -0.131322
v -0.0905101 -0.91005 -0.156768
v -0.0461169 -0.895781 -0.17211
v 0 -0.932059 -0.185398
v 0.0476056 -0.924697 -0.177666
v 0.0934192 -0.9393 -0.161807
v 0.129262 -0.919019 -0.129262
v 0.154056 -0.894308 -0.0889444
v 0.173554 -0.903295 -0.0465036
v 0.172218 -0.865801 3e-08
v 0 -0.893948 0
v 0 -0.893948 0
v 0 -0.893948 0
v 0 -0.893948 0
v 0 -0.893948 0
v 0 -0.893948 0
v 0 -0.893948 0
v 0 -0.893948 0
v 0 -0.893948 0
v 0 -0.893948 0
v 0 -0.893948 0
v 0 -0.893948 0
v 0 -0.893948 0
v 0 -0.893948 0
v 0 -0.893948 0
v 0 -0.893948 0
v 0 -0.893948 0
v 0 -0.893948 0
v 0 -0.893948 0
v 0 -0.893948 0
v 0 -0.893948 0
v 0 -0.893948 0
v 0 -0.893948 0
v 0 -0.893948 0
v 0 -0.893948 0
vt 0 0
vt 0.0416667 0
vt 0.0833333 0
vt 0.125 0
vt 0.166667 0
vt 0.208333 0
vt 0.25 0
vt 0.291667 0
vt 0.333333 0
vt 0.375 0
vt 0.416667 0
vt 0.458333 0
vt 0.5 0
vt 0.541667 0
vt 0.583333 0
vt 0.625 0
vt 0.666667 0
vt 0.708333 0
vt 0.75 0
vt 0.791667 0
vt 0.833333 0
vt 0.875 0
vt 0.916667 0
vt 0.958333 0
vt 1 0
vt 0 0.0625
vt 0.0416667 0.0625
vt 0.0833333 0.0625
vt 0.125 0.0625
vt 0.166667 0.0625
vt 0.208333 0.0625
vt 0.25 0.0625
vt 0.291667 0.0625
vt 0.333333 0.0625
vt 0.375 0.0625
vt 0.416667 0.0625
vt 0.458333 0.0625
vt 0.5 0.0625
vt 0.541667 0.0625
vt 0.583333 0.0625
vt 0.625 0.0625
vt 0.666667 0.0625
vt 0.708333 0.0625
vt 0.75 0.0625
vt 0.791667 0.0625
vt 0.833333 0.0625
vt 0.875 0.0625
vt 0.916667 0.0625
vt 0.958333 0.0625
vt 1 0.0625
vt 0 0.125
vt 0.0416667 0.125
vt 0.0833333 0.125
vt 0.125 0.125
vt 0.166667 0.125
vt 0.208333 0.125
vt 0.25 0.125
vt 0.291667 0.125
vt 0.333333 0.125
vt 0.375 0.125
vt 0.416667 0.125
vt 0.458333 0.125
vt 0.5 0.125
vt 0.541667 0.125
vt 0.583333 0.125
vt 0.625 0.125
vt 0.666667 0.125
vt 0.708333 0.125
vt 0.75 0.125
vt 0.791667 0.125
vt 0.833333 0.125
vt 0.875 0.125
vt 0.916667 0.125
vt 0.958333 0.125
vt 1 0.125
vt 0 0.1875
vt 0.0416667 0.1875
vt 0.0833333 0.1875
vt 0.125 0.1875
vt 0.166667 0.1875
vt 0.208333 0.1875
vt 0.25 0.1875
vt 0.291667 0.1875
vt 0.333333 0.1875
vt 0.375 0.1875
vt 0.416667 0.1875
vt 0.458333 0.1875
vt 0.5 0.1875
vt 0.541667 0.1875
vt 0.583333 0.1875
vt 0.625 0.1875
vt 0.666667 0.1875
vt 0.708333 0.1875
vt 0.75 0.1875
vt 0.791667 0.1875
vt 0.833333 0.1875
vt 0.875 0.1875
vt 0.916667 0.1875
vt 0.958333 0.1875
vt 1 0.1875
vt 0 0.25
vt 0.0416667 0.25
vt 0.0833333 0.25
vt 0.125 0.25
vt 0.166667 0.25
vt 0.208333 0.25
vt 0.25 0.25
vt 0.291667 0.25
vt 0.333333 0.25
vt 0.375 0.25
vt 0.416667 0.25
vt 0.458333 0.25
vt 0.5 0.25
vt 0.541667 0.25
vt 0.583333 0.25
vt 0.625 0.25
vt 0.666667 0.25
vt 0.708333 0.25
vt 0.75 0.25
vt 0.791667 0.25
vt 0.833333 0.25
vt 0.875 0.25
vt 0.916667 0.25
vt 0.958333 0.25
vt 1 0.25
vt 0 0.3125
vt 0.0416667 0.3125
vt 0.0833333 0.3125
vt 0.125 0.3125
vt 0.166667 0.3125
vt 0.208333 0.3125
vt 0.25 0.3125
vt 0.291667 0.3125
vt 0.333333 0.3125
vt 0.375 0.3125
vt 0.416667 0.3125
vt 0.458333 0.3125
vt 0.5 0.3125
vt 0.541667 0.3125
vt 0.583333 0.3125
vt 0.625 0.3125
vt 0.666667 0.3125
vt 0.708333 0.3125
vt 0.75 0.3125
vt 0.791667 0.3125
vt 0.833333 0.3125
vt 0.875 0.3125
vt 0.916667 0.3125
vt 0.958333 0.3125
vt 1 0.3125
vt 0 0.375
vt 0.0416667 0.375
vt 0.0833333 0.375
vt 0.125 0.375
vt 0.166667 0.375
vt 0.208333 0.375
vt 0.25 0.375
vt 0.291667 0.375
vt 0.333333 0.375
vt 0.375 0.375
vt 0.416667 0.375
vt 0.458333 0.375
vt 0.5 0.375
vt 0.541667 0.375
vt 0.583333 0.375
vt 0.625 0.375
vt 0.666667 0.375
vt 0.708333 0.375
vt 0.75 0.375
vt 0.791667 0.375
vt 0.833333 0.375
vt 0.875 0.375
vt 0.916667 0.375
vt 0.958333 0.375
vt 1 0.375
vt 0 0.4375
vt 0.0416667 0.4375
vt 0.0833333 0.4375
vt 0.125 0.4375
vt 0.166667 0.4375
vt 0.208333 0.4375
vt 0.25 0.4375
vt 0.291667 0.4375
vt 0.333333 0.4375
vt 0.375 0.4375
vt 0.416667 0.4375
vt 0.458333 0.4375
vt 0.5 0.4375
vt 0.541667 0.4375
vt 0.583333 0.4375
vt 0.625 0.4375
vt 0.666667 0.4375
vt 0.708333 0.4375
vt 0.75 0.4375
vt 0.791667 0.4375
vt 0.833333 0.4375
vt 0.875 0.4375
vt 0.916667 0.4375
vt 0.958333 0.4375
vt 1 0.4375
vt 0 0.5
vt 0.0416667 0.5
vt 0.0833333 0.5
vt 0.125 0.5
vt 0.166667 0.5
vt 0.208333 0.5
vt 0.25 0.5
vt 0.291667 0.5
vt 0.333333 0.5
vt 0.375 0.5
vt 0.416667 0.5
vt 0.458333 0.5
vt 0.5 0.5
vt 0.541667 0.5
vt 0.583333 0.5
vt 0.625 0.5
vt 0.666667 0.5
vt 0.708333 0.5
vt 0.75 0.5
vt 0.791667 0.5
vt 0.833333 0.5
vt 0.875 0.5
vt 0.916667 0.5
vt 0.958333 0.5
vt 1 0.5
vt 0 0.5625
vt 0.0416667 0.5625
vt 0.0833333 0.5625
vt 0.125 0.5625
vt 0.166667 0.5625
vt 0.208333 0.5625
vt 0.25 0.5625
vt 0.291667 0.5625
vt 0.333333 0.5625
vt 0.375 0.5625
vt 0.416667 0.5625
vt 0.458333 0.5625
vt 0.5 0.5625
vt 0.541667 0.5625
vt 0.583333 0.5625
vt 0.625 0.5625
vt 0.666667 0.5625
vt 0.708333 0.5625
vt 0.75 0.5625
vt 0.791667 0.5625
vt 0.833333 0.5625
vt 0.875 0.5625
vt 0.916667 0.5625
vt 0.958333 0.5625
vt 1 0.5625
vt 0 0.625
vt 0.0416667 0.625
vt 0.0833333 0.625
vt 0.125 0.625
vt 0.166667 0.625
vt 0.208333 0.625
vt 0.25 0.625
vt 0.291667 0.625
vt 0.333333 0.625
vt 0.375 0.625
vt 0.416667 0.625
vt 0.458333 0.625
vt 0.5 0.625
vt 0.541667 0.625
vt 0.583333 0.625
vt 0.625 0.625
vt 0.666667 0.625
vt 0.708333 0.625
vt 0.75 0.625
vt 0.791667 0.625
vt 0.833333 0.625
vt 0.875 0.625
vt 0.916667 0.625
vt 0.958333 0.625
vt 1 0.625
vt 0 0.6875
vt 0.0416667 0.6875
vt 0.0833333 0.6875
vt 0.125 0.6875
vt 0.166667 0.6875
vt 0.208333 0.6875
vt 0.25 0.6875
vt 0.291667 0.6875
vt 0.333333 0.6875
vt 0.375 0.6875
vt 0.416667 0.6875
vt 0.458333 0.6875
vt 0.5 0.6875
vt 0.541667 0.6875
vt 0.583333 0.6875
vt 0.625 0.6875
vt 0.666667 0.6875
vt 0.708333 0.6875
vt 0.75 0.6875
vt 0.791667 0.6875
vt 0.833333 0.6875
vt 0.875 0.6875
vt 0.916667 0.6875
vt 0.958333 0.6875
vt 1 0.6875
vt 0 0.75
vt 0.0416667 0.75
vt 0.0833333 0.75
vt 0.125 0.75
vt 0.166667 0.75
vt 0.208333 0.75
vt 0.25 0.75
vt 0.291667 0.75
vt 0.333333 0.75
vt 0.375 0.75
vt 0.416667 0.75
vt 0.458333 0.75
vt 0.5 0.75
vt 0.541667 0.75
vt 0.583333 0.75
vt 0.625 0.75
vt 0.666667 0.75
vt 0.708333 0.75
vt 0.75 0.75
vt 0.791667 0.75
vt 0.833333 0.75
vt 0.875 0.75
vt 0.916667 0.75
vt 0.958333 0.75
vt 1 0.75
vt 0 0.8125
vt 0.0416667 0.8125
vt 0.0833333 0.8125
vt 0.125 0.8125
vt 0.166667 0.8125
vt 0.208333 0.8125
vt 0.25 0.8125
vt 0.291667 0.8125
vt 0.333333 0.8125
vt 0.375 0.8125
vt 0.416667 0.8125
vt 0.458333 0.8125
vt 0.5 0.8125
vt 0.541667 0.8125
vt 0.583333 0.8125
vt 0.625 0.8125
vt 0.666667 0.8125
vt 0.708333 0.8125
vt 0.75 0.8125
vt 0.791667 0.8125
vt 0.833333 0.8125
vt 0.875 0.8125
vt 0.916667 0.8125
vt 0.958333 0.8125
vt 1 0.8125
vt 0 0.875
vt 0.0416667 0.875
vt 0.0833333 0.875
vt 0.125 0.875
vt 0.166667 0.875
vt 0.208333 0.875
vt 0.25 0.875
vt 0.291667 0.875
vt 0.333333 0.875
vt 0.375 0.875
vt 0.416667 0.875
vt 0.458333 0.875
vt 0.5 0.875
vt 0.541667 0.875
vt 0.583333 0.875
vt 0.625 0.875
vt 0.666667 0.875
vt 0.708333 0.875
vt 0.75 0.875
vt 0.791667 0.875
vt 0.833333 0.875
vt 0.875 0.875
vt 0.916667 0.875
vt 0.958333 0.875
vt 1 0.875
vt 0 0.9375
vt 0.0416667 0.9375
vt 0.0833333 0.9375
vt 0.125 0.9375
vt 0.166667 0.9375
vt 0.208333 0.9375
vt 0.25 0.9375
vt 0.291667 0.9375
vt 0.333333 0.9375
vt 0.375 0.9375
vt 0.416667 0.9375
vt 0.458333 0.9375
vt 0.5 0.9375
vt 0.541667 0.9375
vt 0.583333 0.9375
vt 0.625 0.9375
vt 0.666667 0.9375
vt 0.708333 0.9375
vt 0.75 0.9375
vt 0.791667 0.9375
vt 0.833333 0.9375
vt 0.875 0.9375
vt 0.916667 0.9375
vt 0.958333 0.9375
vt 1 0.9375
vt 0 1
vt 0.0416667 1
vt 0.0833333 1
vt 0.125 1
vt 0.166667 1
vt 0.208333 1
vt 0.25 1
vt 0.291667 1
vt 0.333333 1
vt 0.375 1
vt 0.416667 1
vt 0.458333 1
vt 0.5 1
vt 0.541667 1
vt 0.583333 1
vt 0.625 1
vt 0.666667 1
vt 0.708333 1
vt 0.75 1
vt 0.791667 1
vt 0.833333 1
vt 0.875 1
vt 0.916667 1
vt 0.958333 1
vt 1 1
vn -0.131832 0.988227 -0.0776359
vn -0.131832 0.988227 -0.0776359
vn -0.131832 0.988227 -0.0776359
vn -0.131832 0.988227 -0.0776359
vn -0.131832 0.988227 -0.0776359
vn -0.131832 0.988227 -0.0776359
vn -0.131832 0.988227 -0.0776359
vn -0.131832 0.988227 -0.0776359
vn -0.131832 0.988227 -0.0776359
vn -0.131832 0.988227 -0.0776359
vn -0.131832 0.988227 -0.0776359
vn -0.131832 0.988227 -0.0776359
vn -0.131832 0.988227 -0.0776359
vn -0.131832 0.988227 -0.0776359
vn -0.131832 0.988227 -0.0776359
vn -0.131832 0.988227 -0.0776359
vn -0.131832 0.988227 -0.0776359
vn -0.131832 0.988227 -0.0776359
vn -0.131832 0.988227 -0.0776359
vn -0.131832 0.988227 -0.0776359
vn -0.131832 0.988227 -0.0776359
vn -0.131832 0.988227 -0.0776359
vn -0.131832 0.988227 -0.0776359
vn -0.131832 0.988227 -0.0776359
vn -0.131832 0.988227 -0.0776359
vn 0.124326 0.963522 0.236998
vn 0.0971205 0.970782 0.219432
vn 0.278931 0.955199 -0.0989532
vn 0.193411 0.981096 -0.00648961
vn 0.0639023 0.993918 0.089687
vn -0.332588 0.92851 0.165088
vn -0.248081 0.951345 0.182753
vn -0.0861976 0.989926 0.112325
vn 0.139171 0.958797 0.247669
vn -0.0734805 0.989084 0.127727
vn -0.30456 0.933676 -0.188396
vn -0.269201 0.851645 -0.449701
vn -0.286553 0.957008 0.0449836
vn -0.238124 0.962642 0.128908
vn -0.303508 0.937535 0.170032
vn -0.0320401 0.990631 -0.132751
vn 0.326089 0.887031 -0.326867
vn 0.418526 0.876486 -0.237926
vn -0.492348 0.811998 -0.313453
vn -0.405167 0.817087 -0.410132
vn -0.0691756 0.910697 -0.407243
vn 0.197031 0.974227 -0.109822
vn 0.17805 0.949055 -0.259987
vn 0.1896 0.972026 -0.138626
vn 0.124326 0.963522 0.236998
vn 0.456216 0.889868 -0.0009222
vn 0.398325 0.88956 0.223651
vn 0.422816 0.88677 0.186724
vn 0.407798 0.863367 0.297151
vn 0.365326 0.849654 0.380295
vn -0.127696 0.897995 0.421069
vn -0.16971 0.890055 0.423085
vn -0.158288 0.895019 0.416997
vn -0.250909 0.8251 0.506216
vn -0.363964 0.841009 0.400291
vn -0.446724 0.886495 0.120685
vn -0.375695 0.915677 -0.142793
vn -0.336993 0.937077 -0.0912237
vn -0.415339 0.909518 0.0164552
vn -0.500186 0.865721 -0.0184474
vn -0.200289 0.929142 -0.310773
vn 0.0135954 0.842547 -0.538451
vn 0.123649 0.832043 -0.540755
vn -0.04396 0.876834 -0.478779
vn -0.0333906 0.895469 -0.44387
vn 0.27551 0.795081 -0.540315
vn 0.439211 0.713208 -0.546286
vn 0.481581 0.755323 -0.444485
vn 0.423118 0.860566 -0.283546
vn 0.456216 0.889868 -0.0009222
vn 0.654918 0.755393 0.0215416
vn 0.638457 0.730189 0.243302
vn 0.57757 0.74539 0.332876
vn 0.465856 0.786327 0.405793
vn 0.321879 0.763638 0.559688
vn 0.29197 0.739185 0.606926
vn -0.156523 0.861154 0.483647
vn -0.250449 0.862052 0.440616
vn -0.456992 0.80363 0.381232
vn -0.463608 0.688492 0.557716
vn -0.509804 0.698277 0.502502
vn -0.519141 0.840433 0.15545
vn -0.495239 0.856412 -0.145936
vn -0.509236 0.850736 -0.130105
vn -0.508926 0.822461 -0.254072
vn -0.482623 0.774212 -0.409476
vn 0.0148117 0.786345 -0.61761
vn 0.0405004 0.78617 -0.616682
vn -0.0602794 0.758194 -0.649237
vn -0.0262113 0.738335 -0.673925
vn 0.39964 0.840364 -0.366164
vn 0.487797 0.822492 -0.292508
vn 0.456665 0.693357 -0.557415
vn 0.532359 0.717026 -0.449965
vn 0.654918 0.755393 0.0215416
vn 0.788192 0.615395 -0.00647021
vn 0.676634 0.688623 0.2607
vn 0.665462 0.686691 0.292601
vn 0.562938 0.705262 0.430936
vn 0.300258 0.752296 0.586427
vn 0.254484 0.67512 0.692424
vn 0.00565847 0.634789 0.772664
vn -0.246383 0.662098 0.707758
vn -0.45793 0.771241 0.442139
vn -0.522562 0.795876 0.305795
vn -0.630699 0.634098 0.447368
vn -0.738034 0.542099 0.401788
vn -0.716495 0.683905 -0.137507
vn -0.7805 0.566189 -0.265049
vn -0.732847 0.608564 -0.304279
vn -0.4447 0.724008 -0.527309
vn -0.256578 0.688418 -0.678416
vn 0.0114754 0.749957 -0.661387
vn 0.0123327 0.761819 -0.647672
vn 0.0843396 0.733098 -0.674874
vn 0.263162 0.727511 -0.63362
vn 0.494535 0.814885 -0.302321
vn 0.603853 0.732967 -0.313244
vn 0.736442 0.549724 -0.39428
vn 0.788192 0.615395 -0.00647021
vn 0.858366 0.475091 -0.193641
vn 0.781174 0.558185 0.279637
vn 0.834709 0.416861 0.359845
vn 0.643091 0.555365 0.527261
vn 0.363791 0.490399 0.791937
vn 0.258546 0.439563 0.860197
vn -0.0715137 0.556948 0.827463
vn -0.229217 0.459636 0.858018
vn -0.377856 0.559886 0.737396
vn -0.585741 0.675626 0.447701
vn -0.705411 0.681527 0.19472
vn -0.857698 0.419662 0.297047
vn -0.914335 0.394261 0.0924665
vn -0.684456 0.608806 -0.401093
vn -0.852907 0.397892 -0.337983
vn -0.710896 0.440352 -0.548376
vn -0.273444 0.502552 -0.820165
vn -0.140234 0.379667 -0.914433
vn -0.0362728 0.463852 -0.88517
vn 0.193242 0.538768 -0.819992
vn 0.281933 0.495738 -0.821436
vn 0.634586 0.615147 -0.467862
vn 0.756685 0.600381 -0.258786
vn 0.785561 0.579065 -0.218123
vn 0.858366 0.475091 -0.193641
vn 0.9459 0.314323 -0.0804574
vn 0.895223 0.32998 0.299483
vn 0.783494 0.330588 0.526164
vn 0.825567 0.208551 0.524353
vn 0.372104 0.418428 0.828527
vn 0.17456 0.316116 0.932523
vn 0.13824 0.168436 0.975971
vn -0.27363 0.426545 0.862082
vn -0.366896 0.374777 0.851428
vn -0.70328 0.361004 0.612432
vn -0.861418 0.36745 0.350627
vn -0.864566 0.498387 0.0643089
vn -0.946829 0.308671 0.0907606
vn -0.921636 0.322725 -0.21549
vn -0.690744 0.521021 -0.501407
vn -0.712181 0.247013 -0.657102
vn -0.419295 0.209628 -0.883316
vn -0.0483824 0.398201 -0.916021
vn -0.09132 0.22523 -0.970017
vn 0.15981 0.249955 -0.954978
vn 0.378077 0.252934 -0.890552
vn 0.614522 0.364031 -0.699889
vn 0.816507 0.471841 -0.332688
vn 0.878383 0.422555 -0.223364
vn 0.9459 0.314323 -0.0804574
vn 0.998765 0.0489916 0.00827218
vn 0.982999 0.111566 0.145829
vn 0.792388 0.331044 0.512378
vn 0.754823 0.175436 0.632032
vn 0.618633 0.0213406 0.78539
vn -0.00652375 0.319532 0.947553
vn 0.0259866 -0.0307799 0.999188
vn -0.0836168 -0.0180815 0.996334
vn -0.480353 0.223065 0.848235
vn -0.78123 0.0742065 0.619817
vn -0.877177 0.0371026 0.478732
vn -0.953126 0.210382 0.217465
vn -0.954093 0.298067 -0.0293714
vn -0.952013 0.14607 -0.268953
vn -0.878329 -0.00516322 -0.478028
vn -0.587314 0.179147 -0.789283
vn -0.511733 0.0603268 -0.857024
vn -0.20403 0.142958 -0.96847
vn 0.0519194 0.21339 -0.975586
vn 0.129033 0.145947 -0.980841
vn 0.431199 0.260597 -0.863804
vn 0.59988 0.0324124 -0.799433
vn 0.867883 0.139064 -0.476907
vn 0.965998 0.246378 -0.0783902
vn 0.998765 0.0489916 0.00827218
vn 0.999388 -0.0124648 0.0326755
vn 0.999475 -0.00404064 0.0321623
vn 0.869912 0.172109 0.462203
vn 0.60661 0.209673 0.766852
vn 0.547165 0.0155598 0.83688
vn 0.160045 -0.0886914 0.983117
vn -0.168258 0.0492524 0.984512
vn -0.00825937 -0.0198402 0.999769
vn -0.424434 -0.0712556 0.902651
vn -0.793179 -0.00061873 0.608988
vn -0.878394 0.0458617 0.475732
vn -0.960047 -0.0308366 0.278136
vn -0.994857 -0.10013 0.0152773
vn -0.929762 0.0532206 -0.364293
vn -0.845862 0.0483926 -0.531202
vn -0.713571 0.0005448 -0.700582
vn -0.472659 0.165587 -0.865549
vn -0.226642 0.213831 -0.950216
vn 0.105483 0.147451 -0.983428
vn 0.097099 0.0248564 -0.994964
vn 0.37911 0.0548959 -0.923722
vn 0.752964 0.0988209 -0.6506
vn 0.849923 -0.125838 -0.511659
vn 0.975058 -0.131178 -0.179037
vn 0.999388 -0.0124648 0.0326755
vn 0.998576 -0.0492451 0.0205188
vn 0.988247 -0.120739 0.093758
vn 0.883224 -0.311871 0.350216
vn 0.687826 -0.196956 0.698644
vn 0.467166 -0.00653052 0.884145
vn 0.1495 -0.0177774 0.988602
vn -0.0578693 -0.00055384 0.998324
vn -0.123771 0.0294128 0.991875
vn -0.47152 -0.181028 0.863074
vn -0.737791 -0.268054 0.619525
vn -0.857669 -0.149259 0.492063
vn -0.968181 -0.198078 0.152939
vn -0.942679 -0.332056 -0.0330923
vn -0.953161 -0.264869 -0.146043
vn -0.842055 -0.0573332 -0.536336
vn -0.726822 -0.094992 -0.680225
vn -0.532593 -0.0669968 -0.843716
vn -0.285386 -0.0495493 -0.957131
vn 0.0802656 0.0937231 -0.992358
vn 0.250877 0.11695 -0.960928
vn 0.443806 -0.129844 -0.886666
vn 0.695851 -0.290241 -0.656926
vn 0.880665 -0.158345 -0.446493
vn 0.965506 -0.135533 -0.222324
vn 0.998576 -0.0492451 0.0205188
vn 0.943796 -0.322438 -0.072683
vn 0.950418 -0.271736 0.151209
vn 0.850404 -0.261921 0.456301
vn 0.708652 -0.318398 0.629631
vn 0.490548 -0.333464 0.805087
vn 0.145406 -0.430158 0.890967
vn -0.0199431 -0.370234 0.928725
vn -0.178819 -0.371046 0.911235
vn -0.506573 -0.477687 0.717773
vn -0.700904 -0.400972 0.589877
vn -0.765588 -0.468266 0.441137
vn -0.859528 -0.479995 0.175547
vn -0.956974 -0.270486 -0.105065
vn -0.921465 -0.388204 -0.0141674
vn -0.856608 -0.242114 -0.455636
vn -0.648804 -0.221774 -0.727921
vn -0.467248 -0.373238 -0.801482
vn -0.298026 -0.486714 -0.821152
vn 0.0165991 -0.480698 -0.876729
vn 0.173918 -0.43766 -0.88216
vn 0.519027 -0.292161 -0.803277
vn 0.748981 -0.271274 -0.604514
vn 0.812514 -0.366936 -0.452968
vn 0.871713 -0.41186 -0.265496
vn 0.943796 -0.322438 -0.072683
vn 0.852858 -0.517248 -0.0713212
vn 0.827715 -0.557898 0.0603084
vn 0.774305 -0.546574 0.31892
vn 0.665853 -0.495288 0.557969
vn 0.367 -0.539684 0.757662
vn 0.051752 -0.534026 0.843882
vn -0.104689 -0.51105 0.853152
vn -0.107498 -0.684351 0.721185
vn -0.426372 -0.601549 0.675534
vn -0.626243 -0.50985 0.589807
vn -0.782007 -0.52963 0.328567
vn -0.771561 -0.578608 0.264398
vn -0.906944 -0.420005 0.0323635
vn -0.915416 -0.379566 -0.133953
vn -0.814382 -0.511866 -0.273449
vn -0.565178 -0.489589 -0.663985
vn -0.385019 -0.424211 -0.819638
vn -0.159323 -0.451624 -0.877868
vn 0.0610942 -0.543678 -0.837067
vn 0.119019 -0.612887 -0.781156
vn 0.268291 -0.598283 -0.755035
vn 0.666469 -0.446808 -0.59681
vn 0.83945 -0.386399 -0.382125
vn 0.866871 -0.460347 -0.191353
vn 0.852858 -0.517248 -0.0713212
vn 0.707903 -0.702236 -0.0757461
vn 0.709498 -0.704693 0.00449385
vn 0.637619 -0.708339 0.302816
vn 0.476047 -0.787981 0.390467
vn 0.200728 -0.76944 0.606358
vn 0.112351 -0.798042 0.592036
vn 0.0165366 -0.65294 0.757229
vn -0.280722 -0.551226 0.785713
vn -0.379182 -0.670907 0.637263
vn -0.489591 -0.725861 0.483142
vn -0.646807 -0.716249 0.261969
vn -0.733182 -0.648934 0.203295
vn -0.670197 -0.717861 0.188445
vn -0.672038 -0.733136 -0.10429
vn -0.585385 -0.775465 -0.236598
vn -0.410486 -0.782614 -0.467992
vn -0.358831 -0.725724 -0.586996
vn -0.19799 -0.630461 -0.750546
vn 0.0542332 -0.541884 -0.838702
vn 0.241085 -0.513191 -0.823719
vn 0.261296 -0.640767 -0.721902
vn 0.461981 -0.673405 -0.577147
vn 0.746477 -0.61668 -0.249957
vn 0.70742 -0.699995 -0.0977998
vn 0.707903 -0.702236 -0.0757461
vn 0.646332 -0.745245 0.163903
vn 0.487234 -0.855734 -0.174133
vn 0.513551 -0.834904 0.197992
vn 0.340872 -0.839768 0.422607
vn 0.280719 -0.868947 0.407587
vn -0.0187728 -0.740227 0.672095
vn 0.167195 -0.839133 0.517592
vn -0.131197 -0.888044 0.440641
vn -0.38008 -0.823078 0.421997
vn -0.456465 -0.842089 0.287275
vn -0.472072 -0.85351 0.22061
vn -0.567586 -0.777805 0.269936
vn -0.604895 -0.795936 0.0242533
vn -0.536781 -0.836639 -0.109089
vn -0.476752 -0.836616 -0.269781
vn -0.362321 -0.873636 -0.324782
vn -0.409303 -0.836158 -0.365117
vn -0.302006 -0.809061 -0.504195
vn 0.0604686 -0.784565 -0.617091
vn 0.162104 -0.819642 -0.549463
vn 0.29878 -0.828678 -0.473311
vn 0.220603 -0.84353 -0.489685
vn 0.591325 -0.778006 -0.212227
vn 0.750495 -0.66084 -0.00692689
vn 0.646332 -0.745245 0.163903
vn 0.511819 -0.813149 0.277184
vn 0.528067 -0.814739 0.23947
vn 0.515606 -0.829869 -0.213231
vn 0.134619 -0.84451 0.518344
vn 0.273598 -0.898165 0.344156
vn 0.101774 -0.90348 0.416372
vn -0.200032 -0.861502 0.466692
vn -0.149411 -0.937682 0.313734
vn -0.314894 -0.913364 0.258084
vn -0.263894 -0.908874 0.322968
vn -0.492429 -0.82583 0.274806
vn -0.406414 -0.835865 0.368994
vn -0.496194 -0.863718 0.0882187
vn -0.531506 -0.829469 -0.171706
vn -0.550804 -0.834086 -0.030255
vn -0.280018 -0.777832 -0.562643
vn -0.274959 -0.876595 -0.394942
vn -0.369673 -0.901349 -0.225636
vn 0.0460308 -0.912003 -0.407593
vn 0.297026 -0.880921 -0.368448
vn 0.285821 -0.913062 -0.290902
vn 0.142987 -0.936295 -0.32079
vn 0.0307785 -0.925208 -0.37821
vn 0.391582 -0.917945 -0.0635614
vn 0.511819 -0.813149 0.277184
vn -0.0604632 -0.992077 -0.110121
vn 0.189072 -0.978724 0.0796986
vn 0.401341 -0.809952 -0.427672
vn -0.0817174 -0.974872 0.207238
vn -0.0937934 -0.925951 0.365812
vn 0.299995 -0.953617 0.024841
vn -0.513209 -0.835143 0.197872
vn -0.11618 -0.978682 0.169363
vn -0.0434423 -0.947912 0.315556
vn 0.0280616 -0.88818 0.458638
vn -0.271417 -0.927413 0.257367
vn -0.313486 -0.947446 0.0638244
vn -0.198757 -0.951044 0.236667
vn -0.208151 -0.964678 -0.161462
vn -0.238323 -0.970755 0.0289379
vn -0.0558437 -0.995791 -0.0726796
vn 0.216762 -0.893791 -0.392621
vn -0.313178 -0.947157 -0.0693819
vn -0.256711 -0.964829 -0.0566111
vn 0.0667947 -0.984282 -0.163485
vn 0.296001 -0.940762 -0.165381
vn 0.362593 -0.930393 -0.0538084
vn 0.113846 -0.987966 -0.104702
vn 0.0542604 -0.991211 0.120647
vn -0.0604632 -0.992077 -0.110121
vn 0.0329317 -0.99921 0.0222664
vn 0.0329317 -0.99921 0.0222664
vn 0.0329317 -0.99921 0.0222664
vn 0.0329317 -0.99921 0.0222664
vn 0.0329317 -0.99921 0.0222664
vn 0.0329317 -0.99921 0.0222664
vn 0.0329317 -0.99921 0.0222664
vn 0.0329317 -0.99921 0.0222664
vn 0.0329317 -0.99921 0.0222664
vn 0.0329317 -0.99921 0.0222664
vn 0.0329317 -0.99921 0.0222664
vn 0.0329317 -0.99921 0.0222664
vn 0.0329317 -0.99921 0.0222664
vn 0.0329317 -0.99921 0.0222664
vn 0.0329317 -0.99921 0.0222664
vn 0.0329317 -0.99921 0.0222664
vn 0.0329317 -0.99921 0.0222664
vn 0.0329317 -0.99921 0.0222664
vn 0.0329317 -0.99921 0.0222664
vn 0.0329317 -0.99921 0.0222664
vn 0.0329317 -0.99921 0.0222664
vn 0.0329317 -0.99921 0.0222664
vn 0.0329317 -0.99921 0.0222664
vn 0.0329317 -0.99921 0.0222664
vn 0.0329317 -0.99921 0.0222664
f 1/1/1 27/27/27 26/26/26
f 2/2/1 28/28/28 27/27/27
f 3/3/1 29/29/29 28/28/28
f 4/4/1 30/30/30 29/29/29
f 5/5/1 31/31/31 30/30/30
f 6/6/1 32/32/32 31/31/31
f 7/7/1 33/33/33 32/32/32
f 8/8/1 34/34/34 33/33/33
f 9/9/1 35/35/35 34/34/34
f 10/10/1 36/36/36 35/35/35
f 11/11/1 37/37/37 36/36/36
f 12/12/1 38/38/38 37/37/37
f 13/13/1 39/39/39 38/38/38
f 14/14/1 40/40/40 39/39/39
f 15/15/1 41/41/41 40/40/40
f 16/16/1 42/42/42 41/41/41
f 17/17/1 43/43/43 42/42/42
f 18/18/1 44/44/44 43/43/43
f 19/19/1 45/45/45 44/44/44
f 20/20/1 46/46/46 45/45/45
f 21/21/1 47/47/47 46/46/46
f 22/22/1 48/48/48 47/47/47
f 23/23/1 49/49/49 48/48/48
f 24/24/1 50/50/26 49/49/49
f 26/26/26 27/27/27 52/52/52
f 26/26/26 52/52/52 51/51/51
f 27/27/27 28/28/28 53/53/53
f 27/27/27 53/53/53 52/52/52
f 28/28/28 29/29/29 54/54/54
f 28/28/28 54/54/54 53/53/53
f 29/29/29 30/30/30 55/55/55
f 29/29/29 55/55/55 54/54/54
f 30/30/30 31/31/31 56/56/56
f 30/30/30 56/56/56 55/55/55
f 31/31/31 32/32/32 57/57/57
f 31/31/31 57/57/57 56/56/56
f 32/32/32 33/33/33 58/58/58
f 32/32/32 58/58/58 57/57/57
f 33/33/33 34/34/34 59/59/59
f 33/33/33 59/59/59 58/58/58
f 34/34/34 35/35/35 60/60/60
f 34/34/34 60/60/60 59/59/59
f 35/35/35 36/36/36 61/61/61
f 35/35/35 61/61/61 60/60/60
f 36/36/36 37/37/37 62/62/62
f 36/36/36 62/62/62 61/61/61
f 37/37/37 38/38/38 63/63/63
f 37/37/37 63/63/63 62/62/62
f 38/38/38 39/39/39 64/64/64
f 38/38/38 64/64/64 63/63/63
f 39/39/39 40/40/40 65/65/65
f 39/39/39 65/65/65 64/64/64
f 40/40/40 41/41/41 66/66/66
f 40/40/40 66/66/66 65/65/65
f 41/41/41 42/42/42 67/67/67
f 41/41/41 67/67/67 66/66/66
f 42/42/42 43/43/43 68/68/68
f 42/42/42 68/68/68 67/67/67
f 43/43/43 44/44/44 69/69/69
f 43/43/43 69/69/69 68/68/68
f 44/44/44 45/45/45 70/70/70
f 44/44/44 70/70/70 69/69/69
f 45/45/45 46/46/46 71/71/71
f 45/45/45 71/71/71 70/70/70
f 46/46/46 47/47/47 72/72/72
f 46/46/46 72/72/72 71/71/71
f 47/47/47 48/48/48 73/73/73
f 47/47/47 73/73/73 72/72/72
f 48/48/48 49/49/49 74/74/74
f 48/48/48 74/74/74 73/73/73
f 49/49/49 50/50/26 75/75/51
f 49/49/49 75/75/51 74/74/74
f 51/51/51 52/52/52 77/77/77
f 51/51/51 77/77/77 76/76/76
f 52/52/52 53/53/53 78/78/78
f 52/52/52 78/78/78 77/77/77
f 53/53/53 54/54/54 79/79/79
f 53/53/53 79/79/79 78/78/78
f 54/54/54 55/55/55 80/80/80
f 54/54/54 80/80/80 79/79/79
f 55/55/55 56/56/56 81/81/81
f 55/55/55 81/81/81 80/80/80
f 56/56/56 57/57/57 82/82/82
f 56/56/56 82/82/82 81/81/81
f 57/57/57 58/58/58 83/83/83
f 57/57/57 83/83/83 82/82/82
f 58/58/58 59/59/59 84/84/84
f 58/58/58 84/84/84 83/83/83
f 59/59/59 60/60/60 85/85/85
f 59/59/59 85/85/85 84/84/84
f 60/60/60 61/61/61 86/86/86
f 60/60/60 86/86/86 85/85/85
f 61/61/61 62/62/62 87/87/87
f 61/61/61 87/87/87 86/86/86
f 62/62/62 63/63/63 88/88/88
f 62/62/62 88/88/88 87/87/87
f 63/63/63 64/64/64 89/89/89
f 63/63/63 89/89/89 88/88/88
f 64/64/64 65/65/65 90/90/90
f 64/64/64 90/90/90 89/89/89
f 65/65/65 66/66/66 91/91/91
f 65/65/65 91/91/91 90/90/90
f 66/66/66 67/67/67 92/92/92
f 66/66/66 92/92/92 91/91/91
f 67/67/67 68/68/68 93/93/93
f 67/67/67 93/93/93 92/92/92
f 68/68/68 69/69/69 94/94/94
f 68/68/68 94/94/94 93/93/93
f 69/69/69 70/70/70 95/95/95
f 69/69/69 95/95/95 94/94/94
f 70/70/70 71/71/71 96/96/96
f 70/70/70 96/96/96 95/95/95
f 71/71/71 72/72/72 97/97/97
f 71/71/71 97/97/97 96/96/96
f 72/72/72 73/73/73 98/98/98
f 72/72/72 98/98/98 97/97/97
f 73/73/73 74/74/74 99/99/99
f 73/73/73 99/99/99 98/98/98
f 74/74/74 75/75/51 100/100/76
f 74/74/74 100/100/76 99/99/99
f 76/76/76 77/77/77 102/102/102
f 76/76/76 102/102/102 101/101/101
f 77/77/77 78/78/78 103/103/103
f 77/77/77 103/103/103 102/102/102
f 78/78/78 79/79/79 104/104/104
f 78/78/78 104/104/104 103/103/103
f 79/79/79 80/80/80 105/105/105
f 79/79/79 105/105/105 104/104/104
f 80/80/80 81/81/81 106/106/106
f 80/80/80 106/106/106 105/105/105
f 81/81/81 82/82/82 107/107/107
f 81/81/81 107/107/107 106/106/106
f 82/82/82 83/83/83 108/108/108
f 82/82/82 108/108/108 107/107/107
f 83/83/83 84/84/84 109/109/109
f 83/83/83 109/109/109 108/108/108
f 84/84/84 85/85/85 110/110/110
f 84/84/84 110/110/110 109/109/109
f 85/85/85 86/86/86 111/111/111
f 85/85/85 111/111/111 110/110/110
f 86/86/86 87/87/87 112/112/112
f 86/86/86 112/112/112 111/111/111
f 87/87/87 88/88/88 113/113/113
f 87/87/87 113/113/113 112/112/112
f 88/88/88 89/89/89 114/114/114
f 88/88/88 114/114/114 113/113/113
f 89/89/89 90/90/90 115/115/115
f 89/89/89 115/115/115 114/114/114
f 90/90/90 91/91/91 116/116/116
f 90/90/90 116/116/116 115/115/115
f 91/91/91 92/92/92 117/117/117
f 91/91/91 117/117/117 116/116/116
f 92/92/92 93/93/93 118/118/118
f 92/92/92 118/118/118 117/117/117
f 93/93/93 94/94/94 119/119/119
f 93/93/93 119/119/119 118/118/118
f 94/94/94 95/95/95 120/120/120
f 94/94/94 120/120/120 119/119/119
f 95/95/95 96/96/96 121/121/121
f 95/95/95 121/121/121 120/120/120
f 96/96/96 97/97/97 122/122/122
f 96/96/96 122/122/122 121/121/121
f 97/97/97 98/98/98 123/123/123
f 97/97/97 123/123/123 122/122/122
f 98/98/98 99/99/99 124/124/124
f 98/98/98 124/124/124 123/123/123
f 99/99/99 100/100/76 125/125/101
f 99/99/99 125/125/101 124/124/124
f 101/101/101 102/102/102 127/127/127
f 101/101/101 127/127/127 126/126/126
f 102/102/102 103/103/103 128/128/128
f 102/102/102 128/128/128 127/127/127
f 103/103/103 104/104/104 129/129/129
f 103/103/103 129/129/129 128/128/128
f 104/104/104 105/105/105 130/130/130
f 104/104/104 130/130/130 129/129/129
f 105/105/105 106/106/106 131/131/131
f 105/105/105 131/131/131 130/130/130
f 106/106/106 107/107/107 132/132/132
f 106/106/106 132/132/132 131/131/131
f 107/107/107 108/108/108 133/133/133
f 107/107/107 133/133/133 132/132/132
f 108/108/108 109/109/109 134/134/134
f 108/108/108 134/134/134 133/133/133
f 109/109/109 110/110/110 135/135/135
f 109/109/109 135/135/135 134/134/134
f 110/110/110 111/111/111 136/136/136
f 110/110/110 136/136/136 135/135/135
f 111/111/111 112/112/112 137/137/137
f 111/111/111 137/137/137 136/136/136
f 112/112/112 113/113/113 138/138/138
f 112/112/112 138/138/138 137/137/137
f 113/113/113 114/114/114 139/139/139
f 113/113/113 139/139/139 138/138/138
f 114/114/114 115/115/115 140/140/140
f 114/114/114 140/140/140 139/139/139
f 115/115/115 116/116/116 141/141/141
f 115/115/115 141/141/141 140/140/140
f 116/116/116 117/117/117 142/142/142
f 116/116/116 142/142/142 141/141/141
f 117/117/117 118/118/118 143/143/143
f 117/117/117 143/143/143 142/142/142
f 118/118/118 119/119/119 144/144/144
f 118/118/118 144/144/144 143/143/143
f 119/119/119 120/120/120 145/145/145
f 119/119/119 145/145/145 144/144/144
f 120/120/120 121/121/121 146/146/146
f 120/120/120 146/146/146 145/145/145
f 121/121/121 122/122/122 147/147/147
f 121/121/121 147/147/147 146/146/146
f 122/122/122 123/123/123 148/148/148
f 122/122/122 148/148/148 147/147/147
f 123/123/123 124/124/124 149/149/149
f 123/123/123 149/149/149 148/148/148
f 124/124/124 125/125/101 150/150/126
f 124/124/124 150/150/126 149/149/149
f 126/126/126 127/127/127 152/152/152
f 126/126/126 152/152/152 151/151/151
f 127/127/127 128/128/128 153/153/153
f 127/127/127 153/153/153 152/152/152
f 128/128/128 129/129/129 154/154/154
f 128/128/128 154/154/154 153/153/153
f 129/129/129 130/130/130 155/155/155
f 129/129/129 155/155/155 154/154/154
f 130/130/130 131/131/131 156/156/156
f 130/130/130 156/156/156 155/155/155
f 131/131/131 132/132/132 157/157/157
f 131/131/131 157/157/157 156/156/156
f 132/132/132 133/133/133 158/158/158
f 132/132/132 158/158/158 157/157/157
f 133/133/133 134/134/134 159/159/159
f 133/133/133 159/159/159 158/158/158
f 134/134/134 135/135/135 160/160/160
f 134/134/134 160/160/160 159/159/159
f 135/135/135 136/136/136 161/161/161
f 135/135/135 161/161/161 160/160/160
f 136/136/136 137/137/137 162/162/162
f 136/136/136 162/162/162 161/161/161
f 137/137/137 138/138/138 163/163/163
f 137/137/137 163/163/163 162/162/162
f 138/138/138 139/139/139 164/164/164
f 138/138/138 164/164/164 163/163/163
f 139/139/139 140/140/140 165/165/165
f 139/139/139 165/165/165 164/164/164
f 140/140/140 141/141/141 166/166/166
f 140/140/140 166/166/166 165/165/165
f 141/141/141 142/142/142 167/167/167
f 141/141/141 167/167/167 166/166/166
f 142/142/142 143/143/143 168/168/168
f 142/142/142 168/168/168 167/167/167
f 143/143/143 144/144/144 169/169/169
f 143/143/143 169/169/169 168/168/168
f 144/144/144 145/145/145 170/170/170
f 144/144/144 170/170/170 169/169/169
f 145/145/145 146/146/146 171/171/171
f 145/145/145 171/171/171 170/170/170
f 146/146/146 147/147/147 172/172/172
f 146/146/146 172/172/172 171/171/171
f 147/147/147 148/148/148 173/173/173
f 147/147/147 173/173/173 172/172/172
f 148/148/148 149/149/149 174/174/174
f 148/148/148 174/174/174 173/173/173
f 149/149/149 150/150/126 175/175/151
f 149/149/149 175/175/151 174/174/174
f 151/151/151 152/152/152 177/177/177
f 151/151/151 177/177/177 176/176/176
f 152/152/152 153/153/153 178/178/178
f 152/152/152 178/178/178 177/177/177
f 153/153/153 154/154/154 179/179/179
f 153/153/153 179/179/179 178/178/178
f 154/154/154 155/155/155 180/180/180
f 154/154/154 180/180/180 179/179/179
f 155/155/155 156/156/156 181/181/181
f 155/155/155 181/181/181 180/180/180
f 156/156/156 157/157/157 182/182/182
f 156/156/156 182/182/182 181/181/181
f 157/157/157 158/158/158 183/183/183
f 157/157/157 183/183/183 182/182/182
f 158/158/158 159/159/159 184/184/184
f 158/158/158 184/184/184 183/183/183
f 159/159/159 160/160/160 185/185/185
f 159/159/159 185/185/185 184/184/184
f 160/160/160 161/161/161 186/186/186
f 160/160/160 186/186/186 185/185/185
f 161/161/161 162/162/162 187/187/187
f 161/161/161 187/187/187 186/186/186
f 162/162/162 163/163/163 188/188/188
f 162/162/162 188/188/188 187/187/187
f 163/163/163 164/164/164 189/189/189
f 163/163/163 189/189/189 188/188/188
f 164/164/164 165/165/165 190/190/190
f 164/164/164 190/190/190 189/189/189
f 165/165/165 166/166/166 191/191/191
f 165/165/165 191/191/191 190/190/190
f 166/166/166 167/167/167 192/192/192
f 166/166/166 192/192/192 191/191/191
f 167/167/167 168/168/168 193/193/193
f 167/167/167 193/193/193 192/192/192
f 168/168/168 169/169/169 194/194/194
f 168/168/168 194/194/194 193/193/193
f 169/169/169 170/170/170 195/195/195
f 169/169/169 195/195/195 194/194/194
f 170/170/170 171/171/171 196/196/196
f 170/170/170 196/196/196 195/195/195
f 171/171/171 172/172/172 197/197/197
f 171/171/171 197/197/197 196/196/196
f 172/172/172 173/173/173 198/198/198
f 172/172/172 198/198/198 197/197/197
f 173/173/173 174/174/174 199/199/199
f 173/173/173 199/199/199 198/198/198
f 174/174/174 175/175/151 200/200/176
f 174/174/174 200/200/176 199/199/199
f 176/176/176 177/177/177 202/202/202
f 176/176/176 202/202/202 201/201/201
f 177/177/177 178/178/178 203/203/203
f 177/177/177 203/203/203 202/202/202
f 178/178/178 179/179/179 204/204/204
f 178/178/178 204/204/204 203/203/203
f 179/179/179 180/180/180 205/205/205
f 179/179/179 205/205/205 204/204/204
f 180/180/180 181/181/181 206/206/206
f 180/180/180 206/206/206 205/205/205
f 181/181/181 182/182/182 207/207/207
f 181/181/181 207/207/207 206/206/206
f 182/182/182 183/183/183 208/208/208
f 182/182/182 208/208/208 207/207/207
f 183/183/183 184/184/184 209/209/209
f 183/183/183 209/209/209 208/208/208
f 184/184/184 185/185/185 210/210/210
f 184/184/184 210/210/210 209/209/209
f 185/185/185 186/186/186 211/211/211
f 185/185/185 211/211/211 210/210/210
f 186/186/186 187/187/187 212/212/212
f 186/186/186 212/212/212 211/211/211
f 187/187/187 188/188/188 213/213/213
f 187/187/187 213/213/213 212/212/212
f 188/188/188 189/189/189 214/214/214
f 188/188/188 214/214/214 213/213/213
f 189/189/189 190/190/190 215/215/215
f 189/189/189 215/215/215 214/214/214
f 190/190/190 191/191/191 216/216/216
f 190/190/190 216/216/216 215/215/215
f 191/191/191 192/192/192 217/217/217
f 191/191/191 217/217/217 216/216/216
f 192/192/192 193/193/193 218/218/218
f 192/192/192 218/218/218 217/217/217
f 193/193/193 194/194/194 219/219/219
f 193/193/193 219/219/219 218/218/218
f 194/194/194 195/195/195 220/220/220
f 194/194/194 220/220/220 219/219/219
f 195/195/195 196/196/196 221/221/221
f 195/195/195 221/221/221 220/220/220
f 196/196/196 197/197/197 222/222/222
f 196/196/196 222/222/222 221/221/221
f 197/197/197 198/198/198 223/223/223
f 197/197/197 223/223/223 222/222/222
f 198/198/198 199/199/199 224/224/224
f 198/198/198 224/224/224 223/223/223
f 199/199/199 200/200/176 225/225/201
f 199/199/199 225/225/201 224/224/224
f 201/201/201 202/202/202 227/227/227
f 201/201/201 227/227/227 226/226/226
f 202/202/202 203/203/203 228/228/228
f 202/202/202 228/228/228 227/227/227
f 203/203/203 204/204/204 229/229/229
f 203/203/203 229/229/229 228/228/228
f 204/204/204 205/205/205 230/230/230
f 204/204/204 230/230/230 229/229/229
f 205/205/205 206/206/206 231/231/231
f 205/205/205 231/231/231 230/230/230
f 206/206/206 207/207/207 232/232/232
f 206/206/206 232/232/232 231/231/231
f 207/207/207 208/208/208 233/233/233
f 207/207/207 233/233/233 232/232/232
f 208/208/208 209/209/209 234/234/234
f 208/208/208 234/234/234 233/233/233
f 209/209/209 210/210/210 235/235/235
f 209/209/209 235/235/235 234/234/234
f 210/210/210 211/211/211 236/236/236
f 210/210/210 236/236/236 235/235/235
f 211/211/211 212/212/212 237/237/237
f 211/211/211 237/237/237 236/236/236
f 212/212/212 213/213/213 238/238/238
f 212/212/212 238/238/238 237/237/237
f 213/213/213 214/214/214 239/239/239
f 213/213/213 239/239/239 238/238/238
f 214/214/214 215/215/215 240/240/240
f 214/214/214 240/240/240 239/239/239
f 215/215/215 216/216/216 241/241/241
f 215/215/215 241/241/241 240/240/240
f 216/216/216 217/217/217 242/242/242
f 216/216/216 242/242/242 241/241/241
f 217/217/217 218/218/218 243/243/243
f 217/217/217 243/243/243 242/242/242
f 218/218/218 219/219/219 244/244/244
f 218/218/218 244/244/244 243/243/243
f 219/219/219 220/220/220 245/245/245
f 219/219/219 245/245/245 244/244/244
f 220/220/220 221/221/221 246/246/246
f 220/220/220 246/246/246 245/245/245
f 221/221/221 222/222/222 247/247/247
f 221/221/221 247/247/247 246/246/246
f 222/222/222 223/223/223 248/248/248
f 222/222/222 248/248/248 247/247/247
f 223/223/223 224/224/224 249/249/249
f 223/223/223 249/249/249 248/248/248
f 224/224/224 225/225/201 250/250/226
f 224/224/224 250/250/226 249/249/249
f 226/226/226 227/227/227 252/252/252
f 226/226/226 252/252/252 251/251/251
f 227/227/227 228/228/228 253/253/253
f 227/227/227 253/253/253 252/252/252
f 228/228/228 229/229/229 254/254/254
f 228/228/228 254/254/254 253/253/253
f 229/229/229 230/230/230 255/255/255
f 229/229/229 255/255/255 254/254/254
f 230/230/230 231/231/231 256/256/256
f 230/230/230 256/256/256 255/255/255
f 231/231/231 232/232/232 257/257/257
f 231/231/231 257/257/257 256/256/256
f 232/232/232 233/233/233 258/258/258
f 232/232/232 258/258/258 257/257/257
f 233/233/233 234/234/234 259/259/259
f 233/233/233 259/259/259 258/258/258
f 234/234/234 235/235/235 260/260/260
f 234/234/234 260/260/260 259/259/259
f 235/235/235 236/236/236 261/261/261
f 235/235/235 261/261/261 260/260/260
f 236/236/236 237/237/237 262/262/262
f 236/236/236 262/262/262 261/261/261
f 237/237/237 238/238/238 263/263/263
f 237/237/237 263/263/263 262/262/262
f 238/238/238 239/239/239 264/264/264
f 238/238/238 264/264/264 263/263/263
f 239/239/239 240/240/240 265/265/265
f 239/239/239 265/265/265 264/264/264
f 240/240/240 241/241/241 266/266/266
f 240/240/240 266/266/266 265/265/265
f 241/241/241 242/242/242 267/267/267
f 241/241/241 267/267/267 266/266/266
f 242/242/242 243/243/243 268/268/268
f 242/242/242 268/268/268 267/267/267
f 243/243/243 244/244/244 269/269/269
f 243/243/243 269/269/269 268/268/268
f 244/244/244 245/245/245 270/270/270
f 244/244/244 270/270/270 269/269/269
f 245/245/245 246/246/246 271/271/271
f 245/245/245 271/271/271 270/270/270
f 246/246/246 247/247/247 272/272/272
f 246/246/246 272/272/272 271/271/271
f 247/247/247 248/248/248 273/273/273
f 247/247/247 273/273/273 272/272/272
f 248/248/248 249/249/249 274/274/274
f 248/248/248 274/274/274 273/273/273
f 249/249/249 250/250/226 275/275/251
f 249/249/249 275/275/251 274/274/274
f 251/251/251 252/252/252 277/277/277
f 251/251/251 277/277/277 276/276/276
f 252/252/252 253/253/253 278/278/278
f 252/252/252 278/278/278 277/277/277
f 253/253/253 254/254/254 279/279/279
f 253/253/253 279/279/279 278/278/278
f 254/254/254 255/255/255 280/280/280
f 254/254/254 280/280/280 279/279/279
f 255/255/255 256/256/256 281/281/281
f 255/255/255 281/281/281 280/280/280
f 256/256/256 257/257/257 282/282/282
f 256/256/256 282/282/282 281/281/281
f 257/257/257 258/258/258 283/283/283
f 257/257/257 283/283/283 282/282/282
f 258/258/258 259/259/259 284/284/284
f 258/258/258 284/284/284 283/283/283
f 259/259/259 260/260/260 285/285/285
f 259/259/259 285/285/285 284/284/284
f 260/260/260 261/261/261 286/286/286
f 260/260/260 286/286/286 285/285/285
f 261/261/261 262/262/262 287/287/287
f 261/261/261 287/287/287 286/286/286
f 262/262/262 263/263/263 288/288/288
f 262/262/262 288/288/288 287/287/287
f 263/263/263 264/264/264 289/289/289
f 263/263/263 289/289/289 288/288/288
f 264/264/264 265/265/265 290/290/290
f 264/264/264 290/290/290 289/289/289
f 265/265/265 266/266/266 291/291/291
f 265/265/265 291/291/291 290/290/290
f 266/266/266 267/267/267 292/292/292
f 266/266/266 292/292/292 291/291/291
f 267/267/267 268/268/268 293/293/293
f 267/267/267 293/293/293 292/292/292
f 268/268/268 269/269/269 294/294/294
f 268/268/268 294/294/294 293/293/293
f 269/269/269 270/270/270 295/295/295
f 269/269/269 295/295/295 294/294/294
f 270/270/270 271/271/271 296/296/296
f 270/270/270 296/296/296 295/295/295
f 271/271/271 272/272/272 297/297/297
f 271/271/271 297/297/297 296/296/296
f 272/272/272 273/273/273 298/298/298
f 272/272/272 298/298/298 297/297/297
f 273/273/273 274/274/274 299/299/299
f 273/273/273 299/299/299 298/298/298
f 274/274/274 275/275/251 300/300/276
f 274/274/274 300/300/276 299/299/299
f 276/276/276 277/277/277 302/302/302
f 276/276/276 302/302/302 301/301/301
f 277/277/277 278/278/278 303/303/303
f 277/277/277 303/303/303 302/302/302
f 278/278/278 279/279/279 304/304/304
f 278/278/278 304/304/304 303/303/303
f 279/279/279 280/280/280 305/305/305
f 279/279/279 305/305/305 304/304/304
f 280/280/280 281/281/281 306/306/306
f 280/280/280 306/306/306 305/305/305
f 281/281/281 282/282/282 307/307/307
f 281/281/281 307/307/307 306/306/306
f 282/282/282 283/283/283 308/308/308
f 282/282/282 308/308/308 307/307/307
f 283/283/283 284/284/284 309/309/309
f 283/283/283 309/309/309 308/308/308
f 284/284/284 285/285/285 310/310/310
f 284/284/284 310/310/310 309/309/309
f 285/285/285 286/286/286 311/311/311
f 285/285/285 311/311/311 310/310/310
f 286/286/286 287/287/287 312/312/312
f 286/286/286 312/312/312 311/311/311
f 287/287/287 288/288/288 313/313/313
f 287/287/287 313/313/313 312/312/312
f 288/288/288 289/289/289 314/314/314
f 288/288/288 314/314/314 313/313/313
f 289/289/289 290/290/290 315/315/315
f 289/289/289 315/315/315 314/314/314
f 290/290/290 291/291/291 316/316/316
f 290/290/290 316/316/316 315/315/315
f 291/291/291 292/292/292 317/317/317
f 291/291/291 317/317/317 316/316/316
f 292/292/292 293/293/293 318/318/318
f 292/292/292 318/318/318 317/317/317
f 293/293/293 294/294/294 319/319/319
f 293/293/293 319/319/319 318/318/318
f 294/294/294 295/295/295 320/320/320
f 294/294/294 320/320/320 319/319/319
f 295/295/295 296/296/296 321/321/321
f 295/295/295 321/321/321 320/320/320
f 296/296/296 297/297/297 322/322/322
f 296/296/296 322/322/322 321/321/321
f 297/297/297 298/298/298 323/323/323
f 297/297/297 323/323/323 322/322/322
f 298/298/298 299/299/299 324/324/324
f 298/298/298 324/324/324 323/323/323
f 299/299/299 300/300/276 325/325/301
f 299/299/299 325/325/301 324/324/324
f 301/301/301 302/302/302 327/327/327
f 301/301/301 327/327/327 326/326/326
f 302/302/302 303/303/303 328/328/328
f 302/302/302 328/328/328 327/327/327
f 303/303/303 304/304/304 329/329/329
f 303/303/303 329/329/329 328/328/328
f 304/304/304 305/305/305 330/330/330
f 304/304/304 330/330/330 329/329/329
f 305/305/305 306/306/306 331/331/331
f 305/305/305 331/331/331 330/330/330
f 306/306/306 307/307/307 332/332/332
f 306/306/306 332/332/332 331/331/331
f 307/307/307 308/308/308 333/333/333
f 307/307/307 333/333/333 332/332/332
f 308/308/308 309/309/309 334/334/334
f 308/308/308 334/334/334 333/333/333
f 309/309/309 310/310/310 335/335/335
f 309/309/309 335/335/335 334/334/334
f 310/310/310 311/311/311 336/336/336
f 310/310/310 336/336/336 335/335/335
f 311/311/311 312/312/312 337/337/337
f 311/311/311 337/337/337 336/336/336
f 312/312/312 313/313/313 338/338/338
f 312/312/312 338/338/338 337/337/337
f 313/313/313 314/314/314 339/339/339
f 313/313/313 339/339/339 338/338/338
f 314/314/314 315/315/315 340/340/340
f 314/314/314 340/340/340 339/339/339
f 315/315/315 316/316/316 341/341/341
f 315/315/315 341/341/341 340/340/340
f 316/316/316 317/317/317 342/342/342
f 316/316/316 342/342/342 341/341/341
f 317/317/317 318/318/318 343/343/343
f 317/317/317 343/343/343 342/342/342
f 318/318/318 319/319/319 344/344/344
f 318/318/318 344/344/344 343/343/343
f 319/319/319 320/320/320 345/345/345
f 319/319/319 345/345/345 344/344/344
f 320/320/320 321/321/321 346/346/346
f 320/320/320 346/346/346 345/345/345
f 321/321/321 322/322/322 347/347/347
f 321/321/321 347/347/347 346/346/346
f 322/322/322 323/323/323 348/348/348
f 322/322/322 348/348/348 347/347/347
f 323/323/323 324/324/324 349/349/349
f 323/323/323 349/349/349 348/348/348
f 324/324/324 325/325/301 350/350/326
f 324/324/324 350/350/326 349/349/349
f 326/326/326 327/327/327 352/352/352
f 326/326/326 352/352/352 351/351/351
f 327/327/327 328/328/328 353/353/353
f 327/327/327 353/353/353 352/352/352
f 328/328/328 329/329/329 354/354/354
f 328/328/328 354/354/354 353/353/353
f 329/329/329 330/330/330 355/355/355
f 329/329/329 355/355/355 354/354/354
f 330/330/330 331/331/331 356/356/356
f 330/330/330 356/356/356 355/355/355
f 331/331/331 332/332/332 357/357/357
f 331/331/331 357/357/357 356/356/356
f 332/332/332 333/333/333 358/358/358
f 332/332/332 358/358/358 357/357/357
f 333/333/333 334/334/334 359/359/359
f 333/333/333 359/359/359 358/358/358
f 334/334/334 335/335/335 360/360/360
f 334/334/334 360/360/360 359/359/359
f 335/335/335 336/336/336 361/361/361
f 335/335/335 361/361/361 360/360/360
f 336/336/336 337/337/337 362/362/362
f 336/336/336 362/362/362 361/361/361
f 337/337/337 338/338/338 363/363/363
f 337/337/337 363/363/363 362/362/362
f 338/338/338 339/339/339 364/364/364
f 338/338/338 364/364/364 363/363/363
f 339/339/339 340/340/340 365/365/365
f 339/339/339 365/365/365 364/364/364
f 340/340/340 341/341/341 366/366/366
f 340/340/340 366/366/366 365/365/365
f 341/341/341 342/342/342 367/367/367
f 341/341/341 367/367/367 366/366/366
f 342/342/342 343/343/343 368/368/368
f 342/342/342 368/368/368 367/367/367
f 343/343/343 344/344/344 369/369/369
f 343/343/343 369/369/369 368/368/368
f 344/344/344 345/345/345 370/370/370
f 344/344/344 370/370/370 369/369/369
f 345/345/345 346/346/346 371/371/371
f 345/345/345 371/371/371 370/370/370
f 346/346/346 347/347/347 372/372/372
f 346/346/346 372/372/372 371/371/371
f 347/347/347 348/348/348 373/373/373
f 347/347/347 373/373/373 372/372/372
f 348/348/348 349/349/349 374/374/374
f 348/348/348 374/374/374 373/373/373
f 349/349/349 350/350/326 375/375/351
f 349/349/349 375/375/351 374/374/374
f 351/351/351 352/352/352 377/377/377
f 351/351/351 377/377/377 376/376/376
f 352/352/352 353/353/353 378/378/378
f 352/352/352 378/378/378 377/377/377
f 353/353/353 354/354/354 379/379/379
f 353/353/353 379/379/379 378/378/378
f 354/354/354 355/355/355 380/380/380
f 354/354/354 380/380/380 379/379/379
f 355/355/355 356/356/356 381/381/381
f 355/355/355 381/381/381 380/380/380
f 356/356/356 357/357/357 382/382/382
f 356/356/356 382/382/382 381/381/381
f 357/357/357 358/358/358 383/383/383
f 357/357/357 383/383/383 382/382/382
f 358/358/358 359/359/359 384/384/384
f 358/358/358 384/384/384 383/383/383
f 359/359/359 360/360/360 385/385/385
f 359/359/359 385/385/385 384/384/384
f 360/360/360 361/361/361 386/386/386
f 360/360/360 386/386/386 385/385/385
f 361/361/361 362/362/362 387/387/387
f 361/361/361 387/387/387 386/386/386
f 362/362/362 363/363/363 388/388/388
f 362/362/362 388/388/388 387/387/387
f 363/363/363 364/364/364 389/389/389
f 363/363/363 389/389/389 388/388/388
f 364/364/364 365/365/365 390/390/390
f 364/364/364 390/390/390 389/389/389
f 365/365/365 366/366/366 391/391/391
f 365/365/365 391/391/391 390/390/390
f 366/366/366 367/367/367 392/392/392
f 366/366/366 392/392/392 391/391/391
f 367/367/367 368/368/368 393/393/393
f 367/367/367 393/393/393 392/392/392
f 368/368/368 369/369/369 394/394/394
f 368/368/368 394/394/394 393/393/393
f 369/369/369 370/370/370 395/395/395
f 369/369/369 395/395/395 394/394/394
f 370/370/370 371/371/371 396/396/396
f 370/370/370 396/396/396 395/395/395
f 371/371/371 372/372/372 397/397/397
f 371/371/371 397/397/397 396/396/396
f 372/372/372 373/373/373 398/398/398
f 372/372/372 398/398/398 397/397/397
f 373/373/373 374/374/374 399/399/399
f 373/373/373 399/399/399 398/398/398
f 374/374/374 375/375/351 400/400/376
f 374/374/374 400/400/376 399/399/399
f 376/376/376 377/377/377 401/401/401
f 377/377/377 378/378/378 402/402/401
f 378/378/378 379/379/379 403/403/401
f 379/379/379 380/380/380 404/404/401
f 380/380/380 381/381/381 405/405/401
f 381/381/381 382/382/382 406/406/401
f 382/382/382 383/383/383 407/407/401
f 383/383/383 384/384/384 408/408/401
f 384/384/384 385/385/385 409/409/401
f 385/385/385 386/386/386 410/410/401
f 386/386/386 387/387/387 411/411/401
f 387/387/387 388/388/388 412/412/401
f 388/388/388 389/389/389 413/413/401
f 389/389/389 390/390/390 414/414/401
f 390/390/390 391/391/391 415/415/401
f 391/391/391 392/392/392 416/416/401
f 392/392/392 393/393/393 417/417/401
f 393/393/393 394/394/394 418/418/401
f 394/394/394 395/395/395 419/419/401
f 395/395/395 396/396/396 420/420/401
f 396/396/396 397/397/397 421/421/401
f 397/397/397 398/398/398 422/422/401
f 398/398/398 399/399/399 423/423/401
f 399/399/399 400/400/376 424/424/401
