mtllib asteroid_big.mtl
o asteroid_big
v 0.00000000 0.77016890 0.00000000
v 0.00000000 0.77016890 0.00000000
v 0.00000000 0.77016890 0.00000000
v 0.00000000 0.77016890 0.00000000
v 0.00000000 0.77016890 0.00000000
v 0.00000000 0.77016890 0.00000000
v 0.00000000 0.77016890 0.00000000
v 0.00000000 0.77016890 0.00000000
v 0.00000000 0.77016890 0.00000000
v 0.00000000 0.77016890 0.00000000
v 0.00000000 0.77016890 0.00000000
v 0.00000000 0.77016890 0.00000000
v 0.00000000 0.77016890 0.00000000
v 0.00000000 0.77016890 0.00000000
v 0.00000000 0.77016890 0.00000000
v 0.00000000 0.77016890 0.00000000
v 0.00000000 0.77016890 0.00000000
v 0.00000000 0.77016890 0.00000000
v 0.00000000 0.77016890 0.00000000
v 0.00000000 0.77016890 0.00000000
v 0.00000000 0.77016890 0.00000000
v 0.00000000 0.77016890 0.00000000
v 0.00000000 0.77016890 0.00000000
v 0.00000000 0.77016890 0.00000000
v 0.00000000 0.77016890 0.00000000
v 0.18250948 0.91753757 0.00000000
v 0.16409425 0.85405934 0.04396893
v 0.14878950 0.86373413 0.08590366
v 0.12931958 0.91942793 0.12931958
v 0.09032656 0.90820509 0.15645021
v 0.04726458 0.91807455 0.17639379
v -0.00000001 0.83939093 0.16696516
v -0.04194418 0.81473047 0.15653783
v -0.07992647 0.80363524 0.13843668
v -0.12620753 0.89730215 0.12620753
v -0.15051427 0.87374663 0.08689947
v -0.14992033 0.78028840 0.04017101
v -0.14502268 0.72907859 -0.00000001
v -0.14840831 0.77241892 -0.03976593
v -0.13210031 0.76685226 -0.07626815
v -0.12116192 0.86142933 -0.12116197
v -0.07889074 0.79322159 -0.13664280
v -0.03526445 0.68498236 -0.13160875
v 0.00000000 0.66636890 -0.13254894
v 0.04421921 0.85891938 -0.16502804
v 0.08829767 0.88780534 -0.15293609
v 0.12585232 0.89477628 -0.12585223
v 0.15595473 0.90532857 -0.09004045
v 0.17897534 0.93151069 -0.04795626
v 0.18250948 0.91753757 0.00000003
v 0.34194124 0.82551914 0.00000000
v 0.32590407 0.81455737 0.08732574
v 0.28616336 0.79773575 0.16521649
v 0.24617618 0.84049803 0.24617618
v 0.17856556 0.86219084 0.30928466
v 0.09432792 0.87987232 0.35203654
v -0.00000001 0.75603527 0.31316006
v -0.08448940 0.78810060 0.31531873
v -0.17078951 0.82464457 0.29581606
v -0.24807508 0.84698123 0.24807508
v -0.26970124 0.75184441 0.15571210
v -0.30457741 0.76125401 0.08161124
v -0.27650392 0.66753948 -0.00000002
v -0.28823119 0.72039866 -0.07723140
v -0.27870476 0.77694350 -0.16091026
v -0.24136350 0.82406670 -0.24136357
v -0.15199374 0.73389077 -0.26326093
v -0.08027566 0.74879581 -0.29959291
v 0.00000000 0.65971243 -0.27326185
v 0.07611016 0.70993960 -0.28404650
v 0.14035881 0.67771238 -0.24310865
v 0.23469037 0.80128276 -0.23469022
v 0.26669419 0.74346161 -0.15397587
v 0.31227261 0.78048724 -0.08367313
v 0.34194124 0.82551914 0.00000006
v 0.49403301 0.73937273 0.00000000
v 0.45317763 0.70215368 0.12142858
v 0.39710879 0.68625635 0.22927088
v 0.33472294 0.70844793 0.33472294
v 0.22082922 0.66098869 0.38248748
v 0.13295564 0.76880807 0.49619710
v -0.00000002 0.68209714 0.45576268
v -0.12507546 0.72324157 0.46678799
v -0.19794782 0.59249973 0.34285563
v -0.26867875 0.56866407 0.26867875
v -0.38573390 0.66659904 0.22270361
v -0.45993847 0.71262884 0.12324008
v -0.44662011 0.66841429 -0.00000004
v -0.44613940 0.69124860 -0.11954281
v -0.35706332 0.61705244 -0.20615059
v -0.34430772 0.72873449 -0.34430784
v -0.21797603 0.65244859 -0.37754568
v -0.09265110 0.53574967 -0.34577873
v 0.00000000 0.48610112 -0.32480234
v 0.10969596 0.63430941 -0.40939015
v 0.20814207 0.62301350 -0.36051276
v 0.23522395 0.49785614 -0.23522379
v 0.28032780 0.48444325 -0.16184723
v 0.45202190 0.70036292 -0.12111880
v 0.49403301 0.73937273 0.00000009
v 0.56011569 0.56011569 0.00000000
v 0.49605036 0.51354915 0.13291630
v 0.45825407 0.52914625 0.26457313
v 0.38855654 0.54950196 0.38855654
v 0.31580049 0.63160104 0.54698259
v 0.13811557 0.53363752 0.51545423
v -0.00000003 0.67465979 0.67465979
v -0.16144176 0.62376308 0.60250884
v -0.28843966 0.57687926 0.49959207
v -0.37279066 0.52720565 0.37279066
v -0.42488578 0.49061587 0.24530795
v -0.56662703 0.58661544 0.15182717
v -0.61073917 0.61073917 -0.00000005
v -0.51268649 0.53077209 -0.13737407
v -0.51968253 0.60007769 -0.30003884
v -0.40002435 0.56571996 -0.40002447
v -0.27679509 0.55359024 -0.47942325
v -0.12554583 0.48507196 -0.46854356
v 0.00000001 0.48884931 -0.48884931
v 0.12471206 0.48184964 -0.46543097
v 0.24978110 0.49956229 -0.43263367
v 0.37949523 0.53668708 -0.37949494
v 0.43262365 0.49955070 -0.24977522
v 0.55443156 0.57398975 -0.14855935
v 0.56011569 0.56011569 0.00000010
v 0.56959170 0.38058904 0.00000000
v 0.67351830 0.46590593 0.18046869
v 0.56321222 0.43454432 0.32517076
v 0.53473777 0.50529903 0.53473777
v 0.35703802 0.47713041 0.61840808
v 0.18963358 0.48956636 0.70772207
v -0.00000003 0.47191334 0.70626819
v -0.15770848 0.40714717 0.58857608
v -0.34994343 0.46764940 0.60611969
v -0.48538154 0.45866001 0.48538154
v -0.52788872 0.40729061 0.30477676
v -0.53919995 0.37299123 0.14447811
v -0.67930168 0.45389488 -0.00000006
v -0.55962688 0.38712162 -0.14995174
v -0.43702716 0.33718669 -0.25231776
v -0.51193821 0.48375475 -0.51193839
v -0.31273356 0.41792384 -0.54167050
v -0.16788469 0.43341866 -0.62655443
v 0.00000001 0.37014756 -0.55396491
v 0.15661518 0.40432402 -0.58449483
v 0.32409427 0.43310583 -0.56134784
v 0.51317745 0.48492554 -0.51317716
v 0.50079209 0.38638419 -0.28913224
v 0.47755948 0.33035147 -0.12796156
v 0.56959170 0.38058904 0.00000010
v 0.70331979 0.29132465 0.00000000
v 0.79210114 0.33967313 0.21224286
v 0.46737152 0.22354037 0.26983708
v 0.50476980 0.29568735 0.50476980
v 0.40008345 0.33144006 0.69296497
v 0.14630117 0.23414014 0.54600334
v -0.00000003 0.33058333 0.79809868
v -0.18443206 0.29516479 0.68830979
v -0.40142259 0.33254936 0.69528425
v -0.57562184 0.33719149 0.57562184
v -0.70470822 0.33705679 0.40686354
v -0.62665355 0.26872501 0.16791123
v -0.58120394 0.24074256 -0.00000005
v -0.73601633 0.31562260 -0.19721521
v -0.57645559 0.27571449 -0.33281678
v -0.46528417 0.27255723 -0.46528435
v -0.37387788 0.30973068 -0.64757568
v -0.12695917 0.20318533 -0.47381827
v 0.00000001 0.20112950 -0.48556951
v 0.17857148 0.28578508 -0.66643667
v 0.29430091 0.24380694 -0.50974429
v 0.55573535 0.32554215 -0.55573499
v 0.51700443 0.24727939 -0.29849246
v 0.71993953 0.30872840 -0.19290705
v 0.70331979 0.29132465 0.00000012
v 0.60406065 0.12015514 0.00000000
v 0.62984431 0.12970337 0.16876629
v 0.58853978 0.13517831 0.33979359
v 0.53782678 0.15129314 0.53782678
v 0.40867531 0.16258116 0.70784646
v 0.22593063 0.17363635 0.84318447
v -0.00000003 0.12668069 0.63686681
v -0.21021828 0.16156082 0.78454530
v -0.40099260 0.15952475 0.69453943
v -0.61244684 0.17228411 0.61244684
v -0.58361375 0.13404687 0.33694959
v -0.68590128 0.14124714 0.18378662
v -0.74763370 0.14871359 -0.00000007
v -0.66278791 0.13648742 -0.17759368
v -0.62408596 0.14334272 -0.36031622
v -0.53914297 0.15166342 -0.53914315
v -0.24714352 0.09831983 -0.42806521
v -0.18256214 0.14030606 -0.68133140
v 0.00000001 0.12514983 -0.62917072
v 0.15702109 0.12067654 -0.58600968
v 0.30991390 0.12329144 -0.53678674
v 0.54551840 0.15345676 -0.54551798
v 0.74774086 0.17174426 -0.43170810
v 0.71485442 0.14720942 -0.19154450
v 0.60406065 0.12015514 0.00000011
v 0.55555701 0.00000000 0.00000000
v 0.72190064 0.00000000 0.19343269
v 0.76148427 0.00000000 0.43964314
v 0.55825269 0.00000000 0.55825269
v 0.32313424 0.00000000 0.55968499
v 0.22150832 0.00000000 0.82668024
v -0.00000002 0.00000000 0.57184458
v -0.13823581 0.00000000 0.51590306
v -0.46802300 0.00000000 0.81063950
v -0.54866791 0.00000000 0.54866791
v -0.52879626 0.00000000 0.30530068
v -0.80753326 0.00000000 0.21637778
v -0.73080683 0.00000000 -0.00000006
v -0.73709357 0.00000000 -0.19750385
v -0.51125181 0.00000000 -0.29517135
v -0.44447231 0.00000000 -0.44447246
v -0.30719009 0.00000000 -0.53206897
v -0.17776529 0.00000000 -0.66342932
v 0.00000001 0.00000000 -0.50000000
v 0.14165537 0.00000000 -0.52866411
v 0.39781713 0.00000000 -0.68903965
v 0.55269700 0.00000000 -0.55269665
v 0.51342601 0.00000000 -0.29642645
v 0.76252466 0.00000000 -0.20431769
v 0.55555701 0.00000000 0.00000010
v 0.59027350 -0.11741270 0.00000000
v 0.67006320 -0.13798560 0.17954290
v 0.71983761 -0.16533536 0.41559848
v 0.60724503 -0.17082082 0.60724503
v 0.41424704 -0.16479774 0.71749699
v 0.21932760 -0.16856167 0.81854159
v -0.00000002 -0.11293924 0.56778389
v -0.21764812 -0.16727094 0.81227386
v -0.44521201 -0.17711633 0.77112973
v -0.49695444 -0.13979556 0.49695444
v -0.69639909 -0.15995190 0.40206626
v -0.75618315 -0.15572022 0.20261857
v -0.57656550 -0.11468602 -0.00000005
v -0.69835109 -0.14381091 -0.18712281
v -0.58246940 -0.13378404 -0.33628887
v -0.54940897 -0.15455130 -0.54940915
v -0.35911638 -0.14286540 -0.62200791
v -0.20607299 -0.15837504 -0.76907510
v 0.00000001 -0.14720419 -0.74004543
v 0.18881719 -0.14511302 -0.70467407
v 0.37124410 -0.14769013 -0.64301383
v 0.52197808 -0.14683478 -0.52197772
v 0.63903928 -0.14677723 -0.36894926
v 0.66540521 -0.13702638 -0.17829464
v 0.59027350 -0.11741270 0.00000010
v 0.65563595 -0.27157333 0.00000000
v 0.77465796 -0.33219308 0.20756897
v 0.61552083 -0.29439911 0.35537112
v 0.51879740 -0.30390450 0.51879740
v 0.39409778 -0.32648134 0.68259746
v 0.21087138 -0.33747822 0.78698266
v -0.00000003 -0.30926108 0.74662226
v -0.21463218 -0.34349701 0.80101818
v -0.36155176 -0.29951927 0.62622595
v -0.47001556 -0.27532879 0.47001556
v -0.58593631 -0.28024903 0.33829051
v -0.64410603 -0.27620906 0.17258759
v -0.53916466 -0.22332934 -0.00000005
v -0.60158449 -0.25797477 -0.16119426
v -0.65371096 -0.31266513 -0.37742016
v -0.47430596 -0.27784207 -0.47430614
v -0.32441840 -0.26875708 -0.56190926
v -0.19320369 -0.30920297 -0.72104621
v 0.00000001 -0.30141830 -0.72768807
v 0.19693913 -0.31518057 -0.73498559
v 0.36830646 -0.30511516 -0.63792568
v 0.47401547 -0.27767175 -0.47401512
v 0.50717020 -0.24257576 -0.29281470
v 0.65303826 -0.28003943 -0.17498092
v 0.65563595 -0.27157333 0.00000011
v 0.58825195 -0.39305741 0.00000000
v 0.61152023 -0.42301878 0.16385636
v 0.61920416 -0.47774470 0.35749772
v 0.56664348 -0.53544825 0.56664348
v 0.40012008 -0.53470343 0.69302839
v 0.19027238 -0.49121553 0.71010613
v -0.00000002 -0.34012079 0.50902671
v -0.16823915 -0.43433356 0.62787700
v -0.30237049 -0.40407497 0.52372098
v -0.43097600 -0.40724963 0.43097600
v -0.53952885 -0.41627148 0.31149718
v -0.49044570 -0.33926553 0.13141446
v -0.62887317 -0.42019960 -0.00000005
v -0.56877524 -0.39344999 -0.15240304
v -0.60046625 -0.46328753 -0.34667936
v -0.52953064 -0.50037867 -0.52953082
v -0.34242216 -0.45759842 -0.59309268
v -0.15387215 -0.39724323 -0.57425886
v 0.00000001 -0.38437662 -0.57526022
v 0.13605548 -0.35124627 -0.50776511
v 0.33350796 -0.44568583 -0.57765281
v 0.47666973 -0.45042765 -0.47666943
v 0.57224649 -0.44151458 -0.33038643
v 0.57874948 -0.40034962 -0.15507533
v 0.58825195 -0.39305741 0.00000010
v 0.50682956 -0.50682956 0.00000000
v 0.58739930 -0.60812050 0.15739317
v 0.52591294 -0.60727203 0.30363601
v 0.44139388 -0.62422526 0.44139388
v 0.30396470 -0.60792947 0.52648240
v 0.13186140 -0.50947326 0.49211338
v -0.00000003 -0.61030364 0.61030364
v -0.14534406 -0.56156635 0.54243141
v -0.25147572 -0.50295138 0.43556866
v -0.41028151 -0.58022571 0.41028151
v -0.45650184 -0.52712297 0.26356149
v -0.44140220 -0.45697317 0.11827330
v -0.55554336 -0.55554336 -0.00000005
v -0.56225610 -0.58209038 -0.15065622
v -0.54052150 -0.62414050 -0.31207022
v -0.42896575 -0.60664928 -0.42896590
v -0.25781527 -0.51563060 -0.44654924
v -0.15878172 -0.61348563 -0.59258163
v 0.00000001 -0.55341029 -0.55341029
v 0.14398842 -0.55632758 -0.53737116
v 0.27441356 -0.54882723 -0.47529835
v 0.44343898 -0.62711722 -0.44343868
v 0.49246380 -0.56864816 -0.28432393
v 0.53898734 -0.55800068 -0.14442109
v 0.50682956 -0.50682956 0.00000009
v 0.39405563 -0.58974600 0.00000000
v 0.39461830 -0.61142182 0.10573766
v 0.40159395 -0.69400728 0.23186040
v 0.31365341 -0.66385382 0.31365341
v 0.22948931 -0.68691021 0.39748722
v 0.11428874 -0.66086781 0.42653129
v -0.00000002 -0.59693182 0.39885703
v -0.12693104 -0.73397136 0.47371310
v -0.22366278 -0.66947001 0.38739523
v -0.29623154 -0.62698013 0.29623154
v -0.30698192 -0.53050518 0.17723611
v -0.37628937 -0.58302289 0.10082638
v -0.41922122 -0.62740898 -0.00000004
v -0.37293461 -0.57782513 -0.09992763
v -0.33607367 -0.58077961 -0.19403221
v -0.26579371 -0.56255794 -0.26579380
v -0.21830165 -0.65342325 -0.37810966
v -0.12486116 -0.72200257 -0.46598834
v 0.00000001 -0.70812631 -0.47315481
v 0.12463196 -0.72067589 -0.46513200
v 0.24161692 -0.72321081 -0.41849291
v 0.31727850 -0.67152625 -0.31727830
v 0.45681316 -0.78943312 -0.26374102
v 0.38057494 -0.58966297 -0.10197467
v 0.39405563 -0.58974600 0.00000007
v 0.38268343 -0.92387950 0.00000000
v 0.24303092 -0.60742605 0.06511994
v 0.28641003 -0.79842341 0.16535892
v 0.24642357 -0.84134269 0.24642357
v 0.14504817 -0.70035452 0.25123084
v 0.08518837 -0.79462034 0.31792727
v -0.00000001 -0.74395066 0.30815446
v -0.07873676 -0.73444110 0.29384959
v -0.12247351 -0.59135431 0.21213029
v -0.19234456 -0.65670538 0.19234456
v -0.22379449 -0.62387049 0.12920783
v -0.27961233 -0.69885683 0.07492186
v -0.32088271 -0.77467936 -0.00000003
v -0.27253002 -0.68115550 -0.07302428
v -0.29154557 -0.81273979 -0.16832390
v -0.23668951 -0.80810863 -0.23668958
v -0.14605986 -0.70523947 -0.25298315
v -0.08402079 -0.78372973 -0.31356993
v 0.00000000 -0.81989467 -0.33961150
v 0.08184364 -0.76342022 -0.30544406
v 0.13792956 -0.66598290 -0.23890105
v 0.20919812 -0.71424681 -0.20919798
v 0.28655738 -0.79883403 -0.16544387
v 0.33873206 -0.84661937 -0.09076291
v 0.38268343 -0.92387950 0.00000007
v 0.13791071 -0.69332427 0.00000000
v 0.15135175 -0.78773850 0.04055458
v 0.14666383 -0.85139447 0.08467640
v 0.12875654 -0.91542482 0.12875654
v 0.07472246 -0.75131083 0.12942313
v 0.04577146 -0.88907200 0.17082140
v -0.00000001 -0.79905164 0.15894118
v -0.03619038 -0.70296758 0.13506433
v -0.07716998 -0.77591962 0.13366230
v -0.11491013 -0.81698060 0.11491013
v -0.14740358 -0.85568875 0.08510351
v -0.16468701 -0.85714436 0.04412773
v -0.15872286 -0.79795414 -0.00000001
v -0.17160453 -0.89314801 -0.04598135
v -0.13927017 -0.80847377 -0.08040767
v -0.12137940 -0.86297554 -0.12137944
v -0.07995750 -0.80394751 -0.13849048
v -0.03955252 -0.76827466 -0.14761208
v 0.00000000 -0.85896850 -0.17085938
v 0.04327429 -0.84056526 -0.16150157
v 0.08723028 -0.87707305 -0.15108731
v 0.11623064 -0.82636875 -0.11623056
v 0.13171092 -0.76459152 -0.07604328
v 0.15122116 -0.78705877 -0.04051955
v 0.13791071 -0.69332427 0.00000002
v 0.00000000 -0.73487115 0.00000000
v 0.00000000 -0.73487115 0.00000000
v 0.00000000 -0.73487115 0.00000000
v 0.00000000 -0.73487115 0.00000000
v 0.00000000 -0.73487115 0.00000000
v 0.00000000 -0.73487115 0.00000000
v 0.00000000 -0.73487115 0.00000000
v 0.00000000 -0.73487115 0.00000000
v 0.00000000 -0.73487115 0.00000000
v 0.00000000 -0.73487115 0.00000000
v 0.00000000 -0.73487115 0.00000000
v 0.00000000 -0.73487115 0.00000000
v 0.00000000 -0.73487115 0.00000000
v 0.00000000 -0.73487115 0.00000000
v 0.00000000 -0.73487115 0.00000000
v 0.00000000 -0.73487115 0.00000000
v 0.00000000 -0.73487115 0.00000000
v 0.00000000 -0.73487115 0.00000000
v 0.00000000 -0.73487115 0.00000000
v 0.00000000 -0.73487115 0.00000000
v 0.00000000 -0.73487115 0.00000000
v 0.00000000 -0.73487115 0.00000000
v 0.00000000 -0.73487115 0.00000000
v 0.00000000 -0.73487115 0.00000000
v 0.00000000 -0.73487115 0.00000000
vt 0.00000000 0.00000000
vt 0.04166667 0.00000000
vt 0.08333334 0.00000000
vt 0.12500000 0.00000000
vt 0.16666667 0.00000000
vt 0.20833333 0.00000000
vt 0.25000000 0.00000000
vt 0.29166666 0.00000000
vt 0.33333334 0.00000000
vt 0.37500000 0.00000000
vt 0.41666666 0.00000000
vt 0.45833334 0.00000000
vt 0.50000000 0.00000000
vt 0.54166669 0.00000000
vt 0.58333331 0.00000000
vt 0.62500000 0.00000000
vt 0.66666669 0.00000000
vt 0.70833331 0.00000000
vt 0.75000000 0.00000000
vt 0.79166669 0.00000000
vt 0.83333331 0.00000000
vt 0.87500000 0.00000000
vt 0.91666669 0.00000000
vt 0.95833331 0.00000000
vt 1.00000000 0.00000000
vt 0.00000000 0.06250000
vt 0.04166667 0.06250000
vt 0.08333334 0.06250000
vt 0.12500000 0.06250000
vt 0.16666667 0.06250000
vt 0.20833333 0.06250000
vt 0.25000000 0.06250000
vt 0.29166666 0.06250000
vt 0.33333334 0.06250000
vt 0.37500000 0.06250000
vt 0.41666666 0.06250000
vt 0.45833334 0.06250000
vt 0.50000000 0.06250000
vt 0.54166669 0.06250000
vt 0.58333331 0.06250000
vt 0.62500000 0.06250000
vt 0.66666669 0.06250000
vt 0.70833331 0.06250000
vt 0.75000000 0.06250000
vt 0.79166669 0.06250000
vt 0.83333331 0.06250000
vt 0.87500000 0.06250000
vt 0.91666669 0.06250000
vt 0.95833331 0.06250000
vt 1.00000000 0.06250000
vt 0.00000000 0.12500000
vt 0.04166667 0.12500000
vt 0.08333334 0.12500000
vt 0.12500000 0.12500000
vt 0.16666667 0.12500000
vt 0.20833333 0.12500000
vt 0.25000000 0.12500000
vt 0.29166666 0.12500000
vt 0.33333334 0.12500000
vt 0.37500000 0.12500000
vt 0.41666666 0.12500000
vt 0.45833334 0.12500000
vt 0.50000000 0.12500000
vt 0.54166669 0.12500000
vt 0.58333331 0.12500000
vt 0.62500000 0.12500000
vt 0.66666669 0.12500000
vt 0.70833331 0.12500000
vt 0.75000000 0.12500000
vt 0.79166669 0.12500000
vt 0.83333331 0.12500000
vt 0.87500000 0.12500000
vt 0.91666669 0.12500000
vt 0.95833331 0.12500000
vt 1.00000000 0.12500000
vt 0.00000000 0.18750000
vt 0.04166667 0.18750000
vt 0.08333334 0.18750000
vt 0.12500000 0.18750000
vt 0.16666667 0.18750000
vt 0.20833333 0.18750000
vt 0.25000000 0.18750000
vt 0.29166666 0.18750000
vt 0.33333334 0.18750000
vt 0.37500000 0.18750000
vt 0.41666666 0.18750000
vt 0.45833334 0.18750000
vt 0.50000000 0.18750000
vt 0.54166669 0.18750000
vt 0.58333331 0.18750000
vt 0.62500000 0.18750000
vt 0.66666669 0.18750000
vt 0.70833331 0.18750000
vt 0.75000000 0.18750000
vt 0.79166669 0.18750000
vt 0.83333331 0.18750000
vt 0.87500000 0.18750000
vt 0.91666669 0.18750000
vt 0.95833331 0.18750000
vt 1.00000000 0.18750000
vt 0.00000000 0.25000000
vt 0.04166667 0.25000000
vt 0.08333334 0.25000000
vt 0.12500000 0.25000000
vt 0.16666667 0.25000000
vt 0.20833333 0.25000000
vt 0.25000000 0.25000000
vt 0.29166666 0.25000000
vt 0.33333334 0.25000000
vt 0.37500000 0.25000000
vt 0.41666666 0.25000000
vt 0.45833334 0.25000000
vt 0.50000000 0.25000000
vt 0.54166669 0.25000000
vt 0.58333331 0.25000000
vt 0.62500000 0.25000000
vt 0.66666669 0.25000000
vt 0.70833331 0.25000000
vt 0.75000000 0.25000000
vt 0.79166669 0.25000000
vt 0.83333331 0.25000000
vt 0.87500000 0.25000000
vt 0.91666669 0.25000000
vt 0.95833331 0.25000000
vt 1.00000000 0.25000000
vt 0.00000000 0.31250000
vt 0.04166667 0.31250000
vt 0.08333334 0.31250000
vt 0.12500000 0.31250000
vt 0.16666667 0.31250000
vt 0.20833333 0.31250000
vt 0.25000000 0.31250000
vt 0.29166666 0.31250000
vt 0.33333334 0.31250000
vt 0.37500000 0.31250000
vt 0.41666666 0.31250000
vt 0.45833334 0.31250000
vt 0.50000000 0.31250000
vt 0.54166669 0.31250000
vt 0.58333331 0.31250000
vt 0.62500000 0.31250000
vt 0.66666669 0.31250000
vt 0.70833331 0.31250000
vt 0.75000000 0.31250000
vt 0.79166669 0.31250000
vt 0.83333331 0.31250000
vt 0.87500000 0.31250000
vt 0.91666669 0.31250000
vt 0.95833331 0.31250000
vt 1.00000000 0.31250000
vt 0.00000000 0.37500000
vt 0.04166667 0.37500000
vt 0.08333334 0.37500000
vt 0.12500000 0.37500000
vt 0.16666667 0.37500000
vt 0.20833333 0.37500000
vt 0.25000000 0.37500000
vt 0.29166666 0.37500000
vt 0.33333334 0.37500000
vt 0.37500000 0.37500000
vt 0.41666666 0.37500000
vt 0.45833334 0.37500000
vt 0.50000000 0.37500000
vt 0.54166669 0.37500000
vt 0.58333331 0.37500000
vt 0.62500000 0.37500000
vt 0.66666669 0.37500000
vt 0.70833331 0.37500000
vt 0.75000000 0.37500000
vt 0.79166669 0.37500000
vt 0.83333331 0.37500000
vt 0.87500000 0.37500000
vt 0.91666669 0.37500000
vt 0.95833331 0.37500000
vt 1.00000000 0.37500000
vt 0.00000000 0.43750000
vt 0.04166667 0.43750000
vt 0.08333334 0.43750000
vt 0.12500000 0.43750000
vt 0.16666667 0.43750000
vt 0.20833333 0.43750000
vt 0.25000000 0.43750000
vt 0.29166666 0.43750000
vt 0.33333334 0.43750000
vt 0.37500000 0.43750000
vt 0.41666666 0.43750000
vt 0.45833334 0.43750000
vt 0.50000000 0.43750000
vt 0.54166669 0.43750000
vt 0.58333331 0.43750000
vt 0.62500000 0.43750000
vt 0.66666669 0.43750000
vt 0.70833331 0.43750000
vt 0.75000000 0.43750000
vt 0.79166669 0.43750000
vt 0.83333331 0.43750000
vt 0.87500000 0.43750000
vt 0.91666669 0.43750000
vt 0.95833331 0.43750000
vt 1.00000000 0.43750000
vt 0.00000000 0.50000000
vt 0.04166667 0.50000000
vt 0.08333334 0.50000000
vt 0.12500000 0.50000000
vt 0.16666667 0.50000000
vt 0.20833333 0.50000000
vt 0.25000000 0.50000000
vt 0.29166666 0.50000000
vt 0.33333334 0.50000000
vt 0.37500000 0.50000000
vt 0.41666666 0.50000000
vt 0.45833334 0.50000000
vt 0.50000000 0.50000000
vt 0.54166669 0.50000000
vt 0.58333331 0.50000000
vt 0.62500000 0.50000000
vt 0.66666669 0.50000000
vt 0.70833331 0.50000000
vt 0.75000000 0.50000000
vt 0.79166669 0.50000000
vt 0.83333331 0.50000000
vt 0.87500000 0.50000000
vt 0.91666669 0.50000000
vt 0.95833331 0.50000000
vt 1.00000000 0.50000000
vt 0.00000000 0.56250000
vt 0.04166667 0.56250000
vt 0.08333334 0.56250000
vt 0.12500000 0.56250000
vt 0.16666667 0.56250000
vt 0.20833333 0.56250000
vt 0.25000000 0.56250000
vt 0.29166666 0.56250000
vt 0.33333334 0.56250000
vt 0.37500000 0.56250000
vt 0.41666666 0.56250000
vt 0.45833334 0.56250000
vt 0.50000000 0.56250000
vt 0.54166669 0.56250000
vt 0.58333331 0.56250000
vt 0.62500000 0.56250000
vt 0.66666669 0.56250000
vt 0.70833331 0.56250000
vt 0.75000000 0.56250000
vt 0.79166669 0.56250000
vt 0.83333331 0.56250000
vt 0.87500000 0.56250000
vt 0.91666669 0.56250000
vt 0.95833331 0.56250000
vt 1.00000000 0.56250000
vt 0.00000000 0.62500000
vt 0.04166667 0.62500000
vt 0.08333334 0.62500000
vt 0.12500000 0.62500000
vt 0.16666667 0.62500000
vt 0.20833333 0.62500000
vt 0.25000000 0.62500000
vt 0.29166666 0.62500000
vt 0.33333334 0.62500000
vt 0.37500000 0.62500000
vt 0.41666666 0.62500000
vt 0.45833334 0.62500000
vt 0.50000000 0.62500000
vt 0.54166669 0.62500000
vt 0.58333331 0.62500000
vt 0.62500000 0.62500000
vt 0.66666669 0.62500000
vt 0.70833331 0.62500000
vt 0.75000000 0.62500000
vt 0.79166669 0.62500000
vt 0.83333331 0.62500000
vt 0.87500000 0.62500000
vt 0.91666669 0.62500000
vt 0.95833331 0.62500000
vt 1.00000000 0.62500000
vt 0.00000000 0.68750000
vt 0.04166667 0.68750000
vt 0.08333334 0.68750000
vt 0.12500000 0.68750000
vt 0.16666667 0.68750000
vt 0.20833333 0.68750000
vt 0.25000000 0.68750000
vt 0.29166666 0.68750000
vt 0.33333334 0.68750000
vt 0.37500000 0.68750000
vt 0.41666666 0.68750000
vt 0.45833334 0.68750000
vt 0.50000000 0.68750000
vt 0.54166669 0.68750000
vt 0.58333331 0.68750000
vt 0.62500000 0.68750000
vt 0.66666669 0.68750000
vt 0.70833331 0.68750000
vt 0.75000000 0.68750000
vt 0.79166669 0.68750000
vt 0.83333331 0.68750000
vt 0.87500000 0.68750000
vt 0.91666669 0.68750000
vt 0.95833331 0.68750000
vt 1.00000000 0.68750000
vt 0.00000000 0.75000000
vt 0.04166667 0.75000000
vt 0.08333334 0.75000000
vt 0.12500000 0.75000000
vt 0.16666667 0.75000000
vt 0.20833333 0.75000000
vt 0.25000000 0.75000000
vt 0.29166666 0.75000000
vt 0.33333334 0.75000000
vt 0.37500000 0.75000000
vt 0.41666666 0.75000000
vt 0.45833334 0.75000000
vt 0.50000000 0.75000000
vt 0.54166669 0.75000000
vt 0.58333331 0.75000000
vt 0.62500000 0.75000000
vt 0.66666669 0.75000000
vt 0.70833331 0.75000000
vt 0.75000000 0.75000000
vt 0.79166669 0.75000000
vt 0.83333331 0.75000000
vt 0.87500000 0.75000000
vt 0.91666669 0.75000000
vt 0.95833331 0.75000000
vt 1.00000000 0.75000000
vt 0.00000000 0.81250000
vt 0.04166667 0.81250000
vt 0.08333334 0.81250000
vt 0.12500000 0.81250000
vt 0.16666667 0.81250000
vt 0.20833333 0.81250000
vt 0.25000000 0.81250000
vt 0.29166666 0.81250000
vt 0.33333334 0.81250000
vt 0.37500000 0.81250000
vt 0.41666666 0.81250000
vt 0.45833334 0.81250000
vt 0.50000000 0.81250000
vt 0.54166669 0.81250000
vt 0.58333331 0.81250000
vt 0.62500000 0.81250000
vt 0.66666669 0.81250000
vt 0.70833331 0.81250000
vt 0.75000000 0.81250000
vt 0.79166669 0.81250000
vt 0.83333331 0.81250000
vt 0.87500000 0.81250000
vt 0.91666669 0.81250000
vt 0.95833331 0.81250000
vt 1.00000000 0.81250000
vt 0.00000000 0.87500000
vt 0.04166667 0.87500000
vt 0.08333334 0.87500000
vt 0.12500000 0.87500000
vt 0.16666667 0.87500000
vt 0.20833333 0.87500000
vt 0.25000000 0.87500000
vt 0.29166666 0.87500000
vt 0.33333334 0.87500000
vt 0.37500000 0.87500000
vt 0.41666666 0.87500000
vt 0.45833334 0.87500000
vt 0.50000000 0.87500000
vt 0.54166669 0.87500000
vt 0.58333331 0.87500000
vt 0.62500000 0.87500000
vt 0.66666669 0.87500000
vt 0.70833331 0.87500000
vt 0.75000000 0.87500000
vt 0.79166669 0.87500000
vt 0.83333331 0.87500000
vt 0.87500000 0.87500000
vt 0.91666669 0.87500000
vt 0.95833331 0.87500000
vt 1.00000000 0.87500000
vt 0.00000000 0.93750000
vt 0.04166667 0.93750000
vt 0.08333334 0.93750000
vt 0.12500000 0.93750000
vt 0.16666667 0.93750000
vt 0.20833333 0.93750000
vt 0.25000000 0.93750000
vt 0.29166666 0.93750000
vt 0.33333334 0.93750000
vt 0.37500000 0.93750000
vt 0.41666666 0.93750000
vt 0.45833334 0.93750000
vt 0.50000000 0.93750000
vt 0.54166669 0.93750000
vt 0.58333331 0.93750000
vt 0.62500000 0.93750000
vt 0.66666669 0.93750000
vt 0.70833331 0.93750000
vt 0.75000000 0.93750000
vt 0.79166669 0.93750000
vt 0.83333331 0.93750000
vt 0.87500000 0.93750000
vt 0.91666669 0.93750000
vt 0.95833331 0.93750000
vt 1.00000000 0.93750000
vt 0.00000000 1.00000000
vt 0.04166667 1.00000000
vt 0.08333334 1.00000000
vt 0.12500000 1.00000000
vt 0.16666667 1.00000000
vt 0.20833333 1.00000000
vt 0.25000000 1.00000000
vt 0.29166666 1.00000000
vt 0.33333334 1.00000000
vt 0.37500000 1.00000000
vt 0.41666666 1.00000000
vt 0.45833334 1.00000000
vt 0.50000000 1.00000000
vt 0.54166669 1.00000000
vt 0.58333331 1.00000000
vt 0.62500000 1.00000000
vt 0.66666669 1.00000000
vt 0.70833331 1.00000000
vt 0.75000000 1.00000000
vt 0.79166669 1.00000000
vt 0.83333331 1.00000000
vt 0.87500000 1.00000000
vt 0.91666669 1.00000000
vt 0.95833331 1.00000000
vt 1.00000000 1.00000000
vn -0.33767152 0.92115533 -0.19352204
vn -0.33767152 0.92115533 -0.19352204
vn -0.33767152 0.92115533 -0.19352204
vn -0.33767152 0.92115533 -0.19352204
vn -0.33767152 0.92115533 -0.19352204
vn -0.33767152 0.92115533 -0.19352204
vn -0.33767152 0.92115533 -0.19352204
vn -0.33767152 0.92115533 -0.19352204
vn -0.33767152 0.92115533 -0.19352204
vn -0.33767152 0.92115533 -0.19352204
vn -0.33767152 0.92115533 -0.19352204
vn -0.33767152 0.92115533 -0.19352204
vn -0.33767152 0.92115533 -0.19352204
vn -0.33767152 0.92115533 -0.19352204
vn -0.33767152 0.92115533 -0.19352204
vn -0.33767152 0.92115533 -0.19352204
vn -0.33767152 0.92115533 -0.19352204
vn -0.33767152 0.92115533 -0.19352204
vn -0.33767152 0.92115533 -0.19352204
vn -0.33767152 0.92115533 -0.19352204
vn -0.33767152 0.92115533 -0.19352204
vn -0.33767152 0.92115533 -0.19352204
vn -0.33767152 0.92115533 -0.19352204
vn -0.33767152 0.92115533 -0.19352204
vn -0.33767152 0.92115533 -0.19352204
vn -0.03903709 0.85428470 0.51833737
vn -0.09470236 0.90158355 0.42211211
vn 0.37359133 0.83447421 -0.40507090
vn 0.23878707 0.93243212 -0.27120301
vn -0.00022822 0.99529839 -0.09685590
vn -0.70658946 0.70442420 0.06721663
vn -0.55187583 0.82816565 0.09785039
vn -0.10624763 0.99200940 -0.06803562
vn 0.48093316 0.82608646 0.29374212
vn 0.08233666 0.99371099 0.07588965
vn -0.38934329 0.74440283 -0.54247224
vn -0.24788477 0.51749390 -0.81899524
vn -0.39577559 0.90465224 0.15800674
vn -0.25393397 0.85928631 0.44400969
vn -0.40570965 0.74535650 0.52900225
vn 0.17083757 0.98315996 -0.06489215
vn 0.71228063 0.58805293 -0.38321027
vn 0.81016541 0.55181909 -0.19780728
vn -0.84387034 0.43673339 -0.31168371
vn -0.75066471 0.44871664 -0.48492879
vn -0.33180678 0.68254584 -0.65118003
vn 0.24876085 0.96839279 -0.01825720
vn 0.12306838 0.85974485 -0.49567425
vn 0.12480456 0.94825518 -0.29195186
vn -0.03903709 0.85428470 0.51833737
vn 0.55071020 0.83429283 -0.02595473
vn 0.41614613 0.81759191 0.39795223
vn 0.55717427 0.81755781 0.14545068
vn 0.60550457 0.73820752 0.29734471
vn 0.60489243 0.68846965 0.40014341
vn -0.43165970 0.79004335 0.43531743
vn -0.40474880 0.79898053 0.44475669
vn -0.24651702 0.84304535 0.47802088
vn -0.30487686 0.61072439 0.73079813
vn -0.45697200 0.65553129 0.60121149
vn -0.59327924 0.80496478 0.00717227
vn -0.32023111 0.81614631 -0.48099610
vn -0.22089563 0.94759446 -0.23080306
vn -0.46325579 0.85077423 0.24814738
vn -0.68270785 0.68113500 0.26450923
vn -0.06859557 0.93596029 -0.34535933
vn 0.30577183 0.60963750 -0.73133135
vn 0.44982669 0.55980295 -0.69589990
vn -0.18344106 0.74780357 -0.63807470
vn -0.29190549 0.79981655 -0.52448517
vn 0.35001215 0.51028258 -0.78555912
vn 0.53530955 0.30382243 -0.78812146
vn 0.57277292 0.40044570 -0.71524429
vn 0.44343811 0.70798641 -0.54965252
vn 0.55071020 0.83429283 -0.02595473
vn 0.79237801 0.60873395 0.03974906
vn 0.76343733 0.52920365 0.37027976
vn 0.71636701 0.57846898 0.39011785
vn 0.58428496 0.70423728 0.40331239
vn 0.39554405 0.63962615 0.65910798
vn 0.50523919 0.55330682 0.66225755
vn -0.36778557 0.86680269 0.33672979
vn -0.40095338 0.88277113 0.24484996
vn -0.68874049 0.70204252 0.18103285
vn -0.50199640 0.39778844 0.76796097
vn -0.46218452 0.41943240 0.78132063
vn -0.46665511 0.86376470 0.19011462
vn -0.35078731 0.85912651 -0.37262571
vn -0.44504550 0.89191496 -0.08013861
vn -0.55316508 0.81171638 -0.18741629
vn -0.63376504 0.66013283 -0.40319559
vn 0.40878937 0.59780490 -0.68958008
vn 0.35910517 0.64063132 -0.67870104
vn -0.20070763 0.59182954 -0.78067547
vn -0.33499250 0.48629120 -0.80703217
vn 0.58002687 0.80598754 -0.11812267
vn 0.62125599 0.78103858 -0.06340008
vn 0.31727573 0.38819996 -0.86523807
vn 0.41525117 0.43394589 -0.79953575
vn 0.79237801 0.60873395 0.03974906
vn 0.89973313 0.43558437 -0.02732297
vn 0.65474081 0.65456343 0.37796989
vn 0.74707437 0.64481354 0.16154100
vn 0.66612065 0.68899590 0.28560090
vn 0.21098149 0.83062267 0.51531810
vn 0.38234600 0.61944562 0.68563735
vn 0.03419719 0.50086778 0.86484802
vn -0.32785612 0.57687861 0.74814534
vn -0.56730026 0.81213099 0.13643172
vn -0.49048969 0.87024987 -0.04566114
vn -0.62493342 0.47846818 0.61686832
vn -0.70261884 0.22778933 0.67412066
vn -0.69708467 0.62053287 -0.35918227
vn -0.88197041 0.29229489 -0.36971873
vn -0.90233606 0.39026713 -0.18297914
vn -0.34385806 0.75856721 -0.55347747
vn -0.07982082 0.64035749 -0.76391822
vn 0.34183872 0.76195520 -0.55006403
vn 0.01848548 0.86982381 -0.49301594
vn -0.13355917 0.77043980 -0.62336546
vn 0.06800716 0.75239700 -0.65518975
vn 0.41260633 0.90918064 0.05609495
vn 0.56262058 0.80020231 -0.20768821
vn 0.68832105 0.21479546 -0.69287604
vn 0.89973313 0.43558437 -0.02732297
vn 0.80948162 0.30246103 -0.50324631
vn 0.74548376 0.53817034 0.39322606
vn 0.96772760 0.13811958 0.21077572
vn 0.73692441 0.54886073 0.39458120
vn 0.26654798 0.36474770 0.89213860
vn 0.33871293 0.21008028 0.91713673
vn -0.18997528 0.57203138 0.79792821
vn -0.23446828 0.29243597 0.92709541
vn -0.28957921 0.56987226 0.76901841
vn -0.52893865 0.82630479 0.19350520
vn -0.58446169 0.79380697 -0.16815163
vn -0.88805586 0.14788854 0.43529952
vn -0.96594298 0.08668168 0.24380399
vn -0.41936842 0.63506562 -0.64870781
vn -0.98085588 0.10375997 -0.16479002
vn -0.88271272 0.21087299 -0.41994137
vn -0.00550262 0.37118417 -0.92854291
vn 0.00301991 0.01512960 -0.99988097
vn -0.14110823 0.23727159 -0.96114028
vn 0.13508922 0.50553107 -0.85216731
vn 0.01029653 0.34812227 -0.93739259
vn 0.67979163 0.69722146 -0.22752108
vn 0.77301168 0.63350993 0.03343894
vn 0.73720229 0.63454157 -0.23214152
vn 0.80948162 0.30246103 -0.50324631
vn 0.95160139 0.16780823 -0.25747848
vn 0.87713432 0.23653039 0.41795784
vn 0.74692315 0.22687504 0.62500685
vn 0.96414536 -0.07369635 0.25493622
vn 0.19625133 0.48083982 0.85456336
vn 0.06258534 0.18920361 0.97994137
vn 0.34074792 -0.17957705 0.92284495
vn -0.32603389 0.50892359 0.79667979
vn -0.18266915 0.35371599 0.91734236
vn -0.78270751 0.31911644 0.53435355
vn -0.93557900 0.32356441 0.14141449
vn -0.72839355 0.64514518 -0.23071726
vn -0.95056456 0.15897188 0.26674882
vn -0.96809185 0.20310119 -0.14679253
vn -0.44278809 0.72930652 -0.52158487
vn -0.78305978 -0.03725315 -0.62082976
vn -0.29212877 -0.14536834 -0.94526654
vn 0.30163932 0.40125194 -0.86487603
vn -0.27652541 -0.09257016 -0.95653772
vn -0.03019309 -0.04177672 -0.99867064
vn 0.19111395 0.00599134 -0.98154950
vn 0.53313029 0.34003904 -0.77469057
vn 0.79217452 0.60231316 -0.09837893
vn 0.83701938 0.51389736 -0.18790396
vn 0.95160139 0.16780823 -0.25747848
vn 0.96968246 -0.24360907 0.01924661
vn 0.99807006 -0.03557082 -0.05089982
vn 0.64715016 0.57258070 0.50333691
vn 0.86116898 0.12757295 0.49204999
vn 0.75854695 -0.25545448 0.59945780
vn -0.39868012 0.45591035 0.79573852
vn 0.09843440 -0.41210115 0.90580535
vn 0.18530798 -0.34514925 0.92007232
vn -0.45871010 0.26930302 0.84679449
vn -0.87925369 -0.13935404 0.45551440
vn -0.86648417 -0.24793339 0.43328321
vn -0.95714271 0.24125211 0.16023524
vn -0.86467075 0.49561059 -0.08194355
vn -0.95502603 0.04919179 -0.29241312
vn -0.84221166 -0.35417271 -0.40649882
vn -0.32643977 0.14108977 -0.93462878
vn -0.53410631 -0.20143293 -0.82106948
vn -0.10996392 0.01752492 -0.99378109
vn 0.16029698 0.24750517 -0.95553446
vn -0.14433894 0.03281273 -0.98898411
vn 0.29190335 0.38942906 -0.87357748
vn 0.37291986 -0.26422676 -0.88944644
vn 0.89313120 0.02300779 -0.44920725
vn 0.91072303 0.33520654 0.24128871
vn 0.96968246 -0.24360907 0.01924661
vn 0.99399364 -0.04004848 0.10184719
vn 0.93542218 -0.00714597 -0.35346067
vn 0.81300110 0.45477968 0.36359969
vn 0.37553692 0.51679820 0.76934493
vn 0.62694806 0.04334475 0.77785432
vn -0.02327140 -0.27548739 0.96102297
vn -0.47192970 0.09703542 0.87627995
vn 0.36958706 -0.05201866 0.92773890
vn -0.23342820 -0.24084857 0.94207382
vn -0.91524333 -0.00061942 0.40290120
vn -0.89397752 0.14161812 0.42514524
vn -0.93833792 -0.12280761 0.32317191
vn -0.94985157 -0.30746394 0.05698915
vn -0.81467694 0.15718664 -0.55820596
vn -0.79162341 0.14569402 -0.59338474
vn -0.72973251 -0.00200744 -0.68372977
vn -0.38362512 0.48635176 -0.78504372
vn -0.11287631 0.60868448 -0.78534204
vn 0.29806909 0.41347197 -0.86034626
vn -0.23195454 0.06925996 -0.97025782
vn 0.11223923 0.15707403 -0.98118812
vn 0.80901498 0.30545285 -0.50218862
vn 0.78648961 -0.34561387 -0.51184493
vn 0.91997421 -0.39116189 -0.02529766
vn 0.99399364 -0.04004848 0.10184719
vn 0.96996754 0.23528160 0.06168777
vn 0.98033613 0.01001414 -0.19708131
vn 0.87012386 -0.48354816 0.09521313
vn 0.67390257 -0.20151269 0.71080792
vn 0.38651484 0.29864991 0.87259066
vn -0.05493086 0.30303308 0.95139545
vn -0.15396622 0.32337841 0.93365991
vn 0.09009053 0.38650057 0.91787857
vn -0.43054545 -0.10684948 0.89622194
vn -0.79611570 -0.38570830 0.46629277
vn -0.87519014 -0.04152431 0.48199371
vn -0.98367852 -0.16869617 -0.06259532
vn -0.81346601 -0.57349724 -0.09681925
vn -0.91778558 -0.39184138 0.06426562
vn -0.77246284 0.21041831 -0.59918725
vn -0.76603699 0.11548509 -0.63233733
vn -0.58616406 0.17439552 -0.79120028
vn -0.32285327 0.22269405 -0.91987675
vn 0.19240053 0.51046503 -0.83809763
vn 0.20373935 0.55966264 -0.80328578
vn 0.34222579 0.01347373 -0.93952113
vn 0.68241483 -0.46811438 -0.56140792
vn 0.93660522 -0.07665326 -0.34189895
vn 0.98986912 0.01442489 -0.14124846
vn 0.96996754 0.23528160 0.06168777
vn 0.96319288 -0.18611291 -0.19396284
vn 0.99843186 -0.05456280 -0.01251784
vn 0.89762288 -0.04995079 0.43792486
vn 0.78384840 -0.21213609 0.58359224
vn 0.53059101 -0.25549969 0.80820364
vn -0.03559220 -0.51286799 0.85772926
vn -0.08238596 -0.32690743 0.94145846
vn -0.06016035 -0.33387533 0.94069552
vn -0.56821400 -0.62211180 0.53861851
vn -0.78263223 -0.42691326 0.45302525
vn -0.67737669 -0.63136858 0.37753740
vn -0.75603914 -0.65423453 0.01954336
vn -0.95198888 -0.03462447 -0.30416802
vn -0.86141628 -0.35423064 0.36398157
vn -0.90507460 0.02019504 -0.42477283
vn -0.58531821 0.06861211 -0.80789536
vn -0.46763295 -0.36201292 -0.80639076
vn -0.38268656 -0.66025680 -0.64622897
vn 0.06326749 -0.65046418 -0.75689733
vn 0.04748623 -0.54645020 -0.83614433
vn 0.61572772 -0.12104703 -0.77860588
vn 0.88154161 -0.05637577 -0.46872804
vn 0.83809608 -0.34163398 -0.42530146
vn 0.82122558 -0.47730783 -0.31267500
vn 0.96319288 -0.18611291 -0.19396284
vn 0.87507445 -0.44285437 -0.19525564
vn 0.82039386 -0.53760630 -0.19476478
vn 0.84049004 -0.51783717 0.15944041
vn 0.77099013 -0.38824481 0.50481689
vn 0.26477221 -0.51273102 0.81670225
vn -0.24513586 -0.46980909 0.84804940
vn -0.29087403 -0.42385125 0.85775429
vn 0.08294269 -0.85789114 0.50709319
vn -0.44969407 -0.68645334 0.57145166
vn -0.69916588 -0.42392886 0.57571810
vn -0.87905741 -0.46023685 0.12425865
vn -0.69472140 -0.62995195 0.34716403
vn -0.98715883 -0.13461858 0.08599519
vn -0.99833858 -0.05747970 0.00402120
vn -0.91022122 -0.41324586 -0.02692956
vn -0.49290657 -0.36148679 -0.79143572
vn -0.29687369 -0.18608646 -0.93660980
vn -0.03671004 -0.24307689 -0.96931219
vn 0.19911301 -0.51855290 -0.83153898
vn -0.05144283 -0.70554012 -0.70680034
vn 0.00154888 -0.64434195 -0.76473594
vn 0.78096634 -0.24385530 -0.57500094
vn 0.95944536 -0.06703444 -0.27380818
vn 0.95698184 -0.26151019 -0.12569121
vn 0.87507445 -0.44285437 -0.19525564
vn 0.69329971 -0.69229317 -0.20016427
vn 0.69477379 -0.65753514 -0.29143959
vn 0.66456324 -0.71435428 0.21921134
vn 0.40267646 -0.89239073 0.20369177
vn -0.07025860 -0.82237858 0.56458575
vn -0.02522928 -0.91071284 0.41226882
vn 0.03434005 -0.53071129 0.84685677
vn -0.42594451 -0.24033247 0.87224507
vn -0.43993267 -0.60499585 0.66365594
vn -0.47156185 -0.77371496 0.42307755
vn -0.68900573 -0.72286117 0.05237222
vn -0.82580584 -0.52084398 0.21625526
vn -0.53482056 -0.68386531 0.49628136
vn -0.62795061 -0.77793354 0.02230211
vn -0.49311280 -0.86975408 -0.01917444
vn -0.21849063 -0.89159095 -0.39664528
vn -0.34956554 -0.76397860 -0.54234725
vn -0.20792575 -0.48336253 -0.85036910
vn 0.14958668 -0.23539826 -0.96031839
vn 0.31774732 -0.15339491 -0.93568516
vn 0.09738269 -0.49996048 -0.86055577
vn 0.39451423 -0.61213386 -0.68531060
vn 0.90030813 -0.43267518 -0.04730137
vn 0.73171204 -0.67583698 0.08855390
vn 0.69329971 -0.69229317 -0.20016427
vn 0.71237928 -0.55781096 0.42586699
vn 0.32531995 -0.75180405 -0.57354826
vn 0.54028404 -0.83915091 0.06260017
vn 0.22280429 -0.85456419 0.46912491
vn 0.25461760 -0.92903626 0.26844296
vn -0.28577226 -0.52443910 0.80205852
vn 0.42050770 -0.80893081 0.41085792
vn -0.11318355 -0.96837139 0.22236487
vn -0.55433267 -0.78712094 0.27047366
vn -0.56546879 -0.82320052 0.05085282
vn -0.44258633 -0.89339918 0.07717081
vn -0.59211439 -0.64556694 0.48233187
vn -0.68818718 -0.72385049 0.04938471
vn -0.51124823 -0.85635883 -0.07262760
vn -0.43896785 -0.85538703 -0.27499139
vn -0.27943388 -0.94300437 -0.18071957
vn -0.59157556 -0.79318941 -0.14452934
vn -0.52997822 -0.73697799 -0.41950762
vn 0.18309557 -0.69438535 -0.69592011
vn 0.21785471 -0.80653322 -0.54958481
vn 0.34146279 -0.83373922 -0.43391481
vn -0.06345695 -0.80806512 -0.58566552
vn 0.74706650 -0.66165680 -0.06404661
vn 0.91542959 -0.34837496 0.20155284
vn 0.71237928 -0.55781096 0.42586699
vn 0.57444721 -0.52752864 0.62587839
vn 0.69236028 -0.58887494 0.41696960
vn 0.58329898 -0.54702550 -0.60043764
vn -0.09625455 -0.61822778 0.78008300
vn 0.39128199 -0.85560906 0.33886799
vn 0.08655144 -0.87585080 0.47475713
vn -0.51906455 -0.67368656 0.52604043
vn -0.28709570 -0.94226885 0.17235281
vn -0.51464945 -0.85325640 0.08419938
vn -0.23240480 -0.89201778 0.38767549
vn -0.71178997 -0.59640402 0.37102190
vn -0.38630328 -0.59046108 0.70860809
vn -0.65168208 -0.72770190 0.21391702
vn -0.72353619 -0.62042612 -0.30260018
vn -0.77742308 -0.59405816 0.20665975
vn -0.21562639 -0.45257998 -0.86526102
vn -0.39621368 -0.78174233 -0.48155341
vn -0.66421753 -0.74738652 0.01511441
vn 0.14594935 -0.89453113 -0.42250788
vn 0.59601372 -0.74324340 -0.30390286
vn 0.44351605 -0.87762392 -0.18185082
vn -0.09347298 -0.92689198 -0.36350244
vn -0.35250488 -0.77593070 -0.52313638
vn 0.44447103 -0.89185023 0.08395629
vn 0.57444721 -0.52752864 0.62587839
vn -0.42988998 -0.87777531 -0.21143554
vn 0.16451260 -0.97407830 0.15526448
vn 0.46229020 -0.44837081 -0.76501721
vn -0.43189430 -0.86316609 0.26155603
vn -0.39326787 -0.72478777 0.56570578
vn 0.57630873 -0.77911782 -0.24666505
vn -0.86152631 -0.49271351 0.12249865
vn -0.23976243 -0.96845949 0.06782530
vn 0.03314471 -0.85646552 0.51513910
vn 0.26752239 -0.60037816 0.75364298
vn -0.40964085 -0.79090434 0.45460376
vn -0.46897557 -0.87934935 0.08250276
vn -0.12533817 -0.81899935 0.55993789
vn -0.17566384 -0.91043496 -0.37450019
vn -0.29531920 -0.91145205 0.28642923
vn 0.13838838 -0.98828483 0.06435650
vn 0.56757087 -0.61266965 -0.54999924
vn -0.61159682 -0.77651078 0.15159284
vn -0.54677272 -0.81595248 0.18777978
vn 0.11252052 -0.99230683 -0.05163587
vn 0.59687042 -0.79786986 -0.08455493
vn 0.63287616 -0.76496273 0.11958164
vn -0.03335933 -0.99639124 -0.07804850
vn -0.18640904 -0.89535999 0.40445280
vn -0.42988998 -0.87777531 -0.21143554
vn 0.09080768 -0.99389535 0.06265742
vn 0.09080768 -0.99389535 0.06265742
vn 0.09080768 -0.99389535 0.06265742
vn 0.09080768 -0.99389535 0.06265742
vn 0.09080768 -0.99389535 0.06265742
vn 0.09080768 -0.99389535 0.06265742
vn 0.09080768 -0.99389535 0.06265742
vn 0.09080768 -0.99389535 0.06265742
vn 0.09080768 -0.99389535 0.06265742
vn 0.09080768 -0.99389535 0.06265742
vn 0.09080768 -0.99389535 0.06265742
vn 0.09080768 -0.99389535 0.06265742
vn 0.09080768 -0.99389535 0.06265742
vn 0.09080768 -0.99389535 0.06265742
vn 0.09080768 -0.99389535 0.06265742
vn 0.09080768 -0.99389535 0.06265742
vn 0.09080768 -0.99389535 0.06265742
vn 0.09080768 -0.99389535 0.06265742
vn 0.09080768 -0.99389535 0.06265742
vn 0.09080768 -0.99389535 0.06265742
vn 0.09080768 -0.99389535 0.06265742
vn 0.09080768 -0.99389535 0.06265742
vn 0.09080768 -0.99389535 0.06265742
vn 0.09080768 -0.99389535 0.06265742
vn 0.09080768 -0.99389535 0.06265742
usemtl asteroid_big
s off
f 1/1/1 27/27/27 26/26/26
f 2/2/1 28/28/28 27/27/27
f 3/3/1 29/29/29 28/28/28
f 4/4/1 30/30/30 29/29/29
f 5/5/1 31/31/31 30/30/30
f 6/6/1 32/32/32 31/31/31
f 7/7/1 33/33/33 32/32/32
f 8/8/1 34/34/34 33/33/33
f 9/9/1 35/35/35 34/34/34
f 10/10/1 36/36/36 35/35/35
f 11/11/1 37/37/37 36/36/36
f 12/12/1 38/38/38 37/37/37
f 13/13/1 39/39/39 38/38/38
f 14/14/1 40/40/40 39/39/39
f 15/15/1 41/41/41 40/40/40
f 16/16/1 42/42/42 41/41/41
f 17/17/1 43/43/43 42/42/42
f 18/18/1 44/44/44 43/43/43
f 19/19/1 45/45/45 44/44/44
f 20/20/1 46/46/46 45/45/45
f 21/21/1 47/47/47 46/46/46
f 22/22/1 48/48/48 47/47/47
f 23/23/1 49/49/49 48/48/48
f 24/24/1 50/50/26 49/49/49
f 26/26/26 27/27/27 52/52/52
f 26/26/26 52/52/52 51/51/51
f 27/27/27 28/28/28 53/53/53
f 27/27/27 53/53/53 52/52/52
f 28/28/28 29/29/29 54/54/54
f 28/28/28 54/54/54 53/53/53
f 29/29/29 30/30/30 55/55/55
f 29/29/29 55/55/55 54/54/54
f 30/30/30 31/31/31 56/56/56
f 30/30/30 56/56/56 55/55/55
f 31/31/31 32/32/32 57/57/57
f 31/31/31 57/57/57 56/56/56
f 32/32/32 33/33/33 58/58/58
f 32/32/32 58/58/58 57/57/57
f 33/33/33 34/34/34 59/59/59
f 33/33/33 59/59/59 58/58/58
f 34/34/34 35/35/35 60/60/60
f 34/34/34 60/60/60 59/59/59
f 35/35/35 36/36/36 61/61/61
f 35/35/35 61/61/61 60/60/60
f 36/36/36 37/37/37 62/62/62
f 36/36/36 62/62/62 61/61/61
f 37/37/37 38/38/38 63/63/63
f 37/37/37 63/63/63 62/62/62
f 38/38/38 39/39/39 64/64/64
f 38/38/38 64/64/64 63/63/63
f 39/39/39 40/40/40 65/65/65
f 39/39/39 65/65/65 64/64/64
f 40/40/40 41/41/41 66/66/66
f 40/40/40 66/66/66 65/65/65
f 41/41/41 42/42/42 67/67/67
f 41/41/41 67/67/67 66/66/66
f 42/42/42 43/43/43 68/68/68
f 42/42/42 68/68/68 67/67/67
f 43/43/43 44/44/44 69/69/69
f 43/43/43 69/69/69 68/68/68
f 44/44/44 45/45/45 70/70/70
f 44/44/44 70/70/70 69/69/69
f 45/45/45 46/46/46 71/71/71
f 45/45/45 71/71/71 70/70/70
f 46/46/46 47/47/47 72/72/72
f 46/46/46 72/72/72 71/71/71
f 47/47/47 48/48/48 73/73/73
f 47/47/47 73/73/73 72/72/72
f 48/48/48 49/49/49 74/74/74
f 48/48/48 74/74/74 73/73/73
f 49/49/49 50/50/26 75/75/51
f 49/49/49 75/75/51 74/74/74
f 51/51/51 52/52/52 77/77/77
f 51/51/51 77/77/77 76/76/76
f 52/52/52 53/53/53 78/78/78
f 52/52/52 78/78/78 77/77/77
f 53/53/53 54/54/54 79/79/79
f 53/53/53 79/79/79 78/78/78
f 54/54/54 55/55/55 80/80/80
f 54/54/54 80/80/80 79/79/79
f 55/55/55 56/56/56 81/81/81
f 55/55/55 81/81/81 80/80/80
f 56/56/56 57/57/57 82/82/82
f 56/56/56 82/82/82 81/81/81
f 57/57/57 58/58/58 83/83/83
f 57/57/57 83/83/83 82/82/82
f 58/58/58 59/59/59 84/84/84
f 58/58/58 84/84/84 83/83/83
f 59/59/59 60/60/60 85/85/85
f 59/59/59 85/85/85 84/84/84
f 60/60/60 61/61/61 86/86/86
f 60/60/60 86/86/86 85/85/85
f 61/61/61 62/62/62 87/87/87
f 61/61/61 87/87/87 86/86/86
f 62/62/62 63/63/63 88/88/88
f 62/62/62 88/88/88 87/87/87
f 63/63/63 64/64/64 89/89/89
f 63/63/63 89/89/89 88/88/88
f 64/64/64 65/65/65 90/90/90
f 64/64/64 90/90/90 89/89/89
f 65/65/65 66/66/66 91/91/91
f 65/65/65 91/91/91 90/90/90
f 66/66/66 67/67/67 92/92/92
f 66/66/66 92/92/92 91/91/91
f 67/67/67 68/68/68 93/93/93
f 67/67/67 93/93/93 92/92/92
f 68/68/68 69/69/69 94/94/94
f 68/68/68 94/94/94 93/93/93
f 69/69/69 70/70/70 95/95/95
f 69/69/69 95/95/95 94/94/94
f 70/70/70 71/71/71 96/96/96
f 70/70/70 96/96/96 95/95/95
f 71/71/71 72/72/72 97/97/97
f 71/71/71 97/97/97 96/96/96
f 72/72/72 73/73/73 98/98/98
f 72/72/72 98/98/98 97/97/97
f 73/73/73 74/74/74 99/99/99
f 73/73/73 99/99/99 98/98/98
f 74/74/74 75/75/51 100/100/76
f 74/74/74 100/100/76 99/99/99
f 76/76/76 77/77/77 102/102/102
f 76/76/76 102/102/102 101/101/101
f 77/77/77 78/78/78 103/103/103
f 77/77/77 103/103/103 102/102/102
f 78/78/78 79/79/79 104/104/104
f 78/78/78 104/104/104 103/103/103
f 79/79/79 80/80/80 105/105/105
f 79/79/79 105/105/105 104/104/104
f 80/80/80 81/81/81 106/106/106
f 80/80/80 106/106/106 105/105/105
f 81/81/81 82/82/82 107/107/107
f 81/81/81 107/107/107 106/106/106
f 82/82/82 83/83/83 108/108/108
f 82/82/82 108/108/108 107/107/107
f 83/83/83 84/84/84 109/109/109
f 83/83/83 109/109/109 108/108/108
f 84/84/84 85/85/85 110/110/110
f 84/84/84 110/110/110 109/109/109
f 85/85/85 86/86/86 111/111/111
f 85/85/85 111/111/111 110/110/110
f 86/86/86 87/87/87 112/112/112
f 86/86/86 112/112/112 111/111/111
f 87/87/87 88/88/88 113/113/113
f 87/87/87 113/113/113 112/112/112
f 88/88/88 89/89/89 114/114/114
f 88/88/88 114/114/114 113/113/113
f 89/89/89 90/90/90 115/115/115
f 89/89/89 115/115/115 114/114/114
f 90/90/90 91/91/91 116/116/116
f 90/90/90 116/116/116 115/115/115
f 91/91/91 92/92/92 117/117/117
f 91/91/91 117/117/117 116/116/116
f 92/92/92 93/93/93 118/118/118
f 92/92/92 118/118/118 117/117/117
f 93/93/93 94/94/94 119/119/119
f 93/93/93 119/119/119 118/118/118
f 94/94/94 95/95/95 120/120/120
f 94/94/94 120/120/120 119/119/119
f 95/95/95 96/96/96 121/121/121
f 95/95/95 121/121/121 120/120/120
f 96/96/96 97/97/97 122/122/122
f 96/96/96 122/122/122 121/121/121
f 97/97/97 98/98/98 123/123/123
f 97/97/97 123/123/123 122/122/122
f 98/98/98 99/99/99 124/124/124
f 98/98/98 124/124/124 123/123/123
f 99/99/99 100/100/76 125/125/101
f 99/99/99 125/125/101 124/124/124
f 101/101/101 102/102/102 127/127/127
f 101/101/101 127/127/127 126/126/126
f 102/102/102 103/103/103 128/128/128
f 102/102/102 128/128/128 127/127/127
f 103/103/103 104/104/104 129/129/129
f 103/103/103 129/129/129 128/128/128
f 104/104/104 105/105/105 130/130/130
f 104/104/104 130/130/130 129/129/129
f 105/105/105 106/106/106 131/131/131
f 105/105/105 131/131/131 130/130/130
f 106/106/106 107/107/107 132/132/132
f 106/106/106 132/132/132 131/131/131
f 107/107/107 108/108/108 133/133/133
f 107/107/107 133/133/133 132/132/132
f 108/108/108 109/109/109 134/134/134
f 108/108/108 134/134/134 133/133/133
f 109/109/109 110/110/110 135/135/135
f 109/109/109 135/135/135 134/134/134
f 110/110/110 111/111/111 136/136/136
f 110/110/110 136/136/136 135/135/135
f 111/111/111 112/112/112 137/137/137
f 111/111/111 137/137/137 136/136/136
f 112/112/112 113/113/113 138/138/138
f 112/112/112 138/138/138 137/137/137
f 113/113/113 114/114/114 139/139/139
f 113/113/113 139/139/139 138/138/138
f 114/114/114 115/115/115 140/140/140
f 114/114/114 140/140/140 139/139/139
f 115/115/115 116/116/116 141/141/141
f 115/115/115 141/141/141 140/140/140
f 116/116/116 117/117/117 142/142/142
f 116/116/116 142/142/142 141/141/141
f 117/117/117 118/118/118 143/143/143
f 117/117/117 143/143/143 142/142/142
f 118/118/118 119/119/119 144/144/144
f 118/118/118 144/144/144 143/143/143
f 119/119/119 120/120/120 145/145/145
f 119/119/119 145/145/145 144/144/144
f 120/120/120 121/121/121 146/146/146
f 120/120/120 146/146/146 145/145/145
f 121/121/121 122/122/122 147/147/147
f 121/121/121 147/147/147 146/146/146
f 122/122/122 123/123/123 148/148/148
f 122/122/122 148/148/148 147/147/147
f 123/123/123 124/124/124 149/149/149
f 123/123/123 149/149/149 148/148/148
f 124/124/124 125/125/101 150/150/126
f 124/124/124 150/150/126 149/149/149
f 126/126/126 127/127/127 152/152/152
f 126/126/126 152/152/152 151/151/151
f 127/127/127 128/128/128 153/153/153
f 127/127/127 153/153/153 152/152/152
f 128/128/128 129/129/129 154/154/154
f 128/128/128 154/154/154 153/153/153
f 129/129/129 130/130/130 155/155/155
f 129/129/129 155/155/155 154/154/154
f 130/130/130 131/131/131 156/156/156
f 130/130/130 156/156/156 155/155/155
f 131/131/131 132/132/132 157/157/157
f 131/131/131 157/157/157 156/156/156
f 132/132/132 133/133/133 158/158/158
f 132/132/132 158/158/158 157/157/157
f 133/133/133 134/134/134 159/159/159
f 133/133/133 159/159/159 158/158/158
f 134/134/134 135/135/135 160/160/160
f 134/134/134 160/160/160 159/159/159
f 135/135/135 136/136/136 161/161/161
f 135/135/135 161/161/161 160/160/160
f 136/136/136 137/137/137 162/162/162
f 136/136/136 162/162/162 161/161/161
f 137/137/137 138/138/138 163/163/163
f 137/137/137 163/163/163 162/162/162
f 138/138/138 139/139/139 164/164/164
f 138/138/138 164/164/164 163/163/163
f 139/139/139 140/140/140 165/165/165
f 139/139/139 165/165/165 164/164/164
f 140/140/140 141/141/141 166/166/166
f 140/140/140 166/166/166 165/165/165
f 141/141/141 142/142/142 167/167/167
f 141/141/141 167/167/167 166/166/166
f 142/142/142 143/143/143 168/168/168
f 142/142/142 168/168/168 167/167/167
f 143/143/143 144/144/144 169/169/169
f 143/143/143 169/169/169 168/168/168
f 144/144/144 145/145/145 170/170/170
f 144/144/144 170/170/170 169/169/169
f 145/145/145 146/146/146 171/171/171
f 145/145/145 171/171/171 170/170/170
f 146/146/146 147/147/147 172/172/172
f 146/146/146 172/172/172 171/171/171
f 147/147/147 148/148/148 173/173/173
f 147/147/147 173/173/173 172/172/172
f 148/148/148 149/149/149 174/174/174
f 148/148/148 174/174/174 173/173/173
f 149/149/149 150/150/126 175/175/151
f 149/149/149 175/175/151 174/174/174
f 151/151/151 152/152/152 177/177/177
f 151/151/151 177/177/177 176/176/176
f 152/152/152 153/153/153 178/178/178
f 152/152/152 178/178/178 177/177/177
f 153/153/153 154/154/154 179/179/179
f 153/153/153 179/179/179 178/178/178
f 154/154/154 155/155/155 180/180/180
f 154/154/154 180/180/180 179/179/179
f 155/155/155 156/156/156 181/181/181
f 155/155/155 181/181/181 180/180/180
f 156/156/156 157/157/157 182/182/182
f 156/156/156 182/182/182 181/181/181
f 157/157/157 158/158/158 183/183/183
f 157/157/157 183/183/183 182/182/182
f 158/158/158 159/159/159 184/184/184
f 158/158/158 184/184/184 183/183/183
f 159/159/159 160/160/160 185/185/185
f 159/159/159 185/185/185 184/184/184
f 160/160/160 161/161/161 186/186/186
f 160/160/160 186/186/186 185/185/185
f 161/161/161 162/162/162 187/187/187
f 161/161/161 187/187/187 186/186/186
f 162/162/162 163/163/163 188/188/188
f 162/162/162 188/188/188 187/187/187
f 163/163/163 164/164/164 189/189/189
f 163/163/163 189/189/189 188/188/188
f 164/164/164 165/165/165 190/190/190
f 164/164/164 190/190/190 189/189/189
f 165/165/165 166/166/166 191/191/191
f 165/165/165 191/191/191 190/190/190
f 166/166/166 167/167/167 192/192/192
f 166/166/166 192/192/192 191/191/191
f 167/167/167 168/168/168 193/193/193
f 167/167/167 193/193/193 192/192/192
f 168/168/168 169/169/169 194/194/194
f 168/168/168 194/194/194 193/193/193
f 169/169/169 170/170/170 195/195/195
f 169/169/169 195/195/195 194/194/194
f 170/170/170 171/171/171 196/196/196
f 170/170/170 196/196/196 195/195/195
f 171/171/171 172/172/172 197/197/197
f 171/171/171 197/197/197 196/196/196
f 172/172/172 173/173/173 198/198/198
f 172/172/172 198/198/198 197/197/197
f 173/173/173 174/174/174 199/199/199
f 173/173/173 199/199/199 198/198/198
f 174/174/174 175/175/151 200/200/176
f 174/174/174 200/200/176 199/199/199
f 176/176/176 177/177/177 202/202/202
f 176/176/176 202/202/202 201/201/201
f 177/177/177 178/178/178 203/203/203
f 177/177/177 203/203/203 202/202/202
f 178/178/178 179/179/179 204/204/204
f 178/178/178 204/204/204 203/203/203
f 179/179/179 180/180/180 205/205/205
f 179/179/179 205/205/205 204/204/204
f 180/180/180 181/181/181 206/206/206
f 180/180/180 206/206/206 205/205/205
f 181/181/181 182/182/182 207/207/207
f 181/181/181 207/207/207 206/206/206
f 182/182/182 183/183/183 208/208/208
f 182/182/182 208/208/208 207/207/207
f 183/183/183 184/184/184 209/209/209
f 183/183/183 209/209/209 208/208/208
f 184/184/184 185/185/185 210/210/210
f 184/184/184 210/210/210 209/209/209
f 185/185/185 186/186/186 211/211/211
f 185/185/185 211/211/211 210/210/210
f 186/186/186 187/187/187 212/212/212
f 186/186/186 212/212/212 211/211/211
f 187/187/187 188/188/188 213/213/213
f 187/187/187 213/213/213 212/212/212
f 188/188/188 189/189/189 214/214/214
f 188/188/188 214/214/214 213/213/213
f 189/189/189 190/190/190 215/215/215
f 189/189/189 215/215/215 214/214/214
f 190/190/190 191/191/191 216/216/216
f 190/190/190 216/216/216 215/215/215
f 191/191/191 192/192/192 217/217/217
f 191/191/191 217/217/217 216/216/216
f 192/192/192 193/193/193 218/218/218
f 192/192/192 218/218/218 217/217/217
f 193/193/193 194/194/194 219/219/219
f 193/193/193 219/219/219 218/218/218
f 194/194/194 195/195/195 220/220/220
f 194/194/194 220/220/220 219/219/219
f 195/195/195 196/196/196 221/221/221
f 195/195/195 221/221/221 220/220/220
f 196/196/196 197/197/197 222/222/222
f 196/196/196 222/222/222 221/221/221
f 197/197/197 198/198/198 223/223/223
f 197/197/197 223/223/223 222/222/222
f 198/198/198 199/199/199 224/224/224
f 198/198/198 224/224/224 223/223/223
f 199/199/199 200/200/176 225/225/201
f 199/199/199 225/225/201 224/224/224
f 201/201/201 202/202/202 227/227/227
f 201/201/201 227/227/227 226/226/226
f 202/202/202 203/203/203 228/228/228
f 202/202/202 228/228/228 227/227/227
f 203/203/203 204/204/204 229/229/229
f 203/203/203 229/229/229 228/228/228
f 204/204/204 205/205/205 230/230/230
f 204/204/204 230/230/230 229/229/229
f 205/205/205 206/206/206 231/231/231
f 205/205/205 231/231/231 230/230/230
f 206/206/206 207/207/207 232/232/232
f 206/206/206 232/232/232 231/231/231
f 207/207/207 208/208/208 233/233/233
f 207/207/207 233/233/233 232/232/232
f 208/208/208 209/209/209 234/234/234
f 208/208/208 234/234/234 233/233/233
f 209/209/209 210/210/210 235/235/235
f 209/209/209 235/235/235 234/234/234
f 210/210/210 211/211/211 236/236/236
f 210/210/210 236/236/236 235/235/235
f 211/211/211 212/212/212 237/237/237
f 211/211/211 237/237/237 236/236/236
f 212/212/212 213/213/213 238/238/238
f 212/212/212 238/238/238 237/237/237
f 213/213/213 214/214/214 239/239/239
f 213/213/213 239/239/239 238/238/238
f 214/214/214 215/215/215 240/240/240
f 214/214/214 240/240/240 239/239/239
f 215/215/215 216/216/216 241/241/241
f 215/215/215 241/241/241 240/240/240
f 216/216/216 217/217/217 242/242/242
f 216/216/216 242/242/242 241/241/241
f 217/217/217 218/218/218 243/243/243
f 217/217/217 243/243/243 242/242/242
f 218/218/218 219/219/219 244/244/244
f 218/218/218 244/244/244 243/243/243
f 219/219/219 220/220/220 245/245/245
f 219/219/219 245/245/245 244/244/244
f 220/220/220 221/221/221 246/246/246
f 220/220/220 246/246/246 245/245/245
f 221/221/221 222/222/222 247/247/247
f 221/221/221 247/247/247 246/246/246
f 222/222/222 223/223/223 248/248/248
f 222/222/222 248/248/248 247/247/247
f 223/223/223 224/224/224 249/249/249
f 223/223/223 249/249/249 248/248/248
f 224/224/224 225/225/201 250/250/226
f 224/224/224 250/250/226 249/249/249
f 226/226/226 227/227/227 252/252/252
f 226/226/226 252/252/252 251/251/251
f 227/227/227 228/228/228 253/253/253
f 227/227/227 253/253/253 252/252/252
f 228/228/228 229/229/229 254/254/254
f 228/228/228 254/254/254 253/253/253
f 229/229/229 230/230/230 255/255/255
f 229/229/229 255/255/255 254/254/254
f 230/230/230 231/231/231 256/256/256
f 230/230/230 256/256/256 255/255/255
f 231/231/231 232/232/232 257/257/257
f 231/231/231 257/257/257 256/256/256
f 232/232/232 233/233/233 258/258/258
f 232/232/232 258/258/258 257/257/257
f 233/233/233 234/234/234 259/259/259
f 233/233/233 259/259/259 258/258/258
f 234/234/234 235/235/235 260/260/260
f 234/234/234 260/260/260 259/259/259
f 235/235/235 236/236/236 261/261/261
f 235/235/235 261/261/261 260/260/260
f 236/236/236 237/237/237 262/262/262
f 236/236/236 262/262/262 261/261/261
f 237/237/237 238/238/238 263/263/263
f 237/237/237 263/263/263 262/262/262
f 238/238/238 239/239/239 264/264/264
f 238/238/238 264/264/264 263/263/263
f 239/239/239 240/240/240 265/265/265
f 239/239/239 265/265/265 264/264/264
f 240/240/240 241/241/241 266/266/266
f 240/240/240 266/266/266 265/265/265
f 241/241/241 242/242/242 267/267/267
f 241/241/241 267/267/267 266/266/266
f 242/242/242 243/243/243 268/268/268
f 242/242/242 268/268/268 267/267/267
f 243/243/243 244/244/244 269/269/269
f 243/243/243 269/269/269 268/268/268
f 244/244/244 245/245/245 270/270/270
f 244/244/244 270/270/270 269/269/269
f 245/245/245 246/246/246 271/271/271
f 245/245/245 271/271/271 270/270/270
f 246/246/246 247/247/247 272/272/272
f 246/246/246 272/272/272 271/271/271
f 247/247/247 248/248/248 273/273/273
f 247/247/247 273/273/273 272/272/272
f 248/248/248 249/249/249 274/274/274
f 248/248/248 274/274/274 273/273/273
f 249/249/249 250/250/226 275/275/251
f 249/249/249 275/275/251 274/274/274
f 251/251/251 252/252/252 277/277/277
f 251/251/251 277/277/277 276/276/276
f 252/252/252 253/253/253 278/278/278
f 252/252/252 278/278/278 277/277/277
f 253/253/253 254/254/254 279/279/279
f 253/253/253 279/279/279 278/278/278
f 254/254/254 255/255/255 280/280/280
f 254/254/254 280/280/280 279/279/279
f 255/255/255 256/256/256 281/281/281
f 255/255/255 281/281/281 280/280/280
f 256/256/256 257/257/257 282/282/282
f 256/256/256 282/282/282 281/281/281
f 257/257/257 258/258/258 283/283/283
f 257/257/257 283/283/283 282/282/282
f 258/258/258 259/259/259 284/284/284
f 258/258/258 284/284/284 283/283/283
f 259/259/259 260/260/260 285/285/285
f 259/259/259 285/285/285 284/284/284
f 260/260/260 261/261/261 286/286/286
f 260/260/260 286/286/286 285/285/285
f 261/261/261 262/262/262 287/287/287
f 261/261/261 287/287/287 286/286/286
f 262/262/262 263/263/263 288/288/288
f 262/262/262 288/288/288 287/287/287
f 263/263/263 264/264/264 289/289/289
f 263/263/263 289/289/289 288/288/288
f 264/264/264 265/265/265 290/290/290
f 264/264/264 290/290/290 289/289/289
f 265/265/265 266/266/266 291/291/291
f 265/265/265 291/291/291 290/290/290
f 266/266/266 267/267/267 292/292/292
f 266/266/266 292/292/292 291/291/291
f 267/267/267 268/268/268 293/293/293
f 267/267/267 293/293/293 292/292/292
f 268/268/268 269/269/269 294/294/294
f 268/268/268 294/294/294 293/293/293
f 269/269/269 270/270/270 295/295/295
f 269/269/269 295/295/295 294/294/294
f 270/270/270 271/271/271 296/296/296
f 270/270/270 296/296/296 295/295/295
f 271/271/271 272/272/272 297/297/297
f 271/271/271 297/297/297 296/296/296
f 272/272/272 273/273/273 298/298/298
f 272/272/272 298/298/298 297/297/297
f 273/273/273 274/274/274 299/299/299
f 273/273/273 299/299/299 298/298/298
f 274/274/274 275/275/251 300/300/276
f 274/274/274 300/300/276 299/299/299
f 276/276/276 277/277/277 302/302/302
f 276/276/276 302/302/302 301/301/301
f 277/277/277 278/278/278 303/303/303
f 277/277/277 303/303/303 302/302/302
f 278/278/278 279/279/279 304/304/304
f 278/278/278 304/304/304 303/303/303
f 279/279/279 280/280/280 305/305/305
f 279/279/279 305/305/305 304/304/304
f 280/280/280 281/281/281 306/306/306
f 280/280/280 306/306/306 305/305/305
f 281/281/281 282/282/282 307/307/307
f 281/281/281 307/307/307 306/306/306
f 282/282/282 283/283/283 308/308/308
f 282/282/282 308/308/308 307/307/307
f 283/283/283 284/284/284 309/309/309
f 283/283/283 309/309/309 308/308/308
f 284/284/284 285/285/285 310/310/310
f 284/284/284 310/310/310 309/309/309
f 285/285/285 286/286/286 311/311/311
f 285/285/285 311/311/311 310/310/310
f 286/286/286 287/287/287 312/312/312
f 286/286/286 312/312/312 311/311/311
f 287/287/287 288/288/288 313/313/313
f 287/287/287 313/313/313 312/312/312
f 288/288/288 289/289/289 314/314/314
f 288/288/288 314/314/314 313/313/313
f 289/289/289 290/290/290 315/315/315
f 289/289/289 315/315/315 314/314/314
f 290/290/290 291/291/291 316/316/316
f 290/290/290 316/316/316 315/315/315
f 291/291/291 292/292/292 317/317/317
f 291/291/291 317/317/317 316/316/316
f 292/292/292 293/293/293 318/318/318
f 292/292/292 318/318/318 317/317/317
f 293/293/293 294/294/294 319/319/319
f 293/293/293 319/319/319 318/318/318
f 294/294/294 295/295/295 320/320/320
f 294/294/294 320/320/320 319/319/319
f 295/295/295 296/296/296 321/321/321
f 295/295/295 321/321/321 320/320/320
f 296/296/296 297/297/297 322/322/322
f 296/296/296 322/322/322 321/321/321
f 297/297/297 298/298/298 323/323/323
f 297/297/297 323/323/323 322/322/322
f 298/298/298 299/299/299 324/324/324
f 298/298/298 324/324/324 323/323/323
f 299/299/299 300/300/276 325/325/301
f 299/299/299 325/325/301 324/324/324
f 301/301/301 302/302/302 327/327/327
f 301/301/301 327/327/327 326/326/326
f 302/302/302 303/303/303 328/328/328
f 302/302/302 328/328/328 327/327/327
f 303/303/303 304/304/304 329/329/329
f 303/303/303 329/329/329 328/328/328
f 304/304/304 305/305/305 330/330/330
f 304/304/304 330/330/330 329/329/329
f 305/305/305 306/306/306 331/331/331
f 305/305/305 331/331/331 330/330/330
f 306/306/306 307/307/307 332/332/332
f 306/306/306 332/332/332 331/331/331
f 307/307/307 308/308/308 333/333/333
f 307/307/307 333/333/333 332/332/332
f 308/308/308 309/309/309 334/334/334
f 308/308/308 334/334/334 333/333/333
f 309/309/309 310/310/310 335/335/335
f 309/309/309 335/335/335 334/334/334
f 310/310/310 311/311/311 336/336/336
f 310/310/310 336/336/336 335/335/335
f 311/311/311 312/312/312 337/337/337
f 311/311/311 337/337/337 336/336/336
f 312/312/312 313/313/313 338/338/338
f 312/312/312 338/338/338 337/337/337
f 313/313/313 314/314/314 339/339/339
f 313/313/313 339/339/339 338/338/338
f 314/314/314 315/315/315 340/340/340
f 314/314/314 340/340/340 339/339/339
f 315/315/315 316/316/316 341/341/341
f 315/315/315 341/341/341 340/340/340
f 316/316/316 317/317/317 342/342/342
f 316/316/316 342/342/342 341/341/341
f 317/317/317 318/318/318 343/343/343
f 317/317/317 343/343/343 342/342/342
f 318/318/318 319/319/319 344/344/344
f 318/318/318 344/344/344 343/343/343
f 319/319/319 320/320/320 345/345/345
f 319/319/319 345/345/345 344/344/344
f 320/320/320 321/321/321 346/346/346
f 320/320/320 346/346/346 345/345/345
f 321/321/321 322/322/322 347/347/347
f 321/321/321 347/347/347 346/346/346
f 322/322/322 323/323/323 348/348/348
f 322/322/322 348/348/348 347/347/347
f 323/323/323 324/324/324 349/349/349
f 323/323/323 349/349/349 348/348/348
f 324/324/324 325/325/301 350/350/326
f 324/324/324 350/350/326 349/349/349
f 326/326/326 327/327/327 352/352/352
f 326/326/326 352/352/352 351/351/351
f 327/327/327 328/328/328 353/353/353
f 327/327/327 353/353/353 352/352/352
f 328/328/328 329/329/329 354/354/354
f 328/328/328 354/354/354 353/353/353
f 329/329/329 330/330/330 355/355/355
f 329/329/329 355/355/355 354/354/354
f 330/330/330 331/331/331 356/356/356
f 330/330/330 356/356/356 355/355/355
f 331/331/331 332/332/332 357/357/357
f 331/331/331 357/357/357 356/356/356
f 332/332/332 333/333/333 358/358/358
f 332/332/332 358/358/358 357/357/357
f 333/333/333 334/334/334 359/359/359
f 333/333/333 359/359/359 358/358/358
f 334/334/334 335/335/335 360/360/360
f 334/334/334 360/360/360 359/359/359
f 335/335/335 336/336/336 361/361/361
f 335/335/335 361/361/361 360/360/360
f 336/336/336 337/337/337 362/362/362
f 336/336/336 362/362/362 361/361/361
f 337/337/337 338/338/338 363/363/363
f 337/337/337 363/363/363 362/362/362
f 338/338/338 339/339/339 364/364/364
f 338/338/338 364/364/364 363/363/363
f 339/339/339 340/340/340 365/365/365
f 339/339/339 365/365/365 364/364/364
f 340/340/340 341/341/341 366/366/366
f 340/340/340 366/366/366 365/365/365
f 341/341/341 342/342/342 367/367/367
f 341/341/341 367/367/367 366/366/366
f 342/342/342 343/343/343 368/368/368
f 342/342/342 368/368/368 367/367/367
f 343/343/343 344/344/344 369/369/369
f 343/343/343 369/369/369 368/368/368
f 344/344/344 345/345/345 370/370/370
f 344/344/344 370/370/370 369/369/369
f 345/345/345 346/346/346 371/371/371
f 345/345/345 371/371/371 370/370/370
f 346/346/346 347/347/347 372/372/372
f 346/346/346 372/372/372 371/371/371
f 347/347/347 348/348/348 373/373/373
f 347/347/347 373/373/373 372/372/372
f 348/348/348 349/349/349 374/374/374
f 348/348/348 374/374/374 373/373/373
f 349/349/349 350/350/326 375/375/351
f 349/349/349 375/375/351 374/374/374
f 351/351/351 352/352/352 377/377/377
f 351/351/351 377/377/377 376/376/376
f 352/352/352 353/353/353 378/378/378
f 352/352/352 378/378/378 377/377/377
f 353/353/353 354/354/354 379/379/379
f 353/353/353 379/379/379 378/378/378
f 354/354/354 355/355/355 380/380/380
f 354/354/354 380/380/380 379/379/379
f 355/355/355 356/356/356 381/381/381
f 355/355/355 381/381/381 380/380/380
f 356/356/356 357/357/357 382/382/382
f 356/356/356 382/382/382 381/381/381
f 357/357/357 358/358/358 383/383/383
f 357/357/357 383/383/383 382/382/382
f 358/358/358 359/359/359 384/384/384
f 358/358/358 384/384/384 383/383/383
f 359/359/359 360/360/360 385/385/385
f 359/359/359 385/385/385 384/384/384
f 360/360/360 361/361/361 386/386/386
f 360/360/360 386/386/386 385/385/385
f 361/361/361 362/362/362 387/387/387
f 361/361/361 387/387/387 386/386/386
f 362/362/362 363/363/363 388/388/388
f 362/362/362 388/388/388 387/387/387
f 363/363/363 364/364/364 389/389/389
f 363/363/363 389/389/389 388/388/388
f 364/364/364 365/365/365 390/390/390
f 364/364/364 390/390/390 389/389/389
f 365/365/365 366/366/366 391/391/391
f 365/365/365 391/391/391 390/390/390
f 366/366/366 367/367/367 392/392/392
f 366/366/366 392/392/392 391/391/391
f 367/367/367 368/368/368 393/393/393
f 367/367/367 393/393/393 392/392/392
f 368/368/368 369/369/369 394/394/394
f 368/368/368 394/394/394 393/393/393
f 369/369/369 370/370/370 395/395/395
f 369/369/369 395/395/395 394/394/394
f 370/370/370 371/371/371 396/396/396
f 370/370/370 396/396/396 395/395/395
f 371/371/371 372/372/372 397/397/397
f 371/371/371 397/397/397 396/396/396
f 372/372/372 373/373/373 398/398/398
f 372/372/372 398/398/398 397/397/397
f 373/373/373 374/374/374 399/399/399
f 373/373/373 399/399/399 398/398/398
f 374/374/374 375/375/351 400/400/376
f 374/374/374 400/400/376 399/399/399
f 376/376/376 377/377/377 401/401/401
f 377/377/377 378/378/378 402/402/401
f 378/378/378 379/379/379 403/403/401
f 379/379/379 380/380/380 404/404/401
f 380/380/380 381/381/381 405/405/401
f 381/381/381 382/382/382 406/406/401
f 382/382/382 383/383/383 407/407/401
f 383/383/383 384/384/384 408/408/401
f 384/384/384 385/385/385 409/409/401
f 385/385/385 386/386/386 410/410/401
f 386/386/386 387/387/387 411/411/401
f 387/387/387 388/388/388 412/412/401
f 388/388/388 389/389/389 413/413/401
f 389/389/389 390/390/390 414/414/401
f 390/390/390 391/391/391 415/415/401
f 391/391/391 392/392/392 416/416/401
f 392/392/392 393/393/393 417/417/401
f 393/393/393 394/394/394 418/418/401
f 394/394/394 395/395/395 419/419/401
f 395/395/395 396/396/396 420/420/401
f 396/396/396 397/397/397 421/421/401
f 397/397/397 398/398/398 422/422/401
f 398/398/398 399/399/399 423/423/401
f 399/399/399 400/400/376 424/424/401
