mtllib generated_asteroid.mtl
o generated_asteroid
v 0.00000000 0.83516991 0.00000000
v 0.00000000 0.83516991 0.00000000
v 0.00000000 0.83516991 0.00000000
v 0.00000000 0.83516991 0.00000000
v 0.00000000 0.83516991 0.00000000
v 0.00000000 0.83516991 0.00000000
v 0.00000000 0.83516991 0.00000000
v 0.00000000 0.83516991 0.00000000
v 0.00000000 0.83516991 0.00000000
v 0.00000000 0.83516991 0.00000000
v 0.00000000 0.83516991 0.00000000
v 0.00000000 0.83516991 0.00000000
v 0.00000000 0.83516991 0.00000000
v 0.00000000 0.83516991 0.00000000
v 0.00000000 0.83516991 0.00000000
v 0.00000000 0.83516991 0.00000000
v 0.00000000 0.83516991 0.00000000
v 0.00000000 0.83516991 0.00000000
v 0.00000000 0.83516991 0.00000000
v 0.24891496 0.92896318 0.00000000
v 0.22943920 0.91123265 0.08350904
v 0.18156625 0.88456279 0.15235218
v 0.11494242 0.85794187 0.19908614
v 0.03847012 0.82680088 0.21817496
v -0.03918252 0.84211099 0.22221495
v -0.11512475 0.85930264 0.19940190
v -0.17993769 0.87662846 0.15098558
v -0.21069632 0.83679408 0.07668715
v -0.23323484 0.87044418 -0.00000002
v -0.21416374 0.85056525 -0.07794929
v -0.17881548 0.87116140 -0.15004399
v -0.11424857 0.85276300 -0.19788438
v -0.03872860 0.83235610 -0.21964088
v 0.03926631 0.84391034 -0.22268976
v 0.11640851 0.86888504 -0.20162551
v 0.18718813 0.91195154 -0.15706941
v 0.22894821 0.90928268 -0.08333039
v 0.24891496 0.92896318 0.00000004
v 0.45438546 0.78701860 0.00000000
v 0.44288135 0.81632316 0.16119562
v 0.35744303 0.80818993 0.29993030
v 0.23197080 0.80357039 0.40178528
v 0.07631350 0.76118791 0.43279555
v -0.07621776 0.76023215 0.43225211
v -0.23188655 0.80327833 0.40163922
v -0.36903974 0.83441025 0.30966097
v -0.40320760 0.74319613 0.14675549
v -0.41429135 0.71757358 -0.00000004
v -0.42648950 0.78610963 -0.15522960
v -0.35540053 0.80357170 -0.29821640
v -0.22166783 0.76787990 -0.38394004
v -0.07683791 0.76641858 -0.43576959
v 0.07674352 0.76547492 -0.43523300
v 0.22860141 0.79189855 -0.39594936
v 0.36866063 0.83355302 -0.30934280
v 0.40669271 0.74962002 -0.14802414
v 0.45438546 0.78701860 0.00000008
v 0.67524898 0.67524898 0.00000000
v 0.60831022 0.64735025 0.22140683
v 0.50704372 0.66189855 0.42546019
v 0.32330784 0.64661574 0.55998570
v 0.11561825 0.66581923 0.65570402
v -0.11826225 0.68104470 0.67069805
v -0.35307106 0.70614207 0.61153692
v -0.48336875 0.63099295 0.40559438
v -0.53238189 0.56654894 0.19377108
v -0.61154860 0.61154860 -0.00000005
v -0.54494596 0.57991940 -0.19834428
v -0.48019534 0.62685043 -0.40293169
v -0.29879588 0.59759188 -0.51752973
v -0.10621262 0.61165422 -0.60236186
v 0.10921758 0.62895739 -0.61940205
v 0.31673470 0.63346952 -0.54860073
v 0.49339727 0.64408427 -0.41400924
v 0.57498205 0.61188310 -0.20927648
v 0.67524898 0.67524898 0.00000012
v 0.78506798 0.45325914 0.00000000
v 0.71860331 0.44151223 0.26155025
v 0.60846758 0.45858812 0.51056492
v 0.40184525 0.46401089 0.69601643
v 0.14488201 0.48170787 0.82166708
v -0.14820275 0.49274820 0.84049892
v -0.40557882 0.46832195 0.70248294
v -0.60239464 0.45401099 0.50546890
v -0.70775366 0.43484613 0.25760117
v -0.78215486 0.45157728 -0.00000007
v -0.68338543 0.41987425 -0.24873215
v -0.57803255 0.43564993 -0.48502690
v -0.38195911 0.44104841 -0.66157269
v -0.13638194 0.45344651 -0.77346063
v 0.13931383 0.46319324 -0.79008591
v 0.38357937 0.44291934 -0.66437912
v 0.58053744 0.43753773 -0.48712850
v 0.70703375 0.43440387 -0.25733942
v 0.78506798 0.45325914 0.00000014
v 0.89908218 0.24090838 0.00000000
v 0.87328964 0.24901472 0.31785145
v 0.65701634 0.22981307 0.55130225
v 0.43927488 0.23540674 0.76084650
v 0.14806926 0.22847958 0.83974296
v -0.15274449 0.23569345 0.86625642
v -0.42011371 0.22513826 0.72765815
v -0.64206517 0.22458336 0.53875643
v -0.83757526 0.23883089 0.30485234
v -0.91974413 0.24644473 -0.00000008
v -0.83699644 0.23866588 -0.30464202
v -0.65442473 0.22890654 -0.54912752
v -0.43110892 0.23103066 -0.74670273
v -0.14796254 0.22831485 -0.83913749
v 0.14040256 0.21664874 -0.79626036
v 0.41950068 0.22480980 -0.72659665
v 0.64580041 0.22588988 -0.54189062
v 0.80192834 0.22866635 -0.29187822
v 0.89908218 0.24090838 0.00000016
v 0.84690583 0.00000000 0.00000000
v 0.89960963 0.00000000 0.32743114
v 0.67755497 0.00000000 0.56853616
v 0.39999998 0.00000000 0.69282037
v 0.14394854 0.00000000 0.81637311
v -0.14507057 0.00000000 0.82273549
v -0.42555264 0.00000000 0.73707867
v -0.76451474 0.00000000 0.64150375
v -0.86534405 0.00000000 0.31495932
v -0.92575336 0.00000000 -0.00000008
v -0.91017544 0.00000000 -0.33127704
v -0.69738948 0.00000000 -0.58517921
v -0.42086914 0.00000000 -0.72896695
v -0.15041023 0.00000000 -0.85301906
v 0.15665172 0.00000000 -0.88841367
v 0.44478083 0.00000000 -0.77038318
v 0.74897295 0.00000000 -0.62846261
v 0.88145751 0.00000000 -0.32082453
v 0.84690583 0.00000000 0.00000015
v 0.90415609 -0.24226783 0.00000000
v 0.83010274 -0.23670006 0.30213270
v 0.70526564 -0.24668978 0.59178823
v 0.40304333 -0.21599023 0.69809157
v 0.13918835 -0.21477573 0.78937674
v -0.14915037 -0.23014745 0.84587318
v -0.44422144 -0.23805746 0.76941401
v -0.60561019 -0.21183196 0.50816709
v -0.85672003 -0.24428986 0.31182045
v -0.92795616 -0.24864505 -0.00000008
v -0.82609820 -0.23555820 -0.30067536
v -0.71559989 -0.25030449 -0.60045958
v -0.39525291 -0.21181540 -0.68459827
v -0.15374200 -0.23723282 -0.87191445
v 0.14851597 -0.22916810 -0.84227371
v 0.45935991 -0.24617024 -0.79563493
v 0.62446469 -0.21842694 -0.52398783
v 0.85022539 -0.24243797 -0.30945694
v 0.90415609 -0.24226783 0.00000016
v 0.80921400 -0.46719998 0.00000000
v 0.70181388 -0.43119687 0.25543937
v 0.59891468 -0.45138845 0.50254911
v 0.40166542 -0.46380338 0.69570500
v 0.14072108 -0.46787360 0.79806924
v -0.13953114 -0.46391675 0.79131985
v -0.38934904 -0.44958156 0.67437226
v -0.57862365 -0.43609545 0.48552266
v -0.67982614 -0.41768748 0.24743636
v -0.78148055 -0.45118806 -0.00000007
v -0.72195029 -0.44356877 -0.26276863
v -0.60972184 -0.45953348 -0.51161730
v -0.39406255 -0.45502439 -0.68253648
v -0.14413445 -0.47922236 -0.81742728
v 0.14517158 -0.48266932 -0.82330674
v 0.39347816 -0.45434961 -0.68152434
v 0.61175537 -0.46106610 -0.51332343
v 0.68034327 -0.41800529 -0.24762489
v 0.80921400 -0.46719998 0.00000014
v 0.62391657 -0.62391657 0.00000000
v 0.53566027 -0.57003778 0.19496442
v 0.46237558 -0.60358846 0.38797921
v 0.31565642 -0.63131291 0.54673302
v 0.10889988 -0.62712967 0.61760223
v -0.10821074 -0.62316036 0.61369318
v -0.29545435 -0.59090865 0.51174188
v -0.48087320 -0.62773526 0.40350035
v -0.60512877 -0.64396453 0.22024876
v -0.68119687 -0.68119687 -0.00000006
v -0.56848049 -0.60496432 -0.20691013
v -0.47818276 -0.62422317 -0.40124291
v -0.35355332 -0.70710677 -0.61237246
v -0.11859488 -0.68296087 -0.67258519
v 0.11410738 -0.65711653 -0.64713341
v 0.32169709 -0.64339429 -0.55719584
v 0.47294685 -0.61738813 -0.39684933
v 0.56289011 -0.59901518 -0.20487539
v 0.62391657 -0.62391657 0.00000011
v 0.42986521 -0.74454826 0.00000000
v 0.40219638 -0.74133223 0.14638750
v 0.36526236 -0.82586962 0.30649149
v 0.23753755 -0.82285416 0.41142717
v 0.07715735 -0.76960492 0.43758130
v -0.07910827 -0.78906345 0.44864497
v -0.21299061 -0.73782098 0.36891052
v -0.32354018 -0.73153430 0.27148229
v -0.44343626 -0.81734598 0.16139752
v -0.47557360 -0.82371753 -0.00000004
v -0.41109362 -0.75773180 -0.14962596
v -0.36675984 -0.82925540 -0.30774799
v -0.22812337 -0.79024255 -0.39512137
v -0.07732357 -0.77126276 -0.43852392
v 0.07461247 -0.74421877 -0.42314720
v 0.21810564 -0.75554013 -0.37777016
v 0.32629794 -0.73776972 -0.27379632
v 0.42932481 -0.79133570 -0.15626155
v 0.42986521 -0.74454826 0.00000008
v 0.23958476 -0.89414287 0.00000000
v 0.22052066 -0.87581259 0.08026296
v 0.17514937 -0.85330111 0.14696777
v 0.11536571 -0.86110187 0.19981931
v 0.04029557 -0.86603409 0.22852765
v -0.03899516 -0.83808476 0.22115240
v -0.11425551 -0.85281497 0.19789632
v -0.18399003 -0.89637136 0.15438591
v -0.23468953 -0.93208522 0.08541997
v -0.25514075 -0.95219862 -0.00000002
v -0.23945875 -0.95102662 -0.08715593
v -0.18199821 -0.88666761 -0.15271461
v -0.11668988 -0.87098569 -0.20211287
v -0.04036804 -0.86759138 -0.22893858
v 0.03961404 -0.85138410 -0.22466180
v 0.11343431 -0.84668577 -0.19647406
v 0.18119033 -0.88273156 -0.15203665
v 0.21976404 -0.87280774 -0.07998763
v 0.23958476 -0.89414287 0.00000004
v 0.00000000 -0.94705433 0.00000000
v 0.00000000 -0.94705433 0.00000000
v 0.00000000 -0.94705433 0.00000000
v 0.00000000 -0.94705433 0.00000000
v 0.00000000 -0.94705433 0.00000000
v 0.00000000 -0.94705433 0.00000000
v 0.00000000 -0.94705433 0.00000000
v 0.00000000 -0.94705433 0.00000000
v 0.00000000 -0.94705433 0.00000000
v 0.00000000 -0.94705433 0.00000000
v 0.00000000 -0.94705433 0.00000000
v 0.00000000 -0.94705433 0.00000000
v 0.00000000 -0.94705433 0.00000000
v 0.00000000 -0.94705433 0.00000000
v 0.00000000 -0.94705433 0.00000000
v 0.00000000 -0.94705433 0.00000000
v 0.00000000 -0.94705433 0.00000000
v 0.00000000 -0.94705433 0.00000000
v 0.00000000 -0.94705433 0.00000000
vt 0.00000000 0.00000000
vt 0.05555556 0.00000000
vt 0.11111111 0.00000000
vt 0.16666667 0.00000000
vt 0.22222222 0.00000000
vt 0.27777779 0.00000000
vt 0.33333334 0.00000000
vt 0.38888890 0.00000000
vt 0.44444445 0.00000000
vt 0.50000000 0.00000000
vt 0.55555558 0.00000000
vt 0.61111110 0.00000000
vt 0.66666669 0.00000000
vt 0.72222221 0.00000000
vt 0.77777779 0.00000000
vt 0.83333331 0.00000000
vt 0.88888890 0.00000000
vt 0.94444442 0.00000000
vt 1.00000000 0.00000000
vt 0.00000000 0.08333334
vt 0.05555556 0.08333334
vt 0.11111111 0.08333334
vt 0.16666667 0.08333334
vt 0.22222222 0.08333334
vt 0.27777779 0.08333334
vt 0.33333334 0.08333334
vt 0.38888890 0.08333334
vt 0.44444445 0.08333334
vt 0.50000000 0.08333334
vt 0.55555558 0.08333334
vt 0.61111110 0.08333334
vt 0.66666669 0.08333334
vt 0.72222221 0.08333334
vt 0.77777779 0.08333334
vt 0.83333331 0.08333334
vt 0.88888890 0.08333334
vt 0.94444442 0.08333334
vt 1.00000000 0.08333334
vt 0.00000000 0.16666667
vt 0.05555556 0.16666667
vt 0.11111111 0.16666667
vt 0.16666667 0.16666667
vt 0.22222222 0.16666667
vt 0.27777779 0.16666667
vt 0.33333334 0.16666667
vt 0.38888890 0.16666667
vt 0.44444445 0.16666667
vt 0.50000000 0.16666667
vt 0.55555558 0.16666667
vt 0.61111110 0.16666667
vt 0.66666669 0.16666667
vt 0.72222221 0.16666667
vt 0.77777779 0.16666667
vt 0.83333331 0.16666667
vt 0.88888890 0.16666667
vt 0.94444442 0.16666667
vt 1.00000000 0.16666667
vt 0.00000000 0.25000000
vt 0.05555556 0.25000000
vt 0.11111111 0.25000000
vt 0.16666667 0.25000000
vt 0.22222222 0.25000000
vt 0.27777779 0.25000000
vt 0.33333334 0.25000000
vt 0.38888890 0.25000000
vt 0.44444445 0.25000000
vt 0.50000000 0.25000000
vt 0.55555558 0.25000000
vt 0.61111110 0.25000000
vt 0.66666669 0.25000000
vt 0.72222221 0.25000000
vt 0.77777779 0.25000000
vt 0.83333331 0.25000000
vt 0.88888890 0.25000000
vt 0.94444442 0.25000000
vt 1.00000000 0.25000000
vt 0.00000000 0.33333334
vt 0.05555556 0.33333334
vt 0.11111111 0.33333334
vt 0.16666667 0.33333334
vt 0.22222222 0.33333334
vt 0.27777779 0.33333334
vt 0.33333334 0.33333334
vt 0.38888890 0.33333334
vt 0.44444445 0.33333334
vt 0.50000000 0.33333334
vt 0.55555558 0.33333334
vt 0.61111110 0.33333334
vt 0.66666669 0.33333334
vt 0.72222221 0.33333334
vt 0.77777779 0.33333334
vt 0.83333331 0.33333334
vt 0.88888890 0.33333334
vt 0.94444442 0.33333334
vt 1.00000000 0.33333334
vt 0.00000000 0.41666666
vt 0.05555556 0.41666666
vt 0.11111111 0.41666666
vt 0.16666667 0.41666666
vt 0.22222222 0.41666666
vt 0.27777779 0.41666666
vt 0.33333334 0.41666666
vt 0.38888890 0.41666666
vt 0.44444445 0.41666666
vt 0.50000000 0.41666666
vt 0.55555558 0.41666666
vt 0.61111110 0.41666666
vt 0.66666669 0.41666666
vt 0.72222221 0.41666666
vt 0.77777779 0.41666666
vt 0.83333331 0.41666666
vt 0.88888890 0.41666666
vt 0.94444442 0.41666666
vt 1.00000000 0.41666666
vt 0.00000000 0.50000000
vt 0.05555556 0.50000000
vt 0.11111111 0.50000000
vt 0.16666667 0.50000000
vt 0.22222222 0.50000000
vt 0.27777779 0.50000000
vt 0.33333334 0.50000000
vt 0.38888890 0.50000000
vt 0.44444445 0.50000000
vt 0.50000000 0.50000000
vt 0.55555558 0.50000000
vt 0.61111110 0.50000000
vt 0.66666669 0.50000000
vt 0.72222221 0.50000000
vt 0.77777779 0.50000000
vt 0.83333331 0.50000000
vt 0.88888890 0.50000000
vt 0.94444442 0.50000000
vt 1.00000000 0.50000000
vt 0.00000000 0.58333331
vt 0.05555556 0.58333331
vt 0.11111111 0.58333331
vt 0.16666667 0.58333331
vt 0.22222222 0.58333331
vt 0.27777779 0.58333331
vt 0.33333334 0.58333331
vt 0.38888890 0.58333331
vt 0.44444445 0.58333331
vt 0.50000000 0.58333331
vt 0.55555558 0.58333331
vt 0.61111110 0.58333331
vt 0.66666669 0.58333331
vt 0.72222221 0.58333331
vt 0.77777779 0.58333331
vt 0.83333331 0.58333331
vt 0.88888890 0.58333331
vt 0.94444442 0.58333331
vt 1.00000000 0.58333331
vt 0.00000000 0.66666669
vt 0.05555556 0.66666669
vt 0.11111111 0.66666669
vt 0.16666667 0.66666669
vt 0.22222222 0.66666669
vt 0.27777779 0.66666669
vt 0.33333334 0.66666669
vt 0.38888890 0.66666669
vt 0.44444445 0.66666669
vt 0.50000000 0.66666669
vt 0.55555558 0.66666669
vt 0.61111110 0.66666669
vt 0.66666669 0.66666669
vt 0.72222221 0.66666669
vt 0.77777779 0.66666669
vt 0.83333331 0.66666669
vt 0.88888890 0.66666669
vt 0.94444442 0.66666669
vt 1.00000000 0.66666669
vt 0.00000000 0.75000000
vt 0.05555556 0.75000000
vt 0.11111111 0.75000000
vt 0.16666667 0.75000000
vt 0.22222222 0.75000000
vt 0.27777779 0.75000000
vt 0.33333334 0.75000000
vt 0.38888890 0.75000000
vt 0.44444445 0.75000000
vt 0.50000000 0.75000000
vt 0.55555558 0.75000000
vt 0.61111110 0.75000000
vt 0.66666669 0.75000000
vt 0.72222221 0.75000000
vt 0.77777779 0.75000000
vt 0.83333331 0.75000000
vt 0.88888890 0.75000000
vt 0.94444442 0.75000000
vt 1.00000000 0.75000000
vt 0.00000000 0.83333331
vt 0.05555556 0.83333331
vt 0.11111111 0.83333331
vt 0.16666667 0.83333331
vt 0.22222222 0.83333331
vt 0.27777779 0.83333331
vt 0.33333334 0.83333331
vt 0.38888890 0.83333331
vt 0.44444445 0.83333331
vt 0.50000000 0.83333331
vt 0.55555558 0.83333331
vt 0.61111110 0.83333331
vt 0.66666669 0.83333331
vt 0.72222221 0.83333331
vt 0.77777779 0.83333331
vt 0.83333331 0.83333331
vt 0.88888890 0.83333331
vt 0.94444442 0.83333331
vt 1.00000000 0.83333331
vt 0.00000000 0.91666669
vt 0.05555556 0.91666669
vt 0.11111111 0.91666669
vt 0.16666667 0.91666669
vt 0.22222222 0.91666669
vt 0.27777779 0.91666669
vt 0.33333334 0.91666669
vt 0.38888890 0.91666669
vt 0.44444445 0.91666669
vt 0.50000000 0.91666669
vt 0.55555558 0.91666669
vt 0.61111110 0.91666669
vt 0.66666669 0.91666669
vt 0.72222221 0.91666669
vt 0.77777779 0.91666669
vt 0.83333331 0.91666669
vt 0.88888890 0.91666669
vt 0.94444442 0.91666669
vt 1.00000000 0.91666669
vt 0.00000000 1.00000000
vt 0.05555556 1.00000000
vt 0.11111111 1.00000000
vt 0.16666667 1.00000000
vt 0.22222222 1.00000000
vt 0.27777779 1.00000000
vt 0.33333334 1.00000000
vt 0.38888890 1.00000000
vt 0.44444445 1.00000000
vt 0.50000000 1.00000000
vt 0.55555558 1.00000000
vt 0.61111110 1.00000000
vt 0.66666669 1.00000000
vt 0.72222221 1.00000000
vt 0.77777779 1.00000000
vt 0.83333331 1.00000000
vt 0.88888890 1.00000000
vt 0.94444442 1.00000000
vt 1.00000000 1.00000000
vn -0.10995480 0.99383843 0.01396721
vn -0.10995480 0.99383843 0.01396721
vn -0.10995480 0.99383843 0.01396721
vn -0.10995480 0.99383843 0.01396721
vn -0.10995480 0.99383843 0.01396721
vn -0.10995480 0.99383843 0.01396721
vn -0.10995480 0.99383843 0.01396721
vn -0.10995480 0.99383843 0.01396721
vn -0.10995480 0.99383843 0.01396721
vn -0.10995480 0.99383843 0.01396721
vn -0.10995480 0.99383843 0.01396721
vn -0.10995480 0.99383843 0.01396721
vn -0.10995480 0.99383843 0.01396721
vn -0.10995480 0.99383843 0.01396721
vn -0.10995480 0.99383843 0.01396721
vn -0.10995480 0.99383843 0.01396721
vn -0.10995480 0.99383843 0.01396721
vn -0.10995480 0.99383843 0.01396721
vn -0.10995480 0.99383843 0.01396721
vn 0.22427978 0.97307247 -0.05318319
vn 0.04293244 0.96914077 0.24274063
vn -0.07057777 0.96516186 0.25195521
vn -0.24534184 0.93424845 0.25881884
vn -0.05191277 0.96898723 0.24159634
vn 0.18120387 0.94954598 0.25598350
vn 0.10953625 0.97169393 0.20931441
vn -0.25042465 0.94785064 -0.19714630
vn -0.36396062 0.93139958 -0.00524359
vn -0.32202980 0.92398119 0.20628974
vn -0.17918043 0.98311597 -0.03711159
vn -0.04701591 0.98558700 -0.16250439
vn 0.06686924 0.96335900 -0.25974599
vn 0.02300158 0.97448933 -0.22325158
vn -0.15520474 0.95253193 -0.26190555
vn -0.19688176 0.92067182 -0.33704725
vn 0.16956885 0.98392957 -0.05593895
vn 0.28642181 0.92779350 -0.23908505
vn 0.22427978 0.97307247 -0.05318319
vn 0.55189270 0.82463086 -0.12409069
vn 0.54954720 0.81996602 0.16016778
vn 0.32107943 0.85775197 0.40145913
vn 0.10905094 0.89017469 0.44237661
vn -0.06444201 0.93270099 0.35484654
vn 0.07353525 0.92929375 0.36194727
vn -0.15910022 0.90679044 0.39040771
vn -0.56429690 0.81305277 0.14322822
vn -0.61642361 0.78435886 -0.06930402
vn -0.61399645 0.78646034 0.06699607
vn -0.68748873 0.72619236 0.00194440
vn -0.35518298 0.83480555 -0.42064801
vn -0.18984254 0.80878723 -0.55661756
vn -0.06885178 0.85395628 -0.51576954
vn 0.03024217 0.86109847 -0.50753808
vn 0.12189158 0.81555164 -0.56570125
vn 0.48081890 0.84374505 -0.23855269
vn 0.56198782 0.81054997 -0.16485856
vn 0.55189270 0.82463086 -0.12409069
vn 0.72772485 0.68227482 -0.07012632
vn 0.71944386 0.64440405 0.25912163
vn 0.55350512 0.67953765 0.48151904
vn 0.36565980 0.70731640 0.60497624
vn 0.14460520 0.77251881 0.61830735
vn -0.09277758 0.78416049 0.61358345
vn -0.41894892 0.75168633 0.50936186
vn -0.69293427 0.69358015 0.19694853
vn -0.71021938 0.68747252 0.15155819
vn -0.64018542 0.76658207 -0.05014542
vn -0.75419128 0.63408434 -0.17068294
vn -0.62901884 0.63107151 -0.45396474
vn -0.31174800 0.69619799 -0.64662325
vn -0.18779215 0.72292489 -0.66491640
vn 0.11880659 0.73113161 -0.67181212
vn 0.35436469 0.65415531 -0.66821134
vn 0.62322062 0.61230564 -0.48649561
vn 0.72350490 0.63617742 -0.26799047
vn 0.72772485 0.68227482 -0.07012632
vn 0.84724778 0.52563190 -0.07669505
vn 0.78661710 0.50640506 0.35325268
vn 0.74236804 0.40507013 0.53367400
vn 0.46218261 0.42467111 0.77848679
vn 0.24171744 0.37765819 0.89383823
vn -0.21318308 0.40362164 0.88974291
vn -0.53780407 0.32815242 0.77658403
vn -0.74909270 0.45300761 0.48336777
vn -0.72592837 0.65637910 0.20541328
vn -0.72831404 0.68451411 -0.03160759
vn -0.68439144 0.63447136 -0.35924158
vn -0.70910400 0.51201844 -0.48477688
vn -0.42443550 0.52407253 -0.73837829
vn -0.17063847 0.47702885 -0.86216354
vn 0.16010734 0.43733642 -0.88493085
vn 0.49667406 0.47800359 -0.72444987
vn 0.69174999 0.45347512 -0.56199855
vn 0.79994190 0.50552839 -0.32331699
vn 0.84724778 0.52563190 -0.07669505
vn 0.97294265 0.17298999 -0.15315728
vn 0.83437413 0.36415380 0.41377753
vn 0.69025135 0.18878889 0.69850689
vn 0.51385885 0.02201009 0.85759246
vn 0.19580115 0.01334777 0.98055285
vn -0.16424704 -0.00467544 0.98640817
vn -0.48694149 0.17801179 0.85510218
vn -0.72572333 0.32859400 0.60444337
vn -0.87901974 0.27712098 0.38797969
vn -0.93770969 0.34615672 0.02960003
vn -0.77657807 0.45741689 -0.43323934
vn -0.68120915 0.32756326 -0.65471858
vn -0.50047648 0.19582260 -0.84331310
vn -0.13604431 0.25479117 -0.95737845
vn 0.18332972 0.22515213 -0.95692039
vn 0.42673293 0.27274910 -0.86226845
vn 0.70901287 0.41306138 -0.57156014
vn 0.89986980 0.28898033 -0.32668772
vn 0.97294265 0.17298999 -0.15315728
vn 0.99941367 0.01427271 -0.03112398
vn 0.95955002 -0.07439870 0.27153006
vn 0.57741827 0.10859073 0.80919474
vn 0.45674777 -0.10667036 0.88317776
vn 0.22935496 -0.11579749 0.96643007
vn -0.12156276 -0.01980062 0.99238628
vn -0.41579181 -0.10810612 0.90301180
vn -0.66932905 -0.06874318 0.73977906
vn -0.94311160 0.13510709 0.30378723
vn -0.99888939 -0.02975341 0.03653375
vn -0.93890512 0.00372370 -0.34415591
vn -0.60106552 0.12673895 -0.78908652
vn -0.50923300 -0.05351785 -0.85896307
vn -0.21418947 -0.00073786 -0.97679186
vn 0.14190345 0.09786481 -0.98503089
vn 0.47056454 0.06392515 -0.88004702
vn 0.69788736 -0.02881908 -0.71562755
vn 0.95665216 0.19949378 -0.21217638
vn 0.99941367 0.01427271 -0.03112398
vn 0.98034751 -0.16786548 0.10363408
vn 0.91228354 -0.34890753 0.21448147
vn 0.67680347 -0.19760555 0.70914674
vn 0.34965369 0.03368766 0.93627316
vn 0.24092090 -0.06186146 0.96857125
vn -0.08519167 -0.14453144 0.98582608
vn -0.56534111 -0.11391659 0.81695312
vn -0.62158555 -0.43659261 0.65039849
vn -0.75273061 -0.49780497 0.43079805
vn -0.95824713 -0.28417653 -0.03172128
vn -0.89343870 -0.36233386 -0.26548356
vn -0.65686917 -0.22334124 -0.72016776
vn -0.44539687 -0.09568790 -0.89020532
vn -0.25569409 -0.10076336 -0.96149224
vn 0.14115052 -0.16901702 -0.97545362
vn 0.52752888 -0.19122761 -0.82773507
vn 0.71700877 -0.35136643 -0.60202998
vn 0.77981871 -0.46193483 -0.42249149
vn 0.98034751 -0.16786548 0.10363408
vn 0.75501156 -0.65571135 -0.00034895
vn 0.72474587 -0.63501024 0.26740485
vn 0.66036546 -0.64803296 0.37943470
vn 0.41926873 -0.46866587 0.77753854
vn 0.17088996 -0.38068214 0.90877813
vn -0.16621196 -0.47162616 0.86599213
vn -0.41644087 -0.55786890 0.71788532
vn -0.78413594 -0.36559805 0.50146657
vn -0.76871789 -0.46612677 0.43794808
vn -0.80490994 -0.59303296 0.02078082
vn -0.75550067 -0.60342318 -0.25514528
vn -0.71388602 -0.55265659 -0.43004370
vn -0.43001634 -0.29178840 -0.85436845
vn -0.27153355 -0.40116990 -0.87483269
vn 0.23140913 -0.40937454 -0.88253182
vn 0.43752399 -0.52084827 -0.73300064
vn 0.76882011 -0.46567416 -0.43825009
vn 0.72332764 -0.57377619 -0.38415879
vn 0.75501156 -0.65571135 -0.00034895
vn 0.65271366 -0.75734818 -0.01971123
vn 0.68212366 -0.67917967 0.27096525
vn 0.66477466 -0.66183329 0.34648439
vn 0.37825999 -0.71888536 0.58320081
vn 0.13074401 -0.75120890 0.64698625
vn -0.22635640 -0.73947829 0.63398319
vn -0.31189281 -0.78182203 0.53988624
vn -0.39914042 -0.72584885 0.56020570
vn -0.73047364 -0.57129818 0.37420139
vn -0.79121590 -0.60764325 -0.06889822
vn -0.70808172 -0.63266343 -0.31361952
vn -0.65363526 -0.70730960 -0.26920992
vn -0.43125337 -0.74096847 -0.51476818
vn -0.06096386 -0.74088550 -0.66885883
vn 0.14708757 -0.79742038 -0.58522296
vn 0.43055984 -0.74962026 -0.50268054
vn 0.53619498 -0.73567402 -0.41385835
vn 0.73561442 -0.65147847 -0.18559983
vn 0.65271366 -0.75734818 -0.01971123
vn 0.62124556 -0.77917165 0.08334021
vn 0.60774994 -0.78767210 0.10105786
vn 0.59799355 -0.79079926 0.13053828
vn 0.24541746 -0.80464095 0.54066926
vn 0.00946793 -0.82711703 0.56195003
vn -0.14165635 -0.85389996 0.50078791
vn -0.42923582 -0.75883639 0.48982024
vn -0.23353392 -0.77882880 0.58214056
vn -0.40624461 -0.80312902 0.43583158
vn -0.58621138 -0.80641496 -0.07778942
vn -0.55370045 -0.75497383 -0.35132656
vn -0.49916038 -0.82371736 -0.26893991
vn -0.22487295 -0.89809370 -0.37796807
vn 0.08318156 -0.91661906 -0.39101169
vn 0.13823007 -0.91238308 -0.38529161
vn 0.21833898 -0.89271402 -0.39419505
vn 0.37497830 -0.84241164 -0.38695455
vn 0.55349034 -0.80114049 -0.22764494
vn 0.62124556 -0.77917165 0.08334021
vn 0.43118492 -0.89926076 0.07355048
vn 0.41104233 -0.85849112 0.30665481
vn 0.32568324 -0.94304401 0.06781275
vn 0.15069351 -0.97698134 0.15099303
vn -0.14339675 -0.92102450 0.36214811
vn -0.05051461 -0.93973845 0.33814189
vn -0.07164177 -0.90400660 0.42147321
vn -0.12763548 -0.83062267 0.54201019
vn -0.14815830 -0.84763354 0.50947666
vn -0.31348330 -0.94241899 0.11651099
vn -0.29483277 -0.82075465 -0.48932153
vn -0.20056333 -0.92025244 -0.33602041
vn -0.02852304 -0.93564659 -0.35178405
vn 0.04241003 -0.92270154 -0.38317510
vn 0.20346265 -0.89005500 -0.40792793
vn 0.04209384 -0.89353257 -0.44702083
vn 0.27399135 -0.89379591 -0.35504600
vn 0.28193751 -0.90474945 -0.31927994
vn 0.43118492 -0.89926076 0.07355048
vn 0.10832164 -0.99397677 0.01662850
vn 0.10832164 -0.99397677 0.01662850
vn 0.10832164 -0.99397677 0.01662850
vn 0.10832164 -0.99397677 0.01662850
vn 0.10832164 -0.99397677 0.01662850
vn 0.10832164 -0.99397677 0.01662850
vn 0.10832164 -0.99397677 0.01662850
vn 0.10832164 -0.99397677 0.01662850
vn 0.10832164 -0.99397677 0.01662850
vn 0.10832164 -0.99397677 0.01662850
vn 0.10832164 -0.99397677 0.01662850
vn 0.10832164 -0.99397677 0.01662850
vn 0.10832164 -0.99397677 0.01662850
vn 0.10832164 -0.99397677 0.01662850
vn 0.10832164 -0.99397677 0.01662850
vn 0.10832164 -0.99397677 0.01662850
vn 0.10832164 -0.99397677 0.01662850
vn 0.10832164 -0.99397677 0.01662850
vn 0.10832164 -0.99397677 0.01662850
usemtl generated_asteroid
s off
f 1/1/1 21/21/21 20/20/20
f 2/2/1 22/22/22 21/21/21
f 3/3/1 23/23/23 22/22/22
f 4/4/1 24/24/24 23/23/23
f 5/5/1 25/25/25 24/24/24
f 6/6/1 26/26/26 25/25/25
f 7/7/1 27/27/27 26/26/26
f 8/8/1 28/28/28 27/27/27
f 9/9/1 29/29/29 28/28/28
f 10/10/1 30/30/30 29/29/29
f 11/11/1 31/31/31 30/30/30
f 12/12/1 32/32/32 31/31/31
f 13/13/1 33/33/33 32/32/32
f 14/14/1 34/34/34 33/33/33
f 15/15/1 35/35/35 34/34/34
f 16/16/1 36/36/36 35/35/35
f 17/17/1 37/37/37 36/36/36
f 18/18/1 38/38/20 37/37/37
f 20/20/20 21/21/21 40/40/40
f 20/20/20 40/40/40 39/39/39
f 21/21/21 22/22/22 41/41/41
f 21/21/21 41/41/41 40/40/40
f 22/22/22 23/23/23 42/42/42
f 22/22/22 42/42/42 41/41/41
f 23/23/23 24/24/24 43/43/43
f 23/23/23 43/43/43 42/42/42
f 24/24/24 25/25/25 44/44/44
f 24/24/24 44/44/44 43/43/43
f 25/25/25 26/26/26 45/45/45
f 25/25/25 45/45/45 44/44/44
f 26/26/26 27/27/27 46/46/46
f 26/26/26 46/46/46 45/45/45
f 27/27/27 28/28/28 47/47/47
f 27/27/27 47/47/47 46/46/46
f 28/28/28 29/29/29 48/48/48
f 28/28/28 48/48/48 47/47/47
f 29/29/29 30/30/30 49/49/49
f 29/29/29 49/49/49 48/48/48
f 30/30/30 31/31/31 50/50/50
f 30/30/30 50/50/50 49/49/49
f 31/31/31 32/32/32 51/51/51
f 31/31/31 51/51/51 50/50/50
f 32/32/32 33/33/33 52/52/52
f 32/32/32 52/52/52 51/51/51
f 33/33/33 34/34/34 53/53/53
f 33/33/33 53/53/53 52/52/52
f 34/34/34 35/35/35 54/54/54
f 34/34/34 54/54/54 53/53/53
f 35/35/35 36/36/36 55/55/55
f 35/35/35 55/55/55 54/54/54
f 36/36/36 37/37/37 56/56/56
f 36/36/36 56/56/56 55/55/55
f 37/37/37 38/38/20 57/57/39
f 37/37/37 57/57/39 56/56/56
f 39/39/39 40/40/40 59/59/59
f 39/39/39 59/59/59 58/58/58
f 40/40/40 41/41/41 60/60/60
f 40/40/40 60/60/60 59/59/59
f 41/41/41 42/42/42 61/61/61
f 41/41/41 61/61/61 60/60/60
f 42/42/42 43/43/43 62/62/62
f 42/42/42 62/62/62 61/61/61
f 43/43/43 44/44/44 63/63/63
f 43/43/43 63/63/63 62/62/62
f 44/44/44 45/45/45 64/64/64
f 44/44/44 64/64/64 63/63/63
f 45/45/45 46/46/46 65/65/65
f 45/45/45 65/65/65 64/64/64
f 46/46/46 47/47/47 66/66/66
f 46/46/46 66/66/66 65/65/65
f 47/47/47 48/48/48 67/67/67
f 47/47/47 67/67/67 66/66/66
f 48/48/48 49/49/49 68/68/68
f 48/48/48 68/68/68 67/67/67
f 49/49/49 50/50/50 69/69/69
f 49/49/49 69/69/69 68/68/68
f 50/50/50 51/51/51 70/70/70
f 50/50/50 70/70/70 69/69/69
f 51/51/51 52/52/52 71/71/71
f 51/51/51 71/71/71 70/70/70
f 52/52/52 53/53/53 72/72/72
f 52/52/52 72/72/72 71/71/71
f 53/53/53 54/54/54 73/73/73
f 53/53/53 73/73/73 72/72/72
f 54/54/54 55/55/55 74/74/74
f 54/54/54 74/74/74 73/73/73
f 55/55/55 56/56/56 75/75/75
f 55/55/55 75/75/75 74/74/74
f 56/56/56 57/57/39 76/76/58
f 56/56/56 76/76/58 75/75/75
f 58/58/58 59/59/59 78/78/78
f 58/58/58 78/78/78 77/77/77
f 59/59/59 60/60/60 79/79/79
f 59/59/59 79/79/79 78/78/78
f 60/60/60 61/61/61 80/80/80
f 60/60/60 80/80/80 79/79/79
f 61/61/61 62/62/62 81/81/81
f 61/61/61 81/81/81 80/80/80
f 62/62/62 63/63/63 82/82/82
f 62/62/62 82/82/82 81/81/81
f 63/63/63 64/64/64 83/83/83
f 63/63/63 83/83/83 82/82/82
f 64/64/64 65/65/65 84/84/84
f 64/64/64 84/84/84 83/83/83
f 65/65/65 66/66/66 85/85/85
f 65/65/65 85/85/85 84/84/84
f 66/66/66 67/67/67 86/86/86
f 66/66/66 86/86/86 85/85/85
f 67/67/67 68/68/68 87/87/87
f 67/67/67 87/87/87 86/86/86
f 68/68/68 69/69/69 88/88/88
f 68/68/68 88/88/88 87/87/87
f 69/69/69 70/70/70 89/89/89
f 69/69/69 89/89/89 88/88/88
f 70/70/70 71/71/71 90/90/90
f 70/70/70 90/90/90 89/89/89
f 71/71/71 72/72/72 91/91/91
f 71/71/71 91/91/91 90/90/90
f 72/72/72 73/73/73 92/92/92
f 72/72/72 92/92/92 91/91/91
f 73/73/73 74/74/74 93/93/93
f 73/73/73 93/93/93 92/92/92
f 74/74/74 75/75/75 94/94/94
f 74/74/74 94/94/94 93/93/93
f 75/75/75 76/76/58 95/95/77
f 75/75/75 95/95/77 94/94/94
f 77/77/77 78/78/78 97/97/97
f 77/77/77 97/97/97 96/96/96
f 78/78/78 79/79/79 98/98/98
f 78/78/78 98/98/98 97/97/97
f 79/79/79 80/80/80 99/99/99
f 79/79/79 99/99/99 98/98/98
f 80/80/80 81/81/81 100/100/100
f 80/80/80 100/100/100 99/99/99
f 81/81/81 82/82/82 101/101/101
f 81/81/81 101/101/101 100/100/100
f 82/82/82 83/83/83 102/102/102
f 82/82/82 102/102/102 101/101/101
f 83/83/83 84/84/84 103/103/103
f 83/83/83 103/103/103 102/102/102
f 84/84/84 85/85/85 104/104/104
f 84/84/84 104/104/104 103/103/103
f 85/85/85 86/86/86 105/105/105
f 85/85/85 105/105/105 104/104/104
f 86/86/86 87/87/87 106/106/106
f 86/86/86 106/106/106 105/105/105
f 87/87/87 88/88/88 107/107/107
f 87/87/87 107/107/107 106/106/106
f 88/88/88 89/89/89 108/108/108
f 88/88/88 108/108/108 107/107/107
f 89/89/89 90/90/90 109/109/109
f 89/89/89 109/109/109 108/108/108
f 90/90/90 91/91/91 110/110/110
f 90/90/90 110/110/110 109/109/109
f 91/91/91 92/92/92 111/111/111
f 91/91/91 111/111/111 110/110/110
f 92/92/92 93/93/93 112/112/112
f 92/92/92 112/112/112 111/111/111
f 93/93/93 94/94/94 113/113/113
f 93/93/93 113/113/113 112/112/112
f 94/94/94 95/95/77 114/114/96
f 94/94/94 114/114/96 113/113/113
f 96/96/96 97/97/97 116/116/116
f 96/96/96 116/116/116 115/115/115
f 97/97/97 98/98/98 117/117/117
f 97/97/97 117/117/117 116/116/116
f 98/98/98 99/99/99 118/118/118
f 98/98/98 118/118/118 117/117/117
f 99/99/99 100/100/100 119/119/119
f 99/99/99 119/119/119 118/118/118
f 100/100/100 101/101/101 120/120/120
f 100/100/100 120/120/120 119/119/119
f 101/101/101 102/102/102 121/121/121
f 101/101/101 121/121/121 120/120/120
f 102/102/102 103/103/103 122/122/122
f 102/102/102 122/122/122 121/121/121
f 103/103/103 104/104/104 123/123/123
f 103/103/103 123/123/123 122/122/122
f 104/104/104 105/105/105 124/124/124
f 104/104/104 124/124/124 123/123/123
f 105/105/105 106/106/106 125/125/125
f 105/105/105 125/125/125 124/124/124
f 106/106/106 107/107/107 126/126/126
f 106/106/106 126/126/126 125/125/125
f 107/107/107 108/108/108 127/127/127
f 107/107/107 127/127/127 126/126/126
f 108/108/108 109/109/109 128/128/128
f 108/108/108 128/128/128 127/127/127
f 109/109/109 110/110/110 129/129/129
f 109/109/109 129/129/129 128/128/128
f 110/110/110 111/111/111 130/130/130
f 110/110/110 130/130/130 129/129/129
f 111/111/111 112/112/112 131/131/131
f 111/111/111 131/131/131 130/130/130
f 112/112/112 113/113/113 132/132/132
f 112/112/112 132/132/132 131/131/131
f 113/113/113 114/114/96 133/133/115
f 113/113/113 133/133/115 132/132/132
f 115/115/115 116/116/116 135/135/135
f 115/115/115 135/135/135 134/134/134
f 116/116/116 117/117/117 136/136/136
f 116/116/116 136/136/136 135/135/135
f 117/117/117 118/118/118 137/137/137
f 117/117/117 137/137/137 136/136/136
f 118/118/118 119/119/119 138/138/138
f 118/118/118 138/138/138 137/137/137
f 119/119/119 120/120/120 139/139/139
f 119/119/119 139/139/139 138/138/138
f 120/120/120 121/121/121 140/140/140
f 120/120/120 140/140/140 139/139/139
f 121/121/121 122/122/122 141/141/141
f 121/121/121 141/141/141 140/140/140
f 122/122/122 123/123/123 142/142/142
f 122/122/122 142/142/142 141/141/141
f 123/123/123 124/124/124 143/143/143
f 123/123/123 143/143/143 142/142/142
f 124/124/124 125/125/125 144/144/144
f 124/124/124 144/144/144 143/143/143
f 125/125/125 126/126/126 145/145/145
f 125/125/125 145/145/145 144/144/144
f 126/126/126 127/127/127 146/146/146
f 126/126/126 146/146/146 145/145/145
f 127/127/127 128/128/128 147/147/147
f 127/127/127 147/147/147 146/146/146
f 128/128/128 129/129/129 148/148/148
f 128/128/128 148/148/148 147/147/147
f 129/129/129 130/130/130 149/149/149
f 129/129/129 149/149/149 148/148/148
f 130/130/130 131/131/131 150/150/150
f 130/130/130 150/150/150 149/149/149
f 131/131/131 132/132/132 151/151/151
f 131/131/131 151/151/151 150/150/150
f 132/132/132 133/133/115 152/152/134
f 132/132/132 152/152/134 151/151/151
f 134/134/134 135/135/135 154/154/154
f 134/134/134 154/154/154 153/153/153
f 135/135/135 136/136/136 155/155/155
f 135/135/135 155/155/155 154/154/154
f 136/136/136 137/137/137 156/156/156
f 136/136/136 156/156/156 155/155/155
f 137/137/137 138/138/138 157/157/157
f 137/137/137 157/157/157 156/156/156
f 138/138/138 139/139/139 158/158/158
f 138/138/138 158/158/158 157/157/157
f 139/139/139 140/140/140 159/159/159
f 139/139/139 159/159/159 158/158/158
f 140/140/140 141/141/141 160/160/160
f 140/140/140 160/160/160 159/159/159
f 141/141/141 142/142/142 161/161/161
f 141/141/141 161/161/161 160/160/160
f 142/142/142 143/143/143 162/162/162
f 142/142/142 162/162/162 161/161/161
f 143/143/143 144/144/144 163/163/163
f 143/143/143 163/163/163 162/162/162
f 144/144/144 145/145/145 164/164/164
f 144/144/144 164/164/164 163/163/163
f 145/145/145 146/146/146 165/165/165
f 145/145/145 165/165/165 164/164/164
f 146/146/146 147/147/147 166/166/166
f 146/146/146 166/166/166 165/165/165
f 147/147/147 148/148/148 167/167/167
f 147/147/147 167/167/167 166/166/166
f 148/148/148 149/149/149 168/168/168
f 148/148/148 168/168/168 167/167/167
f 149/149/149 150/150/150 169/169/169
f 149/149/149 169/169/169 168/168/168
f 150/150/150 151/151/151 170/170/170
f 150/150/150 170/170/170 169/169/169
f 151/151/151 152/152/134 171/171/153
f 151/151/151 171/171/153 170/170/170
f 153/153/153 154/154/154 173/173/173
f 153/153/153 173/173/173 172/172/172
f 154/154/154 155/155/155 174/174/174
f 154/154/154 174/174/174 173/173/173
f 155/155/155 156/156/156 175/175/175
f 155/155/155 175/175/175 174/174/174
f 156/156/156 157/157/157 176/176/176
f 156/156/156 176/176/176 175/175/175
f 157/157/157 158/158/158 177/177/177
f 157/157/157 177/177/177 176/176/176
f 158/158/158 159/159/159 178/178/178
f 158/158/158 178/178/178 177/177/177
f 159/159/159 160/160/160 179/179/179
f 159/159/159 179/179/179 178/178/178
f 160/160/160 161/161/161 180/180/180
f 160/160/160 180/180/180 179/179/179
f 161/161/161 162/162/162 181/181/181
f 161/161/161 181/181/181 180/180/180
f 162/162/162 163/163/163 182/182/182
f 162/162/162 182/182/182 181/181/181
f 163/163/163 164/164/164 183/183/183
f 163/163/163 183/183/183 182/182/182
f 164/164/164 165/165/165 184/184/184
f 164/164/164 184/184/184 183/183/183
f 165/165/165 166/166/166 185/185/185
f 165/165/165 185/185/185 184/184/184
f 166/166/166 167/167/167 186/186/186
f 166/166/166 186/186/186 185/185/185
f 167/167/167 168/168/168 187/187/187
f 167/167/167 187/187/187 186/186/186
f 168/168/168 169/169/169 188/188/188
f 168/168/168 188/188/188 187/187/187
f 169/169/169 170/170/170 189/189/189
f 169/169/169 189/189/189 188/188/188
f 170/170/170 171/171/153 190/190/172
f 170/170/170 190/190/172 189/189/189
f 172/172/172 173/173/173 192/192/192
f 172/172/172 192/192/192 191/191/191
f 173/173/173 174/174/174 193/193/193
f 173/173/173 193/193/193 192/192/192
f 174/174/174 175/175/175 194/194/194
f 174/174/174 194/194/194 193/193/193
f 175/175/175 176/176/176 195/195/195
f 175/175/175 195/195/195 194/194/194
f 176/176/176 177/177/177 196/196/196
f 176/176/176 196/196/196 195/195/195
f 177/177/177 178/178/178 197/197/197
f 177/177/177 197/197/197 196/196/196
f 178/178/178 179/179/179 198/198/198
f 178/178/178 198/198/198 197/197/197
f 179/179/179 180/180/180 199/199/199
f 179/179/179 199/199/199 198/198/198
f 180/180/180 181/181/181 200/200/200
f 180/180/180 200/200/200 199/199/199
f 181/181/181 182/182/182 201/201/201
f 181/181/181 201/201/201 200/200/200
f 182/182/182 183/183/183 202/202/202
f 182/182/182 202/202/202 201/201/201
f 183/183/183 184/184/184 203/203/203
f 183/183/183 203/203/203 202/202/202
f 184/184/184 185/185/185 204/204/204
f 184/184/184 204/204/204 203/203/203
f 185/185/185 186/186/186 205/205/205
f 185/185/185 205/205/205 204/204/204
f 186/186/186 187/187/187 206/206/206
f 186/186/186 206/206/206 205/205/205
f 187/187/187 188/188/188 207/207/207
f 187/187/187 207/207/207 206/206/206
f 188/188/188 189/189/189 208/208/208
f 188/188/188 208/208/208 207/207/207
f 189/189/189 190/190/172 209/209/191
f 189/189/189 209/209/191 208/208/208
f 191/191/191 192/192/192 211/211/211
f 191/191/191 211/211/211 210/210/210
f 192/192/192 193/193/193 212/212/212
f 192/192/192 212/212/212 211/211/211
f 193/193/193 194/194/194 213/213/213
f 193/193/193 213/213/213 212/212/212
f 194/194/194 195/195/195 214/214/214
f 194/194/194 214/214/214 213/213/213
f 195/195/195 196/196/196 215/215/215
f 195/195/195 215/215/215 214/214/214
f 196/196/196 197/197/197 216/216/216
f 196/196/196 216/216/216 215/215/215
f 197/197/197 198/198/198 217/217/217
f 197/197/197 217/217/217 216/216/216
f 198/198/198 199/199/199 218/218/218
f 198/198/198 218/218/218 217/217/217
f 199/199/199 200/200/200 219/219/219
f 199/199/199 219/219/219 218/218/218
f 200/200/200 201/201/201 220/220/220
f 200/200/200 220/220/220 219/219/219
f 201/201/201 202/202/202 221/221/221
f 201/201/201 221/221/221 220/220/220
f 202/202/202 203/203/203 222/222/222
f 202/202/202 222/222/222 221/221/221
f 203/203/203 204/204/204 223/223/223
f 203/203/203 223/223/223 222/222/222
f 204/204/204 205/205/205 224/224/224
f 204/204/204 224/224/224 223/223/223
f 205/205/205 206/206/206 225/225/225
f 205/205/205 225/225/225 224/224/224
f 206/206/206 207/207/207 226/226/226
f 206/206/206 226/226/226 225/225/225
f 207/207/207 208/208/208 227/227/227
f 207/207/207 227/227/227 226/226/226
f 208/208/208 209/209/191 228/228/210
f 208/208/208 228/228/210 227/227/227
f 210/210/210 211/211/211 229/229/229
f 211/211/211 212/212/212 230/230/229
f 212/212/212 213/213/213 231/231/229
f 213/213/213 214/214/214 232/232/229
f 214/214/214 215/215/215 233/233/229
f 215/215/215 216/216/216 234/234/229
f 216/216/216 217/217/217 235/235/229
f 217/217/217 218/218/218 236/236/229
f 218/218/218 219/219/219 237/237/229
f 219/219/219 220/220/220 238/238/229
f 220/220/220 221/221/221 239/239/229
f 221/221/221 222/222/222 240/240/229
f 222/222/222 223/223/223 241/241/229
f 223/223/223 224/224/224 242/242/229
f 224/224/224 225/225/225 243/243/229
f 225/225/225 226/226/226 244/244/229
f 226/226/226 227/227/227 245/245/229
f 227/227/227 228/228/210 246/246/229
