v 0.00000000 0.19315401 2.28779984
v 0.20287804 0.09657700 2.28779984
v 0.35190004 0.19315401 0.83700001
v 0.00000000 0.19315401 2.28779984
v 0.35190004 0.19315401 0.83700001
v 0.00000000 0.38630801 0.83700001
v 0.20287804 0.09657700 2.28779984
v 0.20287804 -0.07752000 2.28779984
v 0.35190004 -0.17054400 0.83700001
v 0.20287804 0.09657700 2.28779984
v 0.35190004 -0.17054400 0.83700001
v 0.35190004 0.19315401 0.83700001
v 0.20287804 -0.07752000 2.28779984
v 0.00000000 -0.15504000 2.28779984
v 0.00000000 -0.34108800 0.83700001
v 0.20287804 -0.07752000 2.28779984
v 0.00000000 -0.34108800 0.83700001
v 0.35190004 -0.17054400 0.83700001
v 0.00000000 -0.15504000 2.28779984
v -0.20287804 -0.07752000 2.28779984
v -0.35190004 -0.17054400 0.83700001
v 0.00000000 -0.15504000 2.28779984
v -0.35190004 -0.17054400 0.83700001
v 0.00000000 -0.34108800 0.83700001
v -0.20287804 -0.07752000 2.28779984
v -0.20287804 0.09657700 2.28779984
v -0.35190004 0.19315401 0.83700001
v -0.20287804 -0.07752000 2.28779984
v -0.35190004 0.19315401 0.83700001
v -0.35190004 -0.17054400 0.83700001
v -0.20287804 0.09657700 2.28779984
v 0.00000000 0.19315401 2.28779984
v 0.00000000 0.38630801 0.83700001
v -0.20287804 0.09657700 2.28779984
v 0.00000000 0.38630801 0.83700001
v -0.35190004 0.19315401 0.83700001
v 0.00000000 0.38630801 0.83700001
v 0.35190004 0.19315401 0.83700001
v 0.38250005 0.20995000 0.00000000
v 0.00000000 0.38630801 0.83700001
v 0.38250005 0.20995000 0.00000000
v 0.00000000 0.41990000 0.00000000
v 0.35190004 0.19315401 0.83700001
v 0.35190004 -0.17054400 0.83700001
v 0.38250005 -0.19379999 0.00000000
v 0.35190004 0.19315401 0.83700001
v 0.38250005 -0.19379999 0.00000000
v 0.38250005 0.20995000 0.00000000
v 0.35190004 -0.17054400 0.83700001
v 0.00000000 -0.34108800 0.83700001
v 0.00000000 -0.38759997 0.00000000
v 0.35190004 -0.17054400 0.83700001
v 0.00000000 -0.38759997 0.00000000
v 0.38250005 -0.19379999 0.00000000
v 0.00000000 -0.34108800 0.83700001
v -0.35190004 -0.17054400 0.83700001
v -0.38250005 -0.19379999 0.00000000
v 0.00000000 -0.34108800 0.83700001
v -0.38250005 -0.19379999 0.00000000
v 0.00000000 -0.38759997 0.00000000
v -0.35190004 -0.17054400 0.83700001
v -0.35190004 0.19315401 0.83700001
v -0.38250005 0.20995000 0.00000000
v -0.35190004 -0.17054400 0.83700001
v -0.38250005 0.20995000 0.00000000
v -0.38250005 -0.19379999 0.00000000
v -0.35190004 0.19315401 0.83700001
v 0.00000000 0.38630801 0.83700001
v 0.00000000 0.41990000 0.00000000
v -0.35190004 0.19315401 0.83700001
v 0.00000000 0.41990000 0.00000000
v -0.38250005 0.20995000 0.00000000
v 0.00000000 0.41990000 0.00000000
v 0.38250005 0.20995000 0.00000000
v 0.29835001 0.11337300 -1.72979987
v 0.00000000 0.41990000 0.00000000
v 0.29835001 0.11337300 -1.72979987
v 0.00000000 0.22674599 -1.72979987
v 0.38250005 0.20995000 0.00000000
v 0.38250005 -0.19379999 0.00000000
v 0.29835001 -0.11240399 -1.72979987
v 0.38250005 0.20995000 0.00000000
v 0.29835001 -0.11240399 -1.72979987
v 0.29835001 0.11337300 -1.72979987
v 0.38250005 -0.19379999 0.00000000
v 0.00000000 -0.38759997 0.00000000
v 0.00000000 -0.22480798 -1.72979987
v 0.38250005 -0.19379999 0.00000000
v 0.00000000 -0.22480798 -1.72979987
v 0.29835001 -0.11240399 -1.72979987
v 0.00000000 -0.38759997 0.00000000
v -0.38250005 -0.19379999 0.00000000
v -0.29835001 -0.11240399 -1.72979987
v 0.00000000 -0.38759997 0.00000000
v -0.29835001 -0.11240399 -1.72979987
v 0.00000000 -0.22480798 -1.72979987
v -0.38250005 -0.19379999 0.00000000
v -0.38250005 0.20995000 0.00000000
v -0.29835001 0.11337300 -1.72979987
v -0.38250005 -0.19379999 0.00000000
v -0.29835001 0.11337300 -1.72979987
v -0.29835001 -0.11240399 -1.72979987
v -0.38250005 0.20995000 0.00000000
v 0.00000000 0.41990000 0.00000000
v 0.00000000 0.22674599 -1.72979987
v -0.38250005 0.20995000 0.00000000
v 0.00000000 0.22674599 -1.72979987
v -0.29835001 0.11337300 -1.72979987
v 0.00000000 0.22674599 -1.72979987
v 0.29835001 0.11337300 -1.72979987
v 0.21420002 0.06298500 -2.34359980
v 0.00000000 0.22674599 -1.72979987
v 0.21420002 0.06298500 -2.34359980
v 0.00000000 0.12597001 -2.34359980
v 0.29835001 0.11337300 -1.72979987
v 0.29835001 -0.11240399 -1.72979987
v 0.21420002 -0.06589200 -2.34359980
v 0.29835001 0.11337300 -1.72979987
v 0.21420002 -0.06589200 -2.34359980
v 0.21420002 0.06298500 -2.34359980
v 0.29835001 -0.11240399 -1.72979987
v 0.00000000 -0.22480798 -1.72979987
v 0.00000000 -0.13178401 -2.34359980
v 0.29835001 -0.11240399 -1.72979987
v 0.00000000 -0.13178401 -2.34359980
v 0.21420002 -0.06589200 -2.34359980
v 0.00000000 -0.22480798 -1.72979987
v -0.29835001 -0.11240399 -1.72979987
v -0.21420002 -0.06589200 -2.34359980
v 0.00000000 -0.22480798 -1.72979987
v -0.21420002 -0.06589200 -2.34359980
v 0.00000000 -0.13178401 -2.34359980
v -0.29835001 -0.11240399 -1.72979987
v -0.29835001 0.11337300 -1.72979987
v -0.21420002 0.06298500 -2.34359980
v -0.29835001 -0.11240399 -1.72979987
v -0.21420002 0.06298500 -2.34359980
v -0.21420002 -0.06589200 -2.34359980
v -0.29835001 0.11337300 -1.72979987
v 0.00000000 0.22674599 -1.72979987
v 0.00000000 0.12597001 -2.34359980
v -0.29835001 0.11337300 -1.72979987
v 0.00000000 0.12597001 -2.34359980
v -0.21420002 0.06298500 -2.34359980
v 0.00000000 0.00000000 2.28779984
v 0.20287804 0.09657700 2.28779984
v 0.00000000 0.19315401 2.28779984
v 0.00000000 0.00000000 2.28779984
v 0.20287804 -0.07752000 2.28779984
v 0.20287804 0.09657700 2.28779984
v 0.00000000 0.00000000 2.28779984
v 0.00000000 -0.15504000 2.28779984
v 0.20287804 -0.07752000 2.28779984
v 0.00000000 0.00000000 2.28779984
v -0.20287804 -0.07752000 2.28779984
v 0.00000000 -0.15504000 2.28779984
v 0.00000000 0.00000000 2.28779984
v -0.20287804 0.09657700 2.28779984
v -0.20287804 -0.07752000 2.28779984
v 0.00000000 0.00000000 2.28779984
v 0.00000000 0.19315401 2.28779984
v -0.20287804 0.09657700 2.28779984
v 0.00000000 0.00000000 -2.34359980
v 0.00000000 0.12597001 -2.34359980
v 0.21420002 0.06298500 -2.34359980
v 0.00000000 0.00000000 -2.34359980
v 0.21420002 0.06298500 -2.34359980
v 0.21420002 -0.06589200 -2.34359980
v 0.00000000 0.00000000 -2.34359980
v 0.21420002 -0.06589200 -2.34359980
v 0.00000000 -0.13178401 -2.34359980
v 0.00000000 0.00000000 -2.34359980
v 0.00000000 -0.13178401 -2.34359980
v -0.21420002 -0.06589200 -2.34359980
v 0.00000000 0.00000000 -2.34359980
v -0.21420002 -0.06589200 -2.34359980
v -0.21420002 0.06298500 -2.34359980
v 0.00000000 0.00000000 -2.34359980
v -0.21420002 0.06298500 -2.34359980
v 0.00000000 0.12597001 -2.34359980
v 0.55000001 -0.06199999 0.17999999
v 0.55000001 -0.06199999 -1.57999992
v 0.55000001 -0.23799999 -1.57999992
v 0.55000001 -0.06199999 0.17999999
v 0.55000001 -0.23799999 -1.57999992
v 0.55000001 -0.23799999 0.17999999
v 3.83499980 -0.06199999 1.71999991
v 3.83499980 -0.23799999 1.71999991
v 3.83499980 -0.23799999 1.08000004
v 3.83499980 -0.06199999 1.71999991
v 3.83499980 -0.23799999 1.08000004
v 3.83499980 -0.06199999 1.08000004
v 0.55000001 -0.06199999 0.17999999
v 3.83499980 -0.06199999 1.71999991
v 3.83499980 -0.06199999 1.08000004
v 0.55000001 -0.06199999 0.17999999
v 3.83499980 -0.06199999 1.08000004
v 0.55000001 -0.06199999 -1.57999992
v 0.55000001 -0.06199999 -1.57999992
v 3.83499980 -0.06199999 1.08000004
v 3.83499980 -0.23799999 1.08000004
v 0.55000001 -0.06199999 -1.57999992
v 3.83499980 -0.23799999 1.08000004
v 0.55000001 -0.23799999 -1.57999992
v 0.55000001 -0.23799999 -1.57999992
v 3.83499980 -0.23799999 1.08000004
v 3.83499980 -0.23799999 1.71999991
v 0.55000001 -0.23799999 -1.57999992
v 3.83499980 -0.23799999 1.71999991
v 0.55000001 -0.23799999 0.17999999
v 0.55000001 -0.23799999 0.17999999
v 3.83499980 -0.23799999 1.71999991
v 3.83499980 -0.06199999 1.71999991
v 0.55000001 -0.23799999 0.17999999
v 3.83499980 -0.06199999 1.71999991
v 0.55000001 -0.06199999 0.17999999
v -0.55000001 -0.23799999 0.17999999
v -0.55000001 -0.23799999 -1.57999992
v -0.55000001 -0.06199999 -1.57999992
v -0.55000001 -0.23799999 0.17999999
v -0.55000001 -0.06199999 -1.57999992
v -0.55000001 -0.06199999 0.17999999
v -3.83499980 -0.06199999 1.08000004
v -3.83499980 -0.23799999 1.08000004
v -3.83499980 -0.23799999 1.71999991
v -3.83499980 -0.06199999 1.08000004
v -3.83499980 -0.23799999 1.71999991
v -3.83499980 -0.06199999 1.71999991
v -0.55000001 -0.06199999 -1.57999992
v -3.83499980 -0.06199999 1.08000004
v -3.83499980 -0.06199999 1.71999991
v -0.55000001 -0.06199999 -1.57999992
v -3.83499980 -0.06199999 1.71999991
v -0.55000001 -0.06199999 0.17999999
v -0.55000001 -0.23799999 -1.57999992
v -3.83499980 -0.23799999 1.08000004
v -3.83499980 -0.06199999 1.08000004
v -0.55000001 -0.23799999 -1.57999992
v -3.83499980 -0.06199999 1.08000004
v -0.55000001 -0.06199999 -1.57999992
v -0.55000001 -0.23799999 0.17999999
v -3.83499980 -0.23799999 1.71999991
v -3.83499980 -0.23799999 1.08000004
v -0.55000001 -0.23799999 0.17999999
v -3.83499980 -0.23799999 1.08000004
v -0.55000001 -0.23799999 -1.57999992
v -0.55000001 -0.06199999 0.17999999
v -3.83499980 -0.06199999 1.71999991
v -3.83499980 -0.23799999 1.71999991
v -0.55000001 -0.06199999 0.17999999
v -3.83499980 -0.23799999 1.71999991
v -0.55000001 -0.23799999 0.17999999
v -2.00500011 -0.18990833 -1.35375011
v -2.00500011 -0.18990833 0.06575000
v -2.00500011 0.20009169 0.06575000
v -2.00500011 -0.18990833 -1.35375011
v -2.00500011 0.20009169 0.06575000
v -2.00500011 0.20009169 -1.35375011
v -2.39499998 -0.18990833 0.06575000
v -2.39499998 -0.18990833 -1.35375011
v -2.39499998 0.20009169 -1.35375011
v -2.39499998 -0.18990833 0.06575000
v -2.39499998 0.20009169 -1.35375011
v -2.39499998 0.20009169 0.06575000
v -2.39499998 0.20009169 -1.35375011
v -2.00500011 0.20009169 -1.35375011
v -2.00500011 0.20009169 0.06575000
v -2.39499998 0.20009169 -1.35375011
v -2.00500011 0.20009169 0.06575000
v -2.39499998 0.20009169 0.06575000
v -2.39499998 -0.18990833 -1.35375011
v -2.39499998 -0.18990833 0.06575000
v -2.00500011 -0.18990833 0.06575000
v -2.39499998 -0.18990833 -1.35375011
v -2.00500011 -0.18990833 0.06575000
v -2.00500011 -0.18990833 -1.35375011
v -2.39499998 -0.18990833 0.06575000
v -2.39499998 0.20009169 0.06575000
v -2.00500011 0.20009169 0.06575000
v -2.39499998 -0.18990833 0.06575000
v -2.00500011 0.20009169 0.06575000
v -2.00500011 -0.18990833 0.06575000
v -2.39499998 -0.18990833 -1.35375011
v -2.00500011 -0.18990833 -1.35375011
v -2.00500011 0.20009169 -1.35375011
v -2.39499998 -0.18990833 -1.35375011
v -2.00500011 0.20009169 -1.35375011
v -2.39499998 0.20009169 -1.35375011
v 2.39499998 -0.18990833 -1.35375011
v 2.39499998 -0.18990833 0.06575000
v 2.39499998 0.20009169 0.06575000
v 2.39499998 -0.18990833 -1.35375011
v 2.39499998 0.20009169 0.06575000
v 2.39499998 0.20009169 -1.35375011
v 2.00500011 -0.18990833 0.06575000
v 2.00500011 -0.18990833 -1.35375011
v 2.00500011 0.20009169 -1.35375011
v 2.00500011 -0.18990833 0.06575000
v 2.00500011 0.20009169 -1.35375011
v 2.00500011 0.20009169 0.06575000
v 2.00500011 0.20009169 -1.35375011
v 2.39499998 0.20009169 -1.35375011
v 2.39499998 0.20009169 0.06575000
v 2.00500011 0.20009169 -1.35375011
v 2.39499998 0.20009169 0.06575000
v 2.00500011 0.20009169 0.06575000
v 2.00500011 -0.18990833 -1.35375011
v 2.00500011 -0.18990833 0.06575000
v 2.39499998 -0.18990833 0.06575000
v 2.00500011 -0.18990833 -1.35375011
v 2.39499998 -0.18990833 0.06575000
v 2.39499998 -0.18990833 -1.35375011
v 2.00500011 -0.18990833 0.06575000
v 2.00500011 0.20009169 0.06575000
v 2.39499998 0.20009169 0.06575000
v 2.00500011 -0.18990833 0.06575000
v 2.39499998 0.20009169 0.06575000
v 2.39499998 -0.18990833 0.06575000
v 2.00500011 -0.18990833 -1.35375011
v 2.39499998 -0.18990833 -1.35375011
v 2.39499998 0.20009169 -1.35375011
v 2.00500011 -0.18990833 -1.35375011
v 2.39499998 0.20009169 -1.35375011
v 2.00500011 0.20009169 -1.35375011
vn 0.42750201 0.89804780 0.10369312
vn 0.42750201 0.89804780 0.10369312
vn 0.42750201 0.89804780 0.10369312
vn 0.47792676 0.87071675 0.11592394
vn 0.47792676 0.87071675 0.11592394
vn 0.47792676 0.87071675 0.11592394
vn 0.99476594 0.00000000 0.10217950
vn 0.99476594 0.00000000 0.10217950
vn 0.99476594 0.00000000 0.10217950
vn 0.99476600 0.00000000 0.10217950
vn 0.99476600 0.00000000 0.10217950
vn 0.99476600 0.00000000 0.10217950
vn 0.35439882 -0.92749923 0.11894085
vn 0.35439882 -0.92749923 0.11894085
vn 0.35439882 -0.92749923 0.11894085
vn 0.43384689 -0.89519858 0.10196286
vn 0.43384689 -0.89519858 0.10196286
vn 0.43384689 -0.89519858 0.10196286
vn -0.35528013 -0.92980570 0.09611168
vn -0.35528013 -0.92980570 0.09611168
vn -0.35528013 -0.92980570 0.09611168
vn -0.43324465 -0.89395583 0.11463932
vn -0.43324465 -0.89395583 0.11463932
vn -0.43324465 -0.89395583 0.11463932
vn -0.99476594 0.00000000 0.10217950
vn -0.99476594 0.00000000 0.10217950
vn -0.99476594 0.00000000 0.10217950
vn -0.99476600 0.00000000 0.10217950
vn -0.99476600 0.00000000 0.10217950
vn -0.99476600 0.00000000 0.10217950
vn -0.42674667 0.89646107 0.11935145
vn -0.42674667 0.89646107 0.11935145
vn -0.42674667 0.89646107 0.11935145
vn -0.47840014 0.87157911 0.10715926
vn -0.47840014 0.87157911 0.10715926
vn -0.47840014 0.87157911 0.10715926
vn 0.48087320 0.87608480 0.03516062
vn 0.48087320 0.87608480 0.03516062
vn 0.48087320 0.87608480 0.03516062
vn 0.48087320 0.87608486 0.03516061
vn 0.48087320 0.87608486 0.03516061
vn 0.48087320 0.87608486 0.03516061
vn 0.99933243 0.00000000 0.03653475
vn 0.99933243 0.00000000 0.03653475
vn 0.99933243 0.00000000 0.03653475
vn 0.99933243 0.00000000 0.03653475
vn 0.99933243 0.00000000 0.03653475
vn 0.99933243 0.00000000 0.03653475
vn 0.43557557 -0.89876550 0.04994426
vn 0.43557557 -0.89876550 0.04994426
vn 0.43557557 -0.89876550 0.04994426
vn 0.45157954 -0.89127564 0.04127340
vn 0.45157954 -0.89127564 0.04127340
vn 0.45157954 -0.89127564 0.04127340
vn -0.43575469 -0.89913511 0.04091323
vn -0.43575469 -0.89913511 0.04091323
vn -0.43575469 -0.89913511 0.04091323
vn -0.45141044 -0.89094186 0.04950952
vn -0.45141044 -0.89094186 0.04950952
vn -0.45141044 -0.89094186 0.04950952
vn -0.99933243 0.00000000 0.03653475
vn -0.99933243 0.00000000 0.03653475
vn -0.99933243 0.00000000 0.03653475
vn -0.99933243 0.00000000 0.03653475
vn -0.99933243 0.00000000 0.03653475
vn -0.99933243 0.00000000 0.03653475
vn -0.48087320 0.87608480 0.03516062
vn -0.48087320 0.87608480 0.03516062
vn -0.48087320 0.87608480 0.03516062
vn -0.48087320 0.87608486 0.03516062
vn -0.48087320 0.87608486 0.03516062
vn -0.48087320 0.87608486 0.03516062
vn 0.47991630 0.87434149 -0.07216226
vn 0.47991630 0.87434149 -0.07216226
vn 0.47991630 0.87434149 -0.07216226
vn 0.35329837 0.92973244 -0.10381637
vn 0.35329837 0.92973244 -0.10381637
vn 0.35329837 0.92973244 -0.10381637
vn 0.99881876 0.00000000 -0.04858981
vn 0.99881876 0.00000000 -0.04858981
vn 0.99881876 0.00000000 -0.04858981
vn 0.99881887 0.00000000 -0.04858981
vn 0.99881887 0.00000000 -0.04858981
vn 0.99881887 0.00000000 -0.04858981
vn 0.45038047 -0.88890904 -0.08365551
vn 0.45038047 -0.88890904 -0.08365551
vn 0.45038047 -0.88890904 -0.08365551
vn 0.35190243 -0.93404233 -0.06107061
vn 0.35190243 -0.93404233 -0.06107061
vn 0.35190243 -0.93404233 -0.06107061
vn -0.45104304 -0.89021665 -0.06383130
vn -0.45104304 -0.89021665 -0.06383130
vn -0.45104304 -0.89021665 -0.06383130
vn -0.35120118 -0.93218106 -0.08772784
vn -0.35120118 -0.93218106 -0.08772784
vn -0.35120118 -0.93218106 -0.08772784
vn -0.99881876 0.00000000 -0.04858981
vn -0.99881876 0.00000000 -0.04858981
vn -0.99881876 0.00000000 -0.04858981
vn -0.99881887 0.00000000 -0.04858981
vn -0.99881887 0.00000000 -0.04858981
vn -0.99881887 0.00000000 -0.04858981
vn -0.47888193 0.87245703 -0.09742085
vn -0.47888193 0.87245703 -0.09742085
vn -0.47888193 0.87245703 -0.09742085
vn -0.35436371 0.93253601 -0.06930354
vn -0.35436371 0.93253601 -0.06930354
vn -0.35436371 0.93253601 -0.06930354
vn 0.35245574 0.92751503 -0.12446199
vn 0.35245574 0.92751503 -0.12446199
vn 0.35245574 0.92751503 -0.12446199
vn 0.27866864 0.94769901 -0.15559681
vn 0.27866864 0.94769901 -0.15559681
vn 0.27866864 0.94769901 -0.15559681
vn 0.99073267 0.00000000 -0.13582624
vn 0.99073267 0.00000000 -0.13582624
vn 0.99073267 0.00000000 -0.13582624
vn 0.99073267 0.00000000 -0.13582626
vn 0.99073267 0.00000000 -0.13582626
vn 0.99073267 0.00000000 -0.13582626
vn 0.34906745 -0.92651755 -0.14041765
vn 0.34906745 -0.92651755 -0.14041765
vn 0.34906745 -0.92651755 -0.14041765
vn 0.29217106 -0.94978213 -0.11202745
vn 0.29217106 -0.94978213 -0.11202745
vn 0.29217106 -0.94978213 -0.11202745
vn -0.35008025 -0.92920583 -0.11840739
vn -0.35008025 -0.92920583 -0.11840739
vn -0.35008025 -0.92920583 -0.11840739
vn -0.29098478 -0.94592595 -0.14335907
vn -0.29098478 -0.94592595 -0.14335907
vn -0.29098478 -0.94592595 -0.14335907
vn -0.99073267 0.00000000 -0.13582624
vn -0.99073267 0.00000000 -0.13582624
vn -0.99073267 0.00000000 -0.13582624
vn -0.99073267 0.00000000 -0.13582624
vn -0.99073267 0.00000000 -0.13582624
vn -0.99073267 0.00000000 -0.13582624
vn -0.35110670 0.92396498 -0.15170005
vn -0.35110670 0.92396498 -0.15170005
vn -0.35110670 0.92396498 -0.15170005
vn -0.28017920 0.95283616 -0.11663178
vn -0.28017920 0.95283616 -0.11663178
vn -0.28017920 0.95283616 -0.11663178
vn 0.00000000 0.00000000 1.00000000
vn 0.00000000 0.00000000 1.00000000
vn 0.00000000 0.00000000 1.00000000
vn -0.00000000 0.00000000 0.99999994
vn -0.00000000 0.00000000 0.99999994
vn -0.00000000 0.00000000 0.99999994
vn 0.00000000 0.00000000 1.00000000
vn 0.00000000 0.00000000 1.00000000
vn 0.00000000 0.00000000 1.00000000
vn 0.00000000 0.00000000 1.00000000
vn 0.00000000 0.00000000 1.00000000
vn 0.00000000 0.00000000 1.00000000
vn 0.00000000 0.00000000 0.99999994
vn 0.00000000 0.00000000 0.99999994
vn 0.00000000 0.00000000 0.99999994
vn 0.00000000 -0.00000000 1.00000000
vn 0.00000000 -0.00000000 1.00000000
vn 0.00000000 -0.00000000 1.00000000
vn 0.00000000 0.00000000 -1.00000000
vn 0.00000000 0.00000000 -1.00000000
vn 0.00000000 0.00000000 -1.00000000
vn 0.00000000 0.00000000 -1.00000000
vn 0.00000000 0.00000000 -1.00000000
vn 0.00000000 0.00000000 -1.00000000
vn 0.00000000 0.00000000 -0.99999994
vn 0.00000000 0.00000000 -0.99999994
vn 0.00000000 0.00000000 -0.99999994
vn 0.00000000 -0.00000000 -0.99999994
vn 0.00000000 -0.00000000 -0.99999994
vn 0.00000000 -0.00000000 -0.99999994
vn -0.00000000 0.00000000 -1.00000000
vn -0.00000000 0.00000000 -1.00000000
vn -0.00000000 0.00000000 -1.00000000
vn 0.00000000 0.00000000 -1.00000000
vn 0.00000000 0.00000000 -1.00000000
vn 0.00000000 0.00000000 -1.00000000
vn -1.00000000 0.00000000 -0.00000000
vn -1.00000000 0.00000000 -0.00000000
vn -1.00000000 0.00000000 -0.00000000
vn -1.00000000 -0.00000000 0.00000000
vn -1.00000000 -0.00000000 0.00000000
vn -1.00000000 -0.00000000 0.00000000
vn 1.00000000 0.00000000 0.00000000
vn 1.00000000 0.00000000 0.00000000
vn 1.00000000 0.00000000 0.00000000
vn 1.00000000 0.00000000 0.00000000
vn 1.00000000 0.00000000 0.00000000
vn 1.00000000 0.00000000 0.00000000
vn 0.00000000 1.00000000 0.00000000
vn 0.00000000 1.00000000 0.00000000
vn 0.00000000 1.00000000 0.00000000
vn -0.00000000 1.00000000 0.00000000
vn -0.00000000 1.00000000 0.00000000
vn -0.00000000 1.00000000 0.00000000
vn 0.62930030 0.00000000 -0.77716225
vn 0.62930030 0.00000000 -0.77716225
vn 0.62930030 0.00000000 -0.77716225
vn 0.62930030 0.00000000 -0.77716225
vn 0.62930030 0.00000000 -0.77716225
vn 0.62930030 0.00000000 -0.77716225
vn 0.00000000 -1.00000000 0.00000000
vn 0.00000000 -1.00000000 0.00000000
vn 0.00000000 -1.00000000 0.00000000
vn 0.00000000 -1.00000000 0.00000000
vn 0.00000000 -1.00000000 0.00000000
vn 0.00000000 -1.00000000 0.00000000
vn -0.42446920 0.00000000 0.90544242
vn -0.42446920 0.00000000 0.90544242
vn -0.42446920 0.00000000 0.90544242
vn -0.42446920 0.00000000 0.90544242
vn -0.42446920 0.00000000 0.90544242
vn -0.42446920 0.00000000 0.90544242
vn 1.00000000 0.00000000 0.00000000
vn 1.00000000 0.00000000 0.00000000
vn 1.00000000 0.00000000 0.00000000
vn 1.00000000 -0.00000000 0.00000000
vn 1.00000000 -0.00000000 0.00000000
vn 1.00000000 -0.00000000 0.00000000
vn -1.00000000 0.00000000 0.00000000
vn -1.00000000 0.00000000 0.00000000
vn -1.00000000 0.00000000 0.00000000
vn -1.00000000 0.00000000 0.00000000
vn -1.00000000 0.00000000 0.00000000
vn -1.00000000 0.00000000 0.00000000
vn 0.00000000 1.00000000 0.00000000
vn 0.00000000 1.00000000 0.00000000
vn 0.00000000 1.00000000 0.00000000
vn 0.00000000 1.00000000 -0.00000000
vn 0.00000000 1.00000000 -0.00000000
vn 0.00000000 1.00000000 -0.00000000
vn -0.62930030 0.00000000 -0.77716225
vn -0.62930030 0.00000000 -0.77716225
vn -0.62930030 0.00000000 -0.77716225
vn -0.62930030 0.00000000 -0.77716225
vn -0.62930030 0.00000000 -0.77716225
vn -0.62930030 0.00000000 -0.77716225
vn 0.00000000 -1.00000000 0.00000000
vn 0.00000000 -1.00000000 0.00000000
vn 0.00000000 -1.00000000 0.00000000
vn -0.00000000 -1.00000000 -0.00000000
vn -0.00000000 -1.00000000 -0.00000000
vn -0.00000000 -1.00000000 -0.00000000
vn 0.42446920 0.00000000 0.90544242
vn 0.42446920 0.00000000 0.90544242
vn 0.42446920 0.00000000 0.90544242
vn 0.42446920 0.00000000 0.90544242
vn 0.42446920 0.00000000 0.90544242
vn 0.42446920 0.00000000 0.90544242
vn -1.00000000 0.00000000 0.00000000
vn -1.00000000 0.00000000 0.00000000
vn -1.00000000 0.00000000 0.00000000
vn -1.00000000 0.00000000 0.00000000
vn -1.00000000 0.00000000 0.00000000
vn -1.00000000 0.00000000 0.00000000
vn 1.00000000 0.00000000 0.00000000
vn 1.00000000 0.00000000 0.00000000
vn 1.00000000 0.00000000 0.00000000
vn 1.00000000 -0.00000000 0.00000000
vn 1.00000000 -0.00000000 0.00000000
vn 1.00000000 -0.00000000 0.00000000
vn 0.00000000 -1.00000000 0.00000000
vn 0.00000000 -1.00000000 0.00000000
vn 0.00000000 -1.00000000 0.00000000
vn 0.00000000 -1.00000000 0.00000000
vn 0.00000000 -1.00000000 0.00000000
vn 0.00000000 -1.00000000 0.00000000
vn 0.00000000 1.00000000 0.00000000
vn 0.00000000 1.00000000 0.00000000
vn 0.00000000 1.00000000 0.00000000
vn 0.00000000 1.00000000 0.00000000
vn 0.00000000 1.00000000 0.00000000
vn 0.00000000 1.00000000 0.00000000
vn 0.00000000 0.00000000 -1.00000000
vn 0.00000000 0.00000000 -1.00000000
vn 0.00000000 0.00000000 -1.00000000
vn 0.00000000 0.00000000 -1.00000000
vn 0.00000000 0.00000000 -1.00000000
vn 0.00000000 0.00000000 -1.00000000
vn 0.00000000 0.00000000 1.00000000
vn 0.00000000 0.00000000 1.00000000
vn 0.00000000 0.00000000 1.00000000
vn 0.00000000 0.00000000 1.00000000
vn 0.00000000 0.00000000 1.00000000
vn 0.00000000 0.00000000 1.00000000
vn -1.00000000 0.00000000 0.00000000
vn -1.00000000 0.00000000 0.00000000
vn -1.00000000 0.00000000 0.00000000
vn -1.00000000 0.00000000 0.00000000
vn -1.00000000 0.00000000 0.00000000
vn -1.00000000 0.00000000 0.00000000
vn 1.00000000 0.00000000 0.00000000
vn 1.00000000 0.00000000 0.00000000
vn 1.00000000 0.00000000 0.00000000
vn 1.00000000 -0.00000000 0.00000000
vn 1.00000000 -0.00000000 0.00000000
vn 1.00000000 -0.00000000 0.00000000
vn 0.00000000 -1.00000000 0.00000000
vn 0.00000000 -1.00000000 0.00000000
vn 0.00000000 -1.00000000 0.00000000
vn 0.00000000 -1.00000000 0.00000000
vn 0.00000000 -1.00000000 0.00000000
vn 0.00000000 -1.00000000 0.00000000
vn 0.00000000 1.00000000 0.00000000
vn 0.00000000 1.00000000 0.00000000
vn 0.00000000 1.00000000 0.00000000
vn 0.00000000 1.00000000 0.00000000
vn 0.00000000 1.00000000 0.00000000
vn 0.00000000 1.00000000 0.00000000
vn 0.00000000 0.00000000 -1.00000000
vn 0.00000000 0.00000000 -1.00000000
vn 0.00000000 0.00000000 -1.00000000
vn 0.00000000 0.00000000 -1.00000000
vn 0.00000000 0.00000000 -1.00000000
vn 0.00000000 0.00000000 -1.00000000
vn 0.00000000 0.00000000 1.00000000
vn 0.00000000 0.00000000 1.00000000
vn 0.00000000 0.00000000 1.00000000
vn 0.00000000 0.00000000 1.00000000
vn 0.00000000 0.00000000 1.00000000
vn 0.00000000 0.00000000 1.00000000
f 1//1 2//2 3//3
f 4//4 5//5 6//6
f 7//7 8//8 9//9
f 10//10 11//11 12//12
f 13//13 14//14 15//15
f 16//16 17//17 18//18
f 19//19 20//20 21//21
f 22//22 23//23 24//24
f 25//25 26//26 27//27
f 28//28 29//29 30//30
f 31//31 32//32 33//33
f 34//34 35//35 36//36
f 37//37 38//38 39//39
f 40//40 41//41 42//42
f 43//43 44//44 45//45
f 46//46 47//47 48//48
f 49//49 50//50 51//51
f 52//52 53//53 54//54
f 55//55 56//56 57//57
f 58//58 59//59 60//60
f 61//61 62//62 63//63
f 64//64 65//65 66//66
f 67//67 68//68 69//69
f 70//70 71//71 72//72
f 73//73 74//74 75//75
f 76//76 77//77 78//78
f 79//79 80//80 81//81
f 82//82 83//83 84//84
f 85//85 86//86 87//87
f 88//88 89//89 90//90
f 91//91 92//92 93//93
f 94//94 95//95 96//96
f 97//97 98//98 99//99
f 100//100 101//101 102//102
f 103//103 104//104 105//105
f 106//106 107//107 108//108
f 109//109 110//110 111//111
f 112//112 113//113 114//114
f 115//115 116//116 117//117
f 118//118 119//119 120//120
f 121//121 122//122 123//123
f 124//124 125//125 126//126
f 127//127 128//128 129//129
f 130//130 131//131 132//132
f 133//133 134//134 135//135
f 136//136 137//137 138//138
f 139//139 140//140 141//141
f 142//142 143//143 144//144
f 145//145 146//146 147//147
f 148//148 149//149 150//150
f 151//151 152//152 153//153
f 154//154 155//155 156//156
f 157//157 158//158 159//159
f 160//160 161//161 162//162
f 163//163 164//164 165//165
f 166//166 167//167 168//168
f 169//169 170//170 171//171
f 172//172 173//173 174//174
f 175//175 176//176 177//177
f 178//178 179//179 180//180
f 181//181 182//182 183//183
f 184//184 185//185 186//186
f 187//187 188//188 189//189
f 190//190 191//191 192//192
f 193//193 194//194 195//195
f 196//196 197//197 198//198
f 199//199 200//200 201//201
f 202//202 203//203 204//204
f 205//205 206//206 207//207
f 208//208 209//209 210//210
f 211//211 212//212 213//213
f 214//214 215//215 216//216
f 217//217 218//218 219//219
f 220//220 221//221 222//222
f 223//223 224//224 225//225
f 226//226 227//227 228//228
f 229//229 230//230 231//231
f 232//232 233//233 234//234
f 235//235 236//236 237//237
f 238//238 239//239 240//240
f 241//241 242//242 243//243
f 244//244 245//245 246//246
f 247//247 248//248 249//249
f 250//250 251//251 252//252
f 253//253 254//254 255//255
f 256//256 257//257 258//258
f 259//259 260//260 261//261
f 262//262 263//263 264//264
f 265//265 266//266 267//267
f 268//268 269//269 270//270
f 271//271 272//272 273//273
f 274//274 275//275 276//276
f 277//277 278//278 279//279
f 280//280 281//281 282//282
f 283//283 284//284 285//285
f 286//286 287//287 288//288
f 289//289 290//290 291//291
f 292//292 293//293 294//294
f 295//295 296//296 297//297
f 298//298 299//299 300//300
f 301//301 302//302 303//303
f 304//304 305//305 306//306
f 307//307 308//308 309//309
f 310//310 311//311 312//312
f 313//313 314//314 315//315
f 316//316 317//317 318//318
f 319//319 320//320 321//321
f 322//322 323//323 324//324
