v 0.00000000 0.23381801 1.71585000
v 0.32290649 0.11690900 1.71585000
v 0.61582500 0.23381801 0.62775004
v 0.00000000 0.23381801 1.71585000
v 0.61582500 0.23381801 0.62775004
v 0.00000000 0.46763602 0.62775004
v 0.32290649 0.11690900 1.71585000
v 0.32290649 -0.09384000 1.71585000
v 0.61582500 -0.20644799 0.62775004
v 0.32290649 0.11690900 1.71585000
v 0.61582500 -0.20644799 0.62775004
v 0.61582500 0.23381801 0.62775004
v 0.32290649 -0.09384000 1.71585000
v 0.00000000 -0.18768001 1.71585000
v 0.00000000 -0.41289598 0.62775004
v 0.32290649 -0.09384000 1.71585000
v 0.00000000 -0.41289598 0.62775004
v 0.61582500 -0.20644799 0.62775004
v 0.00000000 -0.18768001 1.71585000
v -0.32290649 -0.09384000 1.71585000
v -0.61582500 -0.20644799 0.62775004
v 0.00000000 -0.18768001 1.71585000
v -0.61582500 -0.20644799 0.62775004
v 0.00000000 -0.41289598 0.62775004
v -0.32290649 -0.09384000 1.71585000
v -0.32290649 0.11690900 1.71585000
v -0.61582500 0.23381801 0.62775004
v -0.32290649 -0.09384000 1.71585000
v -0.61582500 0.23381801 0.62775004
v -0.61582500 -0.20644799 0.62775004
v -0.32290649 0.11690900 1.71585000
v 0.00000000 0.23381801 1.71585000
v 0.00000000 0.46763602 0.62775004
v -0.32290649 0.11690900 1.71585000
v 0.00000000 0.46763602 0.62775004
v -0.61582500 0.23381801 0.62775004
v 0.00000000 0.46763602 0.62775004
v 0.61582500 0.23381801 0.62775004
v 0.66937500 0.25415000 0.00000000
v 0.00000000 0.46763602 0.62775004
v 0.66937500 0.25415000 0.00000000
v 0.00000000 0.50830001 0.00000000
v 0.61582500 0.23381801 0.62775004
v 0.61582500 -0.20644799 0.62775004
v 0.66937500 -0.23460001 0.00000000
v 0.61582500 0.23381801 0.62775004
v 0.66937500 -0.23460001 0.00000000
v 0.66937500 0.25415000 0.00000000
v 0.61582500 -0.20644799 0.62775004
v 0.00000000 -0.41289598 0.62775004
v 0.00000000 -0.46920002 0.00000000
v 0.61582500 -0.20644799 0.62775004
v 0.00000000 -0.46920002 0.00000000
v 0.66937500 -0.23460001 0.00000000
v 0.00000000 -0.41289598 0.62775004
v -0.61582500 -0.20644799 0.62775004
v -0.66937500 -0.23460001 0.00000000
v 0.00000000 -0.41289598 0.62775004
v -0.66937500 -0.23460001 0.00000000
v 0.00000000 -0.46920002 0.00000000
v -0.61582500 -0.20644799 0.62775004
v -0.61582500 0.23381801 0.62775004
v -0.66937500 0.25415000 0.00000000
v -0.61582500 -0.20644799 0.62775004
v -0.66937500 0.25415000 0.00000000
v -0.66937500 -0.23460001 0.00000000
v -0.61582500 0.23381801 0.62775004
v 0.00000000 0.46763602 0.62775004
v 0.00000000 0.50830001 0.00000000
v -0.61582500 0.23381801 0.62775004
v 0.00000000 0.50830001 0.00000000
v -0.66937500 0.25415000 0.00000000
v 0.00000000 0.50830001 0.00000000
v 0.66937500 0.25415000 0.00000000
v 0.52211249 0.13724101 -1.29735005
v 0.00000000 0.50830001 0.00000000
v 0.52211249 0.13724101 -1.29735005
v 0.00000000 0.27448201 -1.29735005
v 0.66937500 0.25415000 0.00000000
v 0.66937500 -0.23460001 0.00000000
v 0.52211249 -0.13606799 -1.29735005
v 0.66937500 0.25415000 0.00000000
v 0.52211249 -0.13606799 -1.29735005
v 0.52211249 0.13724101 -1.29735005
v 0.66937500 -0.23460001 0.00000000
v 0.00000000 -0.46920002 0.00000000
v 0.00000000 -0.27213597 -1.29735005
v 0.66937500 -0.23460001 0.00000000
v 0.00000000 -0.27213597 -1.29735005
v 0.52211249 -0.13606799 -1.29735005
v 0.00000000 -0.46920002 0.00000000
v -0.66937500 -0.23460001 0.00000000
v -0.52211249 -0.13606799 -1.29735005
v 0.00000000 -0.46920002 0.00000000
v -0.52211249 -0.13606799 -1.29735005
v 0.00000000 -0.27213597 -1.29735005
v -0.66937500 -0.23460001 0.00000000
v -0.66937500 0.25415000 0.00000000
v -0.52211249 0.13724101 -1.29735005
v -0.66937500 -0.23460001 0.00000000
v -0.52211249 0.13724101 -1.29735005
v -0.52211249 -0.13606799 -1.29735005
v -0.66937500 0.25415000 0.00000000
v 0.00000000 0.50830001 0.00000000
v 0.00000000 0.27448201 -1.29735005
v -0.66937500 0.25415000 0.00000000
v 0.00000000 0.27448201 -1.29735005
v -0.52211249 0.13724101 -1.29735005
v 0.00000000 0.27448201 -1.29735005
v 0.52211249 0.13724101 -1.29735005
v 0.37485003 0.07624500 -1.75769997
v 0.00000000 0.27448201 -1.29735005
v 0.37485003 0.07624500 -1.75769997
v 0.00000000 0.15249000 -1.75769997
v 0.52211249 0.13724101 -1.29735005
v 0.52211249 -0.13606799 -1.29735005
v 0.37485003 -0.07976400 -1.75769997
v 0.52211249 0.13724101 -1.29735005
v 0.37485003 -0.07976400 -1.75769997
v 0.37485003 0.07624500 -1.75769997
v 0.52211249 -0.13606799 -1.29735005
v 0.00000000 -0.27213597 -1.29735005
v 0.00000000 -0.15952800 -1.75769997
v 0.52211249 -0.13606799 -1.29735005
v 0.00000000 -0.15952800 -1.75769997
v 0.37485003 -0.07976400 -1.75769997
v 0.00000000 -0.27213597 -1.29735005
v -0.52211249 -0.13606799 -1.29735005
v -0.37485003 -0.07976400 -1.75769997
v 0.00000000 -0.27213597 -1.29735005
v -0.37485003 -0.07976400 -1.75769997
v 0.00000000 -0.15952800 -1.75769997
v -0.52211249 -0.13606799 -1.29735005
v -0.52211249 0.13724101 -1.29735005
v -0.37485003 0.07624500 -1.75769997
v -0.52211249 -0.13606799 -1.29735005
v -0.37485003 0.07624500 -1.75769997
v -0.37485003 -0.07976400 -1.75769997
v -0.52211249 0.13724101 -1.29735005
v 0.00000000 0.27448201 -1.29735005
v 0.00000000 0.15249000 -1.75769997
v -0.52211249 0.13724101 -1.29735005
v 0.00000000 0.15249000 -1.75769997
v -0.37485003 0.07624500 -1.75769997
v 0.00000000 0.00000000 1.71585000
v 0.32290649 0.11690900 1.71585000
v 0.00000000 0.23381801 1.71585000
v 0.00000000 0.00000000 1.71585000
v 0.32290649 -0.09384000 1.71585000
v 0.32290649 0.11690900 1.71585000
v 0.00000000 0.00000000 1.71585000
v 0.00000000 -0.18768001 1.71585000
v 0.32290649 -0.09384000 1.71585000
v 0.00000000 0.00000000 1.71585000
v -0.32290649 -0.09384000 1.71585000
v 0.00000000 -0.18768001 1.71585000
v 0.00000000 0.00000000 1.71585000
v -0.32290649 0.11690900 1.71585000
v -0.32290649 -0.09384000 1.71585000
v 0.00000000 0.00000000 1.71585000
v 0.00000000 0.23381801 1.71585000
v -0.32290649 0.11690900 1.71585000
v 0.00000000 0.00000000 -1.75769997
v 0.00000000 0.15249000 -1.75769997
v 0.37485003 0.07624500 -1.75769997
v 0.00000000 0.00000000 -1.75769997
v 0.37485003 0.07624500 -1.75769997
v 0.37485003 -0.07976400 -1.75769997
v 0.00000000 0.00000000 -1.75769997
v 0.37485003 -0.07976400 -1.75769997
v 0.00000000 -0.15952800 -1.75769997
v 0.00000000 0.00000000 -1.75769997
v 0.00000000 -0.15952800 -1.75769997
v -0.37485003 -0.07976400 -1.75769997
v 0.00000000 0.00000000 -1.75769997
v -0.37485003 -0.07976400 -1.75769997
v -0.37485003 0.07624500 -1.75769997
v 0.00000000 0.00000000 -1.75769997
v -0.37485003 0.07624500 -1.75769997
v 0.00000000 0.15249000 -1.75769997
v 0.73499995 -0.25299996 0.78499997
v 0.73499995 -0.25299996 -1.73499990
v 0.73499995 -0.51700002 -1.73499990
v 0.73499995 -0.25299996 0.78499997
v 0.73499995 -0.51700002 -1.73499990
v 0.73499995 -0.51700002 0.78499997
v 2.59200001 -0.25299996 -0.49499997
v 2.59200001 -0.51700002 -0.49499997
v 2.59200001 -0.51700002 -0.85499996
v 2.59200001 -0.25299996 -0.49499997
v 2.59200001 -0.51700002 -0.85499996
v 2.59200001 -0.25299996 -0.85499996
v 0.73499995 -0.25299996 0.78499997
v 2.59200001 -0.25299996 -0.49499997
v 2.59200001 -0.25299996 -0.85499996
v 0.73499995 -0.25299996 0.78499997
v 2.59200001 -0.25299996 -0.85499996
v 0.73499995 -0.25299996 -1.73499990
v 0.73499995 -0.25299996 -1.73499990
v 2.59200001 -0.25299996 -0.85499996
v 2.59200001 -0.51700002 -0.85499996
v 0.73499995 -0.25299996 -1.73499990
v 2.59200001 -0.51700002 -0.85499996
v 0.73499995 -0.51700002 -1.73499990
v 0.73499995 -0.51700002 -1.73499990
v 2.59200001 -0.51700002 -0.85499996
v 2.59200001 -0.51700002 -0.49499997
v 0.73499995 -0.51700002 -1.73499990
v 2.59200001 -0.51700002 -0.49499997
v 0.73499995 -0.51700002 0.78499997
v 0.73499995 -0.51700002 0.78499997
v 2.59200001 -0.51700002 -0.49499997
v 2.59200001 -0.25299996 -0.49499997
v 0.73499995 -0.51700002 0.78499997
v 2.59200001 -0.25299996 -0.49499997
v 0.73499995 -0.25299996 0.78499997
v -0.73499995 -0.51700002 0.78499997
v -0.73499995 -0.51700002 -1.73499990
v -0.73499995 -0.25299996 -1.73499990
v -0.73499995 -0.51700002 0.78499997
v -0.73499995 -0.25299996 -1.73499990
v -0.73499995 -0.25299996 0.78499997
v -2.59200001 -0.25299996 -0.85499996
v -2.59200001 -0.51700002 -0.85499996
v -2.59200001 -0.51700002 -0.49499997
v -2.59200001 -0.25299996 -0.85499996
v -2.59200001 -0.51700002 -0.49499997
v -2.59200001 -0.25299996 -0.49499997
v -0.73499995 -0.25299996 -1.73499990
v -2.59200001 -0.25299996 -0.85499996
v -2.59200001 -0.25299996 -0.49499997
v -0.73499995 -0.25299996 -1.73499990
v -2.59200001 -0.25299996 -0.49499997
v -0.73499995 -0.25299996 0.78499997
v -0.73499995 -0.51700002 -1.73499990
v -2.59200001 -0.51700002 -0.85499996
v -2.59200001 -0.25299996 -0.85499996
v -0.73499995 -0.51700002 -1.73499990
v -2.59200001 -0.25299996 -0.85499996
v -0.73499995 -0.25299996 -1.73499990
v -0.73499995 -0.51700002 0.78499997
v -2.59200001 -0.51700002 -0.49499997
v -2.59200001 -0.51700002 -0.85499996
v -0.73499995 -0.51700002 0.78499997
v -2.59200001 -0.51700002 -0.85499996
v -0.73499995 -0.51700002 -1.73499990
v -0.73499995 -0.25299996 0.78499997
v -2.59200001 -0.25299996 -0.49499997
v -2.59200001 -0.51700002 -0.49499997
v -0.73499995 -0.25299996 0.78499997
v -2.59200001 -0.51700002 -0.49499997
v -0.73499995 -0.51700002 0.78499997
v -1.04412186 -0.19055469 -2.43781233
v -1.04412186 -0.19055469 -1.13051069
v -1.04412186 0.26956680 -1.13051069
v -1.04412186 -0.19055469 -2.43781233
v -1.04412186 0.26956680 -1.13051069
v -1.04412186 0.26956680 -2.43781233
v -1.50424325 -0.19055469 -1.13051069
v -1.50424325 -0.19055469 -2.43781233
v -1.50424325 0.26956680 -2.43781233
v -1.50424325 -0.19055469 -1.13051069
v -1.50424325 0.26956680 -2.43781233
v -1.50424325 0.26956680 -1.13051069
v -1.50424325 0.26956680 -2.43781233
v -1.04412186 0.26956680 -2.43781233
v -1.04412186 0.26956680 -1.13051069
v -1.50424325 0.26956680 -2.43781233
v -1.04412186 0.26956680 -1.13051069
v -1.50424325 0.26956680 -1.13051069
v -1.50424325 -0.19055469 -2.43781233
v -1.50424325 -0.19055469 -1.13051069
v -1.04412186 -0.19055469 -1.13051069
v -1.50424325 -0.19055469 -2.43781233
v -1.04412186 -0.19055469 -1.13051069
v -1.04412186 -0.19055469 -2.43781233
v -1.50424325 -0.19055469 -1.13051069
v -1.50424325 0.26956680 -1.13051069
v -1.04412186 0.26956680 -1.13051069
v -1.50424325 -0.19055469 -1.13051069
v -1.04412186 0.26956680 -1.13051069
v -1.04412186 -0.19055469 -1.13051069
v -1.50424325 -0.19055469 -2.43781233
v -1.04412186 -0.19055469 -2.43781233
v -1.04412186 0.26956680 -2.43781233
v -1.50424325 -0.19055469 -2.43781233
v -1.04412186 0.26956680 -2.43781233
v -1.50424325 0.26956680 -2.43781233
v 1.50424325 -0.19055469 -2.43781233
v 1.50424325 -0.19055469 -1.13051069
v 1.50424325 0.26956680 -1.13051069
v 1.50424325 -0.19055469 -2.43781233
v 1.50424325 0.26956680 -1.13051069
v 1.50424325 0.26956680 -2.43781233
v 1.04412186 -0.19055469 -1.13051069
v 1.04412186 -0.19055469 -2.43781233
v 1.04412186 0.26956680 -2.43781233
v 1.04412186 -0.19055469 -1.13051069
v 1.04412186 0.26956680 -2.43781233
v 1.04412186 0.26956680 -1.13051069
v 1.04412186 0.26956680 -2.43781233
v 1.50424325 0.26956680 -2.43781233
v 1.50424325 0.26956680 -1.13051069
v 1.04412186 0.26956680 -2.43781233
v 1.50424325 0.26956680 -1.13051069
v 1.04412186 0.26956680 -1.13051069
v 1.04412186 -0.19055469 -2.43781233
v 1.04412186 -0.19055469 -1.13051069
v 1.50424325 -0.19055469 -1.13051069
v 1.04412186 -0.19055469 -2.43781233
v 1.50424325 -0.19055469 -1.13051069
v 1.50424325 -0.19055469 -2.43781233
v 1.04412186 -0.19055469 -1.13051069
v 1.04412186 0.26956680 -1.13051069
v 1.50424325 0.26956680 -1.13051069
v 1.04412186 -0.19055469 -1.13051069
v 1.50424325 0.26956680 -1.13051069
v 1.50424325 -0.19055469 -1.13051069
v 1.04412186 -0.19055469 -2.43781233
v 1.50424325 -0.19055469 -2.43781233
v 1.50424325 0.26956680 -2.43781233
v 1.04412186 -0.19055469 -2.43781233
v 1.50424325 0.26956680 -2.43781233
v 1.04412186 0.26956680 -2.43781233
vn 0.33427918 0.92329001 0.18918987
vn 0.33427918 0.92329001 0.18918987
vn 0.33427918 0.92329001 0.18918987
vn 0.34800544 0.91656953 0.19695842
vn 0.34800544 0.91656953 0.19695842
vn 0.34800544 0.91656953 0.19695842
vn 0.96562278 0.00000000 0.25994742
vn 0.96562278 0.00000000 0.25994742
vn 0.96562278 0.00000000 0.25994742
vn 0.96562272 0.00000000 0.25994742
vn 0.96562272 0.00000000 0.25994742
vn 0.96562272 0.00000000 0.25994742
vn 0.27371106 -0.94184864 0.19494472
vn 0.27371106 -0.94184864 0.19494472
vn 0.27371106 -0.94184864 0.19494472
vn 0.31262216 -0.93253779 0.18066725
vn 0.31262216 -0.93253779 0.18066725
vn 0.31262216 -0.93253779 0.18066725
vn -0.27491081 -0.94597697 0.17190610
vn -0.27491081 -0.94597697 0.17190610
vn -0.27491081 -0.94597697 0.17190610
vn -0.31190324 -0.93039328 0.19257368
vn -0.31190324 -0.93039328 0.19257368
vn -0.31190324 -0.93039328 0.19257368
vn -0.96562278 0.00000000 0.25994742
vn -0.96562278 0.00000000 0.25994742
vn -0.96562278 0.00000000 0.25994742
vn -0.96562278 0.00000000 0.25994745
vn -0.96562278 0.00000000 0.25994745
vn -0.96562278 0.00000000 0.25994745
vn -0.33368397 0.92164606 0.19804934
vn -0.33368397 0.92164606 0.19804934
vn -0.33368397 0.92164606 0.19804934
vn -0.34833065 0.91742581 0.19234246
vn -0.34833065 0.91742581 0.19234246
vn -0.34833065 0.91742581 0.19234246
vn 0.35430932 0.93317240 0.06044846
vn 0.35430932 0.93317240 0.06044846
vn 0.35430932 0.93317240 0.06044846
vn 0.35430932 0.93317246 0.06044845
vn 0.35430932 0.93317246 0.06044845
vn 0.35430932 0.93317246 0.06044845
vn 0.99638134 0.00000000 0.08499598
vn 0.99638134 0.00000000 0.08499598
vn 0.99638134 0.00000000 0.08499598
vn 0.99638128 0.00000000 0.08499596
vn 0.99638128 0.00000000 0.08499596
vn 0.99638128 0.00000000 0.08499596
vn 0.31670955 -0.94473022 0.08473457
vn 0.31670955 -0.94473022 0.08473457
vn 0.31670955 -0.94473022 0.08473457
vn 0.32993099 -0.94137913 0.07036165
vn 0.32993099 -0.94137913 0.07036165
vn 0.32993099 -0.94137913 0.07036165
vn -0.31708482 -0.94584960 0.06946628
vn -0.31708482 -0.94584960 0.06946628
vn -0.31708482 -0.94584960 0.06946628
vn -0.32957226 -0.94035554 0.08434220
vn -0.32957226 -0.94035554 0.08434220
vn -0.32957226 -0.94035554 0.08434220
vn -0.99638134 0.00000000 0.08499598
vn -0.99638134 0.00000000 0.08499598
vn -0.99638134 0.00000000 0.08499598
vn -0.99638128 0.00000000 0.08499597
vn -0.99638128 0.00000000 0.08499597
vn -0.99638128 0.00000000 0.08499597
vn -0.35430932 0.93317240 0.06044846
vn -0.35430932 0.93317240 0.06044846
vn -0.35430932 0.93317240 0.06044846
vn -0.35430932 0.93317246 0.06044846
vn -0.35430932 0.93317246 0.06044846
vn -0.35430932 0.93317246 0.06044846
vn 0.35223740 0.92771560 -0.12358243
vn 0.35223740 0.92771560 -0.12358243
vn 0.35223740 0.92771560 -0.12358243
vn 0.25044519 0.95278043 -0.17171712
vn 0.25044519 0.95278043 -0.17171712
vn 0.25044519 0.95278043 -0.17171712
vn 0.99361938 0.00000000 -0.11278597
vn 0.99361938 0.00000000 -0.11278597
vn 0.99361938 0.00000000 -0.11278597
vn 0.99361926 0.00000000 -0.11278596
vn 0.99361926 0.00000000 -0.11278596
vn 0.99361926 0.00000000 -0.11278596
vn 0.32740396 -0.93416888 -0.14189778
vn 0.32740396 -0.93416888 -0.14189778
vn 0.32740396 -0.93416888 -0.14189778
vn 0.25088236 -0.96267188 -0.10159137
vn 0.25088236 -0.96267188 -0.10159137
vn 0.25088236 -0.96267188 -0.10159137
vn -0.32879555 -0.93813944 -0.10857211
vn -0.32879555 -0.93813944 -0.10857211
vn -0.32879555 -0.93813944 -0.10857211
vn -0.24950619 -0.95739132 -0.14542520
vn -0.24950619 -0.95739132 -0.14542520
vn -0.24950619 -0.95739132 -0.14542520
vn -0.99361938 0.00000000 -0.11278597
vn -0.99361938 0.00000000 -0.11278597
vn -0.99361938 0.00000000 -0.11278597
vn -0.99361926 0.00000000 -0.11278597
vn -0.99361926 0.00000000 -0.11278597
vn -0.99361926 0.00000000 -0.11278597
vn -0.35002473 0.92188787 -0.16614942
vn -0.35002473 0.92188787 -0.16614942
vn -0.35002473 0.92188787 -0.16614942
vn -0.25252765 0.96070302 -0.11523696
vn -0.25252765 0.96070302 -0.11523696
vn -0.25252765 0.96070302 -0.11523696
vn 0.24882109 0.94660181 -0.20501997
vn 0.24882109 0.94660181 -0.20501997
vn 0.24882109 0.94660181 -0.20501997
vn 0.19292131 0.94847625 -0.25134474
vn 0.19292131 0.94847625 -0.25134474
vn 0.19292131 0.94847625 -0.25134474
vn 0.95245385 0.00000000 -0.30468276
vn 0.95245385 0.00000000 -0.30468276
vn 0.95245385 0.00000000 -0.30468276
vn 0.95245391 0.00000000 -0.30468279
vn 0.95245391 0.00000000 -0.30468279
vn 0.95245391 0.00000000 -0.30468279
vn 0.24540576 -0.94165725 -0.23034243
vn 0.24540576 -0.94165725 -0.23034243
vn 0.24540576 -0.94165725 -0.23034243
vn 0.20461224 -0.96157295 -0.18306094
vn 0.20461224 -0.96157295 -0.18306094
vn 0.20461224 -0.96157295 -0.18306094
vn -0.24733604 -0.94906402 -0.19519801
vn -0.24733604 -0.94906402 -0.19519801
vn -0.24733604 -0.94906402 -0.19519801
vn -0.20241636 -0.95125341 -0.23268977
vn -0.20241636 -0.95125341 -0.23268977
vn -0.20241636 -0.95125341 -0.23268977
vn -0.95245385 0.00000000 -0.30468276
vn -0.95245385 0.00000000 -0.30468276
vn -0.95245385 0.00000000 -0.30468276
vn -0.95245391 0.00000000 -0.30468273
vn -0.95245391 0.00000000 -0.30468273
vn -0.95245391 0.00000000 -0.30468273
vn -0.24626195 0.93686599 -0.24826804
vn -0.24626195 0.93686599 -0.24826804
vn -0.24626195 0.93686599 -0.24826804
vn -0.19568640 0.96207035 -0.19007218
vn -0.19568640 0.96207035 -0.19007218
vn -0.19568640 0.96207035 -0.19007218
vn 0.00000000 0.00000000 1.00000000
vn 0.00000000 0.00000000 1.00000000
vn 0.00000000 0.00000000 1.00000000
vn -0.00000000 0.00000000 1.00000000
vn -0.00000000 0.00000000 1.00000000
vn -0.00000000 0.00000000 1.00000000
vn 0.00000000 0.00000000 1.00000000
vn 0.00000000 0.00000000 1.00000000
vn 0.00000000 0.00000000 1.00000000
vn 0.00000000 0.00000000 1.00000000
vn 0.00000000 0.00000000 1.00000000
vn 0.00000000 0.00000000 1.00000000
vn 0.00000000 0.00000000 1.00000000
vn 0.00000000 0.00000000 1.00000000
vn 0.00000000 0.00000000 1.00000000
vn 0.00000000 -0.00000000 1.00000000
vn 0.00000000 -0.00000000 1.00000000
vn 0.00000000 -0.00000000 1.00000000
vn 0.00000000 0.00000000 -0.99999994
vn 0.00000000 0.00000000 -0.99999994
vn 0.00000000 0.00000000 -0.99999994
vn 0.00000000 0.00000000 -1.00000000
vn 0.00000000 0.00000000 -1.00000000
vn 0.00000000 0.00000000 -1.00000000
vn 0.00000000 0.00000000 -1.00000000
vn 0.00000000 0.00000000 -1.00000000
vn 0.00000000 0.00000000 -1.00000000
vn 0.00000000 -0.00000000 -1.00000000
vn 0.00000000 -0.00000000 -1.00000000
vn 0.00000000 -0.00000000 -1.00000000
vn -0.00000000 0.00000000 -1.00000000
vn -0.00000000 0.00000000 -1.00000000
vn -0.00000000 0.00000000 -1.00000000
vn 0.00000000 0.00000000 -0.99999994
vn 0.00000000 0.00000000 -0.99999994
vn 0.00000000 0.00000000 -0.99999994
vn -1.00000000 0.00000000 -0.00000000
vn -1.00000000 0.00000000 -0.00000000
vn -1.00000000 0.00000000 -0.00000000
vn -1.00000000 -0.00000000 0.00000000
vn -1.00000000 -0.00000000 0.00000000
vn -1.00000000 -0.00000000 0.00000000
vn 1.00000000 0.00000000 0.00000000
vn 1.00000000 0.00000000 0.00000000
vn 1.00000000 0.00000000 0.00000000
vn 1.00000000 0.00000000 0.00000000
vn 1.00000000 0.00000000 0.00000000
vn 1.00000000 0.00000000 0.00000000
vn 0.00000000 1.00000000 0.00000000
vn 0.00000000 1.00000000 0.00000000
vn 0.00000000 1.00000000 0.00000000
vn 0.00000000 1.00000000 0.00000000
vn 0.00000000 1.00000000 0.00000000
vn 0.00000000 1.00000000 0.00000000
vn 0.42823273 0.00000000 -0.90366852
vn 0.42823273 0.00000000 -0.90366852
vn 0.42823273 0.00000000 -0.90366852
vn 0.42823273 0.00000000 -0.90366852
vn 0.42823273 0.00000000 -0.90366852
vn 0.42823273 0.00000000 -0.90366852
vn 0.00000000 -1.00000000 0.00000000
vn 0.00000000 -1.00000000 0.00000000
vn 0.00000000 -1.00000000 0.00000000
vn 0.00000000 -1.00000000 0.00000000
vn 0.00000000 -1.00000000 0.00000000
vn 0.00000000 -1.00000000 0.00000000
vn 0.56752568 0.00000000 0.82335567
vn 0.56752568 0.00000000 0.82335567
vn 0.56752568 0.00000000 0.82335567
vn 0.56752568 -0.00000000 0.82335567
vn 0.56752568 -0.00000000 0.82335567
vn 0.56752568 -0.00000000 0.82335567
vn 1.00000000 0.00000000 0.00000000
vn 1.00000000 0.00000000 0.00000000
vn 1.00000000 0.00000000 0.00000000
vn 1.00000000 -0.00000000 0.00000000
vn 1.00000000 -0.00000000 0.00000000
vn 1.00000000 -0.00000000 0.00000000
vn -1.00000000 0.00000000 0.00000000
vn -1.00000000 0.00000000 0.00000000
vn -1.00000000 0.00000000 0.00000000
vn -1.00000000 0.00000000 0.00000000
vn -1.00000000 0.00000000 0.00000000
vn -1.00000000 0.00000000 0.00000000
vn 0.00000000 1.00000000 0.00000000
vn 0.00000000 1.00000000 0.00000000
vn 0.00000000 1.00000000 0.00000000
vn 0.00000000 1.00000000 -0.00000000
vn 0.00000000 1.00000000 -0.00000000
vn 0.00000000 1.00000000 -0.00000000
vn -0.42823273 0.00000000 -0.90366852
vn -0.42823273 0.00000000 -0.90366852
vn -0.42823273 0.00000000 -0.90366852
vn -0.42823273 0.00000000 -0.90366852
vn -0.42823273 0.00000000 -0.90366852
vn -0.42823273 0.00000000 -0.90366852
vn 0.00000000 -1.00000000 0.00000000
vn 0.00000000 -1.00000000 0.00000000
vn 0.00000000 -1.00000000 0.00000000
vn 0.00000000 -1.00000000 -0.00000000
vn 0.00000000 -1.00000000 -0.00000000
vn 0.00000000 -1.00000000 -0.00000000
vn -0.56752568 0.00000000 0.82335567
vn -0.56752568 0.00000000 0.82335567
vn -0.56752568 0.00000000 0.82335567
vn -0.56752568 0.00000000 0.82335567
vn -0.56752568 0.00000000 0.82335567
vn -0.56752568 0.00000000 0.82335567
vn -0.99999994 0.00000000 0.00000000
vn -0.99999994 0.00000000 0.00000000
vn -0.99999994 0.00000000 0.00000000
vn -0.99999994 0.00000000 0.00000000
vn -0.99999994 0.00000000 0.00000000
vn -0.99999994 0.00000000 0.00000000
vn 0.99999994 0.00000000 0.00000000
vn 0.99999994 0.00000000 0.00000000
vn 0.99999994 0.00000000 0.00000000
vn 0.99999994 -0.00000000 0.00000000
vn 0.99999994 -0.00000000 0.00000000
vn 0.99999994 -0.00000000 0.00000000
vn 0.00000000 -1.00000000 0.00000000
vn 0.00000000 -1.00000000 0.00000000
vn 0.00000000 -1.00000000 0.00000000
vn 0.00000000 -1.00000000 0.00000000
vn 0.00000000 -1.00000000 0.00000000
vn 0.00000000 -1.00000000 0.00000000
vn 0.00000000 1.00000000 0.00000000
vn 0.00000000 1.00000000 0.00000000
vn 0.00000000 1.00000000 0.00000000
vn 0.00000000 1.00000000 0.00000000
vn 0.00000000 1.00000000 0.00000000
vn 0.00000000 1.00000000 0.00000000
vn 0.00000000 0.00000000 -1.00000000
vn 0.00000000 0.00000000 -1.00000000
vn 0.00000000 0.00000000 -1.00000000
vn 0.00000000 0.00000000 -1.00000000
vn 0.00000000 0.00000000 -1.00000000
vn 0.00000000 0.00000000 -1.00000000
vn 0.00000000 0.00000000 1.00000000
vn 0.00000000 0.00000000 1.00000000
vn 0.00000000 0.00000000 1.00000000
vn 0.00000000 0.00000000 1.00000000
vn 0.00000000 0.00000000 1.00000000
vn 0.00000000 0.00000000 1.00000000
vn -0.99999994 0.00000000 0.00000000
vn -0.99999994 0.00000000 0.00000000
vn -0.99999994 0.00000000 0.00000000
vn -0.99999994 0.00000000 0.00000000
vn -0.99999994 0.00000000 0.00000000
vn -0.99999994 0.00000000 0.00000000
vn 0.99999994 0.00000000 0.00000000
vn 0.99999994 0.00000000 0.00000000
vn 0.99999994 0.00000000 0.00000000
vn 0.99999994 -0.00000000 0.00000000
vn 0.99999994 -0.00000000 0.00000000
vn 0.99999994 -0.00000000 0.00000000
vn 0.00000000 -1.00000000 0.00000000
vn 0.00000000 -1.00000000 0.00000000
vn 0.00000000 -1.00000000 0.00000000
vn 0.00000000 -1.00000000 0.00000000
vn 0.00000000 -1.00000000 0.00000000
vn 0.00000000 -1.00000000 0.00000000
vn 0.00000000 1.00000000 0.00000000
vn 0.00000000 1.00000000 0.00000000
vn 0.00000000 1.00000000 0.00000000
vn 0.00000000 1.00000000 0.00000000
vn 0.00000000 1.00000000 0.00000000
vn 0.00000000 1.00000000 0.00000000
vn 0.00000000 0.00000000 -1.00000000
vn 0.00000000 0.00000000 -1.00000000
vn 0.00000000 0.00000000 -1.00000000
vn 0.00000000 0.00000000 -1.00000000
vn 0.00000000 0.00000000 -1.00000000
vn 0.00000000 0.00000000 -1.00000000
vn 0.00000000 0.00000000 1.00000000
vn 0.00000000 0.00000000 1.00000000
vn 0.00000000 0.00000000 1.00000000
vn 0.00000000 0.00000000 1.00000000
vn 0.00000000 0.00000000 1.00000000
vn 0.00000000 0.00000000 1.00000000
f 1//1 2//2 3//3
f 4//4 5//5 6//6
f 7//7 8//8 9//9
f 10//10 11//11 12//12
f 13//13 14//14 15//15
f 16//16 17//17 18//18
f 19//19 20//20 21//21
f 22//22 23//23 24//24
f 25//25 26//26 27//27
f 28//28 29//29 30//30
f 31//31 32//32 33//33
f 34//34 35//35 36//36
f 37//37 38//38 39//39
f 40//40 41//41 42//42
f 43//43 44//44 45//45
f 46//46 47//47 48//48
f 49//49 50//50 51//51
f 52//52 53//53 54//54
f 55//55 56//56 57//57
f 58//58 59//59 60//60
f 61//61 62//62 63//63
f 64//64 65//65 66//66
f 67//67 68//68 69//69
f 70//70 71//71 72//72
f 73//73 74//74 75//75
f 76//76 77//77 78//78
f 79//79 80//80 81//81
f 82//82 83//83 84//84
f 85//85 86//86 87//87
f 88//88 89//89 90//90
f 91//91 92//92 93//93
f 94//94 95//95 96//96
f 97//97 98//98 99//99
f 100//100 101//101 102//102
f 103//103 104//104 105//105
f 106//106 107//107 108//108
f 109//109 110//110 111//111
f 112//112 113//113 114//114
f 115//115 116//116 117//117
f 118//118 119//119 120//120
f 121//121 122//122 123//123
f 124//124 125//125 126//126
f 127//127 128//128 129//129
f 130//130 131//131 132//132
f 133//133 134//134 135//135
f 136//136 137//137 138//138
f 139//139 140//140 141//141
f 142//142 143//143 144//144
f 145//145 146//146 147//147
f 148//148 149//149 150//150
f 151//151 152//152 153//153
f 154//154 155//155 156//156
f 157//157 158//158 159//159
f 160//160 161//161 162//162
f 163//163 164//164 165//165
f 166//166 167//167 168//168
f 169//169 170//170 171//171
f 172//172 173//173 174//174
f 175//175 176//176 177//177
f 178//178 179//179 180//180
f 181//181 182//182 183//183
f 184//184 185//185 186//186
f 187//187 188//188 189//189
f 190//190 191//191 192//192
f 193//193 194//194 195//195
f 196//196 197//197 198//198
f 199//199 200//200 201//201
f 202//202 203//203 204//204
f 205//205 206//206 207//207
f 208//208 209//209 210//210
f 211//211 212//212 213//213
f 214//214 215//215 216//216
f 217//217 218//218 219//219
f 220//220 221//221 222//222
f 223//223 224//224 225//225
f 226//226 227//227 228//228
f 229//229 230//230 231//231
f 232//232 233//233 234//234
f 235//235 236//236 237//237
f 238//238 239//239 240//240
f 241//241 242//242 243//243
f 244//244 245//245 246//246
f 247//247 248//248 249//249
f 250//250 251//251 252//252
f 253//253 254//254 255//255
f 256//256 257//257 258//258
f 259//259 260//260 261//261
f 262//262 263//263 264//264
f 265//265 266//266 267//267
f 268//268 269//269 270//270
f 271//271 272//272 273//273
f 274//274 275//275 276//276
f 277//277 278//278 279//279
f 280//280 281//281 282//282
f 283//283 284//284 285//285
f 286//286 287//287 288//288
f 289//289 290//290 291//291
f 292//292 293//293 294//294
f 295//295 296//296 297//297
f 298//298 299//299 300//300
f 301//301 302//302 303//303
f 304//304 305//305 306//306
f 307//307 308//308 309//309
f 310//310 311//311 312//312
f 313//313 314//314 315//315
f 316//316 317//317 318//318
f 319//319 320//320 321//321
f 322//322 323//323 324//324
