# Aspose.3D Wavefront OBJ Exporter
# Copyright 2004-2025 Aspose Pty Ltd.
# File created: 06/25/2025 04:54:11

g obj_4683847
mtllib obj.mtl

#
# object obj_4683847
#

v 0 -14.525 38.54
v -0.552 -19.2028 13.827
v 9.16 -11.206 6.173
v 9.1917 -10.7224 6.173
v 2.053 -11.576 19.659
v 2.241 -11.294 19.659
v -0.5526 -19.2237 13.7654
v -0.5 -13.794 19.239
v -0.4293 -13.9644 19.1572
v -0.4222 -13.8914 19.1935
v -1.294 -14.83 18.66
v 9.16 -8.794 6.173
v 3.314 -11.913 19.239
v 3.536 -11.464 19.239
v -5.5865 -7.719 2.0317
v 9.7773 -10.6178 5.5233
v 1.036 -10.795 19.914
v 0 -22 7.128
v 0 -21.9771 7.0877
v 1.13 -10.653 19.914
v -8.365 -5.17 7.412
v 0 -21.9672 7.1294
v 1.206 -10.5 19.914
v 8.365 -12.241 5
v -0.494 -19.6269 12.588
v -0.5207 -19.4435 13.123
v 1.261 -10.338 19.914
v -0.5179 -19.8804 11.305
v -0.5083 -19.7782 11.8221
v 0 -22 6.991
v -3.967 -6.956 18.66
v -1.8412 -7.8215 0.4325
v -1.7504 -8.1001 0.341
v -8.924 -6.304 7.412
v 8.586 -11.13 5
v 0.707 -20.536 7.188
v 0.7016 -20.4902 7.0875
v -4.305 -5.695 17.934
v 0.6955 -20.4787 7.1904
v 0.6993 -20.4706 7.1907
v 28.879 0 -4
v 8.7336 -10.6748 5.2385
v 8.6147 -10.691 5
v -4.305 -4.39 17.071
v 8.9491 -10.6972 5.6781
v 40.583 -9.914 -7
v -5 -5 17.071
v -5.61 -5.695 17.071
v -3.2913 -6.2496 1.34
v -9.33 -7.5 7.412
v 2.33 -15.624 2.066
v 3.044 -15.272 2.066
v -3.7504 -6.7087 1.34
v -3.967 -6.956 1.34
v -0.653 -14.957 18.66
v 3.706 -14.83 2.066
v -0.527 -14.9653 18.66
v -1.576 -15.88 17.934
v -0.795 -16.036 17.934
v 8.7518 -9.1569 5.2978
v 8.586 -8.87 5
v -0.6371 -16.0463 17.934
v -0.5452 -15.1438 18.5401
v 1.294 -12.241 19.659
v 8.6035 -9.1366 5
v -8.536 -6.464 6.173
v 1.576 -12.053 19.659
v 1.83 -11.83 19.659
v -0.6451 -16.1217 17.8674
v -0.923 -17.011 17.071
v -8.7362 -7.0549 6.173
v -8.8383 -6.8838 6.6214
v 8.4238 -10.7123 4.716
v -8.664 -6.8418 6.173
v 8.3401 -10.7038 4.5896
v -8.924 -7.609 6.173
v 8.4147 -9.1155 4.7193
v 2.33 -13.036 19.239
v -1.294 -5.17 1.34
v 2.706 -12.706 19.239
v 3.036 -12.33 19.239
v 8.365 -14.83 7.412
v -0.99 -6.304 0.761
v 29 -19.958 -4
v -8.4246 -7.3079 5.4086
v -8.5925 -7.2311 5.7817
v -1.464 -6.464 0.761
v 0.99 -12.391 19.659
v -8.4886 -6.8233 5.8476
v -8.365 -7.759 5
v 7.7844 -10 -0.2757
v 7.4984 -9.914 -0.458
v 0.99 -13.696 19.239
v 1.464 -13.536 19.239
v 8.924 -13.696 7.412
v 1.913 -13.314 19.239
v -0.99 -7.609 0.341
v -8.3284 -6.8065 5.5506
v -8.2405 -7.392 5
v -1.294 -7.759 0.341
v -1.576 -7.947 0.341
v 30 -10.063 19
v 10.536 -10.707 7.188
v 10.4902 -10.7016 7.0875
v 10.4706 -10.6993 7.1907
v 1.294 -14.83 18.66
v 10.536 -10.707 6.846
v 1.913 -14.619 18.66
v -8.0135 -10.8435 4.1142
v 0.795 -16.036 17.934
v 13.2612 -9.7532 7.723
v 1.576 -15.88 17.934
v 10.4499 -10 13.5332
v 10.2715 -10.063 13.7228
v 10.4787 -10.6955 7.1904
v -2.33 -6.964 0.761
v -8.001 -14.619 6.173
v 10.2855 -10.5526 9.284
v 0.6451 -16.1217 17.8674
v 10.9854 -10.49 7.1696
v 10.9252 -10.4963 7.0876
v 10.9554 -10.5045 6.8875
v 12.4396 -10.3887 7.1695
v -8.0395 -13.2005 5
v -8.0994 -13.2156 5.1251
v 11.1408 -10.4604 7.6628
v 10.8384 -10.473 7.6626
v -8.001 -13.314 5
v 10.9124 -10.4929 7.1726
v -2.645 -6.8367 0.9111
v -2.8877 -6.6163 1.0722
v 14.3235 -10.063 7.1692
v 14.193 -9.914 7.7227
v -0.795 -8.964 0.086
v 9.33 -12.5 7.412
v -0.923 -9.077 0.086
v 2.5 -14.33 1.34
v -1.036 -9.205 0.086
v 3.044 -13.967 1.34
v 10.5627 -9.3059 6.8486
v -7.9407 -12.5669 4.554
v 10.536 -9.293 7.188
v 10.4902 -9.2984 7.0875
v 10.5267 -9.3156 7.0875
v 10.5987 -9.3233 7.1854
v 10.3833 -9.3545 8.0401
v 10.5115 -9.3198 7.189
v 3.8383 -14.2584 1.8368
v 10.793 -9.6171 8.6601
v 10.4787 -9.3045 7.1904
v 3.6021 -14.039 1.6222
v 10.4706 -9.3007 7.1907
v 10.5379 -9.5803 9.4084
v 10.1414 -9.7325 12.443
v 10.536 -9.293 6.846
v 3.2913 -13.7504 1.34
v -2.4541 -7.0729 0.761
v -7.866 -8.964 3.912
v 10.4888 -9.3024 6.8413
v -7.8908 -9.342 3.912
v 10.3728 -10.6878 6.8298
v 10.3936 -10.6785 6.8319
v 8.536 -13.536 6.173
v -7.011 -9.077 2.929
v 0.618 -16.706 17.3562
v 0.923 -17.011 17.071
v 0.6028 -17.0318 17.071
v 0.5849 -17.5198 16.516
v 8.8058 -12.7398 6.173
v 8.924 -12.9379 6.6922
v 8.9535 -12.9873 6.8216
v 10.7645 -10.5133 6.8686
v 8.924 -12.9943 6.7458
v 8.7014 -13.048 6.173
v 4.83 -3.706 16.088
v -1.13 -9.347 0.086
v 4.525 -10 38.54
v 8.924 -12.391 6.173
v -1.206 -9.5 0.086
v 6.124 -3.876 15
v -3.1694 -7.3483 0.9154
v -3.036 -7.67 0.761
v -7.2324 -9.3929 3.158
v -7.0318 -9.3976 2.929
v 5.272 -3.129 15
v -7.5561 -9.3679 3.5288
v -2.9271 -7.5459 0.761
v -3.1633 -7.355 0.911
v 3.7504 -13.2913 1.34
v 3.967 -13.044 1.34
v 4.33 -2.5 15
v -1.261 -9.662 0.086
v -3.314 -8.087 0.761
v -1.294 -9.83 0.086
v -1.305 -10 0.086
v -1.294 -10.17 0.086
v 6.533 -3.467 13.827
v -2.1113 -7.4916 0.5773
v 2.33 -13.036 0.761
v 5.624 -2.67 13.827
v 4.619 -1.999 13.827
v -2.2311 -8.1158 0.4556
v -0.923 -10.923 0.086
v -2.1785 -8.1588 0.4325
v 6.83 -3.17 12.588
v 2.8877 -13.3837 1.0722
v 2.645 -13.1633 0.9111
v -0.795 -11.036 0.086
v 2.4541 -12.9271 0.761
v 5.88 -2.337 12.588
v 4.83 -1.635 12.588
v 3.1694 -12.6517 0.9154
v 3.036 -12.33 0.761
v -4.2585 -6.1617 1.8368
v -4.148 -6.2806 1.7289
v -1.261 -10.338 0.086
v 2.9271 -12.4541 0.761
v 3.1633 -12.645 0.911
v -1.206 -10.5 0.086
v 3.967 -3.129 16.088
v -1.13 -10.653 0.086
v 3.036 -2.67 16.088
v -4.33 -7.5 1.34
v -1.036 -10.795 0.086
v 2.053 -2.337 16.088
v -4.619 -8.087 1.34
v 3.314 -1.999 15
v 2.1113 -12.5084 0.5773
v 2.241 -1.635 15
v -4.8418 -8.0038 1.4989
v -4.6341 -8.1314 1.34
v -1.8999 -11.7504 0.341
v 5.624 -7.67 17.934
v 6.83 -8.17 17.071
v -7.663 -15.88 7.412
v -5.88 -8.424 2.066
v 6.533 -7.294 17.071
v -5.8152 -8.2331 2.066
v -7.33 -15.624 6.173
v -6.036 -9.205 2.066
v -7.5 -14.33 5
v -6.6905 -9.3975 2.6294
v 8.3981 -12.4918 5.2272
v 8.7257 -12.6416 5.9549
v -6.871 -15.272 5
v -6.0486 -9.3972 2.066
v 8.4747 -13.0719 5.7526
v -6.124 -16.124 5
v 8.457 -13.0738 5.7197
v 8.2958 -12.445 5
v 4.6929 -9.4996 18.7953
v 4.957 -9.347 18.66
v -7.8795 -10.8298 3.912
v -7.866 -11.036 3.912
v 4.9653 -9.473 18.66
v -7.663 -12.053 3.912
v 5.7971 -9.3883 18.1014
v 6.036 -9.205 17.934
v -1.8999 -8.2496 0.341
v -7.1601 -10.7739 3.0878
v 6.0463 -9.3629 17.934
v -7.011 -10.923 2.929
v -7.0214 -10.7631 2.929
v 5.88 -8.424 17.934
v -1.6756 -8.3244 0.2976
v -7.2654 -12.2827 3.5662
v -1.7239 -8.3083 0.3069
v 6.706 -9.382 17.3562
v 6.1217 -9.3549 17.8674
v 7.011 -9.077 17.071
v 7.0318 -9.3972 17.071
v -6.706 -9.5207 1.2687
v 7.5198 -9.4151 16.516
v -7.6091 -9.6373 0.7665
v -7.3783 -10.3356 0.2601
v 8.0135 -9.1565 4.1142
v 7.663 -15.88 7.412
v -4.33 -7.5 18.66
v -6.0185 -9.3966 2.0459
v -4.619 -8.087 18.66
v 1.913 -13.314 0.761
v -4.83 -6.294 17.934
v -3.536 -8.536 0.761
v -5.272 -6.956 17.934
v -5.624 -7.67 17.934
v -7.547 -12.3954 3.912
v -3.6048 -8.704 0.7667
v -4.0899 -8.6161 1.0081
v -7.3115 -12.2961 3.6209
v 3.536 -1.464 13.827
v -6.124 -6.464 17.071
v 2.391 -1.076 13.827
v -6.533 -7.294 17.071
v 1.913 -14.619 1.34
v 3.696 -1.076 12.588
v -6.83 -8.17 17.071
v 2.5 -0.67 12.588
v -9.577 -8.739 7.412
v 6.294 -5.17 16.088
v -1.8842 -12.2311 0.4556
v 5.61 -4.39 16.088
v -1.576 -12.053 0.341
v -9.7543 -9.2789 8.1269
v 0.571 -17.8965 16.088
v -1.8412 -12.1785 0.4325
v -1.7504 -11.8999 0.341
v 6.871 -4.728 15
v 0.5626 -18.2586 15.5463
v 0.5541 -18.6237 15
v 0.5531 -18.8893 14.462
v 0.552 -19.2028 13.827
v 0.5526 -19.2237 13.7656
v 4.619 -11.913 18.66
v 0.6384 -19.9528 9.921
v 0.6636 -19.9128 9.3308
v 0.6908 -19.8692 8.695
v 7.33 -4.376 13.827
v 4.83 -11.294 18.66
v 0.7304 -19.7188 7.9518
v 0.7592 -19.6096 7.412
v 7.663 -4.12 12.588
v 4.957 -10.653 18.66
v 0.7801 -19.4981 7.0876
v 0.7891 -19.5455 7.2289
v 0.771 -19.5467 7.2288
v 7.33 -15.624 6.173
v 1.206 -19.16 6.173
v -3.696 -9.01 0.761
v -9.7313 -10.7329 6.7663
v 4.9653 -10.527 18.66
v 7.866 -3.964 11.305
v -2.053 -8.424 0.341
v 0.8031 -19.3757 6.7311
v -9.6096 -9.2408 7.412
v -2.241 -8.706 0.341
v 1.13 -18.586 5
v -1.294 -12.241 0.341
v -2.391 -9.01 0.341
v 5.88 -11.576 17.934
v -1.6756 -11.6756 0.2976
v 1.036 -17.866 3.912
v 2.053 -17.663 3.912
v -1.6917 -11.7239 0.3069
v 1.83 -16.83 2.929
v 2.706 -16.533 2.929
v -3.5216 -10.086 0.3284
v -3.794 -9.5 0.761
v -4.83 -8.706 18.66
v -1.576 -15.88 2.066
v 0.707 -20.536 6.846
v -9.6096 -10.7592 7.412
v -9.7188 -10.7304 7.9518
v 6.036 -10.795 17.934
v -3.9858 -9.6407 0.8511
v -9.577 -11.261 7.412
v 5.1438 -10.5452 18.5401
v 6.0463 -10.6371 17.934
v -3.8095 -9.7346 0.761
v 8.001 -14.619 6.173
v 6.83 -11.83 17.071
v 6.124 -16.124 5
v 7.011 -10.923 17.071
v 7.011 -2.989 11.305
v 6.871 -15.272 5
v 6.036 -2.134 11.305
v -4.957 -9.347 18.66
v 7.5 -14.33 5
v 4.957 -1.414 11.305
v -1.913 -13.314 0.761
v -1.464 -13.536 0.761
v -4.9653 -9.473 18.66
v 8.001 -13.314 5
v -0.99 -13.696 0.761
v 8.1119 -12.987 5
v -5.88 -8.424 17.934
v 7.934 -3.912 10
v -6.036 -9.205 17.934
v -0.99 -12.391 0.341
v 7.071 -2.929 10
v -5.1438 -9.4548 18.5401
v -6.0463 -9.3629 17.934
v 6.088 -2.066 10
v 6.1217 -10.6451 17.8674
v 7.8979 -12.9294 4.6681
v 5 -1.34 10
v 6.2382 -10.6397 17.7654
v 7.0318 -10.6028 17.071
v 7.866 -3.964 8.695
v 7.011 -2.989 8.695
v -7.011 -9.077 17.071
v 7.8795 -9.1702 3.912
v 6.036 -2.134 8.695
v 7.866 -8.964 3.912
v -6.1217 -9.3549 17.8674
v -6.2382 -9.3603 17.7654
v -7.0318 -9.3972 17.071
v 4.957 -1.414 8.695
v 7.3426 -10.5914 16.7178
v -2.5 -9.33 0.341
v -7.3426 -9.4086 16.7178
v -2.566 -9.662 0.341
v -4.6929 -10.5004 18.7953
v 3.794 -0.84 11.305
v -4.957 -10.653 18.66
v 2.566 -0.423 11.305
v -4.9653 -10.527 18.66
v -5.7971 -10.6117 18.1014
v -6.036 -10.795 17.934
v 4.33 -12.5 18.66
v 3.827 -0.761 10
v 7.1601 -9.2261 3.0878
v 4.305 -14.305 17.934
v 7.011 -9.077 2.929
v 2.588 -0.341 10
v 4.83 -13.706 17.934
v -9.16 -8.794 6.173
v 5.272 -13.044 17.934
v -3.2976 -10 0.5816
v -9.5456 -9.2109 7.2289
v -9.4983 -9.2199 7.0876
v -9.5468 -9.229 7.2288
v 5.624 -12.33 17.934
v -9.4505 -9.2109 6.9483
v 5.61 -14.305 17.071
v -6.0463 -10.6371 17.934
v 6.124 -13.536 17.071
v -2.588 -10 0.341
v -5.88 -11.576 17.934
v 6.533 -12.706 17.071
v -9.3759 -9.1969 6.7312
v -9.379 -9.2424 6.7315
v -9.1917 -9.2776 6.173
v -3.2533 -10.1538 0.5699
v -6.706 -10.618 17.3562
v -9.4981 -10.7801 7.0876
v -6.1217 -10.6451 17.8674
v -9.5455 -10.7891 7.2289
v -9.5467 -10.771 7.2288
v -3.3127 -10.0078 0.5868
v -9.3757 -10.8031 6.7311
v -7.011 -10.923 17.071
v -2.9049 -10.086 0.4503
v -7.0318 -10.6028 17.071
v -9.3562 -10.7534 6.6644
v -9.3787 -10.7577 6.7315
v -6.83 -11.83 17.071
v -9.1877 -10.7836 6.173
v -9.3465 -10.7552 6.6362
v -9.16 -11.206 6.173
v -7.5198 -10.5849 16.516
v 4.305 -15.61 17.071
v 5 -15 17.071
v -5.624 -12.33 17.934
v -1.913 -14.619 1.34
v -1.294 -14.83 1.34
v -6.533 -12.706 17.071
v 2.5 -14.33 18.66
v 3.044 -13.967 18.66
v 7.0214 -9.2369 2.929
v 3.536 -13.536 18.66
v -1.036 -2.134 16.088
v 0.795 -3.964 17.934
v 3.967 -13.044 18.66
v -2.053 -2.337 16.088
v 0.6371 -3.9537 17.934
v 7.6288 -12.154 3.912
v 7.6982 -12.1843 4.0253
v -3.036 -2.67 16.088
v 7.663 -12.053 3.912
v 0.923 -2.989 17.071
v -3.967 -3.129 16.088
v 0.6451 -3.8783 17.8674
v -1.13 -1.414 15
v -2.241 -1.635 15
v 7.866 -11.036 3.912
v 1.294 -5.17 18.66
v -3.314 -1.999 15
v 7.8908 -10.658 3.912
v -9.7773 -9.3822 5.5233
v -1.036 -17.866 16.088
v 6.8664 -11.9178 3.0005
v -1.13 -18.586 15
v 7.5121 -12.1048 3.7678
v -8.586 -8.87 5
v 6.83 -11.83 2.929
v 6.8062 -11.9003 2.929
v 7.011 -10.923 2.929
v -1.206 -19.16 13.827
v -1.261 -19.577 12.588
v -1.206 -0.84 13.827
v 7.2324 -10.6071 3.158
v -2.391 -1.076 13.827
v 7.5561 -10.6321 3.5288
v 7.0318 -10.6024 2.929
v -8.7336 -9.3252 5.2385
v -8.9491 -9.3028 5.6781
v -8.6147 -9.309 5
v 3.794 -0.84 8.695
v -1.294 -19.83 11.305
v 2.566 -0.423 8.695
v 0.653 -5.043 18.66
v -1.305 -19.914 10
v 0.527 -5.0347 18.66
v 0.4293 -6.0356 19.1572
v 0.4222 -6.1086 19.1935
v -1.294 -19.83 8.695
v -8.7518 -10.8431 5.2978
v 1.576 -4.12 17.934
v -8.586 -11.13 5
v -8.6035 -10.8634 5
v -8.365 -12.241 5
v -3.536 -1.464 13.827
v 6.83 -3.17 7.412
v -8.4238 -9.2877 4.716
v -8.3401 -9.2962 4.5896
v -1.261 -19.577 7.412
v 5.88 -2.337 7.412
v -1.261 -0.423 12.588
v -0.5526 -0.7763 13.7656
v -0.5297 -0.619 13.3065
v -1.206 -19.16 6.173
v -0.494 -0.3731 12.588
v 2.33 -15.624 17.934
v -2.5 -0.67 12.588
v 4.83 -1.635 7.412
v 3.044 -15.272 17.934
v -3.696 -1.076 12.588
v -2.241 -18.365 5
v 3.706 -14.83 17.934
v 6.533 -3.467 6.173
v 5.624 -2.67 6.173
v 3.536 -16.124 17.071
v -2.053 -17.663 3.912
v 4.619 -1.999 6.173
v -4.83 -3.706 16.088
v -1.83 -16.83 2.929
v -4.33 -2.5 15
v -5.272 -3.129 15
v -6.124 -3.876 15
v 5.9107 -11.6292 2.1066
v 6.124 -3.876 5
v 5.88 -11.576 2.066
v 5.6857 -12.1482 2.066
v -4.619 -1.999 13.827
v 5.272 -3.129 5
v 5.8665 -11.6158 2.066
v -5.624 -2.67 13.827
v 4.33 -2.5 5
v 6.036 -10.795 2.066
v -6.533 -3.467 13.827
v 6.6905 -10.6025 2.6294
v 0.5452 -4.8562 18.5401
v 6.0486 -10.6028 2.066
v 0.99 -6.304 19.239
v -8.4147 -10.8845 4.7193
v 0.5 -6.206 19.239
v 3.696 -1.076 7.412
v 2.5 -0.67 7.412
v -9.33 -12.5 7.412
v 3.536 -1.464 6.173
v 2.391 -1.076 6.173
v -4.83 -1.635 12.588
v 1.83 -16.83 17.071
v -5.88 -2.337 12.588
v 2.706 -16.533 17.071
v -8.924 -13.696 7.412
v -6.83 -3.17 12.588
v 8.365 -7.759 15
v 3.314 -1.999 5
v -8.365 -14.83 7.412
v 8.924 -7.609 13.827
v 8.536 -6.464 13.827
v 9.33 -7.5 12.588
v -5.61 -4.39 16.088
v 8.924 -6.304 12.588
v -6.294 -5.17 16.088
v 7.663 -4.12 7.412
v -8.924 -12.391 6.173
v -0.707 -20.536 7.188
v -0.7016 -20.4902 7.0875
v 0.99 -7.609 19.659
v 7.33 -4.376 6.173
v -0.6993 -20.4706 7.1907
v -0.6397 -16.2382 17.7654
v 0.67 -7.5 19.659
v -0.6028 -17.0318 17.071
v 7.5 -5.67 5
v 0.338 -7.434 19.659
v -0.5914 -17.3426 16.7178
v -8.536 -13.536 6.173
v -0.571 -17.8965 16.088
v -0.5541 -18.6237 15
v -0.5633 -18.2283 15.5916
v 6.871 -4.728 5
v -0.553 -18.9194 14.4011
v -8.6415 -13.2247 6.173
v -8.7989 -13.1866 6.5773
v -8.7067 -13.0322 6.173
v 1.036 -9.205 19.914
v 0.923 -9.077 19.914
v 0.795 -8.964 19.914
v 0.653 -8.87 19.914
v 0.5 -8.794 19.914
v 0.338 -8.739 19.914
v -0.6908 -19.8692 8.695
v -0.6625 -19.914 9.3575
v -0.6384 -19.9527 9.9213
v -8.5489 -12.8388 5.7437
v -8.499 -12.816 5.6328
v -8.214 -12.686 5
v -8.2856 -13.2626 5.5136
v -0.7211 -19.7543 8.1269
v 7.3783 -9.6644 0.2601
v -0.7592 -19.6096 7.412
v -0.7891 -19.5456 7.2289
v -0.7801 -19.4983 7.0876
v -0.771 -19.5468 7.2288
v -0.7891 -19.4505 6.9483
v -0.8031 -19.3759 6.7312
v -1.13 -18.586 5
v 6.706 -10.4793 1.2687
v 7.6091 -10.3627 0.7665
v 8.365 -5.17 12.588
v -0.707 0.536 6.846
v 0 2 6.991
v -0.7016 0.4902 7.0875
v 0 1.9771 7.0877
v 5.4013 -12.0395 1.8624
v 0 1.9672 7.1294
v -0.6955 0.4787 7.1904
v -0.6993 0.4706 7.1907
v 0 -5.475 38.54
v 9.577 -7.434 11.305
v 9.16 -6.206 11.305
v -0.5033 -0.2745 12.089
v -0.5179 -0.1196 11.305
v 8.586 -5.043 11.305
v -0.5652 -0.086 10.7398
v -0.6268 -0.0413 10
v -0.6384 -0.0472 9.921
v -2.263 -7.737 -6
v -1.036 -17.866 3.912
v 6.0185 -10.6034 2.0459
v -4.525 -10 -6
v 0.338 -11.261 19.914
v -0.707 -20.536 6.846
v 0.5 -11.206 19.914
v -2.263 -12.263 -6
v 0.653 -11.13 19.914
v 0.795 -11.036 19.914
v 0.923 -10.923 19.914
v 6.871 -13.967 3.912
v 4.83 -3.706 3.912
v 3.967 -3.129 3.912
v 3.036 -2.67 3.912
v -0.795 -3.964 17.934
v -0.6451 -3.8783 17.8674
v -0.618 -3.294 17.3562
v -0.923 -2.989 17.071
v 3.536 -3.876 2.929
v -0.6028 -2.9682 17.071
v 2.706 -3.467 2.929
v -0.5849 -2.4802 16.516
v 9.659 -7.412 10
v 0.338 -12.566 19.659
v 9.239 -6.173 10
v -1.294 -5.17 18.66
v 0.67 -12.5 19.659
v -1.913 -5.381 18.66
v 6.871 -6.033 3.912
v -6.871 -6.033 16.088
v -7.33 -6.964 16.088
v 6.294 -5.17 3.912
v -1.576 -4.12 17.934
v -7.663 -7.947 16.088
v 5.61 -4.39 3.912
v -3.9858 -10.3593 0.8511
v -3.8095 -10.2654 0.761
v -3.794 -10.5 0.761
v -6.871 -4.728 15
v -7.5 -5.67 15
v -3.696 -10.99 0.761
v 7.33 -13.036 3.912
v -8.001 -6.686 15
v -3.799 -10.2599 0.7573
v 7.4105 -12.7983 3.912
v -2.566 -10.338 0.341
v -2.5 -10.67 0.341
v -0.6955 -20.4787 7.1904
v -2.391 -10.99 0.341
v 6.533 -12.706 2.929
v -0.578 -19.9241 10.5829
v -0.6268 -19.9587 10
v -7.33 -4.376 13.827
v 5.61 -5.695 2.929
v -8.001 -5.381 13.827
v -7.663 -4.12 12.588
v 5 -5 2.929
v -3.8713 -11.4199 0.911
v 7.2078 -12.7413 3.6718
v -3.6983 -11.4427 0.8336
v 7.0928 -12.709 3.5356
v 6.6001 -12.5081 2.929
v -3.536 -11.464 0.761
v -1.294 -0.17 11.305
v -2.566 -0.423 11.305
v -3.5694 -11.3651 0.761
v -3.5677 -11.3701 0.761
v -3.794 -0.84 11.305
v 6.3652 -12.4157 2.7073
v -0.99 -6.304 19.239
v -1.464 -6.464 19.239
v 0.5 -13.794 19.239
v 5.61 -14.305 2.929
v -1.913 -6.686 19.239
v 6.124 -13.536 2.929
v 0.4222 -13.8914 19.1935
v 0.5004 -14.6929 18.7953
v 0.653 -14.957 18.66
v -1.305 -0.086 10
v 0.527 -14.9653 18.66
v 4.4205 -14.1732 2.066
v -2.588 -0.341 10
v 0.6117 -15.7971 18.1014
v -0.99 -7.609 19.659
v 4.83 -13.706 2.066
v 0.6371 -16.0463 17.934
v -3.827 -0.761 10
v -1.294 -7.759 19.659
v -1.294 -0.17 8.695
v 1.036 -2.134 16.088
v -1.576 -7.947 19.659
v -2.566 -0.423 8.695
v 1.13 -1.414 15
v -1.83 -8.17 19.659
v 8.66 -5 10
v 5.272 -13.044 2.066
v 9.577 -7.434 8.695
v 5.624 -12.33 2.066
v 9.16 -6.206 8.695
v 1.206 -0.84 13.827
v 1.261 -0.423 12.588
v -2.33 -6.964 19.239
v 8.586 -5.043 8.695
v -2.706 -7.294 19.239
v -3.036 -7.67 19.239
v -3.314 -11.913 0.761
v 4.83 -16.294 3.912
v -3.314 -8.087 19.239
v 5.61 -15.61 3.912
v 6.294 -14.83 3.912
v 7.663 -7.947 16.088
v -3.794 -0.84 8.695
v 4.305 -4.39 2.929
v 4.305 -15.61 2.929
v 5 -15 2.929
v 7.33 -6.964 16.088
v -0.17 -11.294 19.914
v 4.698 -5.302 2.5539
v 4.4902 -5.695 2.1885
v 6.871 -6.033 16.088
v 4.4205 -5.8268 2.066
v 4.1732 -5.5795 2.066
v 8.001 -6.686 15
v -1.036 -9.205 19.914
v 7.5 -5.67 15
v -4.957 -1.414 11.305
v -6.036 -2.134 11.305
v -7.011 -2.989 11.305
v 8.001 -5.381 13.827
v -3.5494 -11.3608 0.7541
v 7.33 -6.964 3.912
v -2.241 -11.294 0.341
v 6.83 -8.17 2.929
v -0.3771 -13.8021 19.239
v -2.053 -11.576 0.341
v 6.7804 -8.0238 2.929
v 8.365 -12.241 15
v -2.1785 -11.8412 0.4325
v -2.5084 -12.1113 0.5773
v 6.5745 -7.4164 2.929
v 6.6744 -7.3757 3.052
v 7.0462 -7.2241 3.5097
v -0.653 -11.13 0.086
v 6.533 -7.294 2.929
v 8.586 -11.13 15
v -0.5 -11.206 0.086
v 8.2283 -10.5633 15.5916
v 8.6237 -10.5541 15
v 6.124 -6.464 2.929
v -6.83 -11.83 2.929
v 6.6055 -8.0769 2.7683
v 8.2586 -9.4374 15.5463
v 5.6601 -7.7763 2.066
v 5.7731 -7.7318 2.1727
v 8.586 -8.87 15
v -6.7292 -12.1272 2.929
v 8.6237 -9.4459 15
v 5.624 -7.67 2.066
v -1.13 -9.347 19.914
v -1.206 -9.5 19.914
v -1.261 -9.662 19.914
v -1.294 -9.83 19.914
v 8.9194 -10.553 14.4011
v 1.294 -0.17 11.305
v -6.0419 -10.7046 2.066
v -6.1456 -10.7108 2.1574
v -1.305 -10 19.914
v -6.036 -10.795 2.066
v -1.294 -10.17 19.914
v -5.88 -11.576 2.066
v 1.305 -0.086 10
v 8.8893 -9.4469 14.462
v 1.294 -0.17 8.695
v -6.3734 -12.0193 2.6022
v -5.7896 -11.8423 2.066
v 9.16 -11.206 13.827
v -0.67 -12.5 0.341
v -7.866 -3.964 11.305
v 1.261 -0.423 7.412
v 1.206 -0.84 6.173
v -2.053 -8.424 19.659
v 9.2028 -10.552 13.827
v -2.241 -8.706 19.659
v 2.241 -1.635 5
v -5 -1.34 10
v -6.088 -2.066 10
v 9.2028 -9.448 13.827
v 9.16 -8.794 13.827
v -7.071 -2.929 10
v -7.934 -3.912 10
v 5.272 -6.956 2.066
v -4.957 -1.414 8.695
v 9.8839 -10.3985 12.358
v 4.83 -6.294 2.066
v -6.036 -2.134 8.695
v 9.577 -11.261 12.588
v -7.011 -2.989 8.695
v -0.6785 -20.3936 6.8319
v -0.6878 -20.3728 6.8298
v 9.2237 -10.5526 13.7654
v 9.4435 -10.5207 13.123
v 9.6269 -10.494 12.588
v -7.866 -3.964 8.695
v -0.795 -16.036 2.066
v 4.8054 -8.1368 1.4473
v 4.9504 -8.0477 1.5583
v -0.6028 -16.0486 2.066
v -2.391 -9.01 19.659
v 4.619 -8.087 1.34
v 9.381 -9.4703 13.3065
v 9.2237 -9.4474 13.7656
v 9.577 -8.739 12.588
v -3.536 -8.536 19.239
v 4.33 -7.5 1.34
v 9.6269 -9.506 12.588
v -3.696 -9.01 19.239
v 4.698 -14.698 2.5539
v 4.305 -14.4902 2.1885
v 4.2584 -6.1617 1.8368
v 2.053 -2.337 3.912
v -5.0203 -8.4577 1.514
v -5.1624 -8.4377 1.6084
v -2.5 -9.33 19.659
v -2.566 -9.662 19.659
v -5.8454 -10.5335 1.1137
v 3.706 -5.17 2.066
v -2.588 -10 19.659
v 1.83 -3.17 2.929
v -4.83 -8.706 1.34
v 3.044 -4.728 2.066
v -4.758 -8.4948 1.34
v 2.33 -4.376 2.066
v 1.576 -4.12 2.066
v -4.957 -9.347 1.34
v 1.913 -5.381 1.34
v 3.8383 -5.7415 1.8368
v 3.7194 -5.852 1.7289
v -3.794 -9.5 19.239
v 1.294 -5.17 1.34
v 3.044 -6.033 1.34
v -3.0478 -10 19.5031
v -3.3198 -9.864 19.4079
v -5.7411 -9.4313 1.8594
v 2.5 -5.67 1.34
v -3.8021 -9.6229 19.239
v 4.1732 -14.4205 2.066
v -4.9689 -9.5279 1.34
v -3.8914 -9.5778 19.1935
v -3.9644 -9.5707 19.1572
v -1.261 -10.338 19.914
v -1.206 -10.5 19.914
v -1.13 -10.653 19.914
v -5.3463 -10.6731 1.6006
v -4.9636 -10.5522 1.34
v -5.0722 -10.5865 1.414
v 3.967 -6.956 1.34
v -4.957 -10.653 1.34
v 4.039 -6.3979 1.6222
v 3.7504 -6.7087 1.34
v -4.83 -11.294 1.34
v 3.2913 -6.2496 1.34
v 1.913 -6.686 0.761
v -5.1123 -11.6298 1.5913
v -5.3728 -11.7116 1.774
v -0.5 -13.794 0.761
v -4.7337 -11.5764 1.34
v 1.464 -6.464 0.761
v -0.3593 -13.9858 0.8511
v -0.2654 -13.8095 0.761
v 0.99 -6.304 0.761
v 3.314 -8.087 0.761
v -0.338 -12.566 0.341
v 3.036 -7.67 0.761
v -8.365 -7.759 15
v -8.536 -6.464 13.827
v 3.536 -16.124 2.929
v 3.3837 -7.1123 1.0722
v -8.924 -7.609 13.827
v 3.1633 -7.355 0.9111
v 2.9271 -7.5459 0.761
v -8.365 -5.17 12.588
v -0.653 -14.957 1.34
v -8.924 -6.304 12.588
v -0.6034 -16.0184 2.0459
v -9.33 -7.5 12.588
v -0.5687 -15.7411 1.8594
v -0.4721 -14.9689 1.34
v 2.6517 -6.8306 0.9154
v 2.33 -6.964 0.761
v 2.4541 -7.0729 0.761
v 2.645 -6.8367 0.911
v 8.536 -13.536 13.827
v -0.4256 -14.5635 1.1384
v -8.586 -5.043 11.305
v 8.924 -12.391 13.827
v -9.16 -6.206 11.305
v -9.577 -7.434 11.305
v 8.365 -14.83 12.588
v -0.7576 -19.379 6.7315
v 8.924 -13.696 12.588
v -4.7862 -12.0602 1.4838
v 9.33 -12.5 12.588
v -4.6025 -11.9465 1.34
v -1.83 -11.83 19.659
v -1.576 -12.053 19.659
v -1.294 -12.241 19.659
v 2.5084 -7.8887 0.5773
v 2.1785 -8.1588 0.4325
v -4.5 -8.206 1.2654
v 9.83 -11.294 11.305
v -0.7224 -19.1917 6.173
v 9.7782 -10.5083 11.8221
v 9.8804 -10.5178 11.305
v -0.6972 -18.9491 5.6781
v -0.6627 -18.6166 5
v -4.5635 -9.5744 1.1384
v -0.6454 -18.3064 4.5334
v 9.7255 -9.4967 12.089
v 9.83 -8.706 11.305
v 9.8804 -9.4822 11.305
v 9.9241 -10.578 10.5829
v -4.1013 -10.3726 0.9085
v -4.3737 -10.4038 1.044
v -0.6224 -17.8931 3.912
v 6.0419 -9.2954 2.066
v 6.1456 -9.2892 2.1574
v 9.914 -9.4348 10.7398
v 6.036 -9.205 2.066
v -4.3232 -11.7903 1.1818
v 9.914 -11.305 10
v -2.566 -10.338 19.659
v 5.88 -8.424 2.066
v 9.9587 -10.6268 10
v -4.5426 -11.913 1.3061
v 9.9587 -9.3732 10
v 5.8409 -8.3088 2.066
v -3.536 -16.124 2.929
v 9.914 -8.695 10
v -2.5 -10.67 19.659
v -3.706 -14.83 2.066
v -2.391 -10.99 19.659
v -3.044 -15.272 2.066
v 4.33 -17.5 15
v -2.33 -15.624 2.066
v 5.8454 -9.4665 1.1137
v -3.8021 -10.3771 19.239
v 1.8842 -7.7689 0.4556
v -3.794 -10.5 19.239
v 1.576 -7.947 0.341
v 1.8412 -7.8215 0.4325
v 1.7504 -8.1001 0.341
v 1.294 -7.759 0.341
v -8.66 -5 10
v 0.99 -7.609 0.341
v -3.696 -10.99 19.239
v -9.239 -6.173 10
v 4.619 -11.913 1.34
v -9.659 -7.412 10
v -3.8914 -10.4222 19.1935
v -8.586 -5.043 8.695
v -2.241 -11.294 19.659
v -9.16 -6.206 8.695
v 5.3247 -11.4459 1.6861
v 4.9006 -11.3861 1.4045
v -2.053 -11.576 19.659
v 5.272 -16.871 15
v -3.536 -11.464 19.239
v 4.619 -18.001 13.827
v -9.577 -7.434 8.695
v 4.83 -11.294 1.34
v -3.314 -11.913 19.239
v 5.624 -17.33 13.827
v 4.9998 -11.8859 1.5751
v 6.533 -16.533 13.827
v 4.6926 -11.6971 1.34
v 4.8033 -11.3723 1.34
v 4.83 -18.365 12.588
v 5.88 -17.663 12.588
v -7.866 -8.964 16.088
v 6.83 -16.83 12.588
v -7.8965 -9.429 16.088
v -4.83 -11.294 18.66
v -7.8965 -10.571 16.088
v -7.866 -11.036 16.088
v 4.957 -10.653 1.34
v -4.619 -11.913 18.66
v 1.036 -17.866 16.088
v 2.053 -17.663 16.088
v 5.7411 -10.5687 1.8594
v -1.913 -13.314 19.239
v 3.036 -17.33 16.088
v -1.464 -13.536 19.239
v 3.967 -16.871 16.088
v 4.9689 -10.4721 1.34
v -3.967 -13.044 1.34
v -0.923 -17.011 2.929
v 9.83 -11.294 8.695
v -3.036 -12.33 19.239
v -2.706 -12.706 19.239
v -4.039 -13.6021 1.6222
v 9.9527 -10.6384 9.9213
v 9.914 -10.6625 9.3575
v 9.8692 -10.6908 8.695
v -0.6143 -17.5424 3.5118
v -0.6024 -17.0318 2.929
v -2.33 -13.036 19.239
v -3.7504 -13.2913 1.34
v -3.2913 -13.7504 1.34
v -3.7194 -14.148 1.7289
v -3.8383 -14.2585 1.8368
v -3.967 -13.044 18.66
v 9.9528 -9.3616 9.921
v -3.044 -13.967 1.34
v -0.6025 -16.6905 2.6294
v 9.9128 -9.3364 9.3308
v -3.536 -13.536 18.66
v 9.83 -8.706 8.695
v 9.8692 -9.3092 8.695
v -3.044 -13.967 18.66
v 1.8999 -8.2496 0.341
v -2.5 -14.33 18.66
v -7.663 -12.053 16.088
v -0.6371 -3.9537 17.934
v -0.5004 -5.3071 18.7953
v -0.4222 -6.1086 19.1935
v -0.527 -5.0347 18.66
v -0.6117 -4.2029 18.1014
v 1.036 -9.205 0.086
v 5.3463 -9.3269 1.6006
v 0 -6.9522 19.5031
v 1.13 -18.586 15
v 2.241 -18.365 15
v 1.6756 -8.3244 0.2976
v 3.314 -18.001 15
v 0.923 -9.077 0.086
v -2.5 -14.33 1.34
v -1.913 -14.619 18.66
v 1.6917 -8.2761 0.3069
v 0 -7.412 19.659
v 0.795 -8.964 0.086
v 0 -8.695 19.914
v -0.3771 -6.1979 19.239
v -7.33 -13.036 16.088
v -3.706 -14.83 17.934
v -6.871 -13.967 16.088
v -3.044 -15.272 17.934
v -0.17 -8.706 19.914
v -2.33 -15.624 17.934
v -8.001 -13.314 15
v -3.536 -16.124 17.071
v -7.5 -14.33 15
v -4.33 -12.5 18.66
v -5.272 -13.044 17.934
v -8.001 -14.619 13.827
v 1.206 -19.16 13.827
v -0.67 -7.5 0.341
v -4.83 -13.706 17.934
v 2.391 -18.924 13.827
v -4.305 -14.305 17.934
v 3.536 -18.536 13.827
v -0.5 -8.794 0.086
v -6.124 -13.536 17.071
v 1.261 -19.577 12.588
v -0.653 -8.87 0.086
v -3.036 -12.33 0.761
v 0.5297 -19.381 13.3065
v -5.61 -14.305 17.071
v 0.494 -19.6269 12.588
v 2.5 -19.33 12.588
v 3.696 -18.924 12.588
v -3.1633 -12.645 0.9111
v -3.3837 -12.8877 1.0722
v -2.9271 -12.4541 0.761
v -5 -15 17.071
v -4.305 -15.61 17.071
v 4.957 -18.586 11.305
v 0.17 -8.706 19.914
v 6.036 -17.866 11.305
v -8.586 -8.87 15
v -2.706 -16.533 17.071
v 1.294 -10.17 0.086
v -8.2283 -9.4367 15.5916
v -8.6237 -9.4459 15
v -1.83 -16.83 17.071
v 1.305 -10 0.086
v 1.294 -9.83 0.086
v 1.261 -9.662 0.086
v 8.586 -14.957 11.305
v 1.206 -9.5 0.086
v 9.16 -13.794 11.305
v -8.2586 -10.5626 15.5463
v 9.577 -12.566 11.305
v -8.586 -11.13 15
v 1.13 -9.347 0.086
v -8.6237 -10.5541 15
v -0.571 -2.1035 16.088
v 8.66 -15 10
v -8.365 -12.241 15
v 9.239 -13.827 10
v 4.9636 -9.4478 1.34
v 5.0722 -9.4135 1.414
v -0.5626 -1.7414 15.5463
v -0.5541 -1.3763 15
v 9.659 -12.588 10
v -0.5531 -1.1107 14.462
v -0.552 -0.7972 13.827
v 4.957 -9.347 1.34
v -8.9194 -9.447 14.4011
v -0.6636 -0.0872 9.3308
v -0.6908 -0.1308 8.695
v 8.586 -14.957 8.695
v -8.8893 -10.5531 14.462
v -6.294 -14.83 16.088
v -5.61 -15.61 16.088
v 9.16 -13.794 8.695
v 4.83 -8.706 1.34
v -4.83 -16.294 16.088
v 9.577 -12.566 8.695
v -6.871 -15.272 15
v 5.2747 -8.4865 1.6691
v 5.6607 -8.3654 1.9397
v -6.124 -16.124 15
v 4.779 -8.5564 1.34
v 4.6653 -8.2229 1.34
v -9.16 -8.794 13.827
v 7.663 -12.053 16.088
v -9.2028 -9.448 13.827
v 7.866 -11.036 16.088
v -7.33 -15.624 13.827
v 7.8965 -10.571 16.088
v -9.2028 -10.552 13.827
v -9.16 -11.206 13.827
v 7.8965 -9.429 16.088
v 7.866 -8.964 16.088
v -7.663 -15.88 12.588
v -2.6517 -13.1694 0.9154
v -2.33 -13.036 0.761
v -7.866 -16.036 11.305
v -2.4541 -12.9271 0.761
v -2.645 -13.1633 0.911
v -7.934 -16.088 10
v 6.871 -13.967 16.088
v -7.866 -16.036 8.695
v 7.33 -13.036 16.088
v 7.5 -14.33 15
v 8.001 -13.314 15
v -0.7304 -0.2812 7.9518
v -0.7592 -0.3904 7.412
v 1.036 -10.795 0.086
v -0.7801 -0.5019 7.0876
v -0.7891 -0.4545 7.2289
v -0.771 -0.4533 7.2288
v -1.206 -0.84 6.173
v 4.83 -16.294 16.088
v -0.8031 -0.6243 6.7311
v 7.011 -17.011 11.305
v -1.13 -1.414 5
v -7.3558 -13.0161 3.9392
v -7.33 -13.036 3.912
v -7.3383 -13.0114 3.912
v 5 -18.66 10
v -1.036 -2.134 3.912
v 6.088 -17.934 10
v -6.871 -13.967 3.912
v 7.071 -17.071 10
v 4.957 -18.586 8.695
v -1.83 -3.17 2.929
v 6.036 -17.866 8.695
v -7.1269 -12.9519 3.6615
v 0 -10 20
v 7.011 -17.011 8.695
v -2.053 -2.337 3.912
v -6.124 -13.536 2.929
v -2.706 -3.467 2.929
v -6.5196 -12.7332 2.929
v -6.8976 -12.8872 3.3939
v -5.61 -14.305 2.929
v -1.576 -4.12 2.066
v 5.61 -15.61 16.088
v -5.603 -12.3725 2.066
v -6.4839 -12.7192 2.8954
v 0.5033 -19.7255 12.089
v 1.294 -19.83 11.305
v 0.5179 -19.8804 11.305
v -2.33 -4.376 2.066
v -5.272 -13.044 2.066
v 2.566 -19.577 11.305
v 6.294 -14.83 16.088
v 3.794 -19.16 11.305
v -3.044 -4.728 2.066
v 6.124 -16.124 15
v -4.83 -13.706 2.066
v -4.4902 -14.305 2.1885
v 0.5652 -19.914 10.7398
v 6.871 -15.272 15
v -9.8839 -9.6015 12.358
v -9.577 -8.739 12.588
v 0.6268 -19.9587 10
v 1.305 -19.914 10
v 2.588 -19.659 10
v -9.2237 -9.4474 13.7654
v 3.827 -19.239 10
v -9.4435 -9.4793 13.123
v -9.6269 -9.506 12.588
v 1.294 -19.83 8.695
v 7.33 -15.624 13.827
v 2.566 -19.577 8.695
v 8.001 -14.619 13.827
v 3.794 -19.16 8.695
v -9.381 -10.5297 13.3065
v -9.2237 -10.5526 13.7656
v 7.663 -15.88 12.588
v -9.577 -11.261 12.588
v -9.6269 -10.494 12.588
v 4.83 -18.365 7.412
v 7.866 -16.036 11.305
v 0 -8.695 0.086
v 5.88 -17.663 7.412
v 7.934 -16.088 10
v 1.13 -10.653 0.086
v -3.706 -5.17 2.066
v 1.206 -10.5 0.086
v -8.924 -12.391 13.827
v 7.866 -16.036 8.695
v 1.261 -10.338 0.086
v -8.536 -13.536 13.827
v -9.33 -12.5 12.588
v -4.4205 -14.1732 2.066
v 9.33 -7.5 7.412
v -1.913 -5.381 1.34
v 4.5635 -10.4256 1.1384
v 0 -10 0
v -8.924 -13.696 12.588
v -8.365 -14.83 12.588
v 8.924 -6.304 7.412
v 0.795 -11.036 0.086
v 0.923 -10.923 0.086
v -6.294 -14.83 3.912
v 8.365 -5.17 7.412
v -5.61 -15.61 3.912
v 1.294 -12.241 0.341
v -4.83 -16.294 3.912
v 1.576 -12.053 0.341
v 0.338 -11.261 0.086
v 8.924 -7.609 6.173
v -5 -15 2.929
v 8.9 -6.9389 6.7409
v 8.9142 -6.9423 6.7775
v 8.9091 -6.9508 6.7552
v 8.536 -6.464 6.173
v -4.305 -15.61 2.929
v 0.17 -11.294 0.086
v 6.83 -16.83 7.412
v 0 -11.305 0.086
v 0.99 -13.696 0.761
v 4.619 -18.001 6.173
v -4.698 -14.698 2.5539
v 1.464 -13.536 0.761
v 5.624 -17.33 6.173
v -0.17 -8.706 0.086
v 6.533 -16.533 6.173
v -0.338 -8.739 0.086
v -4.1732 -14.4205 2.066
v 0.99 -12.391 0.341
v 8.6787 -6.8853 6.173
v 8.7762 -7.1728 6.173
v 4.3737 -9.5962 1.044
v 8.365 -7.759 5
v 4.1013 -9.6274 0.9085
v -5.5256 -12.3429 2.0108
v 8.6819 -7.2882 5.9166
v 8.6279 -7.3129 5.7967
v 8.2692 -7.4766 5
v 8.2207 -6.9057 5.2793
v 8.414 -6.857 5.6824
v -4.33 -12.5 1.34
v 4.3219 -8.6392 1.1127
v -4.2584 -13.8383 1.8368
v 4.33 -17.5 5
v 1.294 -14.83 1.34
v -3.967 -16.871 16.088
v 5.272 -16.871 5
v -3.036 -17.33 16.088
v -0.338 -11.261 0.086
v -2.053 -17.663 16.088
v -9.83 -8.706 11.305
v -9.7782 -9.4917 11.8221
v -9.8804 -9.4822 11.305
v 1.261 -19.577 7.412
v -0.17 -11.294 0.086
v 2.5 -19.33 7.412
v 3.696 -9.01 0.761
v 3.696 -18.924 7.412
v -9.7255 -10.5033 12.089
v 3.9944 -8.5962 0.9661
v -9.83 -11.294 11.305
v 3.536 -8.536 0.761
v -9.8804 -10.5178 11.305
v 3.721 -8.7482 0.8141
v 2.391 -18.924 6.173
v 3.536 -18.536 6.173
v 0 -14.525 -6
v -9.914 -8.695 10
v -9.9241 -9.422 10.5829
v 2.391 -9.01 0.341
v 8.001 -5.381 6.173
v -9.9587 -9.3732 10
v 0.0935 -13.4781 0.6448
v 2.241 -8.706 0.341
v 0 -13.2976 0.5816
v -9.9587 -10.6268 10
v -9.914 -10.5652 10.7398
v -9.914 -11.305 10
v 0 -12.588 0.341
v 8.087 -6.9395 5
v 2.053 -8.424 0.341
v 8.001 -6.686 5
v -9.83 -8.706 8.695
v -9.9527 -9.3616 9.9213
v -9.914 -9.3375 9.3575
v -9.8692 -9.3092 8.695
v 8.0957 -7.5522 4.717
v 3.5216 -9.914 0.3284
v -2.5 -5.67 1.34
v -9.9528 -10.6384 9.921
v -9.9128 -10.6636 9.3308
v -9.83 -11.294 8.695
v -3.044 -6.033 1.34
v 3.9858 -9.6407 0.8511
v -3.8383 -5.7416 1.8368
v -9.8692 -10.6908 8.695
v -3.6021 -5.961 1.6222
v 7.663 -7.947 3.912
v 3.8095 -9.7346 0.761
v 3.794 -9.5 0.761
v 7.5031 -7.0969 4.0939
v 7.6021 -7.7672 3.912
v 7.3857 -7.1286 3.912
v -1.913 -6.686 0.761
v 7.4639 -7.8255 3.7412
v 7.4565 -7.8277 3.7323
v -9.577 -12.566 11.305
v -9.16 -13.794 11.305
v 0 -11.305 19.914
v 0.17 -11.294 19.914
v -8.586 -14.957 11.305
v 2.241 -18.365 5
v 0 -12.588 19.659
v 3.314 -18.001 5
v 0 -13.0478 19.5031
v 0.3771 -13.8021 19.239
v -9.659 -12.588 10
v -9.239 -13.827 10
v -8.66 -15 10
v 3.036 -17.33 3.912
v 3.967 -16.871 3.912
v 3.2976 -10 0.5816
v -9.577 -12.566 8.695
v 2.588 -10 0.341
v -3.314 -18.001 15
v -2.241 -18.365 15
v 0.136 -6.6802 19.4079
v 3.2533 -9.8462 0.5699
v 3.799 -9.7401 0.7573
v 0.3771 -6.1979 19.239
v 2.566 -9.662 0.341
v 2.9049 -9.914 0.4503
v 3.3127 -9.9922 0.5868
v 0.67 -7.5 0.341
v -3.536 -18.536 13.827
v -2.391 -18.924 13.827
v 2.263 -7.737 -6
v -3.696 -18.924 12.588
v -2.5 -19.33 12.588
v 0.5 -11.206 0.086
v 0.653 -8.87 0.086
v 0.653 -11.13 0.086
v 0.5 -8.794 0.086
v 0.338 -8.739 0.086
v -5.272 -16.871 15
v -4.33 -17.5 15
v 0.17 -8.706 0.086
v -6.533 -16.533 13.827
v 9.577 -11.261 7.412
v -5.624 -17.33 13.827
v 0.67 -12.5 0.341
v -4.619 -18.001 13.827
v 9.7543 -10.7211 8.1269
v -6.83 -16.83 12.588
v -5.88 -17.663 12.588
v -4.83 -18.365 12.588
v 9.7313 -9.2671 6.7663
v -0.136 -13.3198 19.4079
v 9.6096 -10.7592 7.412
v 0.6878 -20.3728 6.8298
v 0.6785 -20.3936 6.8319
v 0 -5.475 -6
v -3.794 -19.16 11.305
v -2.566 -19.577 11.305
v 0.6028 -16.0486 2.066
v 0.6027 -16.2863 2.2747
v -0.6878 0.3728 6.8298
v 0.795 -16.036 2.066
v -0.6785 0.3936 6.8319
v 4.525 -10 -6
v -9.16 -13.794 8.695
v 0.6785 0.3936 6.8319
v 0.6878 0.3728 6.8298
v 2.263 -12.263 -6
v -8.586 -14.957 8.695
v 0.7576 -0.621 6.7315
v 0.7224 -0.8083 6.173
v 0.8031 -0.6241 6.7312
v 0.3593 -13.9858 0.8511
v 0.3726 -14.1013 0.9085
v 0.2654 -13.8095 0.761
v 0.5 -13.794 0.761
v 0.6972 -1.0509 5.6781
v 0.6627 -1.3834 5
v 9.6096 -9.2408 7.412
v 9.7188 -9.2696 7.9518
v 0.6454 -1.6936 4.5334
v 9.577 -8.739 7.412
v 0.338 -12.566 0.341
v -1.261 -0.423 7.412
v -2.5 -0.67 7.412
v 0.4721 -14.9689 1.34
v 0.5031 -15.2166 1.5066
v 0.6034 -16.0185 2.0459
v 0.6224 -2.1069 3.912
v 0.653 -14.957 1.34
v -3.696 -1.076 7.412
v 0.923 -2.989 2.929
v -2.391 -1.076 6.173
v 3.536 -3.876 17.071
v -3.536 -1.464 6.173
v 2.706 -3.467 17.071
v 0.6143 -2.4576 3.5118
v 0.6024 -2.9682 2.929
v 0.7224 -19.1917 6.173
v 0.7519 -19.3479 6.6396
v 0.7577 -19.3787 6.7315
v 1.83 -3.17 17.071
v 2.5 -9.33 0.341
v 0.795 -3.964 2.066
v -2.241 -1.635 5
v 0.6025 -3.3095 2.6294
v 0.6028 -3.9514 2.066
v -3.314 -1.999 5
v 0.6861 -18.8425 5.4608
v 0.6627 -18.6166 5
v 0.6379 -18.1711 4.3301
v 0.6224 -17.8931 3.912
v 0.6034 -3.9815 2.0459
v -4.83 -1.635 7.412
v 0.6092 -17.3248 3.2632
v 0.923 -17.011 2.929
v -5.88 -2.337 7.412
v 0.6024 -17.0318 2.929
v -6.83 -3.17 7.412
v 4.305 -5.695 17.934
v 5.61 -5.695 17.071
v 5 -5 17.071
v 0 -21.9173 6.9828
v 0.653 -5.043 1.34
v -4.619 -1.999 6.173
v 4.305 -4.39 17.071
v -5.624 -2.67 6.173
v -6.533 -3.467 6.173
v 0.5687 -4.2589 1.8594
v 0.4721 -5.0311 1.34
v 9.5456 -10.7891 7.2289
v 9.4983 -10.7801 7.0876
v 9.5468 -10.771 7.2288
v 9.4505 -10.7891 6.9483
v -4.33 -2.5 5
v 0.4256 -5.4365 1.1384
v -5.272 -3.129 5
v 0.3593 -6.0142 0.8511
v -6.124 -3.876 5
v 9.3759 -10.8031 6.7312
v 9.379 -10.7576 6.7315
v 9.4981 -9.2199 7.0876
v 9.5455 -9.2109 7.2289
v 0.5 -6.206 0.761
v 9.5467 -9.229 7.2288
v 9.3757 -9.1969 6.7311
v 0.2654 -6.1905 0.761
v 9.1877 -9.2164 6.173
v 9.3465 -9.2448 6.6362
v 9.3562 -9.2466 6.6644
v 9.3787 -9.2423 6.7315
v -7.663 -4.12 7.412
v 3.7722 -11.1852 0.8276
v 3.9175 -11.2115 0.9
v -7.33 -4.376 6.173
v 0 -6.7024 0.5816
v 3.696 -10.99 0.761
v -8.001 -5.381 6.173
v 0.338 -7.434 0.341
v 3.794 -10.5 0.761
v 3.9858 -10.3593 0.8511
v 0 -7.412 0.341
v -6.871 -4.728 5
v 3.8095 -10.2654 0.761
v 2.391 -10.99 0.341
v 2.5 -10.67 0.341
v 4.619 -8.087 18.66
v -3.827 -19.239 10
v 4.33 -7.5 18.66
v 2.566 -10.338 0.341
v -0.7224 -0.8083 6.173
v -0.7519 -0.6521 6.6396
v -0.7577 -0.6213 6.7315
v -2.588 -19.659 10
v 5.272 -6.956 17.934
v -0.6861 -1.1575 5.4608
v 4.83 -6.294 17.934
v -0.6627 -1.3834 5
v -0.6379 -1.8289 4.3301
v -3.794 -19.16 8.695
v -2.566 -19.577 8.695
v -0.6224 -2.1069 3.912
v 6.124 -6.464 17.071
v -7.011 -17.011 11.305
v -0.6092 -2.6752 3.2632
v -0.923 -2.989 2.929
v 0.707 0.536 7.188
v -6.036 -17.866 11.305
v 0.7016 0.4902 7.0875
v -0.6024 -2.9682 2.929
v 0.6993 0.4706 7.1907
v 0.6028 -2.9682 17.071
v 0.6397 -3.7618 17.7654
v -0.6028 -3.9514 2.066
v -4.957 -18.586 11.305
v -0.6027 -3.7137 2.2747
v -0.795 -3.964 2.066
v 0.5914 -2.6574 16.7178
v 0.571 -2.1035 16.088
v 0.5541 -1.3763 15
v 0.5633 -1.7717 15.5916
v 3.044 -6.033 18.66
v -7.071 -17.071 10
v 0.553 -1.0806 14.4011
v 2.5 -5.67 18.66
v -6.088 -17.934 10
v 0.552 -0.7972 13.827
v 3.706 -5.17 17.934
v 0.5526 -0.7763 13.7654
v -5 -18.66 10
v 3.044 -4.728 17.934
v -0.6034 -3.9815 2.0459
v 2.33 -4.376 17.934
v -7.011 -17.011 8.695
v 0.6908 -0.1308 8.695
v 0.6625 -0.086 9.3575
v -6.036 -17.866 8.695
v 0.6384 -0.0473 9.9213
v -0.4721 -5.0311 1.34
v -0.5031 -4.7834 1.5066
v -0.653 -5.043 1.34
v -7.5 -5.67 5
v 1.913 -5.381 18.66
v -0.3593 -6.0142 0.8511
v -0.3726 -5.8987 0.9085
v -8.001 -6.686 5
v 3.314 -8.087 19.239
v -0.2654 -6.1905 0.761
v -0.5 -6.206 0.761
v -8.0644 -6.8729 5
v 3.036 -7.67 19.239
v 2.706 -7.294 19.239
v 3.314 -11.913 0.761
v 2.33 -6.964 19.239
v 0.7211 -0.2457 8.1269
v 3.536 -11.464 0.761
v 0.7592 -0.3904 7.412
v 3.967 -6.956 18.66
v 0.7891 -0.4544 7.2289
v 0.7801 -0.5017 7.0876
v 0.771 -0.4532 7.2288
v 0.7891 -0.5495 6.9483
v 4.0404 -11.3344 0.9771
v 3.536 -6.464 18.66
v -7.9421 -6.9058 4.8104
v -7.755 -7.6039 4.2081
v 1.13 -1.414 5
v 2.2311 -11.8842 0.4556
v -0.0935 -6.5219 0.6448
v 2.053 -11.576 0.341
v 2.1785 -11.8412 0.4325
v -3.036 -2.67 3.912
v -3.967 -3.129 3.912
v 2.241 -11.294 0.341
v 1.913 -6.686 19.239
v -3.536 -3.876 2.929
v 1.464 -6.464 19.239
v -0.338 -7.434 0.341
v -4.83 -3.706 3.912
v 1.83 -8.17 19.659
v 1.576 -7.947 19.659
v 1.036 -2.134 3.912
v 1.294 -7.759 19.659
v -5.61 -4.39 3.912
v 0.707 0.536 6.846
v -6.294 -5.17 3.912
v -6.871 -6.033 3.912
v -4.305 -4.39 2.929
v 1.8412 -12.1785 0.4325
v -5 -5 2.929
v 1.7504 -11.8999 0.341
v 4.83 -8.706 18.66
v 1.8999 -11.7504 0.341
v -5.61 -5.695 2.929
v 1.6756 -11.6756 0.2976
v 2.391 -9.01 19.659
v 2.241 -8.706 19.659
v 1.7239 -11.6917 0.3069
v 2.053 -8.424 19.659
v 3.696 -9.01 19.239
v 0 1.9173 6.9828
v 3.536 -8.536 19.239
v -4.698 -5.302 2.5539
v -4.305 -5.5098 2.1885
v 4.2585 -13.8383 1.8368
v 4.148 -13.7194 1.7289
v -4.1732 -5.5795 2.066
v -4.4205 -5.8268 2.066
v 4.33 -12.5 1.34
v 2.588 -10 19.659
v 0 2 7.128
v 1.576 -15.88 2.066
v 0.6955 0.4787 7.1904
v 2.566 -9.662 19.659
v 0.494 -0.3731 12.588
v 0.5207 -0.5565 13.123
v 0.5179 -0.1196 11.305
v 0.5083 -0.2218 11.8221
v 0.578 -0.0759 10.5829
v 0.6268 -0.0413 10
v 2.5 -9.33 19.659
v -7.33 -6.964 3.912
v -7.3631 -7.0616 3.912
v -7.5736 -7.683 3.912
v 3.0478 -10 19.5031
v -7.663 -7.947 3.912
v 3.3198 -10.136 19.4079
v -6.124 -6.464 2.929
v 3.8021 -9.6229 19.239
v 3.794 -9.5 19.239
v -28.514 -0.042 -4
v -6.533 -7.294 2.929
v -30 -9.937 19
v -10.536 -9.293 7.188
v -7.2799 -7.0849 3.8134
v -10.4902 -9.2984 7.0875
v -6.9446 -7.8936 3.1543
v -7.3595 -7.7734 3.6473
v -10.4706 -9.3007 7.1907
v -6.83 -8.17 2.929
v -6.9466 -7.1786 3.4187
v -6.5488 -7.3407 2.929
v -6.7549 -7.9485 2.929
v -40.583 -10.086 -7
v -4.83 -6.294 2.066
v 3.8914 -9.5778 19.1935
v -4.957 -18.586 8.695
v -10.536 -9.293 6.846
v -5.272 -6.956 2.066
v -10.4787 -9.3045 7.1904
v -10.2855 -9.4474 9.284
v -5.624 -7.67 2.066
v -10.9854 -9.51 7.1696
v -10.9252 -9.5037 7.0876
v -10.9124 -9.5071 7.1726
v -6.4934 -7.3625 2.8767
v -6.0275 -8.1688 2.2609
v -10.8384 -9.527 7.6626
v -11.1408 -9.5396 7.6628
v -10.9554 -9.4955 6.8875
v -3.696 -18.924 7.412
v -5.6344 -7.7006 2.066
v 1.294 -10.17 19.914
v -2.5 -19.33 7.412
v 1.305 -10 19.914
v 1.294 -9.83 19.914
v 1.261 -9.662 19.914
v -13.2612 -10.2468 7.723
v 1.206 -9.5 19.914
v -10.2715 -9.937 13.7228
v 1.13 -9.347 19.914
v -3.536 -18.536 6.173
v -10.4499 -10 13.5332
v -14.193 -10.086 7.7227
v -2.391 -18.924 6.173
v -12.4396 -9.6113 7.1695
v -14.3235 -9.937 7.1692
v -3.314 -18.001 5
v -28.393 -20 -4
v -10.536 -10.707 7.188
v -10.4902 -10.7016 7.0875
v -10.5987 -10.6767 7.1854
v -10.5267 -10.6844 7.0875
v -10.4787 -10.6955 7.1904
v -10.5115 -10.6802 7.189
v 2.391 -10.99 19.659
v -10.4706 -10.6993 7.1907
v -10.5627 -10.6941 6.8486
v -10.3833 -10.6455 8.0401
v -10.5379 -10.4197 9.4084
v -10.793 -10.3829 8.6601
v -10.1414 -10.2675 12.443
v -6.83 -16.83 7.412
v 2.5 -10.67 19.659
v -10.536 -10.707 6.846
v 2.566 -10.338 19.659
v -5.88 -17.663 7.412
v -4.83 -18.365 7.412
v -10.3936 -9.3215 6.8319
v -10.3728 -9.3122 6.8298
v -6.533 -16.533 6.173
v -5.624 -17.33 6.173
v 3.696 -10.99 19.239
v -10.4888 -10.6976 6.8413
v -4.619 -18.001 6.173
v 3.794 -10.5 19.239
v -10.7645 -9.4867 6.8686
v -5.272 -16.871 5
v -4.33 -17.5 5
v -7.4984 -10.086 -0.458
v -7.7844 -10 -0.2757
v 3.8021 -10.3771 19.239
v -3.967 -16.871 3.912
v -0.707 0.536 7.188
v -3.036 -17.33 3.912
v -4.525 -10 38.54
v 3.8914 -10.4222 19.1935
v 3.9644 -10.4293 19.1572
v -2.706 -16.533 2.929
v -1.83 -3.17 17.071
v -2.706 -3.467 17.071
v -3.536 -3.876 17.071
v -2.5 -5.67 18.66
v -3.044 -6.033 18.66
v -2.33 -4.376 17.934
v -0.653 -5.043 18.66
v -3.044 -4.728 17.934
v -3.706 -5.17 17.934
v -0.5 -6.206 19.239
v -0.338 -7.434 19.659
v -0.67 -7.5 19.659
v -3.536 -6.464 18.66
v -0.338 -8.739 19.914
v -0.5 -8.794 19.914
v -0.653 -8.87 19.914
v -0.795 -8.964 19.914
v -0.923 -9.077 19.914
v -0.923 -10.923 19.914
v -0.795 -11.036 19.914
v -0.653 -11.13 19.914
v -0.5 -11.206 19.914
v -0.338 -11.261 19.914
v -1.036 -10.795 19.914
v -0.99 -12.391 19.659
v -0.67 -12.5 19.659
v -0.338 -12.566 19.659
v -0.99 -13.696 19.239
# 1809 vertices

s 1
f 8 9 10
f 5 13 6
f 6 13 14
f 2 1 595
f 7 1 2
f 42 43 16
f 692 693 22
f 1 25 22
f 7 26 1
f 101 33 32
f 29 22 25
f 26 25 1
f 86 71 1693
f 28 22 29
f 692 22 28
f 36 18 19
f 36 19 37
f 18 36 22
f 39 22 36
f 39 36 40
f 46 16 43
f 42 16 45
f 38 48 282
f 47 48 38
f 188 181 641
f 20 1748 23
f 23 1756 27
f 23 1748 1756
f 27 1758 1725
f 72 1693 71
f 27 1756 1758
f 66 34 21
f 43 42 35
f 42 45 35
f 3 35 45
f 35 24 475
f 11 59 55
f 73 46 43
f 8 55 9
f 57 9 55
f 45 4 3
f 60 46 65
f 77 65 46
f 59 11 58
f 62 63 59
f 55 59 63
f 61 12 60
f 55 63 57
f 60 65 61
f 21 1540 66
f 250 467 24
f 59 69 62
f 650 67 68
f 86 1693 85
f 475 24 469
f 70 59 58
f 5 651 68
f 586 584 70
f 74 89 1693
f 75 46 73
f 5 17 651
f 72 71 76
f 73 43 35
f 6 17 5
f 35 75 73
f 34 72 76
f 74 72 66
f 72 34 66
f 35 475 75
f 98 1693 89
f 65 77 61
f 80 81 68
f 5 68 81
f 81 13 5
f 76 50 34
f 76 416 50
f 47 576 48
f 50 416 298
f 87 79 83
f 91 1446 92
f 88 94 96
f 83 97 87
f 90 76 85
f 86 85 76
f 71 86 76
f 92 46 91
f 97 100 87
f 64 88 96
f 66 89 74
f 78 67 96
f 64 96 67
f 67 80 68
f 67 78 80
f 66 1608 98
f 66 98 89
f 85 99 90
f 171 173 84
f 90 484 76
f 76 484 416
f 96 457 458
f 85 1693 99
f 96 458 78
f 93 106 108
f 108 94 93
f 130 157 641
f 111 133 46
f 111 149 102
f 154 102 153
f 114 102 113
f 154 113 102
f 120 103 121
f 104 121 103
f 120 129 103
f 103 115 105
f 727 119 110
f 126 120 46
f 120 121 46
f 122 46 121
f 123 126 46
f 129 120 127
f 125 124 128
f 126 127 120
f 130 641 131
f 131 641 49
f 115 103 129
f 137 52 51
f 169 170 84
f 136 265 101
f 102 118 126
f 127 126 118
f 123 102 126
f 123 46 132
f 132 102 123
f 97 1105 100
f 133 132 46
f 171 84 170
f 133 111 102
f 100 134 101
f 132 133 102
f 122 121 107
f 113 177 114
f 100 1105 134
f 104 107 121
f 134 136 101
f 135 1156 95
f 127 118 115
f 974 118 962
f 105 118 1042
f 105 115 118
f 115 129 127
f 267 265 138
f 151 156 1450
f 148 151 1450
f 140 144 46
f 144 145 46
f 146 46 145
f 149 111 146
f 142 145 144
f 142 144 143
f 146 145 147
f 46 146 111
f 145 142 147
f 150 147 142
f 150 142 152
f 206 207 1450
f 156 206 1450
f 163 95 82
f 153 102 149
f 143 144 155
f 140 155 144
f 147 150 146
f 1053 146 152
f 150 152 146
f 207 209 1450
f 149 146 153
f 131 1369 130
f 116 157 130
f 276 77 46
f 244 169 84
f 140 46 159
f 46 1530 159
f 186 183 1706
f 161 16 162
f 172 16 122
f 46 122 16
f 166 110 165
f 165 167 166
f 159 1433 155
f 162 107 161
f 110 166 563
f 167 168 166
f 172 162 16
f 155 140 159
f 174 84 173
f 122 107 172
f 162 172 107
f 174 173 163
f 178 170 169
f 53 641 181
f 53 181 54
f 156 151 139
f 182 54 181
f 188 641 187
f 184 183 164
f 164 186 158
f 186 164 183
f 188 187 182
f 185 191 175
f 181 188 182
f 182 193 54
f 180 307 197
f 157 198 641
f 185 201 191
f 641 204 202
f 139 137 199
f 180 200 185
f 32 198 101
f 116 101 198
f 200 180 197
f 200 201 185
f 157 116 198
f 187 641 202
f 332 182 202
f 187 202 182
f 202 204 332
f 200 197 210
f 199 207 139
f 205 210 197
f 209 207 199
f 206 139 207
f 200 211 201
f 335 193 332
f 210 211 200
f 139 206 156
f 189 1450 212
f 53 215 641
f 214 641 215
f 213 190 212
f 189 212 190
f 215 53 54
f 368 211 210
f 212 1450 218
f 211 368 403
f 218 217 213
f 212 218 213
f 219 221 690
f 190 213 1615
f 54 223 1707
f 223 54 193
f 175 191 220
f 220 227 222
f 193 283 223
f 191 227 220
f 222 229 225
f 340 203 208
f 95 163 173
f 228 209 199
f 15 1714 230
f 226 231 230
f 217 1630 213
f 247 174 163
f 178 169 244
f 242 272 184
f 158 186 160
f 170 178 135
f 950 231 226
f 95 171 135
f 171 170 135
f 237 233 264
f 173 171 95
f 135 178 3
f 570 239 235
f 174 247 84
f 183 184 272
f 84 250 243
f 242 184 164
f 245 117 241
f 244 243 178
f 240 246 242
f 164 240 242
f 117 245 239
f 24 178 243
f 245 248 239
f 870 875 236
f 236 875 240
f 84 249 374
f 247 249 84
f 128 1205 241
f 247 163 249
f 372 249 163
f 24 243 250
f 254 109 253
f 251 177 255
f 251 255 252
f 253 260 254
f 24 35 178
f 245 1281 248
f 255 177 257
f 269 261 177
f 258 252 257
f 255 257 252
f 374 384 84
f 286 141 256
f 204 641 259
f 273 271 177
f 257 177 261
f 204 259 332
f 262 254 260
f 253 1706 260
f 260 263 262
f 257 261 258
f 258 264 252
f 265 641 33
f 265 267 641
f 243 244 84
f 33 101 265
f 256 791 266
f 259 641 267
f 271 268 177
f 138 332 267
f 289 256 266
f 267 332 259
f 269 177 268
f 263 807 262
f 270 258 268
f 269 268 258
f 136 138 265
f 261 269 258
f 268 271 270
f 138 176 332
f 258 234 264
f 270 234 258
f 242 246 272
f 234 237 264
f 335 176 179
f 1706 183 272
f 272 274 1706
f 271 273 270
f 192 338 179
f 227 229 222
f 1772 275 1706
f 894 1706 866
f 263 260 1706
f 276 393 77
f 1374 1309 61
f 194 195 401
f 246 279 272
f 195 196 427
f 644 272 279
f 884 279 240
f 240 279 246
f 875 884 240
f 286 1741 141
f 209 228 1450
f 31 284 278
f 281 199 137
f 282 284 31
f 1200 128 1199
f 124 1199 128
f 289 1741 286
f 278 285 280
f 266 1741 289
f 284 285 278
f 283 328 287
f 285 375 280
f 286 256 289
f 191 290 227
f 282 291 284
f 201 290 191
f 282 48 291
f 290 292 227
f 291 293 284
f 199 1284 228
f 227 292 229
f 285 284 293
f 211 295 201
f 293 296 285
f 201 295 290
f 290 297 292
f 295 297 290
f 51 294 137
f 296 375 285
f 52 139 56
f 211 403 295
f 52 137 139
f 295 405 297
f 151 148 56
f 56 139 151
f 420 1698 419
f 305 648 306
f 430 1710 423
f 294 281 137
f 1742 1743 437
f 300 305 302
f 305 306 302
f 308 309 1072
f 180 301 299
f 180 299 307
f 293 291 672
f 180 185 301
f 301 185 175
f 671 672 291
f 330 356 177
f 307 317 197
f 321 317 770
f 317 321 205
f 82 1265 277
f 325 40 324
f 317 205 197
f 288 287 328
f 283 399 328
f 330 1780 322
f 383 386 177
f 383 177 357
f 327 1330 333
f 323 333 1330
f 324 323 1330
f 324 320 325
f 356 330 322
f 1762 430 431
f 182 332 193
f 193 335 338
f 343 648 340
f 334 303 298
f 1742 437 1749
f 336 341 342
f 313 422 339
f 338 283 193
f 338 399 283
f 341 344 342
f 232 776 340
f 306 648 343
f 176 335 332
f 335 179 338
f 343 208 302
f 343 302 306
f 341 1498 344
f 343 340 208
f 342 344 345
f 302 208 784
f 302 784 337
f 344 51 345
f 358 418 644
f 345 51 52
f 318 313 339
f 356 357 177
f 351 352 1749
f 322 318 353
f 318 339 353
f 323 350 333
f 352 351 355
f 357 356 353
f 322 353 356
f 444 329 448
f 442 346 439
f 119 1 165
f 167 1 168
f 165 1 167
f 277 326 359
f 168 1 304
f 304 1 308
f 82 277 359
f 308 1 309
f 309 1 310
f 384 686 84
f 310 1 311
f 163 82 359
f 422 360 339
f 312 311 1
f 339 360 362
f 321 331 363
f 331 379 363
f 363 205 321
f 365 210 205
f 1778 371 380
f 363 365 205
f 326 367 359
f 365 368 210
f 326 364 367
f 359 367 372
f 380 381 1778
f 331 376 379
f 163 359 372
f 377 380 366
f 366 380 371
f 382 385 365
f 374 249 372
f 280 375 348
f 369 302 337
f 361 751 364
f 348 377 366
f 369 337 378
f 369 378 370
f 373 370 818
f 364 652 367
f 348 375 377
f 376 389 379
f 364 751 652
f 394 1778 381
f 394 395 1778
f 382 365 363
f 377 381 380
f 339 362 353
f 367 683 372
f 379 382 363
f 387 398 177
f 387 177 386
f 395 396 1778
f 387 386 362
f 372 683 384
f 365 385 368
f 353 362 386
f 372 384 374
f 353 383 357
f 375 296 390
f 386 383 353
f 389 376 388
f 276 46 391
f 411 46 459
f 296 1020 390
f 389 392 379
f 377 375 390
f 379 392 382
f 347 358 354
f 400 1778 396
f 382 397 385
f 396 395 390
f 377 390 395
f 382 392 397
f 346 442 433
f 362 398 387
f 644 418 346
f 362 1169 398
f 377 395 394
f 377 394 381
f 296 675 1020
f 439 346 418
f 390 400 396
f 400 390 1020
f 328 399 401
f 318 322 1765
f 192 194 399
f 194 401 399
f 1768 322 1780
f 276 391 393
f 402 1778 406
f 402 406 404
f 403 405 295
f 406 1778 407
f 13 313 14
f 61 77 393
f 318 14 313
f 355 578 559
f 410 403 368
f 391 46 411
f 368 385 410
f 413 393 411
f 391 411 393
f 410 414 403
f 401 347 328
f 405 403 414
f 1696 1701 419
f 409 422 313
f 406 407 404
f 409 417 422
f 407 408 404
f 412 424 415
f 407 1778 425
f 436 425 1778
f 427 347 401
f 415 426 417
f 425 408 407
f 415 424 426
f 404 408 428
f 423 420 298
f 420 419 298
f 417 426 429
f 408 446 428
f 421 334 419
f 298 419 334
f 441 446 408
f 479 1762 432
f 417 429 422
f 427 418 347
f 347 418 358
f 422 429 360
f 432 430 416
f 298 416 430
f 298 430 423
f 431 430 432
f 1167 360 429
f 434 1778 443
f 1749 437 438
f 441 408 434
f 436 434 408
f 425 436 408
f 1749 438 351
f 436 1778 434
f 434 443 441
f 329 444 445
f 427 442 418
f 439 418 442
f 448 329 447
f 329 445 440
f 427 687 442
f 399 338 192
f 818 370 378
f 429 1185 1167
f 443 450 441
f 401 195 427
f 529 451 452
f 452 424 412
f 428 456 453
f 446 456 428
f 452 1229 424
f 457 96 94
f 454 370 373
f 454 373 455
f 314 40 315
f 315 40 316
f 319 316 40
f 411 459 413
f 323 37 350
f 40 320 319
f 1022 1778 400
f 40 325 320
f 78 460 80
f 450 443 1778
f 460 78 458
f 459 967 413
f 80 460 463
f 448 447 449
f 461 474 464
f 466 467 84
f 473 474 461
f 467 466 469
f 449 355 440
f 435 440 355
f 448 449 440
f 437 435 355
f 1782 464 468
f 355 351 437
f 438 437 351
f 440 445 444
f 440 444 448
f 1574 1575 470
f 470 1580 1574
f 449 578 355
f 731 1580 470
f 462 472 465
f 469 24 467
f 493 491 46
f 447 507 449
f 474 477 464
f 478 46 75
f 493 46 478
f 455 373 906
f 464 477 468
f 431 432 1762
f 75 475 478
f 1706 479 497
f 483 466 84
f 471 538 535
f 469 483 485
f 592 593 482
f 481 485 483
f 483 469 466
f 460 415 463
f 460 412 415
f 492 474 473
f 485 481 486
f 80 463 81
f 13 81 409
f 469 485 487
f 81 463 409
f 313 13 409
f 1146 490 473
f 469 487 475
f 529 458 457
f 621 46 491
f 490 492 473
f 621 491 494
f 494 551 621
f 475 487 493
f 458 412 460
f 500 414 410
f 494 491 487
f 500 814 414
f 495 479 496
f 432 496 479
f 514 1706 497
f 397 498 385
f 160 1706 515
f 385 498 410
f 1706 447 1766
f 498 500 410
f 497 495 484
f 495 496 484
f 416 484 496
f 29 489 499
f 497 484 514
f 515 514 484
f 501 503 504
f 556 501 504
f 416 496 432
f 501 552 503
f 253 109 1706
f 556 504 505
f 507 447 1706
f 510 507 1706
f 509 449 507
f 605 606 506
f 329 1766 447
f 555 510 1706
f 510 509 507
f 511 578 449
f 512 477 474
f 509 511 449
f 474 492 512
f 388 513 389
f 158 484 90
f 477 512 544
f 388 577 513
f 515 1706 514
f 513 517 389
f 463 417 409
f 614 612 516
f 577 530 513
f 519 520 490
f 518 490 520
f 463 415 417
f 457 94 108
f 389 517 392
f 518 520 522
f 518 524 490
f 523 108 106
f 392 525 397
f 106 112 523
f 108 523 526
f 517 525 392
f 490 524 492
f 524 527 492
f 526 457 108
f 457 526 529
f 512 492 527
f 522 635 518
f 458 529 412
f 530 531 513
f 524 518 706
f 112 565 523
f 706 709 524
f 526 523 532
f 524 709 527
f 513 531 517
f 531 534 517
f 523 565 532
f 532 451 526
f 528 533 642
f 517 534 525
f 491 493 487
f 574 44 535
f 468 477 537
f 537 471 468
f 537 538 471
f 535 539 574
f 538 539 535
f 477 544 537
f 475 493 478
f 628 84 543
f 486 84 540
f 349 845 536
f 550 539 538
f 542 485 540
f 486 540 485
f 526 451 529
f 541 545 530
f 84 546 540
f 529 452 412
f 540 546 542
f 565 1034 532
f 530 545 531
f 537 547 538
f 548 534 531
f 487 485 549
f 544 547 537
f 545 548 531
f 547 550 538
f 549 485 542
f 462 501 476
f 548 569 534
f 508 462 476
f 462 465 552
f 462 552 501
f 487 551 494
f 508 470 462
f 158 515 484
f 160 515 158
f 397 525 557
f 555 109 254
f 254 509 555
f 510 555 509
f 10 9 1
f 254 256 509
f 57 1 9
f 509 256 511
f 476 501 554
f 397 557 498
f 557 558 498
f 554 501 556
f 256 141 511
f 557 561 558
f 498 558 500
f 63 1 57
f 564 567 547
f 532 1195 451
f 547 567 550
f 560 557 525
f 525 534 560
f 560 561 557
f 512 562 544
f 527 562 512
f 110 563 112
f 562 564 544
f 561 821 558
f 112 563 565
f 547 544 564
f 1029 563 166
f 1032 565 563
f 768 769 564
f 563 1029 1032
f 564 769 567
f 608 1741 598
f 569 560 534
f 825 561 560
f 568 571 572
f 47 44 574
f 655 569 548
f 571 573 575
f 63 62 1
f 69 1 62
f 574 576 47
f 59 584 69
f 124 125 1741
f 59 70 584
f 577 582 530
f 70 589 586
f 70 480 589
f 589 480 591
f 480 482 593
f 559 590 566
f 593 591 480
f 592 482 595
f 581 554 585
f 585 556 588
f 597 1741 596
f 482 488 595
f 554 556 585
f 541 530 582
f 2 595 488
f 582 594 541
f 25 26 489
f 488 489 26
f 26 7 488
f 488 7 2
f 597 596 590
f 598 597 578
f 559 578 597
f 559 597 590
f 29 25 489
f 590 117 566
f 28 29 499
f 566 117 570
f 553 551 549
f 487 549 551
f 117 239 570
f 502 506 606
f 606 607 502
f 607 693 502
f 605 506 612
f 615 580 579
f 610 1741 609
f 579 583 615
f 617 615 583
f 601 1645 602
f 611 1741 125
f 1643 1645 601
f 609 511 610
f 578 511 609
f 602 581 603
f 1741 610 141
f 603 585 604
f 511 141 610
f 613 986 46
f 581 585 603
f 578 609 608
f 506 516 612
f 580 615 616
f 125 128 611
f 128 590 611
f 46 92 613
f 611 590 596
f 585 588 604
f 578 608 598
f 618 616 516
f 616 615 516
f 615 614 516
f 241 117 590
f 614 615 617
f 128 241 590
f 516 521 619
f 516 619 618
f 160 186 1706
f 608 609 1741
f 551 553 621
f 571 575 572
f 46 621 622
f 46 622 91
f 572 575 623
f 621 1446 622
f 1741 1199 124
f 109 555 1706
f 626 627 624
f 625 624 627
f 631 640 630
f 553 643 621
f 520 519 632
f 520 632 522
f 636 635 629
f 573 633 634
f 546 1004 542
f 633 666 634
f 633 664 666
f 573 634 575
f 635 522 629
f 575 634 637
f 632 629 522
f 630 640 629
f 638 629 639
f 636 629 638
f 639 629 640
f 1446 621 643
f 642 620 528
f 958 620 642
f 32 33 641
f 549 1030 643
f 549 643 553
f 481 483 84
f 467 250 84
f 594 676 541
f 354 358 644
f 653 545 541
f 647 64 649
f 654 548 545
f 545 653 654
f 69 584 1
f 651 650 68
f 654 655 548
f 586 1 584
f 586 589 1
f 1191 1192 626
f 569 655 861
f 591 1 589
f 659 656 658
f 657 658 656
f 634 666 736
f 658 661 659
f 634 736 637
f 645 88 647
f 575 637 623
f 653 660 654
f 660 662 654
f 331 623 637
f 647 88 64
f 660 873 662
f 660 871 873
f 649 64 67
f 655 654 662
f 67 650 649
f 661 663 659
f 224 203 776
f 48 671 291
f 576 671 48
f 203 340 776
f 1067 1068 1788
f 587 670 673
f 1788 1068 656
f 1064 656 1068
f 656 674 1788
f 672 675 293
f 673 594 587
f 676 594 673
f 293 675 296
f 677 963 644
f 593 592 1
f 677 644 678
f 592 595 1
f 593 1 591
f 88 645 668
f 653 541 676
f 963 677 679
f 678 679 677
f 539 680 574
f 678 644 685
f 685 644 346
f 574 680 576
f 680 681 576
f 678 685 679
f 605 583 606
f 583 607 606
f 612 583 605
f 576 681 671
f 683 367 652
f 671 684 672
f 612 614 583
f 681 684 671
f 580 616 646
f 915 675 672
f 618 646 616
f 652 691 683
f 684 915 672
f 617 583 614
f 433 685 346
f 686 700 84
f 619 646 618
f 686 384 683
f 433 679 685
f 687 679 433
f 433 442 687
f 580 19 579
f 18 579 19
f 539 550 694
f 688 682 679
f 18 22 579
f 689 579 22
f 579 689 583
f 687 688 679
f 688 690 682
f 219 690 688
f 652 716 691
f 692 28 499
f 693 692 502
f 499 502 692
f 30 19 646
f 680 539 694
f 19 580 646
f 693 607 22
f 583 689 607
f 427 196 687
f 695 673 670
f 22 607 689
f 687 216 688
f 196 216 687
f 694 696 680
f 694 922 696
f 680 696 681
f 216 219 688
f 695 670 790
f 696 916 681
f 690 221 773
f 550 697 694
f 567 697 550
f 221 224 773
f 673 695 698
f 699 707 1741
f 702 84 700
f 696 924 916
f 771 708 1741
f 683 700 686
f 705 518 635
f 635 636 705
f 771 1741 707
f 703 702 691
f 683 691 702
f 683 702 700
f 705 706 518
f 682 707 699
f 691 710 703
f 668 665 93
f 826 767 709
f 665 1389 713
f 713 93 665
f 669 712 711
f 636 638 705
f 93 713 106
f 719 106 713
f 706 705 723
f 668 94 88
f 711 1791 667
f 94 668 93
f 667 669 711
f 717 718 713
f 709 728 826
f 719 713 718
f 720 638 639
f 718 721 719
f 638 720 705
f 721 724 719
f 724 110 719
f 720 723 705
f 724 727 110
f 728 709 706
f 719 110 112
f 723 728 706
f 719 112 106
f 119 165 110
f 640 1150 720
f 639 640 720
f 1581 1580 731
f 730 733 720
f 734 225 229
f 734 731 225
f 714 726 737
f 666 744 736
f 730 1467 733
f 714 737 716
f 712 715 725
f 229 741 734
f 725 715 729
f 739 691 716
f 729 715 732
f 716 737 739
f 745 735 732
f 664 738 740
f 543 710 739
f 229 292 741
f 691 739 710
f 664 740 666
f 743 732 715
f 742 741 292
f 297 742 292
f 744 666 740
f 745 732 743
f 745 746 735
f 708 704 701
f 543 739 628
f 975 970 747
f 748 755 756
f 748 756 750
f 673 698 676
f 751 361 750
f 720 733 723
f 733 753 723
f 723 753 728
f 754 653 676
f 1188 730 1151
f 730 1466 1467
f 676 698 754
f 653 754 660
f 760 1413 759
f 695 790 835
f 757 237 234
f 745 31 746
f 757 234 752
f 762 1413 760
f 859 858 755
f 761 237 757
f 698 695 759
f 757 766 761
f 760 759 695
f 714 751 750
f 762 760 835
f 760 695 835
f 761 307 299
f 761 766 307
f 750 756 714
f 759 763 867
f 698 759 867
f 751 714 716
f 752 568 764
f 716 652 751
f 698 867 754
f 764 757 752
f 766 757 764
f 527 709 767
f 767 562 527
f 729 1797 1796
f 764 568 572
f 768 564 562
f 767 768 562
f 770 766 764
f 317 307 766
f 729 732 1797
f 764 572 770
f 317 766 770
f 779 232 648
f 572 623 770
f 771 682 690
f 707 682 771
f 321 770 623
f 704 771 690
f 708 771 704
f 623 331 321
f 376 331 637
f 704 773 747
f 637 736 376
f 744 388 736
f 704 690 773
f 388 376 736
f 232 340 648
f 1106 747 776
f 775 1434 8
f 8 10 775
f 773 776 747
f 1799 735 822
f 779 648 780
f 735 746 822
f 232 779 776
f 776 779 780
f 1106 776 780
f 782 781 785
f 273 177 1174
f 789 804 177
f 773 224 776
f 781 795 785
f 793 177 798
f 782 785 783
f 785 772 783
f 789 788 786
f 670 772 790
f 772 785 790
f 797 1741 266
f 254 791 256
f 815 816 1741
f 262 791 254
f 815 1741 797
f 774 973 792
f 797 266 791
f 795 794 799
f 798 796 793
f 786 778 817
f 815 797 791
f 1679 1680 805
f 297 405 805
f 263 1706 807
f 807 806 809
f 297 805 742
f 789 786 804
f 824 800 765
f 809 262 807
f 824 849 800
f 849 801 800
f 786 817 804
f 405 414 812
f 809 811 262
f 798 177 813
f 805 405 812
f 378 337 787
f 811 791 262
f 784 787 337
f 829 796 813
f 798 813 796
f 414 814 812
f 378 787 1325
f 796 829 571
f 816 815 811
f 815 791 811
f 796 571 568
f 804 823 177
f 1597 1598 814
f 801 864 802
f 114 834 102
f 1325 818 378
f 154 856 113
f 820 814 500
f 802 865 803
f 567 819 697
f 864 865 802
f 769 819 567
f 820 500 558
f 803 868 808
f 821 820 558
f 177 841 114
f 841 177 823
f 769 831 819
f 825 560 569
f 817 823 804
f 768 767 827
f 813 177 828
f 826 827 767
f 813 828 829
f 827 830 768
f 827 838 830
f 851 113 856
f 768 830 769
f 792 777 774
f 1331 913 818
f 799 785 795
f 785 799 832
f 830 831 769
f 1391 1434 1
f 833 826 728
f 785 832 790
f 753 833 728
f 790 832 835
f 833 836 826
f 10 1 775
f 841 842 114
f 826 836 827
f 799 855 832
f 836 838 827
f 838 844 830
f 834 114 843
f 842 843 114
f 830 844 831
f 843 842 837
f 817 837 842
f 753 1496 833
f 794 41 847
f 795 41 794
f 781 41 795
f 1499 836 833
f 822 824 765
f 841 823 817
f 824 854 849
f 842 841 817
f 850 847 846
f 849 864 801
f 177 113 852
f 850 799 847
f 794 847 799
f 852 828 177
f 853 829 851
f 824 822 749
f 746 749 822
f 860 1413 762
f 851 829 852
f 828 852 829
f 852 113 851
f 697 819 935
f 855 799 850
f 56 755 917
f 854 824 749
f 854 857 849
f 759 1413 763
f 858 859 1450
f 849 857 864
f 756 755 858
f 900 1413 899
f 832 897 835
f 749 280 854
f 832 855 897
f 854 348 857
f 569 861 825
f 854 280 348
f 348 366 857
f 811 905 816
f 857 366 879
f 762 835 860
f 860 835 899
f 230 231 1693
f 950 1693 231
f 882 883 1778
f 900 899 897
f 835 897 899
f 863 1693 862
f 287 288 1693
f 861 655 869
f 655 662 869
f 889 890 1778
f 825 861 1644
f 763 877 867
f 275 866 1706
f 894 806 1706
f 236 863 870
f 867 871 754
f 862 870 863
f 238 863 236
f 883 886 1778
f 869 1474 861
f 862 1693 872
f 754 871 660
f 868 803 865
f 870 862 872
f 662 874 869
f 888 957 644
f 877 878 867
f 871 876 873
f 662 873 874
f 763 1413 877
f 889 1778 886
f 877 1413 878
f 864 879 865
f 857 879 864
f 880 874 873
f 371 1778 890
f 873 876 880
f 644 884 888
f 884 644 279
f 880 1506 874
f 881 867 878
f 868 865 882
f 881 885 867
f 907 1741 904
f 883 882 865
f 708 701 1741
f 879 883 865
f 867 885 871
f 886 883 879
f 895 896 866
f 885 876 871
f 908 911 876
f 807 1706 806
f 987 989 882
f 885 908 876
f 887 859 56
f 858 1450 722
f 884 875 888
f 722 726 858
f 756 858 726
f 371 890 366
f 879 890 889
f 879 889 886
f 726 714 756
f 885 903 908
f 816 905 1741
f 970 1741 701
f 702 703 84
f 860 899 1413
f 894 866 896
f 486 481 84
f 896 895 898
f 891 982 892
f 898 809 894
f 898 894 896
f 710 84 703
f 84 710 543
f 809 806 894
f 900 918 1413
f 722 1667 726
f 920 921 1413
f 901 811 809
f 876 911 880
f 902 878 1413
f 901 809 898
f 881 878 902
f 904 1741 905
f 949 1413 948
f 909 910 1343
f 901 904 811
f 905 811 904
f 907 904 901
f 906 910 909
f 373 818 913
f 850 912 855
f 944 1741 975
f 373 913 906
f 1526 880 911
f 918 920 1413
f 819 831 994
f 993 995 903
f 819 994 935
f 908 903 995
f 897 855 914
f 912 914 855
f 998 739 737
f 998 1014 739
f 916 684 681
f 917 1396 345
f 916 919 684
f 917 755 1397
f 853 851 856
f 684 919 915
f 829 853 573
f 921 920 914
f 918 897 920
f 914 920 897
f 853 960 633
f 925 927 1343
f 829 573 571
f 925 1343 848
f 948 1413 921
f 922 694 697
f 349 455 923
f 696 922 924
f 349 923 845
f 916 926 919
f 924 926 916
f 934 1343 928
f 928 1343 927
f 845 927 925
f 845 925 848
f 897 918 900
f 909 1343 934
f 932 1413 931
f 902 1413 929
f 960 853 959
f 856 959 853
f 927 845 923
f 928 927 923
f 573 853 633
f 929 881 902
f 930 881 929
f 455 906 923
f 778 1185 1187
f 929 1413 932
f 923 934 928
f 931 930 932
f 929 932 930
f 935 922 697
f 923 906 934
f 933 936 1187
f 922 937 924
f 909 934 906
f 931 988 930
f 935 937 922
f 778 1187 936
f 924 938 926
f 903 885 881
f 778 936 817
f 937 938 924
f 933 943 936
f 933 941 943
f 936 837 817
f 944 1317 942
f 936 943 837
f 287 1693 950
f 939 1131 941
f 283 226 223
f 941 1133 943
f 834 118 102
f 872 1693 288
f 948 1357 949
f 914 1357 948
f 953 954 834
f 153 961 154
f 283 287 950
f 226 283 950
f 948 921 914
f 940 619 952
f 521 952 619
f 328 870 288
f 872 288 870
f 943 951 837
f 990 930 988
f 993 903 990
f 118 834 954
f 953 834 843
f 881 930 903
f 952 955 840
f 930 990 903
f 840 940 952
f 1343 840 956
f 347 875 870
f 954 953 951
f 837 951 953
f 328 347 870
f 962 118 954
f 956 955 620
f 521 620 955
f 956 958 1343
f 931 1413 988
f 963 964 644
f 952 521 955
f 964 895 866
f 843 837 953
f 958 956 620
f 959 154 961
f 888 875 957
f 965 958 642
f 856 154 959
f 354 644 957
f 959 961 960
f 354 957 347
f 875 347 957
f 955 956 840
f 951 1133 971
f 866 644 964
f 965 1343 958
f 146 1053 153
f 413 774 393
f 965 1045 1343
f 895 964 898
f 951 962 954
f 1046 1343 1045
f 964 963 679
f 679 898 964
f 951 971 962
f 977 41 792
f 459 46 967
f 679 682 898
f 967 966 969
f 961 153 968
f 898 682 901
f 961 968 960
f 960 664 633
f 699 1741 907
f 947 946 1031
f 1047 1031 946
f 969 413 967
f 970 975 1741
f 1042 118 974
f 413 969 973
f 699 907 901
f 1042 1043 105
f 704 970 701
f 808 868 972
f 699 901 682
f 971 974 962
f 704 747 970
f 774 413 973
f 968 153 976
f 976 153 1053
f 944 975 1317
f 968 976 979
f 972 810 808
f 972 980 810
f 792 973 977
f 989 972 868
f 152 1056 1053
f 976 1053 979
f 989 996 972
f 345 52 917
f 972 996 980
f 917 52 56
f 810 980 891
f 980 982 891
f 859 755 56
f 1195 532 1034
f 1162 977 973
f 985 1781 978
f 982 1002 892
f 983 985 978
f 987 882 1778
f 868 882 989
f 1778 1000 987
f 991 1413 992
f 1016 84 1014
f 988 991 990
f 991 992 990
f 935 997 937
f 994 997 935
f 997 999 937
f 938 937 999
f 1010 999 997
f 989 987 1000
f 990 1417 993
f 831 1001 994
f 844 1001 831
f 1014 84 628
f 1417 1419 993
f 892 1002 893
f 1001 1003 994
f 1004 84 1005
f 1002 1006 893
f 546 84 1004
f 985 455 349
f 1012 1006 1002
f 980 1008 982
f 994 1003 997
f 542 1004 1011
f 996 1008 980
f 1003 1010 997
f 1008 1012 982
f 984 1013 1007
f 1005 1011 1004
f 984 1009 1013
f 1002 982 1012
f 1007 1013 1015
f 1006 1012 1039
f 21 34 1001
f 1006 1040 945
f 1005 84 1017
f 1001 34 1003
f 34 50 1003
f 628 739 1014
f 1003 50 1010
f 1016 1014 998
f 50 298 1010
f 1009 1018 1019
f 1005 1017 1011
f 1009 1019 1013
f 46 986 1070
f 1013 1019 1021
f 879 366 890
f 450 1778 1024
f 643 1030 1446
f 402 1000 1778
f 1013 1021 1015
f 1000 402 989
f 404 989 402
f 1035 1272 1446
f 1022 400 1020
f 989 1023 996
f 1026 542 1011
f 404 1023 989
f 450 1024 1025
f 1023 1027 996
f 1018 1119 1019
f 996 1027 1008
f 542 1026 549
f 1023 404 428
f 168 304 1028
f 1023 453 1027
f 1072 1028 308
f 304 308 1028
f 428 453 1023
f 1070 986 1142
f 1028 166 168
f 966 46 1070
f 967 46 966
f 1028 1029 166
f 1047 946 945
f 1035 1446 1030
f 1177 1049 648
f 947 1031 1033
f 1034 565 1032
f 1032 1075 984
f 1032 984 1034
f 300 1180 648
f 968 979 960
f 533 536 1037
f 979 664 960
f 1031 1062 1078
f 1044 105 1043
f 1031 1078 1033
f 1049 1050 648
f 1037 642 533
f 1041 1048 648
f 1343 1046 1055
f 1006 1039 1040
f 1046 1045 1037
f 642 1037 1045
f 945 1040 1047
f 1113 648 1048
f 1112 648 1113
f 1044 1043 1038
f 971 1038 1043
f 1039 1057 1040
f 1041 1036 1048
f 642 1045 965
f 1008 1093 1012
f 1043 1042 971
f 974 971 1042
f 1051 648 1050
f 1093 1052 1012
f 845 1037 536
f 1050 1049 1054
f 1343 1055 848
f 1012 1052 1039
f 1037 1055 1046
f 1058 979 1056
f 1053 1056 979
f 848 1055 845
f 1037 845 1055
f 839 646 840
f 1052 1057 1039
f 1056 152 1059
f 1049 1177 1054
f 1040 1057 1060
f 646 619 840
f 1056 1059 1058
f 1040 1060 1047
f 979 1058 738
f 1074 1413 1061
f 1054 981 1050
f 1047 1062 1031
f 1079 1413 1074
f 940 840 619
f 1024 1132 1025
f 549 1026 1030
f 1035 1030 1026
f 839 1505 646
f 1065 1066 632
f 450 1025 441
f 1162 41 977
f 1025 1063 441
f 657 1064 632
f 41 1161 1164
f 1065 632 1067
f 1067 632 1068
f 441 1063 446
f 1068 632 1064
f 1047 1060 1062
f 915 1120 675
f 1020 675 1120
f 1028 1073 1029
f 992 1413 1079
f 1072 1073 1028
f 1029 1073 1075
f 1123 1022 1020
f 1060 1087 1062
f 1029 1075 1032
f 11 1033 1078
f 992 1079 990
f 1078 1089 58
f 1025 1139 1063
f 1081 990 1079
f 1134 1139 1025
f 1078 58 11
f 1083 1791 1071
f 1125 58 1089
f 1084 456 446
f 1076 1081 1074
f 1079 1074 1081
f 1081 1417 990
f 1084 446 1063
f 1057 1085 1060
f 1084 1086 456
f 1085 1087 1060
f 1078 1062 1089
f 1062 1087 1089
f 1091 1087 1085
f 1090 1084 1063
f 1090 1092 1084
f 1090 1095 1092
f 1084 1092 1086
f 1089 1087 1121
f 1034 984 1007
f 309 310 1072
f 1073 1072 1099
f 1027 1093 1008
f 453 1094 1027
f 1094 1093 1027
f 1096 310 311
f 1094 1098 1093
f 1096 1072 310
f 1095 1267 1275
f 1097 97 83
f 1099 1072 1096
f 1104 1096 1107
f 1093 1098 1052
f 1180 1181 648
f 1098 1100 1052
f 1640 1303 1097
f 1075 1073 1101
f 1098 1108 1115
f 1098 1115 1100
f 1073 1099 1101
f 1052 1100 1057
f 1075 1101 1009
f 1097 1102 97
f 1103 1094 453
f 1112 1114 648
f 1075 1009 984
f 1097 1303 1102
f 453 456 1103
f 1102 1105 97
f 1096 312 1107
f 311 312 1096
f 1108 1094 1103
f 1107 1109 1104
f 1096 1104 1110
f 1098 1094 1108
f 1104 1228 1110
f 1096 1110 1099
f 1099 1110 1111
f 1101 1099 1111
f 1018 1009 1101
f 1111 1018 1101
f 1086 1103 456
f 1110 1230 1111
f 1100 1085 1057
f 1100 1116 1085
f 1100 1115 1116
f 1117 1018 1111
f 1116 1091 1085
f 1778 1022 1123
f 1103 1154 1108
f 979 738 664
f 1159 1425 1038
f 1115 1158 1116
f 105 1044 1429
f 1091 1121 1087
f 1038 1429 1044
f 1124 1778 1123
f 1038 1425 1429
f 1089 1121 1125
f 1153 1136 1778
f 1124 1123 1120
f 1059 1462 1058
f 1020 1120 1123
f 70 58 1125
f 480 70 1125
f 1124 1149 1778
f 1091 1116 1322
f 1131 939 1129
f 1136 1132 1778
f 1778 1132 1024
f 1125 1121 1326
f 1133 941 1131
f 1134 1025 1132
f 1326 480 1125
f 951 943 1133
f 461 663 1137
f 1132 1136 1134
f 659 663 461
f 1141 1142 986
f 1129 1140 1131
f 1139 1090 1063
f 473 461 1143
f 1137 1143 461
f 1129 1138 1140
f 1143 1144 473
f 1131 1140 1145
f 1120 915 1166
f 1144 1146 473
f 1159 1145 1140
f 915 919 1166
f 490 1146 1147
f 1142 1141 1148
f 1147 519 490
f 1131 1145 1133
f 730 720 1150
f 1133 1145 971
f 1120 1149 1124
f 730 1150 1151
f 1166 1149 1120
f 1148 969 1070
f 1148 1070 1142
f 1103 1086 1154
f 966 1070 969
f 1138 1152 1156
f 1155 1115 1108
f 1106 1112 1036
f 1113 1036 1112
f 973 969 1157
f 1108 1154 1155
f 1106 1114 1112
f 1158 1115 1155
f 1138 1156 1140
f 1140 1156 1159
f 1136 1153 1134
f 1145 1038 971
f 1134 1264 1139
f 1159 1038 1145
f 969 1148 1157
f 1160 1154 1086
f 1086 1092 1160
f 1264 1267 1139
f 1161 41 1162
f 82 1152 1265
f 1163 1155 1154
f 1164 1318 41
f 1154 1160 1163
f 1152 82 95
f 1165 846 41
f 846 847 41
f 1152 95 1156
f 1157 1161 973
f 1162 973 1161
f 1157 1164 1161
f 846 1165 850
f 135 1159 1156
f 1155 1421 1158
f 1695 1732 1237
f 1242 1244 1732
f 788 177 1171
f 1171 177 398
f 1149 1168 1778
f 360 1169 362
f 1160 1092 1170
f 360 1167 1169
f 1168 1149 1166
f 1092 1095 1170
f 1170 1424 1160
f 789 177 788
f 1252 1778 1735
f 1172 1153 1778
f 1171 398 1169
f 1173 1153 1172
f 1163 1160 1424
f 1174 177 793
f 1095 1275 1176
f 273 1174 1175
f 1095 1176 1170
f 1175 270 273
f 998 1625 1016
f 752 270 1175
f 1036 1113 1048
f 1539 1011 1536
f 1017 1536 1011
f 270 752 234
f 1178 1054 1177
f 1167 778 786
f 1169 1167 786
f 1179 1566 1176
f 1181 1177 648
f 1169 786 788
f 1180 1178 1181
f 1177 1181 1178
f 1171 1169 788
f 1179 1387 1182
f 1054 1178 369
f 1174 793 1175
f 302 369 1178
f 796 1175 793
f 1182 1585 1179
f 1054 369 1077
f 1175 568 752
f 1175 796 568
f 1077 370 454
f 424 1183 426
f 369 370 1077
f 424 1229 1183
f 1273 1126 1122
f 1182 1395 1184
f 426 1185 429
f 426 1183 1185
f 1186 1183 1229
f 1183 1187 1185
f 780 648 1114
f 1183 1186 1187
f 1185 778 1167
f 780 1114 1106
f 302 1178 300
f 1180 300 1178
f 631 1192 1193
f 1051 1050 981
f 1018 1117 1119
f 604 588 1118
f 1054 1077 981
f 1197 1019 1119
f 1191 1196 1466
f 1194 1466 1196
f 1192 1191 1466
f 1080 1082 1118
f 588 1080 1118
f 981 1077 983
f 1197 1021 1019
f 1077 454 983
f 983 454 985
f 985 454 455
f 1204 1119 1117
f 1117 1202 1204
f 1119 1206 1197
f 1201 1741 1210
f 1199 1741 1201
f 1199 1201 1200
f 1203 1213 1198
f 1564 1567 1203
f 1206 1119 1204
f 1568 1208 1203
f 1200 1205 128
f 1213 1203 1208
f 1243 1207 1202
f 1202 1207 1209
f 1741 1217 1210
f 1201 1210 1200
f 1202 1209 1204
f 1252 1172 1778
f 1204 1212 1206
f 1204 1209 1212
f 1153 1173 1134
f 1200 1214 1205
f 1213 1208 1215
f 1208 1226 1215
f 1216 1741 1222
f 1210 1217 1214
f 1200 1210 1214
f 1727 1728 1211
f 1216 1214 1217
f 1728 1729 1211
f 1212 1209 1294
f 1729 1731 1211
f 1214 1218 1205
f 451 1220 452
f 1109 1223 1104
f 1224 1104 1223
f 1223 1225 1224
f 451 1195 1220
f 1219 1226 1208
f 1222 1221 1227
f 1229 452 1220
f 1228 1104 1224
f 1110 1228 1230
f 1731 1733 1211
f 1215 1226 1231
f 1216 1222 1214
f 1227 1214 1222
f 1034 1007 1195
f 1733 599 1211
f 1117 1111 1230
f 1220 1195 1232
f 1214 1233 1218
f 599 600 1211
f 1227 1233 1214
f 600 601 1211
f 1232 1195 1007
f 601 602 1211
f 1220 1232 1236
f 602 603 1211
f 1173 1264 1134
f 1225 1235 1224
f 603 604 1211
f 1241 1228 1224
f 604 1118 1211
f 1220 1236 1229
f 1082 1211 1118
f 1186 1229 1236
f 1328 1237 1245
f 1243 1202 1230
f 1230 1202 1117
f 1240 1235 1239
f 1211 1082 1088
f 919 1238 1166
f 1232 1007 1015
f 1235 1240 1224
f 1238 919 926
f 1224 1240 1241
f 1242 1778 1168
f 1230 1228 1243
f 1237 1732 1245
f 1244 1245 1732
f 1228 1241 1243
f 1798 1799 1211
f 1799 765 1211
f 1249 1186 1236
f 765 800 1211
f 1246 1240 315
f 314 315 1240
f 1239 314 1240
f 933 1186 1249
f 1245 1244 1238
f 1166 1238 1244
f 800 801 1211
f 316 1246 315
f 1236 1232 1247
f 801 802 1211
f 1240 1246 1248
f 802 803 1211
f 803 808 1211
f 1247 1232 1015
f 1236 1247 1249
f 808 810 1211
f 1240 1248 1241
f 810 891 1211
f 1241 1248 1250
f 891 892 1211
f 1168 1166 1242
f 892 893 1211
f 1186 933 1187
f 1244 1242 1166
f 1241 1250 1243
f 893 1805 1211
f 1251 1735 1255
f 1805 1800 1211
f 1243 1250 1207
f 1253 1247 1015
f 1800 1801 1211
f 1015 1021 1253
f 1254 1173 1251
f 1251 1173 1252
f 1172 1252 1173
f 1801 1802 1211
f 939 1249 1247
f 1802 1803 1211
f 939 1247 1253
f 1249 939 941
f 1255 1254 1251
f 1248 1246 1332
f 1249 941 933
f 1385 1211 758
f 1256 1207 1250
f 1257 1253 1021
f 1021 1197 1257
f 1256 1250 1334
f 1253 1257 1129
f 1259 1207 1256
f 1138 1129 1257
f 1207 1259 1209
f 1129 939 1253
f 1328 1245 1238
f 1197 1260 1257
f 1197 1206 1260
f 1255 1335 1254
f 1337 1254 1335
f 1257 1260 1138
f 1152 1138 1260
f 1206 1212 1265
f 1265 1260 1206
f 1267 1090 1139
f 1231 1369 1262
f 1260 1265 1152
f 277 1265 1212
f 1267 1095 1090
f 1254 1268 1173
f 1234 1298 1218
f 1233 1269 1234
f 1233 1234 1218
f 1221 1311 1227
f 1316 1306 41
f 1271 1219 79
f 1272 1543 1446
f 1226 1219 1271
f 1173 1268 1264
f 1272 1035 1026
f 1268 1274 1264
f 1264 1274 1267
f 1274 1275 1267
f 1122 1266 1273
f 1276 740 738
f 1387 1275 1274
f 1273 1127 1126
f 1273 1128 1127
f 1312 41 1307
f 1273 1130 1128
f 1278 1190 1657
f 1273 1135 1130
f 241 1205 1279
f 1276 738 1270
f 1279 1205 1218
f 1273 1190 1278
f 1279 245 241
f 1273 1261 1190
f 1280 744 740
f 1279 1281 245
f 1261 1273 1263
f 1280 740 1276
f 1273 1081 1076
f 1263 1273 1266
f 744 1280 577
f 1279 1287 1281
f 388 744 577
f 1281 1283 248
f 1273 1423 1420
f 199 281 1284
f 1273 1258 1423
f 1464 1286 1270
f 1293 1295 1273
f 1293 1273 1285
f 1218 1287 1279
f 1312 1313 41
f 1273 1416 1285
f 1282 1277 1284
f 1289 41 1288
f 1290 1307 41
f 1289 1290 41
f 1290 1289 1270
f 1278 1284 1277
f 1284 1278 1657
f 1281 1292 1283
f 1291 1276 1288
f 1289 1288 1276
f 1190 1660 1657
f 1261 1632 1190
f 1292 1281 1287
f 1294 1209 1259
f 277 1212 1294
f 1292 978 1283
f 1294 326 277
f 1297 1256 1334
f 1256 1300 1259
f 1297 1300 1256
f 1299 281 294
f 1294 1259 1302
f 1287 1218 1298
f 1300 1302 1259
f 1303 1640 1301
f 1051 1304 648
f 1304 981 1298
f 326 1294 1302
f 1270 1289 1276
f 1287 1298 981
f 1427 1305 1296
f 1313 1314 41
f 1298 648 1304
f 41 1356 1315
f 1304 1051 981
f 1296 1305 1299
f 1288 41 1306
f 1299 1282 281
f 981 1292 1287
f 1270 1286 1290
f 1305 1282 1299
f 1258 1273 1301
f 981 983 1292
f 1273 1303 1301
f 1292 983 978
f 1291 1288 1306
f 1273 1102 1303
f 1307 1290 1286
f 1273 1105 1102
f 1276 1291 1347
f 1273 134 1105
f 1273 136 134
f 1273 138 136
f 1276 1347 1280
f 1273 176 138
f 944 942 1741
f 582 577 1280
f 1273 179 176
f 1273 192 179
f 1273 194 192
f 986 1308 1141
f 1221 1741 1311
f 1222 1741 1221
f 1217 1741 1216
f 942 1311 1741
f 1273 195 194
f 1309 1286 12
f 1273 196 195
f 1273 216 196
f 12 61 1309
f 1273 219 216
f 1314 1363 41
f 221 219 1273
f 1234 1269 648
f 1298 1234 648
f 1141 1308 1148
f 1316 41 1315
f 1273 224 221
f 1317 1227 1311
f 1314 1313 1309
f 1286 1309 1313
f 1273 784 208
f 1273 787 784
f 1311 942 1317
f 1273 1325 787
f 1273 1331 1325
f 1286 1313 1312
f 648 1269 1319
f 1306 1316 1291
f 1227 1036 1233
f 1286 1312 1307
f 1317 1036 1227
f 1164 1157 1318
f 648 1319 1041
f 1233 1319 1269
f 1041 1319 1233
f 1157 1333 1318
f 1041 1233 1036
f 1317 975 747
f 1418 1282 1305
f 1317 1106 1036
f 747 1106 1317
f 1297 1320 1323
f 1091 1324 1121
f 1324 1091 1322
f 1325 1331 818
f 1297 1323 1300
f 1326 1121 1324
f 203 224 1273
f 1321 1299 294
f 1324 1402 1326
f 1321 1296 1299
f 1273 208 203
f 361 1302 1300
f 361 1300 1323
f 364 1302 361
f 938 1327 926
f 1302 364 326
f 1238 926 1327
f 1713 1237 1329
f 1328 1329 1237
f 718 717 1
f 718 1 721
f 750 361 1323
f 1329 1328 1327
f 319 320 1330
f 1238 1327 1328
f 1318 1340 41
f 1344 1327 938
f 316 319 1246
f 1336 1165 41
f 1340 1336 41
f 1330 1246 319
f 1246 1330 1332
f 1330 1341 1332
f 1331 1295 913
f 1148 1333 1157
f 1248 1334 1250
f 1248 1332 1334
f 1339 1752 1353
f 1338 850 1336
f 1165 1336 850
f 320 324 1330
f 1331 1273 1295
f 1335 1339 1337
f 1341 1330 327
f 1332 1342 1334
f 1333 1338 1340
f 1340 1318 1333
f 999 1344 938
f 1332 1341 1342
f 1336 1340 1338
f 1334 1342 1297
f 850 1338 912
f 1345 1329 1327
f 1346 1338 1333
f 1348 1345 1344
f 1327 1344 1345
f 1457 1349 1458
f 1338 1350 912
f 1353 1752 1352
f 1346 1350 1338
f 582 1280 1347
f 1353 1352 1354
f 1350 1357 912
f 1349 1351 1465
f 914 912 1357
f 1749 1367 1366
f 1293 1465 1355
f 1355 1295 1293
f 1315 1356 1358
f 1354 1337 1353
f 1339 1353 1337
f 1378 41 1363
f 1285 1465 1293
f 1291 1316 1358
f 1315 1358 1316
f 1359 1344 999
f 1347 1291 587
f 999 1010 1359
f 1069 1357 1350
f 1291 1358 587
f 1360 1361 1701
f 1361 1362 1701
f 1347 587 594
f 1701 1713 1360
f 1347 594 582
f 1367 1749 1372
f 986 1446 1308
f 1362 1361 1359
f 1344 1359 1361
f 1351 1343 910
f 1309 1363 1314
f 1356 1377 1358
f 1370 1446 1375
f 1361 1360 1344
f 1360 1348 1344
f 1226 1365 1231
f 1378 1363 1374
f 1309 1374 1363
f 1271 1365 1226
f 670 587 1358
f 1371 1373 641
f 1366 1367 1354
f 1352 1366 1354
f 1365 1369 1231
f 1368 1354 1367
f 1308 1446 1310
f 49 641 1373
f 1262 1373 1371
f 1367 1372 1368
f 1374 61 393
f 1368 1399 1354
f 1375 1446 1405
f 1381 1382 41
f 1370 1376 1310
f 1375 1376 1370
f 49 1373 1369
f 1262 1369 1373
f 1381 41 1378
f 783 1379 41
f 41 1377 1356
f 721 1 724
f 119 727 1
f 1010 298 1359
f 724 1 727
f 1271 1380 1365
f 1358 1377 772
f 303 1701 1362
f 1365 116 1369
f 303 1362 1359
f 1380 116 1365
f 792 41 777
f 1211 645 647
f 116 130 1369
f 41 1379 1377
f 1359 298 303
f 1211 647 649
f 49 1369 131
f 1372 1749 352
f 1211 649 650
f 772 1377 1379
f 650 651 1211
f 772 670 1358
f 87 1271 79
f 1372 352 1368
f 17 1211 651
f 1271 87 1380
f 777 41 1382
f 355 1368 352
f 17 20 1211
f 1374 393 774
f 355 559 1368
f 1211 20 23
f 23 27 1211
f 1368 559 1399
f 1268 1254 1383
f 87 100 1380
f 100 101 1380
f 777 1382 774
f 1383 1254 1337
f 1383 1384 1268
f 1211 1386 645
f 1383 1394 1384
f 1211 1385 1386
f 641 198 32
f 1393 1394 1383
f 1274 1268 1384
f 1386 1385 665
f 1297 1342 1320
f 1384 1387 1274
f 1386 665 668
f 668 645 1386
f 1389 665 1385
f 327 1388 1341
f 327 336 1388
f 1341 1388 1390
f 1275 1179 1176
f 1387 1179 1275
f 1341 1390 1342
f 1393 1383 1337
f 1409 1364 1398
f 1354 1393 1337
f 1320 1342 1390
f 116 1380 101
f 342 1388 336
f 1388 1396 1390
f 1388 342 1396
f 913 1355 906
f 1397 1320 1390
f 1148 1308 1376
f 1310 1376 1308
f 1394 1395 1384
f 1376 1333 1148
f 1394 1451 1395
f 1384 1395 1387
f 906 1355 1351
f 910 906 1351
f 1390 1396 1397
f 1182 1387 1395
f 1320 1397 748
f 1446 1398 1364
f 1355 913 1295
f 1320 748 1323
f 748 750 1323
f 342 345 1396
f 1083 1071 632
f 632 1066 1083
f 1401 1324 1322
f 1396 917 1397
f 1364 1408 1404
f 755 748 1397
f 1405 1364 1404
f 1406 1403 556
f 588 556 1403
f 505 1406 556
f 1402 1324 1401
f 37 19 350
f 1375 1405 1376
f 1402 482 1326
f 30 350 19
f 1403 1071 588
f 1080 588 1071
f 1407 1376 1404
f 1404 1376 1405
f 40 314 39
f 1235 1225 22
f 1408 1364 1409
f 1326 482 480
f 312 1 1107
f 1223 1109 22
f 1401 1411 1412
f 1410 911 908
f 1401 1412 1402
f 713 1391 1392
f 1389 1391 713
f 22 1109 1
f 1107 1 1109
f 488 482 1402
f 908 995 1410
f 717 713 1392
f 488 1402 1412
f 1223 22 1225
f 1389 1385 758
f 22 39 314
f 1235 22 1239
f 1239 22 314
f 1389 758 1808
f 36 37 324
f 323 324 37
f 1411 1415 1412
f 324 40 36
f 1389 1808 1391
f 1411 1414 1415
f 991 988 1413
f 1374 774 1382
f 1374 1381 1378
f 1382 1381 1374
f 1379 783 772
f 1412 489 488
f 489 1412 1415
f 781 782 41
f 782 783 41
f 1513 104 103
f 995 993 1419
f 103 105 1513
f 499 489 1415
f 1418 1277 1282
f 104 1514 107
f 1158 1322 1116
f 1155 1163 1421
f 1524 1525 143
f 1419 1420 995
f 1416 1273 1418
f 1273 1277 1418
f 1278 1277 1273
f 1420 1410 995
f 1421 1422 1158
f 1420 1423 1410
f 1421 1428 1422
f 1322 1158 1422
f 1422 1401 1322
f 1421 1163 1426
f 1418 1305 1416
f 1425 1159 135
f 1163 1424 1426
f 1428 1421 1426
f 1417 1081 1273
f 1426 1432 1428
f 1419 1417 1273
f 1422 1411 1401
f 1273 1420 1419
f 1427 1416 1305
f 1435 105 1429
f 1427 1285 1416
f 1422 1428 1411
f 1170 1176 1430
f 1176 1566 1430
f 1524 143 155
f 1170 1430 1424
f 1069 1135 1273
f 1426 1424 1431
f 1461 1462 152
f 1424 1430 1431
f 1273 1076 1069
f 1 1392 1391
f 717 1392 1
f 1432 1426 1431
f 1523 4 161
f 1414 1428 1432
f 155 1433 1528
f 107 1522 161
f 1414 1411 1428
f 105 1515 1513
f 1403 632 1071
f 775 1 1434
f 1515 105 1435
f 1403 1406 632
f 632 1406 505
f 1577 1432 1431
f 1437 1505 1343
f 1436 1437 1343
f 1432 1439 1414
f 1606 1438 1610
f 1415 1414 1440
f 1354 1399 1393
f 1370 1310 1446
f 1442 1441 1444
f 1399 1447 1393
f 1448 1438 1663
f 613 1446 986
f 1435 1429 1425
f 613 92 1446
f 1399 566 1447
f 218 1450 217
f 1393 1447 1394
f 91 622 1446
f 1447 1451 1394
f 1651 1450 228
f 1184 1395 1451
f 1452 1454 1453
f 1472 1321 1444
f 1452 1453 1449
f 1343 1455 1456
f 1455 1343 1457
f 1457 1458 1455
f 1456 1455 1458
f 1453 1459 1449
f 1351 1349 1343
f 1459 1460 1449
f 1438 1449 1460
f 1440 1414 1439
f 1458 1472 1456
f 1059 152 1462
f 1472 1458 1296
f 1399 559 566
f 1458 1427 1296
f 570 1451 1447
f 1460 1629 1463
f 1457 1343 1349
f 566 570 1447
f 1629 1644 1463
f 1462 1461 1464
f 570 235 1451
f 1465 1458 1349
f 235 1184 1451
f 1351 1355 1465
f 1438 1460 1463
f 1188 1189 1466
f 1438 1463 1471
f 1193 1192 1189
f 142 143 1525
f 1458 1465 1427
f 1527 152 1525
f 142 1525 152
f 730 1188 1466
f 1427 1465 1285
f 1438 1471 1479
f 1461 152 1527
f 1466 1475 1467
f 1469 1343 1468
f 1470 1343 1469
f 1441 1442 1343
f 1470 1441 1343
f 1463 1644 1471
f 1433 1533 1528
f 1469 1468 1472
f 733 1473 753
f 1468 1343 1456
f 1467 1473 733
f 1468 1456 1472
f 1480 1488 1438
f 1364 1405 1446
f 1472 1444 1469
f 1470 1469 1444
f 1441 1470 1444
f 1496 753 1473
f 1466 1189 1192
f 1466 1194 1475
f 1467 1477 1473
f 1472 1296 1321
f 1475 1477 1467
f 1483 1436 1482
f 1481 1482 1436
f 1482 1481 327
f 1474 1480 1479
f 333 1483 1482
f 333 1482 327
f 1409 1398 1408
f 1400 1408 1398
f 1474 1488 1480
f 1486 1488 1474
f 1407 1408 1400
f 1479 1471 1644
f 1490 1477 1475
f 1404 1408 1407
f 1376 1485 1333
f 1486 1474 869
f 1376 1407 1485
f 1484 470 508
f 869 874 1486
f 1333 1485 1346
f 1194 1487 1475
f 1489 1438 1488
f 1464 1461 1525
f 1194 1198 1487
f 1484 731 470
f 336 327 1491
f 1481 1491 327
f 1487 1490 1475
f 1492 1491 1436
f 1494 1493 1343
f 1486 1489 1488
f 1487 1634 1490
f 874 1506 1486
f 1491 1481 1436
f 1491 1492 336
f 1213 1487 1198
f 341 336 1493
f 1492 1493 336
f 1436 1343 1492
f 1493 1492 1343
f 1213 1634 1487
f 1479 1480 1438
f 1058 1462 1464
f 1495 1511 1438
f 341 1493 1494
f 1495 1438 1489
f 175 220 1508
f 1489 1486 1495
f 222 1478 1476
f 1494 1343 1497
f 1442 1500 1343
f 220 222 1476
f 1497 341 1494
f 222 225 1478
f 833 1496 1499
f 1498 341 1497
f 1497 1343 1500
f 1496 1509 1499
f 1478 225 1484
f 1497 1500 1498
f 1484 225 731
f 1511 1512 1438
f 1501 838 836
f 836 1499 1501
f 1444 1498 1442
f 1500 1442 1498
f 1505 839 1343
f 350 1437 1436
f 333 350 1436
f 333 1436 1483
f 1503 301 1504
f 839 840 1343
f 1473 1477 1507
f 30 1505 350
f 1437 350 1505
f 1504 1508 1502
f 30 646 1505
f 1507 1496 1473
f 1507 1509 1496
f 1501 1499 1510
f 1270 1058 1464
f 1510 1499 1509
f 1511 1495 1486
f 1128 1485 1407
f 1058 1270 738
f 1512 1511 1506
f 1511 1486 1506
f 1413 949 1061
f 1512 1518 1438
f 35 3 178
f 1507 1519 1509
f 949 1357 1061
f 135 3 1425
f 104 1513 1514
f 1509 1521 1510
f 1135 1346 1130
f 880 1526 1506
f 1346 1135 1350
f 1516 107 1514
f 1433 159 1530
f 1532 1433 1531
f 1520 1438 1518
f 1533 1433 1532
f 1517 1507 1477
f 1135 1069 1350
f 1477 1490 1517
f 1069 1076 1357
f 1523 161 1522
f 1517 1519 1507
f 1506 1518 1512
f 1061 1357 1074
f 1076 1074 1357
f 1516 1514 1425
f 1514 1513 1425
f 1513 1435 1425
f 1435 1513 1515
f 1522 107 1516
f 1520 1518 1526
f 1506 1526 1518
f 16 161 4
f 45 16 4
f 1519 1521 1509
f 1400 1127 1407
f 4 1522 3
f 1126 1127 1400
f 1438 1520 1529
f 1425 3 1522
f 1425 1522 1516
f 1523 1522 4
f 1127 1128 1407
f 1346 1485 1130
f 1485 1128 1130
f 1528 1524 155
f 1531 1433 1530
f 1646 1521 1519
f 1526 1529 1520
f 1618 998 1671
f 1438 1529 1538
f 1501 1534 838
f 1531 1530 12
f 1625 998 1618
f 838 1534 844
f 1001 844 21
f 1017 84 1536
f 60 1530 46
f 1534 21 844
f 1510 1537 1501
f 911 1541 1526
f 1543 1546 1446
f 60 12 1530
f 1625 1618 1535
f 1501 1537 1534
f 1536 1535 1539
f 1541 1544 1526
f 1464 1528 12
f 1537 1540 1534
f 1544 1538 1526
f 1528 1464 1524
f 1524 1464 1525
f 1531 12 1528
f 1529 1526 1538
f 1461 1527 1525
f 1398 1446 1546
f 1541 911 1410
f 1528 1533 1532
f 1528 1532 1531
f 21 1534 1540
f 1011 1542 1026
f 98 1612 1693
f 1542 1011 1539
f 1464 12 1286
f 1521 1545 1510
f 1521 1648 1545
f 1537 1510 1545
f 1541 1258 1544
f 1026 1542 1272
f 1543 1272 1542
f 1503 299 301
f 1542 1546 1543
f 1504 301 175
f 1415 1440 499
f 1504 175 1508
f 1410 1423 1541
f 220 1476 1508
f 1541 1423 1258
f 1440 502 499
f 1577 1550 1439
f 1555 1443 1554
f 1539 1548 1552
f 1554 1443 1553
f 1554 1553 1194
f 1439 1550 1556
f 1194 1553 1558
f 1196 1555 1554
f 1196 1554 1194
f 1539 1552 1542
f 1558 1553 1443
f 1198 1194 1558
f 1439 1556 1440
f 233 1557 1549
f 1400 1542 1552
f 502 1440 1556
f 1445 1663 1438
f 1549 1557 1551
f 502 1556 506
f 1557 1559 1551
f 1558 1443 1560
f 1198 1558 1560
f 1126 1400 1552
f 1592 1562 1550
f 1400 1398 1542
f 1398 1546 1542
f 1560 1561 1198
f 1556 1550 1563
f 1443 1438 1560
f 1564 1561 1438
f 1561 1560 1438
f 1550 1562 1563
f 1559 1502 1620
f 1443 1445 1438
f 506 1556 1563
f 1503 1504 1559
f 1203 1198 1561
f 504 503 632
f 1559 1504 1502
f 505 504 632
f 1203 1561 1564
f 1563 1562 1726
f 233 1565 1557
f 503 552 632
f 516 506 1563
f 233 237 1565
f 1726 516 1563
f 1565 1503 1557
f 552 465 632
f 1568 1203 1567
f 472 632 465
f 299 1503 1565
f 1567 1438 1572
f 1570 1431 1430
f 1559 1557 1503
f 1568 1567 1572
f 462 470 1575
f 1570 1430 1566
f 1431 1570 1577
f 1572 1438 1578
f 462 1575 472
f 1578 1576 1579
f 1565 237 761
f 1582 1583 734
f 731 734 1583
f 1565 761 299
f 1439 1432 1577
f 1583 1581 731
f 1579 1568 1578
f 1572 1578 1568
f 1586 1582 734
f 1579 1219 1568
f 734 741 1586
f 1585 1566 1179
f 1586 741 1589
f 1588 1570 1566
f 1677 1678 742
f 1219 1208 1568
f 1566 1585 1588
f 1591 1589 741
f 1570 1588 1592
f 1584 1593 1587
f 1590 1593 1584
f 1570 1592 1577
f 742 805 1680
f 1587 1595 1605
f 1593 1595 1587
f 1577 1592 1550
f 1578 1438 1576
f 1564 1438 1567
f 1438 1594 1576
f 1508 1590 1502
f 1596 1585 1182
f 1682 1681 812
f 1593 1590 1476
f 1603 1579 1602
f 1594 1602 1579
f 812 814 1598
f 1594 1579 1576
f 1182 1184 1596
f 1579 79 1219
f 1585 1596 1599
f 1476 1590 1508
f 1579 1603 79
f 1598 1600 812
f 1600 1682 812
f 1476 1478 1593
f 1594 1438 1602
f 1606 1607 1438
f 1595 1593 1478
f 1617 1597 814
f 814 820 1617
f 1602 1601 1603
f 1478 1484 1595
f 1585 1599 1588
f 1601 1602 1438
f 1595 1484 508
f 1537 1604 1540
f 1545 1604 1537
f 1601 1438 1607
f 1607 1606 1611
f 1606 1610 1611
f 1604 1608 1540
f 1601 1607 1603
f 1605 1595 508
f 1611 1603 1607
f 1611 83 1603
f 1605 508 476
f 1603 83 79
f 1552 1122 1126
f 1631 1610 1438
f 66 1540 1608
f 1016 1625 84
f 1535 84 1625
f 1612 1627 1693
f 1538 1631 1438
f 1535 1536 84
f 1610 1631 1611
f 1608 1612 98
f 217 1450 1630
f 1661 1613 1614
f 1623 1621 1573
f 213 1632 1615
f 1614 1584 1616
f 1622 1571 1621
f 1569 1573 1621
f 1619 1617 820
f 1620 1609 1551
f 1569 1621 1571
f 1551 1559 1620
f 1618 1671 1615
f 1609 1620 1613
f 1622 820 1624
f 1621 820 1622
f 820 1621 1619
f 1619 1621 1623
f 1626 1614 1613
f 1453 1454 821
f 820 821 1454
f 820 1454 1624
f 1620 1626 1613
f 1539 1535 1618
f 1608 1684 1627
f 821 1459 1453
f 1626 1584 1614
f 561 825 1629
f 1608 1627 1612
f 1629 821 561
f 1460 1459 1629
f 1629 1459 821
f 1688 90 1628
f 99 1628 90
f 1611 1097 83
f 1584 1587 1616
f 1640 1097 1611
f 1632 213 1630
f 1688 158 90
f 1450 1633 1630
f 1640 1611 1631
f 1450 1655 1633
f 1630 1633 1632
f 1490 1635 1517
f 1620 1502 1626
f 1634 1635 1490
f 1544 1640 1538
f 1626 1590 1584
f 1615 1632 1636
f 1635 1641 1517
f 1502 1590 1626
f 1213 1215 1634
f 1634 1638 1635
f 1547 1615 1636
f 1215 1638 1634
f 1631 1538 1640
f 1639 554 581
f 1547 1618 1615
f 1215 1231 1638
f 1544 1301 1640
f 1618 1548 1539
f 1547 1548 1618
f 1587 1637 1616
f 1517 1641 1519
f 1587 1605 1637
f 1544 1258 1301
f 1639 1637 1605
f 1555 1196 1443
f 624 1443 1196
f 554 1639 476
f 1605 476 1639
f 1629 825 1644
f 1636 1632 1261
f 600 1642 1643
f 1231 1262 1638
f 1263 1547 1636
f 1261 1263 1636
f 1266 1547 1263
f 1641 1646 1519
f 1644 861 1474
f 1266 1548 1547
f 1474 1479 1644
f 1548 1266 1122
f 1645 581 602
f 1648 1521 1646
f 1548 1122 1552
f 1545 1649 1604
f 1648 1649 1545
f 1651 1653 1450
f 1614 1616 1642
f 1642 1616 1643
f 1650 1641 1635
f 1645 1643 1637
f 1616 1637 1643
f 1639 581 1645
f 1637 1639 1645
f 1282 1284 281
f 1650 1635 1638
f 1575 632 472
f 1692 251 252
f 1652 1641 1650
f 1580 632 1574
f 1574 632 1575
f 1651 228 1284
f 1284 1653 1651
f 1654 1692 252
f 1581 632 1580
f 1641 1652 1646
f 1583 632 1581
f 252 264 1654
f 1655 1632 1633
f 1654 233 1549
f 1646 1656 1648
f 233 1654 264
f 1582 632 1583
f 1582 1586 632
f 1780 330 177
f 1657 1660 1450
f 1657 1450 1653
f 1652 1656 1646
f 624 1445 1443
f 1657 1653 1284
f 1656 1690 1648
f 1448 1647 1449
f 1190 1632 1660
f 1655 1660 1632
f 1647 1454 1449
f 1690 1649 1648
f 1609 1661 1659
f 1655 1450 1660
f 1452 1449 1454
f 1449 1438 1448
f 1663 1445 624
f 1663 624 625
f 1638 1262 1650
f 625 1647 1663
f 1448 1663 1647
f 189 1668 1450
f 1664 1609 1658
f 1664 1551 1609
f 1652 1650 1665
f 148 1450 887
f 887 1450 859
f 1609 1659 1658
f 148 887 56
f 1613 1661 1609
f 1667 1450 1668
f 1666 1665 1650
f 1591 632 1589
f 1586 1589 632
f 722 1450 1667
f 1668 189 190
f 1669 1666 1262
f 1666 1650 1262
f 1600 1598 1573
f 1654 1549 1662
f 1662 1549 1664
f 1668 726 1667
f 190 726 1668
f 1571 1622 1647
f 726 190 1671
f 1670 1707 1665
f 1549 1551 1664
f 190 1615 1671
f 177 251 1708
f 1598 1597 1573
f 726 1671 737
f 737 1671 998
f 1624 1647 1622
f 1623 1573 1619
f 1617 1619 1573
f 1617 1573 1597
f 1708 1691 177
f 1454 1647 1624
f 1571 627 1569
f 1673 1569 627
f 1498 1444 1674
f 1673 629 1569
f 1569 629 1675
f 1569 1675 1573
f 741 742 1678
f 1262 1371 1669
f 1498 1674 344
f 741 1678 1591
f 344 1674 51
f 1687 177 1691
f 742 1680 1677
f 1444 1321 1674
f 1321 294 1674
f 1674 294 51
f 1672 1687 1692
f 1681 1679 805
f 805 812 1681
f 1672 1692 1676
f 1697 1693 1685
f 1685 1693 1627
f 1571 1647 627
f 625 627 1647
f 1699 1700 1693
f 1681 1682 629
f 1682 1600 629
f 1628 99 1693
f 1700 1686 1693
f 1649 1684 1604
f 1604 1684 1608
f 1703 1693 1697
f 1678 1677 632
f 1591 1678 632
f 1685 1627 1684
f 1688 1628 1686
f 1774 177 1689
f 1704 1693 1703
f 1694 1684 1649
f 1677 629 632
f 1686 1628 1693
f 1758 1687 1672
f 1697 1685 1684
f 1689 1687 1758
f 1677 1680 629
f 1679 629 1680
f 629 1679 1681
f 1675 629 1600
f 1573 1675 1600
f 1687 1691 1692
f 1690 1694 1649
f 1704 1718 1693
f 72 74 1693
f 1656 1711 1690
f 1708 1692 1691
f 1696 419 1698
f 421 419 1701
f 1699 1702 1700
f 1702 1688 1700
f 1676 1692 1662
f 1686 1700 1688
f 1713 1721 1695
f 1662 1692 1654
f 1699 1693 1705
f 1694 1704 1703
f 1694 1703 1684
f 1697 1684 1703
f 1676 1662 1683
f 1699 1705 1702
f 1683 1664 1658
f 1702 164 1688
f 1683 1662 1664
f 1688 164 158
f 1652 1665 1707
f 1670 214 1707
f 1588 1709 1592
f 1652 1707 1656
f 251 1692 1708
f 1588 1599 1709
f 1698 420 1710
f 1592 1709 1562
f 1707 1711 1656
f 423 1710 420
f 303 334 1701
f 334 421 1701
f 1698 1716 1696
f 1715 1696 1716
f 1715 1717 1696
f 1659 1661 1733
f 1696 1712 1701
f 1690 1714 1694
f 1237 1713 1695
f 1690 1711 1714
f 1712 1696 1717
f 599 1642 600
f 1599 1760 1709
f 1693 1719 1705
f 1721 1713 1720
f 599 1661 1642
f 1694 1718 1704
f 1721 1715 1706
f 1715 1716 1706
f 1722 1706 1716
f 1769 479 1722
f 1717 1715 1720
f 1643 601 600
f 1721 1720 1715
f 1705 1719 1702
f 236 1702 1719
f 1709 1723 1562
f 1661 1614 1642
f 1211 27 1725
f 1726 1562 1723
f 1211 1725 1727
f 1695 1752 1754
f 1714 1724 1718
f 1694 1714 1718
f 1719 238 236
f 240 164 1702
f 1730 1753 1695
f 1752 1695 1753
f 240 1702 236
f 1735 1695 1754
f 1732 1695 1735
f 1730 1695 1736
f 1723 1734 1737
f 1725 1672 1727
f 1736 1706 1730
f 1738 1695 1721
f 1727 1672 1676
f 1695 1738 1739
f 1739 1736 1695
f 1723 1737 1726
f 1726 1737 521
f 1721 1706 1738
f 1739 1738 1706
f 1727 1676 1728
f 1736 1739 1706
f 1728 1676 1683
f 1722 1716 1710
f 620 521 1737
f 1683 1729 1728
f 1726 521 516
f 15 1724 1714
f 1729 1683 1658
f 226 230 1714
f 1720 1713 1712
f 1329 1345 1713
f 1345 1348 1713
f 1348 1360 1713
f 1729 1658 1731
f 1698 1710 1716
f 1701 1712 1713
f 1659 1733 1731
f 1712 1717 1720
f 1731 1658 1659
f 1735 1778 1732
f 1732 1778 1242
f 1733 1661 599
f 1734 1767 1740
f 1734 528 1737
f 1665 641 1670
f 214 1670 641
f 17 6 20
f 1734 1740 528
f 611 596 1741
f 597 598 1741
f 528 620 1737
f 641 1665 1666
f 1371 641 1669
f 1666 1669 641
f 1687 1689 177
f 1742 1744 1745
f 1742 1745 1743
f 6 1748 20
f 1744 1742 1747
f 1746 1747 1742
f 1746 1742 1749
f 6 14 1748
f 863 238 1693
f 1750 1745 1706
f 1745 1744 1706
f 1751 1706 1744
f 1751 1744 1747
f 1740 533 528
f 1706 1751 1730
f 1753 1730 1751
f 215 54 1707
f 1755 1596 1184
f 1743 1745 1757
f 214 215 1707
f 1755 1184 235
f 1750 1757 1745
f 1596 1755 1759
f 1747 1746 1751
f 1746 1749 1751
f 1366 1751 1749
f 1352 1752 1366
f 1779 1780 177
f 1753 1751 1752
f 1751 1366 1752
f 1724 15 1693
f 1724 1693 1718
f 1755 1764 1759
f 1754 1752 1339
f 1339 1335 1754
f 1335 1255 1754
f 1719 1693 238
f 1759 1599 1596
f 1754 1255 1735
f 1251 1252 1735
f 435 437 1743
f 1711 1707 223
f 440 435 1757
f 1760 1599 1759
f 230 1693 15
f 1743 1757 435
f 1672 1725 1758
f 1723 1709 1760
f 223 226 1711
f 1762 479 1761
f 1760 1734 1723
f 1714 1711 226
f 495 497 479
f 1706 1722 479
f 235 1763 1755
f 1763 235 239
f 1764 1755 1763
f 1748 14 1765
f 248 1763 239
f 1748 1765 1756
f 1750 1706 1766
f 1759 1764 1767
f 1766 329 1757
f 440 1757 329
f 1770 1764 1763
f 1761 1710 1762
f 1779 177 1774
f 430 1762 1710
f 1767 1760 1759
f 1756 1768 1758
f 1761 479 1769
f 1756 1765 1768
f 1734 1760 1767
f 1750 1766 1757
f 1722 1710 1769
f 1761 1769 1710
f 1763 248 1770
f 1764 1771 1767
f 1773 644 1772
f 644 275 1772
f 1764 1770 1771
f 1740 1767 1771
f 1773 274 644
f 274 272 644
f 1772 1706 1773
f 1773 1706 274
f 1283 1770 248
f 1774 1689 1768
f 1689 1758 1768
f 1770 1775 1771
f 644 866 275
f 14 318 1765
f 1192 1776 626
f 1775 1770 1283
f 1775 1777 1771
f 1776 1673 627
f 1776 627 626
f 1673 1776 629
f 630 629 1776
f 978 1781 1775
f 630 1776 631
f 1192 631 1776
f 1775 1781 1777
f 1771 1777 1740
f 1740 1777 533
f 1765 322 1768
f 1283 978 1775
f 656 1782 674
f 1777 536 533
f 659 1782 656
f 1768 1780 1779
f 1777 1781 536
f 1768 1779 1774
f 349 536 1781
f 985 349 1781
f 674 1782 1783
f 659 461 464
f 624 1191 626
f 659 464 1782
f 1137 663 632
f 468 1783 1782
f 657 632 658
f 661 658 632
f 468 471 1783
f 1783 471 1784
f 661 632 663
f 1137 632 1143
f 535 1784 471
f 1143 632 1144
f 1144 632 1146
f 1147 1146 632
f 519 1147 632
f 1787 667 674
f 1787 674 1783
f 1151 1150 631
f 640 631 1150
f 1785 715 712
f 1196 1191 624
f 669 1785 712
f 631 1189 1188
f 1188 1151 631
f 715 1785 1786
f 1189 631 1193
f 648 305 300
f 667 1787 669
f 1064 657 656
f 1788 1791 1065
f 1066 1065 1791
f 1065 1067 1788
f 1787 1789 669
f 667 1791 1788
f 1785 669 1789
f 1789 1790 1785
f 1788 674 667
f 1080 1071 1791
f 1785 1790 1786
f 1786 1790 38
f 1792 711 1793
f 1786 38 1794
f 1083 1066 1791
f 1792 1082 1080
f 1792 1088 1082
f 1789 1787 1784
f 1783 1784 1787
f 1784 44 1789
f 1784 535 44
f 1790 1789 44
f 44 47 1790
f 1790 47 38
f 1793 712 725
f 715 1786 743
f 743 1794 745
f 1791 1792 1080
f 711 1792 1791
f 1786 1794 743
f 1794 31 745
f 1793 711 712
f 1794 282 31
f 38 282 1794
f 1211 1088 1795
f 1795 1796 1211
f 749 746 278
f 746 31 278
f 278 280 749
f 1792 1793 1088
f 1795 1088 1793
f 1793 725 1795
f 1795 725 1796
f 729 1796 725
f 1797 732 1798
f 735 1799 1798
f 732 735 1798
f 1799 822 765
f 1211 1796 1797
f 1797 1798 1211
f 1211 1803 1804
f 1802 1801 947
f 893 1006 1805
f 1805 945 1800
f 1006 945 1805
f 1800 945 946
f 1800 946 1801
f 758 1211 1804
f 946 947 1801
f 1804 1803 1807
f 1804 1808 758
f 1807 1808 1804
f 1802 947 1806
f 947 1033 1806
f 1806 1803 1802
f 1806 1807 1803
f 1033 1809 1806
f 1806 1809 1807
f 1807 8 1808
f 1807 1809 8
f 1434 1391 1808
f 8 1434 1808
f 1033 11 1809
f 1809 11 55
f 8 1809 55
#3614 polygons

