v 0.00000000 0.33547801 1.47599995
v 0.38556004 0.16773900 1.47599995
v 1.05570006 0.33547801 0.54000002
v 0.00000000 0.33547801 1.47599995
v 1.05570006 0.33547801 0.54000002
v 0.00000000 0.67095602 0.54000002
v 0.38556004 0.16773900 1.47599995
v 0.38556004 -0.13464001 1.47599995
v 1.05570006 -0.29620799 0.54000002
v 0.38556004 0.16773900 1.47599995
v 1.05570006 -0.29620799 0.54000002
v 1.05570006 0.33547801 0.54000002
v 0.38556004 -0.13464001 1.47599995
v 0.00000000 -0.26928002 1.47599995
v 0.00000000 -0.59241599 0.54000002
v 0.38556004 -0.13464001 1.47599995
v 0.00000000 -0.59241599 0.54000002
v 1.05570006 -0.29620799 0.54000002
v 0.00000000 -0.26928002 1.47599995
v -0.38556004 -0.13464001 1.47599995
v -1.05570006 -0.29620799 0.54000002
v 0.00000000 -0.26928002 1.47599995
v -1.05570006 -0.29620799 0.54000002
v 0.00000000 -0.59241599 0.54000002
v -0.38556004 -0.13464001 1.47599995
v -0.38556004 0.16773900 1.47599995
v -1.05570006 0.33547801 0.54000002
v -0.38556004 -0.13464001 1.47599995
v -1.05570006 0.33547801 0.54000002
v -1.05570006 -0.29620799 0.54000002
v -0.38556004 0.16773900 1.47599995
v 0.00000000 0.33547801 1.47599995
v 0.00000000 0.67095602 0.54000002
v -0.38556004 0.16773900 1.47599995
v 0.00000000 0.67095602 0.54000002
v -1.05570006 0.33547801 0.54000002
v 0.00000000 0.67095602 0.54000002
v 1.05570006 0.33547801 0.54000002
v 1.14750004 0.36465001 0.00000000
v 0.00000000 0.67095602 0.54000002
v 1.14750004 0.36465001 0.00000000
v 0.00000000 0.72930002 0.00000000
v 1.05570006 0.33547801 0.54000002
v 1.05570006 -0.29620799 0.54000002
v 1.14750004 -0.33660001 0.00000000
v 1.05570006 0.33547801 0.54000002
v 1.14750004 -0.33660001 0.00000000
v 1.14750004 0.36465001 0.00000000
v 1.05570006 -0.29620799 0.54000002
v 0.00000000 -0.59241599 0.54000002
v 0.00000000 -0.67320001 0.00000000
v 1.05570006 -0.29620799 0.54000002
v 0.00000000 -0.67320001 0.00000000
v 1.14750004 -0.33660001 0.00000000
v 0.00000000 -0.59241599 0.54000002
v -1.05570006 -0.29620799 0.54000002
v -1.14750004 -0.33660001 0.00000000
v 0.00000000 -0.59241599 0.54000002
v -1.14750004 -0.33660001 0.00000000
v 0.00000000 -0.67320001 0.00000000
v -1.05570006 -0.29620799 0.54000002
v -1.05570006 0.33547801 0.54000002
v -1.14750004 0.36465001 0.00000000
v -1.05570006 -0.29620799 0.54000002
v -1.14750004 0.36465001 0.00000000
v -1.14750004 -0.33660001 0.00000000
v -1.05570006 0.33547801 0.54000002
v 0.00000000 0.67095602 0.54000002
v 0.00000000 0.72930002 0.00000000
v -1.05570006 0.33547801 0.54000002
v 0.00000000 0.72930002 0.00000000
v -1.14750004 0.36465001 0.00000000
v 0.00000000 0.72930002 0.00000000
v 1.14750004 0.36465001 0.00000000
v 0.89505005 0.19691101 -1.11599994
v 0.00000000 0.72930002 0.00000000
v 0.89505005 0.19691101 -1.11599994
v 0.00000000 0.39382201 -1.11599994
v 1.14750004 0.36465001 0.00000000
v 1.14750004 -0.33660001 0.00000000
v 0.89505005 -0.19522800 -1.11599994
v 1.14750004 0.36465001 0.00000000
v 0.89505005 -0.19522800 -1.11599994
v 0.89505005 0.19691101 -1.11599994
v 1.14750004 -0.33660001 0.00000000
v 0.00000000 -0.67320001 0.00000000
v 0.00000000 -0.39045599 -1.11599994
v 1.14750004 -0.33660001 0.00000000
v 0.00000000 -0.39045599 -1.11599994
v 0.89505005 -0.19522800 -1.11599994
v 0.00000000 -0.67320001 0.00000000
v -1.14750004 -0.33660001 0.00000000
v -0.89505005 -0.19522800 -1.11599994
v 0.00000000 -0.67320001 0.00000000
v -0.89505005 -0.19522800 -1.11599994
v 0.00000000 -0.39045599 -1.11599994
v -1.14750004 -0.33660001 0.00000000
v -1.14750004 0.36465001 0.00000000
v -0.89505005 0.19691101 -1.11599994
v -1.14750004 -0.33660001 0.00000000
v -0.89505005 0.19691101 -1.11599994
v -0.89505005 -0.19522800 -1.11599994
v -1.14750004 0.36465001 0.00000000
v 0.00000000 0.72930002 0.00000000
v 0.00000000 0.39382201 -1.11599994
v -1.14750004 0.36465001 0.00000000
v 0.00000000 0.39382201 -1.11599994
v -0.89505005 0.19691101 -1.11599994
v 0.00000000 0.39382201 -1.11599994
v 0.89505005 0.19691101 -1.11599994
v 0.64260000 0.10939500 -1.51199996
v 0.00000000 0.39382201 -1.11599994
v 0.64260000 0.10939500 -1.51199996
v 0.00000000 0.21879001 -1.51199996
v 0.89505005 0.19691101 -1.11599994
v 0.89505005 -0.19522800 -1.11599994
v 0.64260000 -0.11444400 -1.51199996
v 0.89505005 0.19691101 -1.11599994
v 0.64260000 -0.11444400 -1.51199996
v 0.64260000 0.10939500 -1.51199996
v 0.89505005 -0.19522800 -1.11599994
v 0.00000000 -0.39045599 -1.11599994
v 0.00000000 -0.22888799 -1.51199996
v 0.89505005 -0.19522800 -1.11599994
v 0.00000000 -0.22888799 -1.51199996
v 0.64260000 -0.11444400 -1.51199996
v 0.00000000 -0.39045599 -1.11599994
v -0.89505005 -0.19522800 -1.11599994
v -0.64260000 -0.11444400 -1.51199996
v 0.00000000 -0.39045599 -1.11599994
v -0.64260000 -0.11444400 -1.51199996
v 0.00000000 -0.22888799 -1.51199996
v -0.89505005 -0.19522800 -1.11599994
v -0.89505005 0.19691101 -1.11599994
v -0.64260000 0.10939500 -1.51199996
v -0.89505005 -0.19522800 -1.11599994
v -0.64260000 0.10939500 -1.51199996
v -0.64260000 -0.11444400 -1.51199996
v -0.89505005 0.19691101 -1.11599994
v 0.00000000 0.39382201 -1.11599994
v 0.00000000 0.21879001 -1.51199996
v -0.89505005 0.19691101 -1.11599994
v 0.00000000 0.21879001 -1.51199996
v -0.64260000 0.10939500 -1.51199996
v 0.00000000 0.00000000 1.47599995
v 0.38556004 0.16773900 1.47599995
v 0.00000000 0.33547801 1.47599995
v 0.00000000 0.00000000 1.47599995
v 0.38556004 -0.13464001 1.47599995
v 0.38556004 0.16773900 1.47599995
v 0.00000000 0.00000000 1.47599995
v 0.00000000 -0.26928002 1.47599995
v 0.38556004 -0.13464001 1.47599995
v 0.00000000 0.00000000 1.47599995
v -0.38556004 -0.13464001 1.47599995
v 0.00000000 -0.26928002 1.47599995
v 0.00000000 0.00000000 1.47599995
v -0.38556004 0.16773900 1.47599995
v -0.38556004 -0.13464001 1.47599995
v 0.00000000 0.00000000 1.47599995
v 0.00000000 0.33547801 1.47599995
v -0.38556004 0.16773900 1.47599995
v 0.00000000 0.00000000 -1.51199996
v 0.00000000 0.21879001 -1.51199996
v 0.64260000 0.10939500 -1.51199996
v 0.00000000 0.00000000 -1.51199996
v 0.64260000 0.10939500 -1.51199996
v 0.64260000 -0.11444400 -1.51199996
v 0.00000000 0.00000000 -1.51199996
v 0.64260000 -0.11444400 -1.51199996
v 0.00000000 -0.22888799 -1.51199996
v 0.00000000 0.00000000 -1.51199996
v 0.00000000 -0.22888799 -1.51199996
v -0.64260000 -0.11444400 -1.51199996
v 0.00000000 0.00000000 -1.51199996
v -0.64260000 -0.11444400 -1.51199996
v -0.64260000 0.10939500 -1.51199996
v 0.00000000 0.00000000 -1.51199996
v -0.64260000 0.10939500 -1.51199996
v 0.00000000 0.21879001 -1.51199996
v 1.50000000 0.37400001 0.96000004
v 1.50000000 0.37400001 -0.96000004
v 1.50000000 0.16600001 -0.96000004
v 1.50000000 0.37400001 0.96000004
v 1.50000000 0.16600001 -0.96000004
v 1.50000000 0.16600001 0.96000004
v 3.02999997 0.37400001 0.80000001
v 3.02999997 0.16600001 0.80000001
v 3.02999997 0.16600001 -0.80000001
v 3.02999997 0.37400001 0.80000001
v 3.02999997 0.16600001 -0.80000001
v 3.02999997 0.37400001 -0.80000001
v 1.50000000 0.37400001 0.96000004
v 3.02999997 0.37400001 0.80000001
v 3.02999997 0.37400001 -0.80000001
v 1.50000000 0.37400001 0.96000004
v 3.02999997 0.37400001 -0.80000001
v 1.50000000 0.37400001 -0.96000004
v 1.50000000 0.37400001 -0.96000004
v 3.02999997 0.37400001 -0.80000001
v 3.02999997 0.16600001 -0.80000001
v 1.50000000 0.37400001 -0.96000004
v 3.02999997 0.16600001 -0.80000001
v 1.50000000 0.16600001 -0.96000004
v 1.50000000 0.16600001 -0.96000004
v 3.02999997 0.16600001 -0.80000001
v 3.02999997 0.16600001 0.80000001
v 1.50000000 0.16600001 -0.96000004
v 3.02999997 0.16600001 0.80000001
v 1.50000000 0.16600001 0.96000004
v 1.50000000 0.16600001 0.96000004
v 3.02999997 0.16600001 0.80000001
v 3.02999997 0.37400001 0.80000001
v 1.50000000 0.16600001 0.96000004
v 3.02999997 0.37400001 0.80000001
v 1.50000000 0.37400001 0.96000004
v -1.50000000 0.16600001 0.96000004
v -1.50000000 0.16600001 -0.96000004
v -1.50000000 0.37400001 -0.96000004
v -1.50000000 0.16600001 0.96000004
v -1.50000000 0.37400001 -0.96000004
v -1.50000000 0.37400001 0.96000004
v -3.02999997 0.37400001 -0.80000001
v -3.02999997 0.16600001 -0.80000001
v -3.02999997 0.16600001 0.80000001
v -3.02999997 0.37400001 -0.80000001
v -3.02999997 0.16600001 0.80000001
v -3.02999997 0.37400001 0.80000001
v -1.50000000 0.37400001 -0.96000004
v -3.02999997 0.37400001 -0.80000001
v -3.02999997 0.37400001 0.80000001
v -1.50000000 0.37400001 -0.96000004
v -3.02999997 0.37400001 0.80000001
v -1.50000000 0.37400001 0.96000004
v -1.50000000 0.16600001 -0.96000004
v -3.02999997 0.16600001 -0.80000001
v -3.02999997 0.37400001 -0.80000001
v -1.50000000 0.16600001 -0.96000004
v -3.02999997 0.37400001 -0.80000001
v -1.50000000 0.37400001 -0.96000004
v -1.50000000 0.16600001 0.96000004
v -3.02999997 0.16600001 0.80000001
v -3.02999997 0.16600001 -0.80000001
v -1.50000000 0.16600001 0.96000004
v -3.02999997 0.16600001 -0.80000001
v -1.50000000 0.16600001 -0.96000004
v -1.50000000 0.37400001 0.96000004
v -3.02999997 0.37400001 0.80000001
v -3.02999997 0.16600001 0.80000001
v -1.50000000 0.37400001 0.96000004
v -3.02999997 0.16600001 0.80000001
v -1.50000000 0.16600001 0.96000004
v 1.50000000 -0.16600001 0.96000004
v 1.50000000 -0.16600001 -0.96000004
v 1.50000000 -0.37400001 -0.96000004
v 1.50000000 -0.16600001 0.96000004
v 1.50000000 -0.37400001 -0.96000004
v 1.50000000 -0.37400001 0.96000004
v 3.02999997 -0.16600001 0.80000001
v 3.02999997 -0.37400001 0.80000001
v 3.02999997 -0.37400001 -0.80000001
v 3.02999997 -0.16600001 0.80000001
v 3.02999997 -0.37400001 -0.80000001
v 3.02999997 -0.16600001 -0.80000001
v 1.50000000 -0.16600001 0.96000004
v 3.02999997 -0.16600001 0.80000001
v 3.02999997 -0.16600001 -0.80000001
v 1.50000000 -0.16600001 0.96000004
v 3.02999997 -0.16600001 -0.80000001
v 1.50000000 -0.16600001 -0.96000004
v 1.50000000 -0.16600001 -0.96000004
v 3.02999997 -0.16600001 -0.80000001
v 3.02999997 -0.37400001 -0.80000001
v 1.50000000 -0.16600001 -0.96000004
v 3.02999997 -0.37400001 -0.80000001
v 1.50000000 -0.37400001 -0.96000004
v 1.50000000 -0.37400001 -0.96000004
v 3.02999997 -0.37400001 -0.80000001
v 3.02999997 -0.37400001 0.80000001
v 1.50000000 -0.37400001 -0.96000004
v 3.02999997 -0.37400001 0.80000001
v 1.50000000 -0.37400001 0.96000004
v 1.50000000 -0.37400001 0.96000004
v 3.02999997 -0.37400001 0.80000001
v 3.02999997 -0.16600001 0.80000001
v 1.50000000 -0.37400001 0.96000004
v 3.02999997 -0.16600001 0.80000001
v 1.50000000 -0.16600001 0.96000004
v -1.50000000 -0.37400001 0.96000004
v -1.50000000 -0.37400001 -0.96000004
v -1.50000000 -0.16600001 -0.96000004
v -1.50000000 -0.37400001 0.96000004
v -1.50000000 -0.16600001 -0.96000004
v -1.50000000 -0.16600001 0.96000004
v -3.02999997 -0.16600001 -0.80000001
v -3.02999997 -0.37400001 -0.80000001
v -3.02999997 -0.37400001 0.80000001
v -3.02999997 -0.16600001 -0.80000001
v -3.02999997 -0.37400001 0.80000001
v -3.02999997 -0.16600001 0.80000001
v -1.50000000 -0.16600001 -0.96000004
v -3.02999997 -0.16600001 -0.80000001
v -3.02999997 -0.16600001 0.80000001
v -1.50000000 -0.16600001 -0.96000004
v -3.02999997 -0.16600001 0.80000001
v -1.50000000 -0.16600001 0.96000004
v -1.50000000 -0.37400001 -0.96000004
v -3.02999997 -0.37400001 -0.80000001
v -3.02999997 -0.16600001 -0.80000001
v -1.50000000 -0.37400001 -0.96000004
v -3.02999997 -0.16600001 -0.80000001
v -1.50000000 -0.16600001 -0.96000004
v -1.50000000 -0.37400001 0.96000004
v -3.02999997 -0.37400001 0.80000001
v -3.02999997 -0.37400001 -0.80000001
v -1.50000000 -0.37400001 0.96000004
v -3.02999997 -0.37400001 -0.80000001
v -1.50000000 -0.37400001 -0.96000004
v -1.50000000 -0.16600001 0.96000004
v -3.02999997 -0.16600001 0.80000001
v -3.02999997 -0.37400001 0.80000001
v -1.50000000 -0.16600001 0.96000004
v -3.02999997 -0.37400001 0.80000001
v -1.50000000 -0.37400001 0.96000004
v -1.46355176 -0.23354684 -2.25052691
v -1.46355176 -0.23354684 -0.93652910
v -1.46355176 0.29534951 -0.93652910
v -1.46355176 -0.23354684 -2.25052691
v -1.46355176 0.29534951 -0.93652910
v -1.46355176 0.29534951 -2.25052691
v -1.99244809 -0.23354684 -0.93652910
v -1.99244809 -0.23354684 -2.25052691
v -1.99244809 0.29534951 -2.25052691
v -1.99244809 -0.23354684 -0.93652910
v -1.99244809 0.29534951 -2.25052691
v -1.99244809 0.29534951 -0.93652910
v -1.99244809 0.29534951 -2.25052691
v -1.46355176 0.29534951 -2.25052691
v -1.46355176 0.29534951 -0.93652910
v -1.99244809 0.29534951 -2.25052691
v -1.46355176 0.29534951 -0.93652910
v -1.99244809 0.29534951 -0.93652910
v -1.99244809 -0.23354684 -2.25052691
v -1.99244809 -0.23354684 -0.93652910
v -1.46355176 -0.23354684 -0.93652910
v -1.99244809 -0.23354684 -2.25052691
v -1.46355176 -0.23354684 -0.93652910
v -1.46355176 -0.23354684 -2.25052691
v -1.99244809 -0.23354684 -0.93652910
v -1.99244809 0.29534951 -0.93652910
v -1.46355176 0.29534951 -0.93652910
v -1.99244809 -0.23354684 -0.93652910
v -1.46355176 0.29534951 -0.93652910
v -1.46355176 -0.23354684 -0.93652910
v -1.99244809 -0.23354684 -2.25052691
v -1.46355176 -0.23354684 -2.25052691
v -1.46355176 0.29534951 -2.25052691
v -1.99244809 -0.23354684 -2.25052691
v -1.46355176 0.29534951 -2.25052691
v -1.99244809 0.29534951 -2.25052691
v 1.99244809 -0.23354684 -2.25052691
v 1.99244809 -0.23354684 -0.93652910
v 1.99244809 0.29534951 -0.93652910
v 1.99244809 -0.23354684 -2.25052691
v 1.99244809 0.29534951 -0.93652910
v 1.99244809 0.29534951 -2.25052691
v 1.46355176 -0.23354684 -0.93652910
v 1.46355176 -0.23354684 -2.25052691
v 1.46355176 0.29534951 -2.25052691
v 1.46355176 -0.23354684 -0.93652910
v 1.46355176 0.29534951 -2.25052691
v 1.46355176 0.29534951 -0.93652910
v 1.46355176 0.29534951 -2.25052691
v 1.99244809 0.29534951 -2.25052691
v 1.99244809 0.29534951 -0.93652910
v 1.46355176 0.29534951 -2.25052691
v 1.99244809 0.29534951 -0.93652910
v 1.46355176 0.29534951 -0.93652910
v 1.46355176 -0.23354684 -2.25052691
v 1.46355176 -0.23354684 -0.93652910
v 1.99244809 -0.23354684 -0.93652910
v 1.46355176 -0.23354684 -2.25052691
v 1.99244809 -0.23354684 -0.93652910
v 1.99244809 -0.23354684 -2.25052691
v 1.46355176 -0.23354684 -0.93652910
v 1.46355176 0.29534951 -0.93652910
v 1.99244809 0.29534951 -0.93652910
v 1.46355176 -0.23354684 -0.93652910
v 1.99244809 0.29534951 -0.93652910
v 1.99244809 -0.23354684 -0.93652910
v 1.46355176 -0.23354684 -2.25052691
v 1.99244809 -0.23354684 -2.25052691
v 1.99244809 0.29534951 -2.25052691
v 1.46355176 -0.23354684 -2.25052691
v 1.99244809 0.29534951 -2.25052691
v 1.46355176 0.29534951 -2.25052691
vn 0.36380351 0.83622819 0.41032842
vn 0.36380351 0.83622819 0.41032842
vn 0.36380351 0.83622819 0.41032842
vn 0.28659523 0.90187305 0.32324639
vn 0.28659523 0.90187305 0.32324639
vn 0.28659523 0.90187305 0.32324639
vn 0.81308848 0.00000000 0.58214015
vn 0.81308848 0.00000000 0.58214015
vn 0.81308848 0.00000000 0.58214015
vn 0.81308848 0.00000000 0.58214021
vn 0.81308848 0.00000000 0.58214021
vn 0.81308848 0.00000000 0.58214021
vn 0.31345385 -0.89761788 0.30988532
vn 0.31345385 -0.89761788 0.30988532
vn 0.31345385 -0.89761788 0.30988532
vn 0.25420967 -0.90601605 0.33839670
vn 0.25420967 -0.90601605 0.33839670
vn 0.25420967 -0.90601605 0.33839670
vn -0.30620778 -0.87686771 0.37059388
vn -0.30620778 -0.87686771 0.37059388
vn -0.30620778 -0.87686771 0.37059388
vn -0.25635645 -0.91366726 0.31542605
vn -0.25635645 -0.91366726 0.31542605
vn -0.25635645 -0.91366726 0.31542605
vn -0.81308848 0.00000000 0.58214015
vn -0.81308848 0.00000000 0.58214015
vn -0.81308848 0.00000000 0.58214015
vn -0.81308848 0.00000000 0.58214021
vn -0.81308848 0.00000000 0.58214021
vn -0.81308848 0.00000000 0.58214021
vn -0.37899047 0.87113649 0.31222987
vn -0.37899047 0.87113649 0.31222987
vn -0.37899047 0.87113649 0.31222987
vn -0.28238177 0.88861406 0.36142159
vn -0.28238177 0.88861406 0.36142159
vn -0.28238177 0.88861406 0.36142159
vn 0.30126101 0.94802427 0.10242876
vn 0.30126101 0.94802427 0.10242876
vn 0.30126101 0.94802427 0.10242876
vn 0.30126101 0.94802427 0.10242876
vn 0.30126101 0.94802427 0.10242876
vn 0.30126101 0.94802427 0.10242876
vn 0.98585588 0.00000000 0.16759545
vn 0.98585588 0.00000000 0.16759545
vn 0.98585588 0.00000000 0.16759545
vn 0.98585588 0.00000000 0.16759546
vn 0.98585588 0.00000000 0.16759546
vn 0.98585588 0.00000000 0.16759546
vn 0.26738793 -0.95298398 0.14256643
vn 0.26738793 -0.95298398 0.14256643
vn 0.26738793 -0.95298398 0.14256643
vn 0.27948087 -0.95277584 0.11877938
vn 0.27948087 -0.95277584 0.11877938
vn 0.27948087 -0.95277584 0.11877938
vn -0.26828784 -0.95619124 0.11713202
vn -0.26828784 -0.95619124 0.11713202
vn -0.26828784 -0.95619124 0.11713202
vn -0.27861747 -0.94983232 0.14209494
vn -0.27861747 -0.94983232 0.14209494
vn -0.27861747 -0.94983232 0.14209494
vn -0.98585588 0.00000000 0.16759545
vn -0.98585588 0.00000000 0.16759545
vn -0.98585588 0.00000000 0.16759545
vn -0.98585588 0.00000000 0.16759545
vn -0.98585588 0.00000000 0.16759545
vn -0.98585588 0.00000000 0.16759545
vn -0.30126101 0.94802427 0.10242876
vn -0.30126101 0.94802427 0.10242876
vn -0.30126101 0.94802427 0.10242876
vn -0.30126101 0.94802427 0.10242874
vn -0.30126101 0.94802427 0.10242874
vn -0.30126101 0.94802427 0.10242874
vn 0.29628420 0.93236279 -0.20716001
vn 0.29628420 0.93236279 -0.20716001
vn 0.29628420 0.93236279 -0.20716001
vn 0.20616060 0.93709356 -0.28169739
vn 0.20616060 0.93709356 -0.28169739
vn 0.20616060 0.93709356 -0.28169739
vn 0.97535652 0.00000000 -0.22063509
vn 0.97535652 0.00000000 -0.22063509
vn 0.97535652 0.00000000 -0.22063509
vn 0.97535646 0.00000000 -0.22063507
vn 0.97535646 0.00000000 -0.22063507
vn 0.97535646 0.00000000 -0.22063507
vn 0.27350700 -0.93241030 -0.23623070
vn 0.27350700 -0.93241030 -0.23623070
vn 0.27350700 -0.93241030 -0.23623070
vn 0.21002594 -0.96289319 -0.16948673
vn 0.21002594 -0.96289319 -0.16948673
vn 0.21002594 -0.96289319 -0.16948673
vn -0.27676576 -0.94351971 -0.18212979
vn -0.27676576 -0.94351971 -0.18212979
vn -0.27676576 -0.94351971 -0.18212979
vn -0.20686561 -0.94840431 -0.24028286
vn -0.20686561 -0.94840431 -0.24028286
vn -0.20686561 -0.94840431 -0.24028286
vn -0.97535652 0.00000000 -0.22063509
vn -0.97535652 0.00000000 -0.22063509
vn -0.97535652 0.00000000 -0.22063509
vn -0.97535634 0.00000000 -0.22063506
vn -0.97535634 0.00000000 -0.22063506
vn -0.97535634 0.00000000 -0.22063506
vn -0.29114160 0.91617990 -0.27541059
vn -0.29114160 0.91617990 -0.27541059
vn -0.29114160 0.91617990 -0.27541059
vn -0.21087390 0.95851779 -0.19177057
vn -0.21087390 0.95851779 -0.19177057
vn -0.21087390 0.95851779 -0.19177057
vn 0.20262073 0.92100334 -0.33271247
vn 0.20262073 0.92100334 -0.33271247
vn 0.20262073 0.92100334 -0.33271247
vn 0.15385264 0.90374953 -0.39945731
vn 0.15385264 0.90374953 -0.39945731
vn 0.15385264 0.90374953 -0.39945731
vn 0.84322715 0.00000000 -0.53755736
vn 0.84322715 0.00000000 -0.53755736
vn 0.84322715 0.00000000 -0.53755736
vn 0.84322715 0.00000000 -0.53755736
vn 0.84322715 0.00000000 -0.53755736
vn 0.84322715 0.00000000 -0.53755736
vn 0.19796038 -0.90757704 -0.37029138
vn 0.19796038 -0.90757704 -0.37029138
vn 0.19796038 -0.90757704 -0.37029138
vn 0.16734941 -0.93966258 -0.29837641
vn 0.16734941 -0.93966258 -0.29837641
vn 0.16734941 -0.93966258 -0.29837641
vn -0.20206136 -0.92637855 -0.31779534
vn -0.20206136 -0.92637855 -0.31779534
vn -0.20206136 -0.92637855 -0.31779534
vn -0.16270131 -0.91356331 -0.37273383
vn -0.16270131 -0.91356331 -0.37273383
vn -0.16270131 -0.91356331 -0.37273383
vn -0.84322715 0.00000000 -0.53755736
vn -0.84322715 0.00000000 -0.53755736
vn -0.84322715 0.00000000 -0.53755736
vn -0.84322721 0.00000000 -0.53755736
vn -0.84322721 0.00000000 -0.53755736
vn -0.84322721 0.00000000 -0.53755736
vn -0.19726665 0.89666665 -0.39632663
vn -0.19726665 0.89666665 -0.39632663
vn -0.19726665 0.89666665 -0.39632663
vn -0.15961286 0.93758607 -0.30895972
vn -0.15961286 0.93758607 -0.30895972
vn -0.15961286 0.93758607 -0.30895972
vn 0.00000000 0.00000000 1.00000000
vn 0.00000000 0.00000000 1.00000000
vn 0.00000000 0.00000000 1.00000000
vn -0.00000000 0.00000000 1.00000000
vn -0.00000000 0.00000000 1.00000000
vn -0.00000000 0.00000000 1.00000000
vn 0.00000000 0.00000000 1.00000000
vn 0.00000000 0.00000000 1.00000000
vn 0.00000000 0.00000000 1.00000000
vn 0.00000000 0.00000000 1.00000000
vn 0.00000000 0.00000000 1.00000000
vn 0.00000000 0.00000000 1.00000000
vn 0.00000000 0.00000000 1.00000000
vn 0.00000000 0.00000000 1.00000000
vn 0.00000000 0.00000000 1.00000000
vn 0.00000000 -0.00000000 1.00000000
vn 0.00000000 -0.00000000 1.00000000
vn 0.00000000 -0.00000000 1.00000000
vn 0.00000000 0.00000000 -1.00000000
vn 0.00000000 0.00000000 -1.00000000
vn 0.00000000 0.00000000 -1.00000000
vn 0.00000000 0.00000000 -1.00000000
vn 0.00000000 0.00000000 -1.00000000
vn 0.00000000 0.00000000 -1.00000000
vn 0.00000000 0.00000000 -1.00000000
vn 0.00000000 0.00000000 -1.00000000
vn 0.00000000 0.00000000 -1.00000000
vn 0.00000000 -0.00000000 -1.00000000
vn 0.00000000 -0.00000000 -1.00000000
vn 0.00000000 -0.00000000 -1.00000000
vn -0.00000000 0.00000000 -1.00000000
vn -0.00000000 0.00000000 -1.00000000
vn -0.00000000 0.00000000 -1.00000000
vn 0.00000000 0.00000000 -1.00000000
vn 0.00000000 0.00000000 -1.00000000
vn 0.00000000 0.00000000 -1.00000000
vn -1.00000000 0.00000000 -0.00000000
vn -1.00000000 0.00000000 -0.00000000
vn -1.00000000 0.00000000 -0.00000000
vn -1.00000000 -0.00000000 0.00000000
vn -1.00000000 -0.00000000 0.00000000
vn -1.00000000 -0.00000000 0.00000000
vn 1.00000000 0.00000000 0.00000000
vn 1.00000000 0.00000000 0.00000000
vn 1.00000000 0.00000000 0.00000000
vn 1.00000000 0.00000000 0.00000000
vn 1.00000000 0.00000000 0.00000000
vn 1.00000000 0.00000000 0.00000000
vn 0.00000000 1.00000000 0.00000000
vn 0.00000000 1.00000000 0.00000000
vn 0.00000000 1.00000000 0.00000000
vn 0.00000000 1.00000000 0.00000000
vn 0.00000000 1.00000000 0.00000000
vn 0.00000000 1.00000000 0.00000000
vn 0.10400803 0.00000000 -0.99457651
vn 0.10400803 0.00000000 -0.99457651
vn 0.10400803 0.00000000 -0.99457651
vn 0.10400803 0.00000000 -0.99457651
vn 0.10400803 0.00000000 -0.99457651
vn 0.10400803 0.00000000 -0.99457651
vn 0.00000000 -1.00000000 0.00000000
vn 0.00000000 -1.00000000 0.00000000
vn 0.00000000 -1.00000000 0.00000000
vn 0.00000000 -1.00000000 0.00000000
vn 0.00000000 -1.00000000 0.00000000
vn 0.00000000 -1.00000000 0.00000000
vn 0.10400803 0.00000000 0.99457651
vn 0.10400803 0.00000000 0.99457651
vn 0.10400803 0.00000000 0.99457651
vn 0.10400803 -0.00000000 0.99457651
vn 0.10400803 -0.00000000 0.99457651
vn 0.10400803 -0.00000000 0.99457651
vn 1.00000000 0.00000000 0.00000000
vn 1.00000000 0.00000000 0.00000000
vn 1.00000000 0.00000000 0.00000000
vn 1.00000000 -0.00000000 0.00000000
vn 1.00000000 -0.00000000 0.00000000
vn 1.00000000 -0.00000000 0.00000000
vn -1.00000000 0.00000000 0.00000000
vn -1.00000000 0.00000000 0.00000000
vn -1.00000000 0.00000000 0.00000000
vn -1.00000000 0.00000000 0.00000000
vn -1.00000000 0.00000000 0.00000000
vn -1.00000000 0.00000000 0.00000000
vn 0.00000000 1.00000000 0.00000000
vn 0.00000000 1.00000000 0.00000000
vn 0.00000000 1.00000000 0.00000000
vn 0.00000000 1.00000000 -0.00000000
vn 0.00000000 1.00000000 -0.00000000
vn 0.00000000 1.00000000 -0.00000000
vn -0.10400803 0.00000000 -0.99457651
vn -0.10400803 0.00000000 -0.99457651
vn -0.10400803 0.00000000 -0.99457651
vn -0.10400803 0.00000000 -0.99457651
vn -0.10400803 0.00000000 -0.99457651
vn -0.10400803 0.00000000 -0.99457651
vn 0.00000000 -1.00000000 0.00000000
vn 0.00000000 -1.00000000 0.00000000
vn 0.00000000 -1.00000000 0.00000000
vn 0.00000000 -1.00000000 -0.00000000
vn 0.00000000 -1.00000000 -0.00000000
vn 0.00000000 -1.00000000 -0.00000000
vn -0.10400803 0.00000000 0.99457651
vn -0.10400803 0.00000000 0.99457651
vn -0.10400803 0.00000000 0.99457651
vn -0.10400803 0.00000000 0.99457651
vn -0.10400803 0.00000000 0.99457651
vn -0.10400803 0.00000000 0.99457651
vn -1.00000000 0.00000000 -0.00000000
vn -1.00000000 0.00000000 -0.00000000
vn -1.00000000 0.00000000 -0.00000000
vn -1.00000000 -0.00000000 0.00000000
vn -1.00000000 -0.00000000 0.00000000
vn -1.00000000 -0.00000000 0.00000000
vn 1.00000000 0.00000000 0.00000000
vn 1.00000000 0.00000000 0.00000000
vn 1.00000000 0.00000000 0.00000000
vn 1.00000000 0.00000000 0.00000000
vn 1.00000000 0.00000000 0.00000000
vn 1.00000000 0.00000000 0.00000000
vn 0.00000000 1.00000000 0.00000000
vn 0.00000000 1.00000000 0.00000000
vn 0.00000000 1.00000000 0.00000000
vn 0.00000000 1.00000000 0.00000000
vn 0.00000000 1.00000000 0.00000000
vn 0.00000000 1.00000000 0.00000000
vn 0.10400803 0.00000000 -0.99457651
vn 0.10400803 0.00000000 -0.99457651
vn 0.10400803 0.00000000 -0.99457651
vn 0.10400803 0.00000000 -0.99457651
vn 0.10400803 0.00000000 -0.99457651
vn 0.10400803 0.00000000 -0.99457651
vn 0.00000000 -1.00000000 0.00000000
vn 0.00000000 -1.00000000 0.00000000
vn 0.00000000 -1.00000000 0.00000000
vn 0.00000000 -1.00000000 0.00000000
vn 0.00000000 -1.00000000 0.00000000
vn 0.00000000 -1.00000000 0.00000000
vn 0.10400803 0.00000000 0.99457651
vn 0.10400803 0.00000000 0.99457651
vn 0.10400803 0.00000000 0.99457651
vn 0.10400803 -0.00000000 0.99457651
vn 0.10400803 -0.00000000 0.99457651
vn 0.10400803 -0.00000000 0.99457651
vn 1.00000000 0.00000000 0.00000000
vn 1.00000000 0.00000000 0.00000000
vn 1.00000000 0.00000000 0.00000000
vn 1.00000000 -0.00000000 0.00000000
vn 1.00000000 -0.00000000 0.00000000
vn 1.00000000 -0.00000000 0.00000000
vn -1.00000000 0.00000000 0.00000000
vn -1.00000000 0.00000000 0.00000000
vn -1.00000000 0.00000000 0.00000000
vn -1.00000000 0.00000000 0.00000000
vn -1.00000000 0.00000000 0.00000000
vn -1.00000000 0.00000000 0.00000000
vn 0.00000000 1.00000000 0.00000000
vn 0.00000000 1.00000000 0.00000000
vn 0.00000000 1.00000000 0.00000000
vn 0.00000000 1.00000000 -0.00000000
vn 0.00000000 1.00000000 -0.00000000
vn 0.00000000 1.00000000 -0.00000000
vn -0.10400803 0.00000000 -0.99457651
vn -0.10400803 0.00000000 -0.99457651
vn -0.10400803 0.00000000 -0.99457651
vn -0.10400803 0.00000000 -0.99457651
vn -0.10400803 0.00000000 -0.99457651
vn -0.10400803 0.00000000 -0.99457651
vn 0.00000000 -1.00000000 0.00000000
vn 0.00000000 -1.00000000 0.00000000
vn 0.00000000 -1.00000000 0.00000000
vn 0.00000000 -1.00000000 -0.00000000
vn 0.00000000 -1.00000000 -0.00000000
vn 0.00000000 -1.00000000 -0.00000000
vn -0.10400803 0.00000000 0.99457651
vn -0.10400803 0.00000000 0.99457651
vn -0.10400803 0.00000000 0.99457651
vn -0.10400803 0.00000000 0.99457651
vn -0.10400803 0.00000000 0.99457651
vn -0.10400803 0.00000000 0.99457651
vn -1.00000000 0.00000000 0.00000000
vn -1.00000000 0.00000000 0.00000000
vn -1.00000000 0.00000000 0.00000000
vn -1.00000000 0.00000000 0.00000000
vn -1.00000000 0.00000000 0.00000000
vn -1.00000000 0.00000000 0.00000000
vn 1.00000000 0.00000000 0.00000000
vn 1.00000000 0.00000000 0.00000000
vn 1.00000000 0.00000000 0.00000000
vn 1.00000000 -0.00000000 0.00000000
vn 1.00000000 -0.00000000 0.00000000
vn 1.00000000 -0.00000000 0.00000000
vn 0.00000000 -1.00000000 0.00000000
vn 0.00000000 -1.00000000 0.00000000
vn 0.00000000 -1.00000000 0.00000000
vn 0.00000000 -1.00000000 0.00000000
vn 0.00000000 -1.00000000 0.00000000
vn 0.00000000 -1.00000000 0.00000000
vn 0.00000000 1.00000000 0.00000000
vn 0.00000000 1.00000000 0.00000000
vn 0.00000000 1.00000000 0.00000000
vn 0.00000000 1.00000000 0.00000000
vn 0.00000000 1.00000000 0.00000000
vn 0.00000000 1.00000000 0.00000000
vn 0.00000000 0.00000000 -1.00000000
vn 0.00000000 0.00000000 -1.00000000
vn 0.00000000 0.00000000 -1.00000000
vn 0.00000000 0.00000000 -1.00000000
vn 0.00000000 0.00000000 -1.00000000
vn 0.00000000 0.00000000 -1.00000000
vn 0.00000000 0.00000000 1.00000000
vn 0.00000000 0.00000000 1.00000000
vn 0.00000000 0.00000000 1.00000000
vn 0.00000000 0.00000000 1.00000000
vn 0.00000000 0.00000000 1.00000000
vn 0.00000000 0.00000000 1.00000000
vn -1.00000000 0.00000000 0.00000000
vn -1.00000000 0.00000000 0.00000000
vn -1.00000000 0.00000000 0.00000000
vn -1.00000000 0.00000000 0.00000000
vn -1.00000000 0.00000000 0.00000000
vn -1.00000000 0.00000000 0.00000000
vn 1.00000000 0.00000000 0.00000000
vn 1.00000000 0.00000000 0.00000000
vn 1.00000000 0.00000000 0.00000000
vn 1.00000000 -0.00000000 0.00000000
vn 1.00000000 -0.00000000 0.00000000
vn 1.00000000 -0.00000000 0.00000000
vn 0.00000000 -1.00000000 0.00000000
vn 0.00000000 -1.00000000 0.00000000
vn 0.00000000 -1.00000000 0.00000000
vn 0.00000000 -1.00000000 0.00000000
vn 0.00000000 -1.00000000 0.00000000
vn 0.00000000 -1.00000000 0.00000000
vn 0.00000000 1.00000000 0.00000000
vn 0.00000000 1.00000000 0.00000000
vn 0.00000000 1.00000000 0.00000000
vn 0.00000000 1.00000000 0.00000000
vn 0.00000000 1.00000000 0.00000000
vn 0.00000000 1.00000000 0.00000000
vn 0.00000000 0.00000000 -1.00000000
vn 0.00000000 0.00000000 -1.00000000
vn 0.00000000 0.00000000 -1.00000000
vn 0.00000000 0.00000000 -1.00000000
vn 0.00000000 0.00000000 -1.00000000
vn 0.00000000 0.00000000 -1.00000000
vn 0.00000000 0.00000000 1.00000000
vn 0.00000000 0.00000000 1.00000000
vn 0.00000000 0.00000000 1.00000000
vn 0.00000000 0.00000000 1.00000000
vn 0.00000000 0.00000000 1.00000000
vn 0.00000000 0.00000000 1.00000000
f 1//1 2//2 3//3
f 4//4 5//5 6//6
f 7//7 8//8 9//9
f 10//10 11//11 12//12
f 13//13 14//14 15//15
f 16//16 17//17 18//18
f 19//19 20//20 21//21
f 22//22 23//23 24//24
f 25//25 26//26 27//27
f 28//28 29//29 30//30
f 31//31 32//32 33//33
f 34//34 35//35 36//36
f 37//37 38//38 39//39
f 40//40 41//41 42//42
f 43//43 44//44 45//45
f 46//46 47//47 48//48
f 49//49 50//50 51//51
f 52//52 53//53 54//54
f 55//55 56//56 57//57
f 58//58 59//59 60//60
f 61//61 62//62 63//63
f 64//64 65//65 66//66
f 67//67 68//68 69//69
f 70//70 71//71 72//72
f 73//73 74//74 75//75
f 76//76 77//77 78//78
f 79//79 80//80 81//81
f 82//82 83//83 84//84
f 85//85 86//86 87//87
f 88//88 89//89 90//90
f 91//91 92//92 93//93
f 94//94 95//95 96//96
f 97//97 98//98 99//99
f 100//100 101//101 102//102
f 103//103 104//104 105//105
f 106//106 107//107 108//108
f 109//109 110//110 111//111
f 112//112 113//113 114//114
f 115//115 116//116 117//117
f 118//118 119//119 120//120
f 121//121 122//122 123//123
f 124//124 125//125 126//126
f 127//127 128//128 129//129
f 130//130 131//131 132//132
f 133//133 134//134 135//135
f 136//136 137//137 138//138
f 139//139 140//140 141//141
f 142//142 143//143 144//144
f 145//145 146//146 147//147
f 148//148 149//149 150//150
f 151//151 152//152 153//153
f 154//154 155//155 156//156
f 157//157 158//158 159//159
f 160//160 161//161 162//162
f 163//163 164//164 165//165
f 166//166 167//167 168//168
f 169//169 170//170 171//171
f 172//172 173//173 174//174
f 175//175 176//176 177//177
f 178//178 179//179 180//180
f 181//181 182//182 183//183
f 184//184 185//185 186//186
f 187//187 188//188 189//189
f 190//190 191//191 192//192
f 193//193 194//194 195//195
f 196//196 197//197 198//198
f 199//199 200//200 201//201
f 202//202 203//203 204//204
f 205//205 206//206 207//207
f 208//208 209//209 210//210
f 211//211 212//212 213//213
f 214//214 215//215 216//216
f 217//217 218//218 219//219
f 220//220 221//221 222//222
f 223//223 224//224 225//225
f 226//226 227//227 228//228
f 229//229 230//230 231//231
f 232//232 233//233 234//234
f 235//235 236//236 237//237
f 238//238 239//239 240//240
f 241//241 242//242 243//243
f 244//244 245//245 246//246
f 247//247 248//248 249//249
f 250//250 251//251 252//252
f 253//253 254//254 255//255
f 256//256 257//257 258//258
f 259//259 260//260 261//261
f 262//262 263//263 264//264
f 265//265 266//266 267//267
f 268//268 269//269 270//270
f 271//271 272//272 273//273
f 274//274 275//275 276//276
f 277//277 278//278 279//279
f 280//280 281//281 282//282
f 283//283 284//284 285//285
f 286//286 287//287 288//288
f 289//289 290//290 291//291
f 292//292 293//293 294//294
f 295//295 296//296 297//297
f 298//298 299//299 300//300
f 301//301 302//302 303//303
f 304//304 305//305 306//306
f 307//307 308//308 309//309
f 310//310 311//311 312//312
f 313//313 314//314 315//315
f 316//316 317//317 318//318
f 319//319 320//320 321//321
f 322//322 323//323 324//324
f 325//325 326//326 327//327
f 328//328 329//329 330//330
f 331//331 332//332 333//333
f 334//334 335//335 336//336
f 337//337 338//338 339//339
f 340//340 341//341 342//342
f 343//343 344//344 345//345
f 346//346 347//347 348//348
f 349//349 350//350 351//351
f 352//352 353//353 354//354
f 355//355 356//356 357//357
f 358//358 359//359 360//360
f 361//361 362//362 363//363
f 364//364 365//365 366//366
f 367//367 368//368 369//369
f 370//370 371//371 372//372
f 373//373 374//374 375//375
f 376//376 377//377 378//378
f 379//379 380//380 381//381
f 382//382 383//383 384//384
f 385//385 386//386 387//387
f 388//388 389//389 390//390
f 391//391 392//392 393//393
f 394//394 395//395 396//396
