v 0.00000000 0.17892160 1.97414994
v 0.27643275 0.08946080 1.97414994
v 0.48386252 0.17892160 0.72224998
v 0.00000000 0.17892160 1.97414994
v 0.48386252 0.17892160 0.72224998
v 0.00000000 0.35784319 0.72224998
v 0.27643275 0.08946080 1.97414994
v 0.27643275 -0.07180800 1.97414994
v 0.48386252 -0.15797761 0.72224998
v 0.27643275 0.08946080 1.97414994
v 0.48386252 -0.15797761 0.72224998
v 0.48386252 0.17892160 0.72224998
v 0.27643275 -0.07180800 1.97414994
v 0.00000000 -0.14361601 1.97414994
v 0.00000000 -0.31595522 0.72224998
v 0.27643275 -0.07180800 1.97414994
v 0.00000000 -0.31595522 0.72224998
v 0.48386252 -0.15797761 0.72224998
v 0.00000000 -0.14361601 1.97414994
v -0.27643275 -0.07180800 1.97414994
v -0.48386252 -0.15797761 0.72224998
v 0.00000000 -0.14361601 1.97414994
v -0.48386252 -0.15797761 0.72224998
v 0.00000000 -0.31595522 0.72224998
v -0.27643275 -0.07180800 1.97414994
v -0.27643275 0.08946080 1.97414994
v -0.48386252 0.17892160 0.72224998
v -0.27643275 -0.07180800 1.97414994
v -0.48386252 0.17892160 0.72224998
v -0.48386252 -0.15797761 0.72224998
v -0.27643275 0.08946080 1.97414994
v 0.00000000 0.17892160 1.97414994
v 0.00000000 0.35784319 0.72224998
v -0.27643275 0.08946080 1.97414994
v 0.00000000 0.35784319 0.72224998
v -0.48386252 0.17892160 0.72224998
v 0.00000000 0.35784319 0.72224998
v 0.48386252 0.17892160 0.72224998
v 0.52593750 0.19447999 0.00000000
v 0.00000000 0.35784319 0.72224998
v 0.52593750 0.19447999 0.00000000
v 0.00000000 0.38895997 0.00000000
v 0.48386252 0.17892160 0.72224998
v 0.48386252 -0.15797761 0.72224998
v 0.52593750 -0.17952001 0.00000000
v 0.48386252 0.17892160 0.72224998
v 0.52593750 -0.17952001 0.00000000
v 0.52593750 0.19447999 0.00000000
v 0.48386252 -0.15797761 0.72224998
v 0.00000000 -0.31595522 0.72224998
v 0.00000000 -0.35904002 0.00000000
v 0.48386252 -0.15797761 0.72224998
v 0.00000000 -0.35904002 0.00000000
v 0.52593750 -0.17952001 0.00000000
v 0.00000000 -0.31595522 0.72224998
v -0.48386252 -0.15797761 0.72224998
v -0.52593750 -0.17952001 0.00000000
v 0.00000000 -0.31595522 0.72224998
v -0.52593750 -0.17952001 0.00000000
v 0.00000000 -0.35904002 0.00000000
v -0.48386252 -0.15797761 0.72224998
v -0.48386252 0.17892160 0.72224998
v -0.52593750 0.19447999 0.00000000
v -0.48386252 -0.15797761 0.72224998
v -0.52593750 0.19447999 0.00000000
v -0.52593750 -0.17952001 0.00000000
v -0.48386252 0.17892160 0.72224998
v 0.00000000 0.35784319 0.72224998
v 0.00000000 0.38895997 0.00000000
v -0.48386252 0.17892160 0.72224998
v 0.00000000 0.38895997 0.00000000
v -0.52593750 0.19447999 0.00000000
v 0.00000000 0.38895997 0.00000000
v 0.52593750 0.19447999 0.00000000
v 0.41023126 0.10501920 -1.49264991
v 0.00000000 0.38895997 0.00000000
v 0.41023126 0.10501920 -1.49264991
v 0.00000000 0.21003839 -1.49264991
v 0.52593750 0.19447999 0.00000000
v 0.52593750 -0.17952001 0.00000000
v 0.41023126 -0.10412160 -1.49264991
v 0.52593750 0.19447999 0.00000000
v 0.41023126 -0.10412160 -1.49264991
v 0.41023126 0.10501920 -1.49264991
v 0.52593750 -0.17952001 0.00000000
v 0.00000000 -0.35904002 0.00000000
v 0.00000000 -0.20824319 -1.49264991
v 0.52593750 -0.17952001 0.00000000
v 0.00000000 -0.20824319 -1.49264991
v 0.41023126 -0.10412160 -1.49264991
v 0.00000000 -0.35904002 0.00000000
v -0.52593750 -0.17952001 0.00000000
v -0.41023126 -0.10412160 -1.49264991
v 0.00000000 -0.35904002 0.00000000
v -0.41023126 -0.10412160 -1.49264991
v 0.00000000 -0.20824319 -1.49264991
v -0.52593750 -0.17952001 0.00000000
v -0.52593750 0.19447999 0.00000000
v -0.41023126 0.10501920 -1.49264991
v -0.52593750 -0.17952001 0.00000000
v -0.41023126 0.10501920 -1.49264991
v -0.41023126 -0.10412160 -1.49264991
v -0.52593750 0.19447999 0.00000000
v 0.00000000 0.38895997 0.00000000
v 0.00000000 0.21003839 -1.49264991
v -0.52593750 0.19447999 0.00000000
v 0.00000000 0.21003839 -1.49264991
v -0.41023126 0.10501920 -1.49264991
v 0.00000000 0.21003839 -1.49264991
v 0.41023126 0.10501920 -1.49264991
v 0.29452500 0.05834400 -2.02230000
v 0.00000000 0.21003839 -1.49264991
v 0.29452500 0.05834400 -2.02230000
v 0.00000000 0.11668801 -2.02230000
v 0.41023126 0.10501920 -1.49264991
v 0.41023126 -0.10412160 -1.49264991
v 0.29452500 -0.06103680 -2.02230000
v 0.41023126 0.10501920 -1.49264991
v 0.29452500 -0.06103680 -2.02230000
v 0.29452500 0.05834400 -2.02230000
v 0.41023126 -0.10412160 -1.49264991
v 0.00000000 -0.20824319 -1.49264991
v 0.00000000 -0.12207361 -2.02230000
v 0.41023126 -0.10412160 -1.49264991
v 0.00000000 -0.12207361 -2.02230000
v 0.29452500 -0.06103680 -2.02230000
v 0.00000000 -0.20824319 -1.49264991
v -0.41023126 -0.10412160 -1.49264991
v -0.29452500 -0.06103680 -2.02230000
v 0.00000000 -0.20824319 -1.49264991
v -0.29452500 -0.06103680 -2.02230000
v 0.00000000 -0.12207361 -2.02230000
v -0.41023126 -0.10412160 -1.49264991
v -0.41023126 0.10501920 -1.49264991
v -0.29452500 0.05834400 -2.02230000
v -0.41023126 -0.10412160 -1.49264991
v -0.29452500 0.05834400 -2.02230000
v -0.29452500 -0.06103680 -2.02230000
v -0.41023126 0.10501920 -1.49264991
v 0.00000000 0.21003839 -1.49264991
v 0.00000000 0.11668801 -2.02230000
v -0.41023126 0.10501920 -1.49264991
v 0.00000000 0.11668801 -2.02230000
v -0.29452500 0.05834400 -2.02230000
v 0.00000000 0.00000000 1.97414994
v 0.27643275 0.08946080 1.97414994
v 0.00000000 0.17892160 1.97414994
v 0.00000000 0.00000000 1.97414994
v 0.27643275 -0.07180800 1.97414994
v 0.27643275 0.08946080 1.97414994
v 0.00000000 0.00000000 1.97414994
v 0.00000000 -0.14361601 1.97414994
v 0.27643275 -0.07180800 1.97414994
v 0.00000000 0.00000000 1.97414994
v -0.27643275 -0.07180800 1.97414994
v 0.00000000 -0.14361601 1.97414994
v 0.00000000 0.00000000 1.97414994
v -0.27643275 0.08946080 1.97414994
v -0.27643275 -0.07180800 1.97414994
v 0.00000000 0.00000000 1.97414994
v 0.00000000 0.17892160 1.97414994
v -0.27643275 0.08946080 1.97414994
v 0.00000000 0.00000000 -2.02230000
v 0.00000000 0.11668801 -2.02230000
v 0.29452500 0.05834400 -2.02230000
v 0.00000000 0.00000000 -2.02230000
v 0.29452500 0.05834400 -2.02230000
v 0.29452500 -0.06103680 -2.02230000
v 0.00000000 0.00000000 -2.02230000
v 0.29452500 -0.06103680 -2.02230000
v 0.00000000 -0.12207361 -2.02230000
v 0.00000000 0.00000000 -2.02230000
v 0.00000000 -0.12207361 -2.02230000
v -0.29452500 -0.06103680 -2.02230000
v 0.00000000 0.00000000 -2.02230000
v -0.29452500 -0.06103680 -2.02230000
v -0.29452500 0.05834400 -2.02230000
v 0.00000000 0.00000000 -2.02230000
v -0.29452500 0.05834400 -2.02230000
v 0.00000000 0.11668801 -2.02230000
v 0.57749999 -0.14200000 0.90499997
v 0.57749999 -0.14200000 -2.25500011
v 0.57749999 -0.31800002 -2.25500011
v 0.57749999 -0.14200000 0.90499997
v 0.57749999 -0.31800002 -2.25500011
v 0.57749999 -0.31800002 0.90499997
v 1.93999982 -0.14200000 -0.88700002
v 1.93999982 -0.31800002 -0.88700002
v 1.93999982 -0.31800002 -1.18300009
v 1.93999982 -0.14200000 -0.88700002
v 1.93999982 -0.31800002 -1.18300009
v 1.93999982 -0.14200000 -1.18300009
v 0.57749999 -0.14200000 0.90499997
v 1.93999982 -0.14200000 -0.88700002
v 1.93999982 -0.14200000 -1.18300009
v 0.57749999 -0.14200000 0.90499997
v 1.93999982 -0.14200000 -1.18300009
v 0.57749999 -0.14200000 -2.25500011
v 0.57749999 -0.14200000 -2.25500011
v 1.93999982 -0.14200000 -1.18300009
v 1.93999982 -0.31800002 -1.18300009
v 0.57749999 -0.14200000 -2.25500011
v 1.93999982 -0.31800002 -1.18300009
v 0.57749999 -0.31800002 -2.25500011
v 0.57749999 -0.31800002 -2.25500011
v 1.93999982 -0.31800002 -1.18300009
v 1.93999982 -0.31800002 -0.88700002
v 0.57749999 -0.31800002 -2.25500011
v 1.93999982 -0.31800002 -0.88700002
v 0.57749999 -0.31800002 0.90499997
v 0.57749999 -0.31800002 0.90499997
v 1.93999982 -0.31800002 -0.88700002
v 1.93999982 -0.14200000 -0.88700002
v 0.57749999 -0.31800002 0.90499997
v 1.93999982 -0.14200000 -0.88700002
v 0.57749999 -0.14200000 0.90499997
v -0.57749999 -0.31800002 0.90499997
v -0.57749999 -0.31800002 -2.25500011
v -0.57749999 -0.14200000 -2.25500011
v -0.57749999 -0.31800002 0.90499997
v -0.57749999 -0.14200000 -2.25500011
v -0.57749999 -0.14200000 0.90499997
v -1.93999982 -0.14200000 -1.18300009
v -1.93999982 -0.31800002 -1.18300009
v -1.93999982 -0.31800002 -0.88700002
v -1.93999982 -0.14200000 -1.18300009
v -1.93999982 -0.31800002 -0.88700002
v -1.93999982 -0.14200000 -0.88700002
v -0.57749999 -0.14200000 -2.25500011
v -1.93999982 -0.14200000 -1.18300009
v -1.93999982 -0.14200000 -0.88700002
v -0.57749999 -0.14200000 -2.25500011
v -1.93999982 -0.14200000 -0.88700002
v -0.57749999 -0.14200000 0.90499997
v -0.57749999 -0.31800002 -2.25500011
v -1.93999982 -0.31800002 -1.18300009
v -1.93999982 -0.14200000 -1.18300009
v -0.57749999 -0.31800002 -2.25500011
v -1.93999982 -0.14200000 -1.18300009
v -0.57749999 -0.14200000 -2.25500011
v -0.57749999 -0.31800002 0.90499997
v -1.93999982 -0.31800002 -0.88700002
v -1.93999982 -0.31800002 -1.18300009
v -0.57749999 -0.31800002 0.90499997
v -1.93999982 -0.31800002 -1.18300009
v -0.57749999 -0.31800002 -2.25500011
v -0.57749999 -0.14200000 0.90499997
v -1.93999982 -0.14200000 -0.88700002
v -1.93999982 -0.31800002 -0.88700002
v -0.57749999 -0.14200000 0.90499997
v -1.93999982 -0.31800002 -0.88700002
v -0.57749999 -0.31800002 0.90499997
v -0.81219888 -0.20607495 -2.45554447
v -0.81219888 -0.20607495 -0.97824001
v -0.81219888 0.24905294 -0.97824001
v -0.81219888 -0.20607495 -2.45554447
v -0.81219888 0.24905294 -0.97824001
v -0.81219888 0.24905294 -2.45554447
v -1.26732683 -0.20607495 -0.97824001
v -1.26732683 -0.20607495 -2.45554447
v -1.26732683 0.24905294 -2.45554447
v -1.26732683 -0.20607495 -0.97824001
v -1.26732683 0.24905294 -2.45554447
v -1.26732683 0.24905294 -0.97824001
v -1.26732683 0.24905294 -2.45554447
v -0.81219888 0.24905294 -2.45554447
v -0.81219888 0.24905294 -0.97824001
v -1.26732683 0.24905294 -2.45554447
v -0.81219888 0.24905294 -0.97824001
v -1.26732683 0.24905294 -0.97824001
v -1.26732683 -0.20607495 -2.45554447
v -1.26732683 -0.20607495 -0.97824001
v -0.81219888 -0.20607495 -0.97824001
v -1.26732683 -0.20607495 -2.45554447
v -0.81219888 -0.20607495 -0.97824001
v -0.81219888 -0.20607495 -2.45554447
v -1.26732683 -0.20607495 -0.97824001
v -1.26732683 0.24905294 -0.97824001
v -0.81219888 0.24905294 -0.97824001
v -1.26732683 -0.20607495 -0.97824001
v -0.81219888 0.24905294 -0.97824001
v -0.81219888 -0.20607495 -0.97824001
v -1.26732683 -0.20607495 -2.45554447
v -0.81219888 -0.20607495 -2.45554447
v -0.81219888 0.24905294 -2.45554447
v -1.26732683 -0.20607495 -2.45554447
v -0.81219888 0.24905294 -2.45554447
v -1.26732683 0.24905294 -2.45554447
v 1.26732683 -0.20607495 -2.45554447
v 1.26732683 -0.20607495 -0.97824001
v 1.26732683 0.24905294 -0.97824001
v 1.26732683 -0.20607495 -2.45554447
v 1.26732683 0.24905294 -0.97824001
v 1.26732683 0.24905294 -2.45554447
v 0.81219888 -0.20607495 -0.97824001
v 0.81219888 -0.20607495 -2.45554447
v 0.81219888 0.24905294 -2.45554447
v 0.81219888 -0.20607495 -0.97824001
v 0.81219888 0.24905294 -2.45554447
v 0.81219888 0.24905294 -0.97824001
v 0.81219888 0.24905294 -2.45554447
v 1.26732683 0.24905294 -2.45554447
v 1.26732683 0.24905294 -0.97824001
v 0.81219888 0.24905294 -2.45554447
v 1.26732683 0.24905294 -0.97824001
v 0.81219888 0.24905294 -0.97824001
v 0.81219888 -0.20607495 -2.45554447
v 0.81219888 -0.20607495 -0.97824001
v 1.26732683 -0.20607495 -0.97824001
v 0.81219888 -0.20607495 -2.45554447
v 1.26732683 -0.20607495 -0.97824001
v 1.26732683 -0.20607495 -2.45554447
v 0.81219888 -0.20607495 -0.97824001
v 0.81219888 0.24905294 -0.97824001
v 1.26732683 0.24905294 -0.97824001
v 0.81219888 -0.20607495 -0.97824001
v 1.26732683 0.24905294 -0.97824001
v 1.26732683 -0.20607495 -0.97824001
v 0.81219888 -0.20607495 -2.45554447
v 1.26732683 -0.20607495 -2.45554447
v 1.26732683 0.24905294 -2.45554447
v 0.81219888 -0.20607495 -2.45554447
v 1.26732683 0.24905294 -2.45554447
v 0.81219888 0.24905294 -2.45554447
vn 0.30574593 0.94475120 0.11817159
vn 0.30574593 0.94475120 0.11817159
vn 0.30574593 0.94475120 0.11817159
vn 0.34375080 0.92961466 0.13286057
vn 0.34375080 0.92961466 0.13286057
vn 0.34375080 0.92961466 0.13286057
vn 0.98654944 0.00000000 0.16346331
vn 0.98654944 0.00000000 0.16346331
vn 0.98654944 0.00000000 0.16346331
vn 0.98654938 0.00000000 0.16346332
vn 0.98654938 0.00000000 0.16346332
vn 0.98654938 0.00000000 0.16346332
vn 0.24921982 -0.95939893 0.13207291
vn 0.24921982 -0.95939893 0.13207291
vn 0.24921982 -0.95939893 0.13207291
vn 0.30827153 -0.94419110 0.11606780
vn 0.30827153 -0.94419110 0.11606780
vn 0.30827153 -0.94419110 0.11606780
vn -0.24996124 -0.96225315 0.10764949
vn -0.24996124 -0.96225315 0.10764949
vn -0.24996124 -0.96225315 0.10764949
vn -0.30774534 -0.94257939 0.12975748
vn -0.30774534 -0.94257939 0.12975748
vn -0.30774534 -0.94257939 0.12975748
vn -0.98654944 0.00000000 0.16346331
vn -0.98654944 0.00000000 0.16346331
vn -0.98654944 0.00000000 0.16346331
vn -0.98654938 0.00000000 0.16346329
vn -0.98654938 0.00000000 0.16346329
vn -0.98654938 0.00000000 0.16346329
vn -0.30509576 0.94274211 0.13473675
vn -0.30509576 0.94274211 0.13473675
vn -0.30509576 0.94274211 0.13473675
vn -0.34416884 0.93074507 0.12353707
vn -0.34416884 0.93074507 0.12353707
vn -0.34416884 0.93074507 0.12353707
vn 0.34654269 0.93716478 0.04037599
vn 0.34654269 0.93716478 0.04037599
vn 0.34654269 0.93716478 0.04037599
vn 0.34654275 0.93716490 0.04037599
vn 0.34654275 0.93716490 0.04037599
vn 0.34654275 0.93716490 0.04037599
vn 0.99830741 0.00000000 0.05815682
vn 0.99830741 0.00000000 0.05815682
vn 0.99830741 0.00000000 0.05815682
vn 0.99830753 0.00000000 0.05815683
vn 0.99830753 0.00000000 0.05815683
vn 0.99830753 0.00000000 0.05815683
vn 0.30987144 -0.94909132 0.05661670
vn 0.30987144 -0.94909132 0.05661670
vn 0.30987144 -0.94909132 0.05661670
vn 0.32267672 -0.94534183 0.04699418
vn 0.32267672 -0.94534183 0.04699418
vn 0.32267672 -0.94534183 0.04699418
vn -0.31003517 -0.94959283 0.04638454
vn -0.31003517 -0.94959283 0.04638454
vn -0.31003517 -0.94959283 0.04638454
vn -0.32252005 -0.94488287 0.05636565
vn -0.32252005 -0.94488287 0.05636565
vn -0.32252005 -0.94488287 0.05636565
vn -0.99830741 0.00000000 0.05815682
vn -0.99830741 0.00000000 0.05815682
vn -0.99830741 0.00000000 0.05815682
vn -0.99830753 0.00000000 0.05815683
vn -0.99830753 0.00000000 0.05815683
vn -0.99830753 0.00000000 0.05815683
vn -0.34654269 0.93716478 0.04037599
vn -0.34654269 0.93716478 0.04037599
vn -0.34654269 0.93716478 0.04037599
vn -0.34654272 0.93716490 0.04037599
vn -0.34654272 0.93716490 0.04037599
vn -0.34654272 0.93716490 0.04037599
vn 0.34563422 0.93470794 -0.08281364
vn 0.34563422 0.93470794 -0.08281364
vn 0.34563422 0.93470794 -0.08281364
vn 0.24634704 0.96229309 -0.11534855
vn 0.24634704 0.96229309 -0.11534855
vn 0.24634704 0.96229309 -0.11534855
vn 0.99700898 0.00000000 -0.07728548
vn 0.99700898 0.00000000 -0.07728548
vn 0.99700898 0.00000000 -0.07728548
vn 0.99700898 0.00000000 -0.07728548
vn 0.99700898 0.00000000 -0.07728548
vn 0.99700898 0.00000000 -0.07728548
vn 0.32156721 -0.94209141 -0.09517597
vn 0.32156721 -0.94209141 -0.09517597
vn 0.32156721 -0.94209141 -0.09517597
vn 0.24544421 -0.96703172 -0.06787398
vn 0.24544421 -0.96703172 -0.06787398
vn 0.24544421 -0.96703172 -0.06787398
vn -0.32217991 -0.94388640 -0.07265318
vn -0.32217991 -0.94388640 -0.07265318
vn -0.32217991 -0.94388640 -0.07265318
vn -0.24484046 -0.96465307 -0.09745529
vn -0.24484046 -0.96465307 -0.09745529
vn -0.24484046 -0.96465307 -0.09745529
vn -0.99700898 0.00000000 -0.07728548
vn -0.99700898 0.00000000 -0.07728548
vn -0.99700898 0.00000000 -0.07728548
vn -0.99700904 0.00000000 -0.07728547
vn -0.99700904 0.00000000 -0.07728547
vn -0.99700904 0.00000000 -0.07728547
vn -0.34465414 0.93205756 -0.11172426
vn -0.34465414 0.93205756 -0.11172426
vn -0.34465414 0.93205756 -0.11172426
vn -0.24726503 0.96587902 -0.07705653
vn -0.24726503 0.96587902 -0.07705653
vn -0.24726503 0.96587902 -0.07705653
vn 0.24562228 0.95946211 -0.13821033
vn 0.24562228 0.95946211 -0.13821033
vn 0.24562228 0.95946211 -0.13821033
vn 0.19147857 0.96659851 -0.17036219
vn 0.19147857 0.96659851 -0.17036219
vn 0.19147857 0.96659851 -0.17036219
vn 0.97695959 0.00000000 -0.21342456
vn 0.97695959 0.00000000 -0.21342456
vn 0.97695959 0.00000000 -0.21342456
vn 0.97695947 0.00000000 -0.21342455
vn 0.97695947 0.00000000 -0.21342455
vn 0.97695947 0.00000000 -0.21342455
vn 0.24300866 -0.95743591 -0.15576671
vn 0.24300866 -0.95743591 -0.15576671
vn 0.24300866 -0.95743591 -0.15576671
vn 0.20138437 -0.97175354 -0.12304205
vn 0.20138437 -0.97175354 -0.12304205
vn 0.20138437 -0.97175354 -0.12304205
vn -0.24387719 -0.96085781 -0.13143863
vn -0.24387719 -0.96085781 -0.13143863
vn -0.24387719 -0.96085781 -0.13143863
vn -0.20039934 -0.96700025 -0.15732275
vn -0.20039934 -0.96700025 -0.15732275
vn -0.20039934 -0.96700025 -0.15732275
vn -0.97695959 0.00000000 -0.21342456
vn -0.97695959 0.00000000 -0.21342456
vn -0.97695959 0.00000000 -0.21342456
vn -0.97695947 0.00000000 -0.21342453
vn -0.97695947 0.00000000 -0.21342453
vn -0.97695947 0.00000000 -0.21342453
vn -0.24446452 0.95493960 -0.16830732
vn -0.24446452 0.95493960 -0.16830732
vn -0.24446452 0.95493960 -0.16830732
vn -0.19272484 0.97288978 -0.12783778
vn -0.19272484 0.97288978 -0.12783778
vn -0.19272484 0.97288978 -0.12783778
vn 0.00000000 0.00000000 1.00000000
vn 0.00000000 0.00000000 1.00000000
vn 0.00000000 0.00000000 1.00000000
vn -0.00000000 0.00000000 1.00000000
vn -0.00000000 0.00000000 1.00000000
vn -0.00000000 0.00000000 1.00000000
vn 0.00000000 0.00000000 1.00000000
vn 0.00000000 0.00000000 1.00000000
vn 0.00000000 0.00000000 1.00000000
vn 0.00000000 0.00000000 1.00000000
vn 0.00000000 0.00000000 1.00000000
vn 0.00000000 0.00000000 1.00000000
vn 0.00000000 0.00000000 1.00000000
vn 0.00000000 0.00000000 1.00000000
vn 0.00000000 0.00000000 1.00000000
vn 0.00000000 -0.00000000 1.00000000
vn 0.00000000 -0.00000000 1.00000000
vn 0.00000000 -0.00000000 1.00000000
vn 0.00000000 0.00000000 -1.00000000
vn 0.00000000 0.00000000 -1.00000000
vn 0.00000000 0.00000000 -1.00000000
vn 0.00000000 0.00000000 -1.00000000
vn 0.00000000 0.00000000 -1.00000000
vn 0.00000000 0.00000000 -1.00000000
vn 0.00000000 0.00000000 -1.00000000
vn 0.00000000 0.00000000 -1.00000000
vn 0.00000000 0.00000000 -1.00000000
vn 0.00000000 -0.00000000 -1.00000000
vn 0.00000000 -0.00000000 -1.00000000
vn 0.00000000 -0.00000000 -1.00000000
vn -0.00000000 0.00000000 -1.00000000
vn -0.00000000 0.00000000 -1.00000000
vn -0.00000000 0.00000000 -1.00000000
vn 0.00000000 0.00000000 -1.00000000
vn 0.00000000 0.00000000 -1.00000000
vn 0.00000000 0.00000000 -1.00000000
vn -1.00000000 0.00000000 -0.00000000
vn -1.00000000 0.00000000 -0.00000000
vn -1.00000000 0.00000000 -0.00000000
vn -1.00000000 -0.00000000 0.00000000
vn -1.00000000 -0.00000000 0.00000000
vn -1.00000000 -0.00000000 0.00000000
vn 1.00000000 0.00000000 0.00000000
vn 1.00000000 0.00000000 0.00000000
vn 1.00000000 0.00000000 0.00000000
vn 1.00000000 0.00000000 0.00000000
vn 1.00000000 0.00000000 0.00000000
vn 1.00000000 0.00000000 0.00000000
vn 0.00000000 1.00000000 0.00000000
vn 0.00000000 1.00000000 0.00000000
vn 0.00000000 1.00000000 0.00000000
vn 0.00000000 1.00000000 0.00000000
vn 0.00000000 1.00000000 0.00000000
vn 0.00000000 1.00000000 0.00000000
vn 0.61834371 0.00000000 -0.78590780
vn 0.61834371 0.00000000 -0.78590780
vn 0.61834371 0.00000000 -0.78590780
vn 0.61834371 0.00000000 -0.78590780
vn 0.61834371 0.00000000 -0.78590780
vn 0.61834371 0.00000000 -0.78590780
vn 0.00000000 -1.00000000 0.00000000
vn 0.00000000 -1.00000000 0.00000000
vn 0.00000000 -1.00000000 0.00000000
vn 0.00000000 -1.00000000 0.00000000
vn 0.00000000 -1.00000000 0.00000000
vn 0.00000000 -1.00000000 0.00000000
vn 0.79603809 0.00000000 0.60524648
vn 0.79603809 0.00000000 0.60524648
vn 0.79603809 0.00000000 0.60524648
vn 0.79603809 -0.00000000 0.60524648
vn 0.79603809 -0.00000000 0.60524648
vn 0.79603809 -0.00000000 0.60524648
vn 1.00000000 0.00000000 0.00000000
vn 1.00000000 0.00000000 0.00000000
vn 1.00000000 0.00000000 0.00000000
vn 1.00000000 -0.00000000 0.00000000
vn 1.00000000 -0.00000000 0.00000000
vn 1.00000000 -0.00000000 0.00000000
vn -1.00000000 0.00000000 0.00000000
vn -1.00000000 0.00000000 0.00000000
vn -1.00000000 0.00000000 0.00000000
vn -1.00000000 0.00000000 0.00000000
vn -1.00000000 0.00000000 0.00000000
vn -1.00000000 0.00000000 0.00000000
vn 0.00000000 1.00000000 0.00000000
vn 0.00000000 1.00000000 0.00000000
vn 0.00000000 1.00000000 0.00000000
vn 0.00000000 1.00000000 -0.00000000
vn 0.00000000 1.00000000 -0.00000000
vn 0.00000000 1.00000000 -0.00000000
vn -0.61834371 0.00000000 -0.78590780
vn -0.61834371 0.00000000 -0.78590780
vn -0.61834371 0.00000000 -0.78590780
vn -0.61834371 0.00000000 -0.78590780
vn -0.61834371 0.00000000 -0.78590780
vn -0.61834371 0.00000000 -0.78590780
vn 0.00000000 -1.00000000 0.00000000
vn 0.00000000 -1.00000000 0.00000000
vn 0.00000000 -1.00000000 0.00000000
vn 0.00000000 -1.00000000 -0.00000000
vn 0.00000000 -1.00000000 -0.00000000
vn 0.00000000 -1.00000000 -0.00000000
vn -0.79603809 0.00000000 0.60524648
vn -0.79603809 0.00000000 0.60524648
vn -0.79603809 0.00000000 0.60524648
vn -0.79603809 0.00000000 0.60524648
vn -0.79603809 0.00000000 0.60524648
vn -0.79603809 0.00000000 0.60524648
vn -0.99999994 0.00000000 0.00000000
vn -0.99999994 0.00000000 0.00000000
vn -0.99999994 0.00000000 0.00000000
vn -0.99999994 0.00000000 0.00000000
vn -0.99999994 0.00000000 0.00000000
vn -0.99999994 0.00000000 0.00000000
vn 0.99999994 0.00000000 0.00000000
vn 0.99999994 0.00000000 0.00000000
vn 0.99999994 0.00000000 0.00000000
vn 0.99999994 -0.00000000 0.00000000
vn 0.99999994 -0.00000000 0.00000000
vn 0.99999994 -0.00000000 0.00000000
vn 0.00000000 -1.00000000 0.00000000
vn 0.00000000 -1.00000000 0.00000000
vn 0.00000000 -1.00000000 0.00000000
vn 0.00000000 -1.00000000 0.00000000
vn 0.00000000 -1.00000000 0.00000000
vn 0.00000000 -1.00000000 0.00000000
vn 0.00000000 1.00000000 0.00000000
vn 0.00000000 1.00000000 0.00000000
vn 0.00000000 1.00000000 0.00000000
vn 0.00000000 1.00000000 0.00000000
vn 0.00000000 1.00000000 0.00000000
vn 0.00000000 1.00000000 0.00000000
vn 0.00000000 0.00000000 -1.00000000
vn 0.00000000 0.00000000 -1.00000000
vn 0.00000000 0.00000000 -1.00000000
vn 0.00000000 0.00000000 -1.00000000
vn 0.00000000 0.00000000 -1.00000000
vn 0.00000000 0.00000000 -1.00000000
vn 0.00000000 0.00000000 1.00000000
vn 0.00000000 0.00000000 1.00000000
vn 0.00000000 0.00000000 1.00000000
vn 0.00000000 0.00000000 1.00000000
vn 0.00000000 0.00000000 1.00000000
vn 0.00000000 0.00000000 1.00000000
vn -0.99999994 0.00000000 0.00000000
vn -0.99999994 0.00000000 0.00000000
vn -0.99999994 0.00000000 0.00000000
vn -0.99999994 0.00000000 0.00000000
vn -0.99999994 0.00000000 0.00000000
vn -0.99999994 0.00000000 0.00000000
vn 0.99999994 0.00000000 0.00000000
vn 0.99999994 0.00000000 0.00000000
vn 0.99999994 0.00000000 0.00000000
vn 0.99999994 -0.00000000 0.00000000
vn 0.99999994 -0.00000000 0.00000000
vn 0.99999994 -0.00000000 0.00000000
vn 0.00000000 -1.00000000 0.00000000
vn 0.00000000 -1.00000000 0.00000000
vn 0.00000000 -1.00000000 0.00000000
vn 0.00000000 -1.00000000 0.00000000
vn 0.00000000 -1.00000000 0.00000000
vn 0.00000000 -1.00000000 0.00000000
vn 0.00000000 1.00000000 0.00000000
vn 0.00000000 1.00000000 0.00000000
vn 0.00000000 1.00000000 0.00000000
vn 0.00000000 1.00000000 0.00000000
vn 0.00000000 1.00000000 0.00000000
vn 0.00000000 1.00000000 0.00000000
vn 0.00000000 0.00000000 -1.00000000
vn 0.00000000 0.00000000 -1.00000000
vn 0.00000000 0.00000000 -1.00000000
vn 0.00000000 0.00000000 -1.00000000
vn 0.00000000 0.00000000 -1.00000000
vn 0.00000000 0.00000000 -1.00000000
vn 0.00000000 0.00000000 1.00000000
vn 0.00000000 0.00000000 1.00000000
vn 0.00000000 0.00000000 1.00000000
vn 0.00000000 0.00000000 1.00000000
vn 0.00000000 0.00000000 1.00000000
vn 0.00000000 0.00000000 1.00000000
f 1//1 2//2 3//3
f 4//4 5//5 6//6
f 7//7 8//8 9//9
f 10//10 11//11 12//12
f 13//13 14//14 15//15
f 16//16 17//17 18//18
f 19//19 20//20 21//21
f 22//22 23//23 24//24
f 25//25 26//26 27//27
f 28//28 29//29 30//30
f 31//31 32//32 33//33
f 34//34 35//35 36//36
f 37//37 38//38 39//39
f 40//40 41//41 42//42
f 43//43 44//44 45//45
f 46//46 47//47 48//48
f 49//49 50//50 51//51
f 52//52 53//53 54//54
f 55//55 56//56 57//57
f 58//58 59//59 60//60
f 61//61 62//62 63//63
f 64//64 65//65 66//66
f 67//67 68//68 69//69
f 70//70 71//71 72//72
f 73//73 74//74 75//75
f 76//76 77//77 78//78
f 79//79 80//80 81//81
f 82//82 83//83 84//84
f 85//85 86//86 87//87
f 88//88 89//89 90//90
f 91//91 92//92 93//93
f 94//94 95//95 96//96
f 97//97 98//98 99//99
f 100//100 101//101 102//102
f 103//103 104//104 105//105
f 106//106 107//107 108//108
f 109//109 110//110 111//111
f 112//112 113//113 114//114
f 115//115 116//116 117//117
f 118//118 119//119 120//120
f 121//121 122//122 123//123
f 124//124 125//125 126//126
f 127//127 128//128 129//129
f 130//130 131//131 132//132
f 133//133 134//134 135//135
f 136//136 137//137 138//138
f 139//139 140//140 141//141
f 142//142 143//143 144//144
f 145//145 146//146 147//147
f 148//148 149//149 150//150
f 151//151 152//152 153//153
f 154//154 155//155 156//156
f 157//157 158//158 159//159
f 160//160 161//161 162//162
f 163//163 164//164 165//165
f 166//166 167//167 168//168
f 169//169 170//170 171//171
f 172//172 173//173 174//174
f 175//175 176//176 177//177
f 178//178 179//179 180//180
f 181//181 182//182 183//183
f 184//184 185//185 186//186
f 187//187 188//188 189//189
f 190//190 191//191 192//192
f 193//193 194//194 195//195
f 196//196 197//197 198//198
f 199//199 200//200 201//201
f 202//202 203//203 204//204
f 205//205 206//206 207//207
f 208//208 209//209 210//210
f 211//211 212//212 213//213
f 214//214 215//215 216//216
f 217//217 218//218 219//219
f 220//220 221//221 222//222
f 223//223 224//224 225//225
f 226//226 227//227 228//228
f 229//229 230//230 231//231
f 232//232 233//233 234//234
f 235//235 236//236 237//237
f 238//238 239//239 240//240
f 241//241 242//242 243//243
f 244//244 245//245 246//246
f 247//247 248//248 249//249
f 250//250 251//251 252//252
f 253//253 254//254 255//255
f 256//256 257//257 258//258
f 259//259 260//260 261//261
f 262//262 263//263 264//264
f 265//265 266//266 267//267
f 268//268 269//269 270//270
f 271//271 272//272 273//273
f 274//274 275//275 276//276
f 277//277 278//278 279//279
f 280//280 281//281 282//282
f 283//283 284//284 285//285
f 286//286 287//287 288//288
f 289//289 290//290 291//291
f 292//292 293//293 294//294
f 295//295 296//296 297//297
f 298//298 299//299 300//300
f 301//301 302//302 303//303
f 304//304 305//305 306//306
f 307//307 308//308 309//309
f 310//310 311//311 312//312
f 313//313 314//314 315//315
f 316//316 317//317 318//318
f 319//319 320//320 321//321
f 322//322 323//323 324//324
